  0
SECTION
  2
HEADER
  9
$ACADVER
  1
AC1015
  9
$ACADMAINTVER
 70
     6
  9
$DWGCODEPAGE
  3
ANSI_1252
  9
$INSBASE
 10
0.0
 20
0.0
 30
0.0
  9
$EXTMIN
 10
10.3439860631
 20
6.1111715437
 30
0.0
  9
$EXTMAX
 10
23.1188057549
 20
13.559257045
 30
0.0
  9
$LIMMIN
 10
0.0
 20
0.0
  9
$LIMMAX
 10
12.0
 20
9.0
  9
$ORTHOMODE
 70
     0
  9
$REGENMODE
 70
     1
  9
$FILLMODE
 70
     1
  9
$QTEXTMODE
 70
     0
  9
$MIRRTEXT
 70
     1
  9
$LTSCALE
 40
1.0
  9
$ATTMODE
 70
     1
  9
$TEXTSIZE
 40
0.125
  9
$TRACEWID
 40
0.05
  9
$TEXTSTYLE
  7
Standard
  9
$CLAYER
  8
0
  9
$CELTYPE
  6
ByLayer
  9
$CECOLOR
 62
   256
  9
$CELTSCALE
 40
1.0
  9
$DISPSILH
 70
     0
  9
$DIMSCALE
 40
1.0
  9
$DIMASZ
 40
0.13
  9
$DIMEXO
 40
0.05
  9
$DIMDLI
 40
0.38
  9
$DIMRND
 40
0.0
  9
$DIMDLE
 40
0.0
  9
$DIMEXE
 40
0.125
  9
$DIMTP
 40
0.0
  9
$DIMTM
 40
0.0
  9
$DIMTXT
 40
0.125
  9
$DIMCEN
 40
0.09
  9
$DIMTSZ
 40
0.0
  9
$DIMTOL
 70
     0
  9
$DIMLIM
 70
     0
  9
$DIMTIH
 70
     1
  9
$DIMTOH
 70
     1
  9
$DIMSE1
 70
     0
  9
$DIMSE2
 70
     0
  9
$DIMTAD
 70
     0
  9
$DIMZIN
 70
     0
  9
$DIMBLK
  1

  9
$DIMASO
 70
     1
  9
$DIMSHO
 70
     1
  9
$DIMPOST
  1

  9
$DIMAPOST
  1

  9
$DIMALT
 70
     0
  9
$DIMALTD
 70
     2
  9
$DIMALTF
 40
25.4
  9
$DIMLFAC
 40
1.0
  9
$DIMTOFL
 70
     0
  9
$DIMTVP
 40
0.0
  9
$DIMTIX
 70
     0
  9
$DIMSOXD
 70
     0
  9
$DIMSAH
 70
     0
  9
$DIMBLK1
  1

  9
$DIMBLK2
  1

  9
$DIMSTYLE
  2
Standard
  9
$DIMCLRD
 70
     0
  9
$DIMCLRE
 70
     0
  9
$DIMCLRT
 70
     0
  9
$DIMTFAC
 40
1.0
  9
$DIMGAP
 40
0.06
  9
$DIMJUST
 70
     0
  9
$DIMSD1
 70
     0
  9
$DIMSD2
 70
     0
  9
$DIMTOLJ
 70
     1
  9
$DIMTZIN
 70
     0
  9
$DIMALTZ
 70
     0
  9
$DIMALTTZ
 70
     0
  9
$DIMUPT
 70
     0
  9
$DIMDEC
 70
     2
  9
$DIMTDEC
 70
     2
  9
$DIMALTU
 70
     2
  9
$DIMALTTD
 70
     2
  9
$DIMTXSTY
  7
Standard
  9
$DIMAUNIT
 70
     0
  9
$DIMADEC
 70
     2
  9
$DIMALTRND
 40
0.0
  9
$DIMAZIN
 70
     0
  9
$DIMDSEP
 70
    46
  9
$DIMATFIT
 70
     3
  9
$DIMFRAC
 70
     0
  9
$DIMLDRBLK
  1

  9
$DIMLUNIT
 70
     2
  9
$DIMLWD
 70
    -2
  9
$DIMLWE
 70
    -2
  9
$DIMTMOVE
 70
     0
  9
$LUNITS
 70
     2
  9
$LUPREC
 70
     2
  9
$SKETCHINC
 40
0.1
  9
$FILLETRAD
 40
0.5
  9
$AUNITS
 70
     0
  9
$AUPREC
 70
     2
  9
$MENU
  1
.
  9
$ELEVATION
 40
0.0
  9
$PELEVATION
 40
0.0
  9
$THICKNESS
 40
0.0
  9
$LIMCHECK
 70
     0
  9
$CHAMFERA
 40
0.0
  9
$CHAMFERB
 40
0.0
  9
$CHAMFERC
 40
0.0
  9
$CHAMFERD
 40
0.0
  9
$SKPOLY
 70
     0
  9
$TDCREATE
 40
2457426.457478414
  9
$TDUCREATE
 40
2457426.790811748
  9
$TDUPDATE
 40
2457426.457503218
  9
$TDUUPDATE
 40
2457426.790836551
  9
$TDINDWG
 40
0.0000000116
  9
$TDUSRTIMER
 40
0.0000000116
  9
$USRTIMER
 70
     1
  9
$ANGBASE
 50
0.0
  9
$ANGDIR
 70
     0
  9
$PDMODE
 70
     0
  9
$PDSIZE
 40
-1.0
  9
$PLINEWID
 40
0.0
  9
$SPLFRAME
 70
     0
  9
$SPLINETYPE
 70
     6
  9
$SPLINESEGS
 70
     8
  9
$HANDSEED
  5
190
  9
$SURFTAB1
 70
     6
  9
$SURFTAB2
 70
     6
  9
$SURFTYPE
 70
     6
  9
$SURFU
 70
     6
  9
$SURFV
 70
     6
  9
$UCSBASE
  2

  9
$UCSNAME
  2

  9
$UCSORG
 10
0.0
 20
0.0
 30
0.0
  9
$UCSXDIR
 10
1.0
 20
0.0
 30
0.0
  9
$UCSYDIR
 10
0.0
 20
1.0
 30
0.0
  9
$UCSORTHOREF
  2

  9
$UCSORTHOVIEW
 70
     0
  9
$UCSORGTOP
 10
0.0
 20
0.0
 30
0.0
  9
$UCSORGBOTTOM
 10
0.0
 20
0.0
 30
0.0
  9
$UCSORGLEFT
 10
0.0
 20
0.0
 30
0.0
  9
$UCSORGRIGHT
 10
0.0
 20
0.0
 30
0.0
  9
$UCSORGFRONT
 10
0.0
 20
0.0
 30
0.0
  9
$UCSORGBACK
 10
0.0
 20
0.0
 30
0.0
  9
$PUCSBASE
  2

  9
$PUCSNAME
  2

  9
$PUCSORG
 10
0.0
 20
0.0
 30
0.0
  9
$PUCSXDIR
 10
1.0
 20
0.0
 30
0.0
  9
$PUCSYDIR
 10
0.0
 20
1.0
 30
0.0
  9
$PUCSORTHOREF
  2

  9
$PUCSORTHOVIEW
 70
     0
  9
$PUCSORGTOP
 10
0.0
 20
0.0
 30
0.0
  9
$PUCSORGBOTTOM
 10
0.0
 20
0.0
 30
0.0
  9
$PUCSORGLEFT
 10
0.0
 20
0.0
 30
0.0
  9
$PUCSORGRIGHT
 10
0.0
 20
0.0
 30
0.0
  9
$PUCSORGFRONT
 10
0.0
 20
0.0
 30
0.0
  9
$PUCSORGBACK
 10
0.0
 20
0.0
 30
0.0
  9
$USERI1
 70
     0
  9
$USERI2
 70
     0
  9
$USERI3
 70
     0
  9
$USERI4
 70
     0
  9
$USERI5
 70
     0
  9
$USERR1
 40
0.0
  9
$USERR2
 40
0.0
  9
$USERR3
 40
0.0
  9
$USERR4
 40
0.0
  9
$USERR5
 40
0.0
  9
$WORLDVIEW
 70
     1
  9
$SHADEDGE
 70
     3
  9
$SHADEDIF
 70
    70
  9
$TILEMODE
 70
     1
  9
$MAXACTVP
 70
    64
  9
$PINSBASE
 10
0.0
 20
0.0
 30
0.0
  9
$PLIMCHECK
 70
     0
  9
$PEXTMIN
 10
1.0000000000E+20
 20
1.0000000000E+20
 30
1.0000000000E+20
  9
$PEXTMAX
 10
-1.0000000000E+20
 20
-1.0000000000E+20
 30
-1.0000000000E+20
  9
$PLIMMIN
 10
0.0
 20
0.0
  9
$PLIMMAX
 10
12.0
 20
9.0
  9
$UNITMODE
 70
     0
  9
$VISRETAIN
 70
     1
  9
$PLINEGEN
 70
     0
  9
$PSLTSCALE
 70
     1
  9
$TREEDEPTH
 70
  3020
  9
$CMLSTYLE
  2
Standard
  9
$CMLJUST
 70
     0
  9
$CMLSCALE
 40
1.0
  9
$PROXYGRAPHICS
 70
     1
  9
$MEASUREMENT
 70
     0
  9
$CELWEIGHT
370
    -1
  9
$ENDCAPS
280
     0
  9
$JOINSTYLE
280
     0
  9
$LWDISPLAY
290
     1
  9
$INSUNITS
 70
     1
  9
$HYPERLINKBASE
  1

  9
$STYLESHEET
  1

  9
$XEDIT
290
     1
  9
$CEPSNTYPE
380
     0
  9
$PSTYLEMODE
290
     1
  9
$FINGERPRINTGUID
  2
{6073A815-B490-4B0D-9196-397A6D231A45}
  9
$VERSIONGUID
  2
{FAEB1C32-E019-11D5-929B-00C0DF256EC4}
  9
$EXTNAMES
290
     1
  9
$PSVPSCALE
 40
0.0
  9
$OLESTARTUP
290
     0
  0
ENDSEC
  0
SECTION
  2
CLASSES
  0
CLASS
  1
ACDBDICTIONARYWDFLT
  2
AcDbDictionaryWithDefault
  3
ObjectDBX Classes
 90
        0
280
     0
281
     0
  0
CLASS
  1
VISUALSTYLE
  2
AcDbVisualStyle
  3
ObjectDBX Classes
 90
     4095
280
     0
281
     0
  0
CLASS
  1
MATERIAL
  2
AcDbMaterial
  3
ObjectDBX Classes
 90
     1153
280
     0
281
     0
  0
CLASS
  1
SCALE
  2
AcDbScale
  3
ObjectDBX Classes
 90
     1153
280
     0
281
     0
  0
CLASS
  1
TABLESTYLE
  2
AcDbTableStyle
  3
ObjectDBX Classes
 90
     4095
280
     0
281
     0
  0
CLASS
  1
MLEADERSTYLE
  2
AcDbMLeaderStyle
  3
ACDB_MLEADERSTYLE_CLASS
 90
     4095
280
     0
281
     0
  0
CLASS
  1
SUN
  2
AcDbSun
  3
SCENEOE
 90
     1153
280
     0
281
     0
  0
CLASS
  1
ACDBPLACEHOLDER
  2
AcDbPlaceHolder
  3
ObjectDBX Classes
 90
        0
280
     0
281
     0
  0
CLASS
  1
LAYOUT
  2
AcDbLayout
  3
ObjectDBX Classes
 90
        0
280
     0
281
     0
  0
ENDSEC
  0
SECTION
  2
TABLES
  0
TABLE
  2
VPORT
  5
8
330
0
100
AcDbSymbolTable
 70
     1
  0
VPORT
  5
29
330
8
100
AcDbSymbolTableRecord
100
AcDbViewportTableRecord
  2
*Active
 70
     0
 10
0.0
 20
0.0
 11
1.0
 21
1.0
 12
16.731395909
 22
9.8352142944
 13
0.0
 23
0.0
 14
0.5
 24
0.5
 15
0.5
 25
0.5
 16
0.0
 26
0.0
 36
1.0
 17
0.0
 27
0.0
 37
0.0
 40
7.5970472114
 41
1.7151816651
 42
50.0
 43
0.0
 44
0.0
 50
0.0
 51
0.0
 71
     0
 72
   100
 73
     1
 74
     3
 75
     0
 76
     0
 77
     0
 78
     0
281
     0
 65
     1
110
0.0
120
0.0
130
0.0
111
1.0
121
0.0
131
0.0
112
0.0
122
1.0
132
0.0
 79
     0
146
0.0
  0
ENDTAB
  0
TABLE
  2
LTYPE
  5
5
330
0
100
AcDbSymbolTable
 70
     6
  0
LTYPE
  5
14
330
5
100
AcDbSymbolTableRecord
100
AcDbLinetypeTableRecord
  2
ByBlock
 70
     0
  3

 72
    65
 73
     0
 40
0.0
  0
LTYPE
  5
15
330
5
100
AcDbSymbolTableRecord
100
AcDbLinetypeTableRecord
  2
ByLayer
 70
     0
  3

 72
    65
 73
     0
 40
0.0
  0
LTYPE
  5
16
330
5
100
AcDbSymbolTableRecord
100
AcDbLinetypeTableRecord
  2
Continuous
 70
     0
  3
Solid line
 72
    65
 73
     0
 40
0.0
  0
LTYPE
  5
6E
330
5
100
AcDbSymbolTableRecord
100
AcDbLinetypeTableRecord
  2
HIDDEN
 70
     0
  3
Hidden __ __ __ __ __ __ __ __ __ __ __ __ __ __
 72
    65
 73
     2
 40
0.075
 49
0.05
 74
     0
 49
-0.025
 74
     0
  0
LTYPE
  5
6F
330
5
100
AcDbSymbolTableRecord
100
AcDbLinetypeTableRecord
  2
PHANTOM
 70
     0
  3
Phantom ______  __  __  ______  __  __  ______
 72
    65
 73
     6
 40
0.5
 49
0.25
 74
     0
 49
-0.05
 74
     0
 49
0.05
 74
     0
 49
-0.05
 74
     0
 49
0.05
 74
     0
 49
-0.05
 74
     0
  0
LTYPE
  5
70
330
5
100
AcDbSymbolTableRecord
100
AcDbLinetypeTableRecord
  2
CENTER
 70
     0
  3
Center ____ _ ____ _ ____ _ ____ _ ____ _ ____
 72
    65
 73
     4
 40
0.4
 49
0.25
 74
     0
 49
-0.05
 74
     0
 49
0.05
 74
     0
 49
-0.05
 74
     0
  0
LTYPE
  5
71
330
5
100
AcDbSymbolTableRecord
100
AcDbLinetypeTableRecord
  2
CENTERX2
 70
     0
  3
Center (2x) ________  __  ________  __  _____
 72
    65
 73
     4
 40
0.8
 49
0.5
 74
     0
 49
-0.1
 74
     0
 49
0.1
 74
     0
 49
-0.1
 74
     0
  0
LTYPE
  5
72
330
5
100
AcDbSymbolTableRecord
100
AcDbLinetypeTableRecord
  2
DOT2
 70
     0
  3
Dot (.5x) ........................................
 72
    65
 73
     2
 40
0.025
 49
0.0
 74
     0
 49
-0.025
 74
     0
  0
ENDTAB
  0
TABLE
  2
LAYER
  5
2
330
0
100
AcDbSymbolTable
 70
     1
  0
LAYER
  5
10
330
2
100
AcDbSymbolTableRecord
100
AcDbLayerTableRecord
  2
0
 70
     0
 62
     7
  6
Continuous
370
    -3
390
F
  0
ENDTAB
  0
TABLE
  2
STYLE
  5
3
330
0
100
AcDbSymbolTable
 70
     1
  0
STYLE
  5
11
330
3
100
AcDbSymbolTableRecord
100
AcDbTextStyleTableRecord
  2
Standard
 70
     0
 40
0.0
 41
1.0
 50
0.0
 71
     0
 42
0.125
  3
txt
  4

  0
ENDTAB
  0
TABLE
  2
VIEW
  5
6
330
0
100
AcDbSymbolTable
 70
     0
  0
ENDTAB
  0
TABLE
  2
UCS
  5
7
330
0
100
AcDbSymbolTable
 70
     0
  0
ENDTAB
  0
TABLE
  2
APPID
  5
9
330
0
100
AcDbSymbolTable
 70
     1
  0
APPID
  5
12
330
9
100
AcDbSymbolTableRecord
100
AcDbRegAppTableRecord
  2
ACAD
 70
     0
  0
ENDTAB
  0
TABLE
  2
DIMSTYLE
  5
A
330
0
100
AcDbSymbolTable
 70
     1
100
AcDbDimStyleTable
  0
DIMSTYLE
105
27
330
A
100
AcDbSymbolTableRecord
100
AcDbDimStyleTableRecord
  2
Standard
 70
     0
178
     0
340
11
  0
ENDTAB
  0
TABLE
  2
BLOCK_RECORD
  5
1
330
0
100
AcDbSymbolTable
 70
     1
  0
BLOCK_RECORD
  5
1F
330
1
100
AcDbSymbolTableRecord
100
AcDbBlockTableRecord
  2
*Model_Space
340
22
  0
BLOCK_RECORD
  5
1B
330
1
100
AcDbSymbolTableRecord
100
AcDbBlockTableRecord
  2
*Paper_Space
340
1E
  0
BLOCK_RECORD
  5
23
330
1
100
AcDbSymbolTableRecord
100
AcDbBlockTableRecord
  2
*Paper_Space0
340
26
  0
ENDTAB
  0
ENDSEC
  0
SECTION
  2
BLOCKS
  0
BLOCK
  5
20
330
1F
100
AcDbEntity
  8
0
100
AcDbBlockBegin
  2
*Model_Space
 70
     0
 10
0.0
 20
0.0
 30
0.0
  3
*Model_Space
  1

  0
ENDBLK
  5
21
330
1F
100
AcDbEntity
  8
0
100
AcDbBlockEnd
  0
BLOCK
  5
1C
330
1B
100
AcDbEntity
 67
     1
  8
0
100
AcDbBlockBegin
  2
*Paper_Space
 70
     0
 10
0.0
 20
0.0
 30
0.0
  3
*Paper_Space
  1

  0
ENDBLK
  5
1D
330
1B
100
AcDbEntity
 67
     1
  8
0
100
AcDbBlockEnd
  0
BLOCK
  5
24
330
23
100
AcDbEntity
  8
0
100
AcDbBlockBegin
  2
*Paper_Space0
 70
     0
 10
0.0
 20
0.0
 30
0.0
  3
*Paper_Space0
  1

  0
ENDBLK
  5
25
330
23
100
AcDbEntity
  8
0
100
AcDbBlockEnd
  0
ENDSEC
  0
SECTION
  2
ENTITIES
  0
LINE
  5
73
330
1F
100
AcDbEntity
  8
0
  6
Continuous
 62
     7
370
    15
100
AcDbLine
 10
18.1104078501
 20
12.9464415896
 30
0.0
 11
18.1104078501
 21
7.637657966
 31
0.0
  0
LINE
  5
74
330
1F
100
AcDbEntity
  8
0
  6
Continuous
 62
     7
370
    15
100
AcDbLine
 10
18.1704078501
 20
12.9464415896
 30
0.0
 11
18.1104078501
 21
12.9464415896
 31
0.0
  0
LINE
  5
75
330
1F
100
AcDbEntity
  8
0
  6
Continuous
 62
     7
370
    15
100
AcDbLine
 10
18.1704078501
 20
7.637657966
 30
0.0
 11
18.1704078501
 21
12.9464415896
 31
0.0
  0
LINE
  5
76
330
1F
100
AcDbEntity
  8
0
  6
Continuous
 62
     7
370
    15
100
AcDbLine
 10
18.1104078501
 20
7.637657966
 30
0.0
 11
18.1704078501
 21
7.637657966
 31
0.0
  0
LINE
  5
77
330
1F
100
AcDbEntity
  8
0
  6
Continuous
 62
     7
370
    15
100
AcDbLine
 10
17.8604078501
 20
12.9464415896
 30
0.0
 11
17.8604078501
 21
7.637657966
 31
0.0
  0
LINE
  5
78
330
1F
100
AcDbEntity
  8
0
  6
Continuous
 62
     7
370
    15
100
AcDbLine
 10
17.9204078501
 20
12.9464415896
 30
0.0
 11
17.8604078501
 21
12.9464415896
 31
0.0
  0
LINE
  5
79
330
1F
100
AcDbEntity
  8
0
  6
Continuous
 62
     7
370
    15
100
AcDbLine
 10
17.9204078501
 20
7.637657966
 30
0.0
 11
17.9204078501
 21
12.9464415896
 31
0.0
  0
LINE
  5
7A
330
1F
100
AcDbEntity
  8
0
  6
Continuous
 62
     7
370
    15
100
AcDbLine
 10
17.8604078501
 20
7.637657966
 30
0.0
 11
17.9204078501
 21
7.637657966
 31
0.0
  0
LINE
  5
7B
330
1F
100
AcDbEntity
  8
0
  6
Continuous
 62
     7
370
    15
100
AcDbLine
 10
17.6104078501
 20
12.9464415896
 30
0.0
 11
17.6104078501
 21
7.637657966
 31
0.0
  0
LINE
  5
7C
330
1F
100
AcDbEntity
  8
0
  6
Continuous
 62
     7
370
    15
100
AcDbLine
 10
17.6704078501
 20
12.9464415896
 30
0.0
 11
17.6104078501
 21
12.9464415896
 31
0.0
  0
LINE
  5
7D
330
1F
100
AcDbEntity
  8
0
  6
Continuous
 62
     7
370
    15
100
AcDbLine
 10
17.6704078501
 20
7.637657966
 30
0.0
 11
17.6704078501
 21
12.9464415896
 31
0.0
  0
LINE
  5
7E
330
1F
100
AcDbEntity
  8
0
  6
Continuous
 62
     7
370
    15
100
AcDbLine
 10
17.6104078501
 20
7.637657966
 30
0.0
 11
17.6704078501
 21
7.637657966
 31
0.0
  0
LINE
  5
7F
330
1F
100
AcDbEntity
  8
0
  6
Continuous
 62
     7
370
    15
100
AcDbLine
 10
17.3604078501
 20
12.9464415896
 30
0.0
 11
17.3604078501
 21
7.637657966
 31
0.0
  0
LINE
  5
80
330
1F
100
AcDbEntity
  8
0
  6
Continuous
 62
     7
370
    15
100
AcDbLine
 10
17.4204078501
 20
12.9464415896
 30
0.0
 11
17.3604078501
 21
12.9464415896
 31
0.0
  0
LINE
  5
81
330
1F
100
AcDbEntity
  8
0
  6
Continuous
 62
     7
370
    15
100
AcDbLine
 10
17.4204078501
 20
7.637657966
 30
0.0
 11
17.4204078501
 21
12.9464415896
 31
0.0
  0
LINE
  5
82
330
1F
100
AcDbEntity
  8
0
  6
Continuous
 62
     7
370
    15
100
AcDbLine
 10
17.3604078501
 20
7.637657966
 30
0.0
 11
17.4204078501
 21
7.637657966
 31
0.0
  0
LINE
  5
83
330
1F
100
AcDbEntity
  8
0
  6
Continuous
 62
     7
370
    15
100
AcDbLine
 10
17.1104078501
 20
12.9464415896
 30
0.0
 11
17.1104078501
 21
7.637657966
 31
0.0
  0
LINE
  5
84
330
1F
100
AcDbEntity
  8
0
  6
Continuous
 62
     7
370
    15
100
AcDbLine
 10
17.1704078501
 20
12.9464415896
 30
0.0
 11
17.1104078501
 21
12.9464415896
 31
0.0
  0
LINE
  5
85
330
1F
100
AcDbEntity
  8
0
  6
Continuous
 62
     7
370
    15
100
AcDbLine
 10
17.1704078501
 20
7.637657966
 30
0.0
 11
17.1704078501
 21
12.9464415896
 31
0.0
  0
LINE
  5
86
330
1F
100
AcDbEntity
  8
0
  6
Continuous
 62
     7
370
    15
100
AcDbLine
 10
17.1104078501
 20
7.637657966
 30
0.0
 11
17.1704078501
 21
7.637657966
 31
0.0
  0
LINE
  5
87
330
1F
100
AcDbEntity
  8
0
  6
Continuous
 62
     7
370
    15
100
AcDbLine
 10
16.8604078501
 20
12.9464415896
 30
0.0
 11
16.8604078501
 21
7.637657966
 31
0.0
  0
LINE
  5
88
330
1F
100
AcDbEntity
  8
0
  6
Continuous
 62
     7
370
    15
100
AcDbLine
 10
16.9204078501
 20
12.9464415896
 30
0.0
 11
16.8604078501
 21
12.9464415896
 31
0.0
  0
LINE
  5
89
330
1F
100
AcDbEntity
  8
0
  6
Continuous
 62
     7
370
    15
100
AcDbLine
 10
16.9204078501
 20
7.637657966
 30
0.0
 11
16.9204078501
 21
12.9464415896
 31
0.0
  0
LINE
  5
8A
330
1F
100
AcDbEntity
  8
0
  6
Continuous
 62
     7
370
    15
100
AcDbLine
 10
16.8604078501
 20
7.637657966
 30
0.0
 11
16.9204078501
 21
7.637657966
 31
0.0
  0
LINE
  5
8B
330
1F
100
AcDbEntity
  8
0
  6
Continuous
 62
     7
370
    15
100
AcDbLine
 10
16.6104078501
 20
12.9464415896
 30
0.0
 11
16.6104078501
 21
7.637657966
 31
0.0
  0
LINE
  5
8C
330
1F
100
AcDbEntity
  8
0
  6
Continuous
 62
     7
370
    15
100
AcDbLine
 10
16.6704078501
 20
12.9464415896
 30
0.0
 11
16.6104078501
 21
12.9464415896
 31
0.0
  0
LINE
  5
8D
330
1F
100
AcDbEntity
  8
0
  6
Continuous
 62
     7
370
    15
100
AcDbLine
 10
16.6704078501
 20
7.637657966
 30
0.0
 11
16.6704078501
 21
12.9464415896
 31
0.0
  0
LINE
  5
8E
330
1F
100
AcDbEntity
  8
0
  6
Continuous
 62
     7
370
    15
100
AcDbLine
 10
16.6104078501
 20
7.637657966
 30
0.0
 11
16.6704078501
 21
7.637657966
 31
0.0
  0
LINE
  5
8F
330
1F
100
AcDbEntity
  8
0
  6
Continuous
 62
     7
370
    15
100
AcDbLine
 10
16.3604078501
 20
12.9464415896
 30
0.0
 11
16.3604078501
 21
7.637657966
 31
0.0
  0
LINE
  5
90
330
1F
100
AcDbEntity
  8
0
  6
Continuous
 62
     7
370
    15
100
AcDbLine
 10
16.4204078501
 20
12.9464415896
 30
0.0
 11
16.3604078501
 21
12.9464415896
 31
0.0
  0
LINE
  5
91
330
1F
100
AcDbEntity
  8
0
  6
Continuous
 62
     7
370
    15
100
AcDbLine
 10
16.4204078501
 20
7.637657966
 30
0.0
 11
16.4204078501
 21
12.9464415896
 31
0.0
  0
LINE
  5
92
330
1F
100
AcDbEntity
  8
0
  6
Continuous
 62
     7
370
    15
100
AcDbLine
 10
16.3604078501
 20
7.637657966
 30
0.0
 11
16.4204078501
 21
7.637657966
 31
0.0
  0
LINE
  5
93
330
1F
100
AcDbEntity
  8
0
  6
Continuous
 62
     7
370
    15
100
AcDbLine
 10
16.1104078501
 20
12.9464415896
 30
0.0
 11
16.1104078501
 21
7.637657966
 31
0.0
  0
LINE
  5
94
330
1F
100
AcDbEntity
  8
0
  6
Continuous
 62
     7
370
    15
100
AcDbLine
 10
16.1704078501
 20
12.9464415896
 30
0.0
 11
16.1104078501
 21
12.9464415896
 31
0.0
  0
LINE
  5
95
330
1F
100
AcDbEntity
  8
0
  6
Continuous
 62
     7
370
    15
100
AcDbLine
 10
16.1704078501
 20
7.637657966
 30
0.0
 11
16.1704078501
 21
12.9464415896
 31
0.0
  0
LINE
  5
96
330
1F
100
AcDbEntity
  8
0
  6
Continuous
 62
     7
370
    15
100
AcDbLine
 10
16.1104078501
 20
7.637657966
 30
0.0
 11
16.1704078501
 21
7.637657966
 31
0.0
  0
LINE
  5
97
330
1F
100
AcDbEntity
  8
0
  6
Continuous
 62
     7
370
    15
100
AcDbLine
 10
15.8604078501
 20
12.9464415896
 30
0.0
 11
15.8604078501
 21
7.637657966
 31
0.0
  0
LINE
  5
98
330
1F
100
AcDbEntity
  8
0
  6
Continuous
 62
     7
370
    15
100
AcDbLine
 10
15.9204078501
 20
12.9464415896
 30
0.0
 11
15.8604078501
 21
12.9464415896
 31
0.0
  0
LINE
  5
99
330
1F
100
AcDbEntity
  8
0
  6
Continuous
 62
     7
370
    15
100
AcDbLine
 10
15.9204078501
 20
7.637657966
 30
0.0
 11
15.9204078501
 21
12.9464415896
 31
0.0
  0
LINE
  5
9A
330
1F
100
AcDbEntity
  8
0
  6
Continuous
 62
     7
370
    15
100
AcDbLine
 10
15.8604078501
 20
7.637657966
 30
0.0
 11
15.9204078501
 21
7.637657966
 31
0.0
  0
LINE
  5
9B
330
1F
100
AcDbEntity
  8
0
  6
Continuous
 62
     7
370
    15
100
AcDbLine
 10
15.6104078501
 20
12.9464415896
 30
0.0
 11
15.6104078501
 21
7.637657966
 31
0.0
  0
LINE
  5
9C
330
1F
100
AcDbEntity
  8
0
  6
Continuous
 62
     7
370
    15
100
AcDbLine
 10
15.6704078501
 20
12.9464415896
 30
0.0
 11
15.6104078501
 21
12.9464415896
 31
0.0
  0
LINE
  5
9D
330
1F
100
AcDbEntity
  8
0
  6
Continuous
 62
     7
370
    15
100
AcDbLine
 10
15.6704078501
 20
7.637657966
 30
0.0
 11
15.6704078501
 21
12.9464415896
 31
0.0
  0
LINE
  5
9E
330
1F
100
AcDbEntity
  8
0
  6
Continuous
 62
     7
370
    15
100
AcDbLine
 10
15.6104078501
 20
7.637657966
 30
0.0
 11
15.6704078501
 21
7.637657966
 31
0.0
  0
LINE
  5
9F
330
1F
100
AcDbEntity
  8
0
  6
Continuous
 62
     7
370
    15
100
AcDbLine
 10
15.3604078501
 20
12.9464415896
 30
0.0
 11
15.3604078501
 21
7.637657966
 31
0.0
  0
LINE
  5
A0
330
1F
100
AcDbEntity
  8
0
  6
Continuous
 62
     7
370
    15
100
AcDbLine
 10
15.4204078501
 20
12.9464415896
 30
0.0
 11
15.3604078501
 21
12.9464415896
 31
0.0
  0
LINE
  5
A1
330
1F
100
AcDbEntity
  8
0
  6
Continuous
 62
     7
370
    15
100
AcDbLine
 10
15.4204078501
 20
7.637657966
 30
0.0
 11
15.4204078501
 21
12.9464415896
 31
0.0
  0
LINE
  5
A2
330
1F
100
AcDbEntity
  8
0
  6
Continuous
 62
     7
370
    15
100
AcDbLine
 10
15.3604078501
 20
7.637657966
 30
0.0
 11
15.4204078501
 21
7.637657966
 31
0.0
  0
LINE
  5
A3
330
1F
100
AcDbEntity
  8
0
  6
Continuous
 62
     7
370
    15
100
AcDbLine
 10
15.1104078501
 20
12.9464415896
 30
0.0
 11
15.1104078501
 21
7.637657966
 31
0.0
  0
LINE
  5
A4
330
1F
100
AcDbEntity
  8
0
  6
Continuous
 62
     7
370
    15
100
AcDbLine
 10
15.1704078501
 20
12.9464415896
 30
0.0
 11
15.1104078501
 21
12.9464415896
 31
0.0
  0
LINE
  5
A5
330
1F
100
AcDbEntity
  8
0
  6
Continuous
 62
     7
370
    15
100
AcDbLine
 10
15.1704078501
 20
7.637657966
 30
0.0
 11
15.1704078501
 21
12.9464415896
 31
0.0
  0
LINE
  5
A6
330
1F
100
AcDbEntity
  8
0
  6
Continuous
 62
     7
370
    15
100
AcDbLine
 10
15.1104078501
 20
7.637657966
 30
0.0
 11
15.1704078501
 21
7.637657966
 31
0.0
  0
LINE
  5
A7
330
1F
100
AcDbEntity
  8
0
  6
Continuous
 62
     7
370
    15
100
AcDbLine
 10
14.8604078501
 20
12.9464415896
 30
0.0
 11
14.8604078501
 21
7.637657966
 31
0.0
  0
LINE
  5
A8
330
1F
100
AcDbEntity
  8
0
  6
Continuous
 62
     7
370
    15
100
AcDbLine
 10
14.9204078501
 20
12.9464415896
 30
0.0
 11
14.8604078501
 21
12.9464415896
 31
0.0
  0
LINE
  5
A9
330
1F
100
AcDbEntity
  8
0
  6
Continuous
 62
     7
370
    15
100
AcDbLine
 10
14.9204078501
 20
7.637657966
 30
0.0
 11
14.9204078501
 21
12.9464415896
 31
0.0
  0
LINE
  5
AA
330
1F
100
AcDbEntity
  8
0
  6
Continuous
 62
     7
370
    15
100
AcDbLine
 10
14.8604078501
 20
7.637657966
 30
0.0
 11
14.9204078501
 21
7.637657966
 31
0.0
  0
LINE
  5
AB
330
1F
100
AcDbEntity
  8
0
  6
Continuous
 62
     7
370
    15
100
AcDbLine
 10
14.6104078501
 20
12.9464415896
 30
0.0
 11
14.6104078501
 21
7.637657966
 31
0.0
  0
LINE
  5
AC
330
1F
100
AcDbEntity
  8
0
  6
Continuous
 62
     7
370
    15
100
AcDbLine
 10
14.6704078501
 20
12.9464415896
 30
0.0
 11
14.6104078501
 21
12.9464415896
 31
0.0
  0
LINE
  5
AD
330
1F
100
AcDbEntity
  8
0
  6
Continuous
 62
     7
370
    15
100
AcDbLine
 10
14.6704078501
 20
7.637657966
 30
0.0
 11
14.6704078501
 21
12.9464415896
 31
0.0
  0
LINE
  5
AE
330
1F
100
AcDbEntity
  8
0
  6
Continuous
 62
     7
370
    15
100
AcDbLine
 10
14.6104078501
 20
7.637657966
 30
0.0
 11
14.6704078501
 21
7.637657966
 31
0.0
  0
LINE
  5
AF
330
1F
100
AcDbEntity
  8
0
  6
Continuous
 62
     7
370
    15
100
AcDbLine
 10
14.3604078501
 20
12.9464415896
 30
0.0
 11
14.3604078501
 21
7.637657966
 31
0.0
  0
LINE
  5
B0
330
1F
100
AcDbEntity
  8
0
  6
Continuous
 62
     7
370
    15
100
AcDbLine
 10
14.4204078501
 20
12.9464415896
 30
0.0
 11
14.3604078501
 21
12.9464415896
 31
0.0
  0
LINE
  5
B1
330
1F
100
AcDbEntity
  8
0
  6
Continuous
 62
     7
370
    15
100
AcDbLine
 10
14.4204078501
 20
7.637657966
 30
0.0
 11
14.4204078501
 21
12.9464415896
 31
0.0
  0
LINE
  5
B2
330
1F
100
AcDbEntity
  8
0
  6
Continuous
 62
     7
370
    15
100
AcDbLine
 10
14.3604078501
 20
7.637657966
 30
0.0
 11
14.4204078501
 21
7.637657966
 31
0.0
  0
LINE
  5
B3
330
1F
100
AcDbEntity
  8
0
  6
Continuous
 62
     7
370
    15
100
AcDbLine
 10
14.1104078501
 20
12.9464415896
 30
0.0
 11
14.1104078501
 21
7.637657966
 31
0.0
  0
LINE
  5
B4
330
1F
100
AcDbEntity
  8
0
  6
Continuous
 62
     7
370
    15
100
AcDbLine
 10
14.1704078501
 20
12.9464415896
 30
0.0
 11
14.1104078501
 21
12.9464415896
 31
0.0
  0
LINE
  5
B5
330
1F
100
AcDbEntity
  8
0
  6
Continuous
 62
     7
370
    15
100
AcDbLine
 10
14.1704078501
 20
7.637657966
 30
0.0
 11
14.1704078501
 21
12.9464415896
 31
0.0
  0
LINE
  5
B6
330
1F
100
AcDbEntity
  8
0
  6
Continuous
 62
     7
370
    15
100
AcDbLine
 10
14.1104078501
 20
7.637657966
 30
0.0
 11
14.1704078501
 21
7.637657966
 31
0.0
  0
LINE
  5
B7
330
1F
100
AcDbEntity
  8
0
  6
Continuous
 62
     7
370
    15
100
AcDbLine
 10
13.8604078501
 20
12.9464415896
 30
0.0
 11
13.8604078501
 21
7.637657966
 31
0.0
  0
LINE
  5
B8
330
1F
100
AcDbEntity
  8
0
  6
Continuous
 62
     7
370
    15
100
AcDbLine
 10
13.9204078501
 20
12.9464415896
 30
0.0
 11
13.8604078501
 21
12.9464415896
 31
0.0
  0
LINE
  5
B9
330
1F
100
AcDbEntity
  8
0
  6
Continuous
 62
     7
370
    15
100
AcDbLine
 10
13.9204078501
 20
7.637657966
 30
0.0
 11
13.9204078501
 21
12.9464415896
 31
0.0
  0
LINE
  5
BA
330
1F
100
AcDbEntity
  8
0
  6
Continuous
 62
     7
370
    15
100
AcDbLine
 10
13.8604078501
 20
7.637657966
 30
0.0
 11
13.9204078501
 21
7.637657966
 31
0.0
  0
LINE
  5
BB
330
1F
100
AcDbEntity
  8
0
  6
Continuous
 62
     7
370
    15
100
AcDbLine
 10
13.6104078501
 20
12.9464415896
 30
0.0
 11
13.6104078501
 21
7.637657966
 31
0.0
  0
LINE
  5
BC
330
1F
100
AcDbEntity
  8
0
  6
Continuous
 62
     7
370
    15
100
AcDbLine
 10
13.6704078501
 20
12.9464415896
 30
0.0
 11
13.6104078501
 21
12.9464415896
 31
0.0
  0
LINE
  5
BD
330
1F
100
AcDbEntity
  8
0
  6
Continuous
 62
     7
370
    15
100
AcDbLine
 10
13.6704078501
 20
7.637657966
 30
0.0
 11
13.6704078501
 21
12.9464415896
 31
0.0
  0
LINE
  5
BE
330
1F
100
AcDbEntity
  8
0
  6
Continuous
 62
     7
370
    15
100
AcDbLine
 10
13.6104078501
 20
7.637657966
 30
0.0
 11
13.6704078501
 21
7.637657966
 31
0.0
  0
LINE
  5
BF
330
1F
100
AcDbEntity
  8
0
  6
Continuous
 62
     7
370
    15
100
AcDbLine
 10
13.3604078501
 20
12.9464415896
 30
0.0
 11
13.3604078501
 21
7.637657966
 31
0.0
  0
LINE
  5
C0
330
1F
100
AcDbEntity
  8
0
  6
Continuous
 62
     7
370
    15
100
AcDbLine
 10
13.4204078501
 20
12.9464415896
 30
0.0
 11
13.3604078501
 21
12.9464415896
 31
0.0
  0
LINE
  5
C1
330
1F
100
AcDbEntity
  8
0
  6
Continuous
 62
     7
370
    15
100
AcDbLine
 10
13.4204078501
 20
7.637657966
 30
0.0
 11
13.4204078501
 21
12.9464415896
 31
0.0
  0
LINE
  5
C2
330
1F
100
AcDbEntity
  8
0
  6
Continuous
 62
     7
370
    15
100
AcDbLine
 10
13.3604078501
 20
7.637657966
 30
0.0
 11
13.4204078501
 21
7.637657966
 31
0.0
  0
LINE
  5
C3
330
1F
100
AcDbEntity
  8
0
  6
Continuous
 62
     7
370
    15
100
AcDbLine
 10
13.1104078501
 20
12.9464415896
 30
0.0
 11
13.1104078501
 21
7.637657966
 31
0.0
  0
LINE
  5
C4
330
1F
100
AcDbEntity
  8
0
  6
Continuous
 62
     7
370
    15
100
AcDbLine
 10
13.1704078501
 20
12.9464415896
 30
0.0
 11
13.1104078501
 21
12.9464415896
 31
0.0
  0
LINE
  5
C5
330
1F
100
AcDbEntity
  8
0
  6
Continuous
 62
     7
370
    15
100
AcDbLine
 10
13.1704078501
 20
7.637657966
 30
0.0
 11
13.1704078501
 21
12.9464415896
 31
0.0
  0
LINE
  5
C6
330
1F
100
AcDbEntity
  8
0
  6
Continuous
 62
     7
370
    15
100
AcDbLine
 10
13.1104078501
 20
7.637657966
 30
0.0
 11
13.1704078501
 21
7.637657966
 31
0.0
  0
LINE
  5
C7
330
1F
100
AcDbEntity
  8
0
  6
Continuous
 62
     7
370
    15
100
AcDbLine
 10
12.8604078501
 20
12.9464415896
 30
0.0
 11
12.8604078501
 21
7.637657966
 31
0.0
  0
LINE
  5
C8
330
1F
100
AcDbEntity
  8
0
  6
Continuous
 62
     7
370
    15
100
AcDbLine
 10
12.9204078501
 20
12.9464415896
 30
0.0
 11
12.8604078501
 21
12.9464415896
 31
0.0
  0
LINE
  5
C9
330
1F
100
AcDbEntity
  8
0
  6
Continuous
 62
     7
370
    15
100
AcDbLine
 10
12.9204078501
 20
7.637657966
 30
0.0
 11
12.9204078501
 21
12.9464415896
 31
0.0
  0
LINE
  5
CA
330
1F
100
AcDbEntity
  8
0
  6
Continuous
 62
     7
370
    15
100
AcDbLine
 10
12.8604078501
 20
7.637657966
 30
0.0
 11
12.9204078501
 21
7.637657966
 31
0.0
  0
LINE
  5
CB
330
1F
100
AcDbEntity
  8
0
  6
Continuous
 62
     7
370
    15
100
AcDbLine
 10
19.2026948996
 20
8.5862325636
 30
0.0
 11
18.5840975911
 21
12.2204430374
 31
0.0
  0
LINE
  5
CC
330
1F
100
AcDbEntity
  8
0
  6
Continuous
 62
     7
370
    15
100
AcDbLine
 10
18.5840975911
 20
12.2204430374
 30
0.0
 11
18.7073251908
 21
12.2414182291
 31
0.0
  0
LINE
  5
CD
330
1F
100
AcDbEntity
  8
0
  6
Continuous
 62
     7
370
    15
100
AcDbLine
 10
18.7073251908
 20
12.2414182291
 30
0.0
 11
19.3259224993
 21
8.6072077553
 31
0.0
  0
LINE
  5
CE
330
1F
100
AcDbEntity
  8
0
  6
Continuous
 62
     7
370
    15
100
AcDbLine
 10
19.3259224993
 20
8.6072077553
 30
0.0
 11
19.2026948996
 21
8.5862325636
 31
0.0
  0
SPLINE
  5
CF
330
1F
100
AcDbEntity
  8
0
  6
Continuous
 62
     7
370
    15
100
AcDbSpline
210
0.0
220
0.0
230
1.0
 70
     8
 71
     3
 72
     8
 73
     4
 74
     0
 42
0.000000001
 43
0.00000001
 40
0.591734718090414
 40
0.591734718090414
 40
0.591734718090414
 40
0.591734718090414
 40
0.6051660219651677
 40
0.6051660219651677
 40
0.6051660219651677
 40
0.6051660219651677
 10
18.04040785014277
 20
6.278751213650042
 30
0.0
 10
18.1035702223019
 20
6.291020995947906
 30
0.0
 10
18.16689493879175
 20
6.30315809295758
 30
0.0
 10
18.23040785011882
 20
6.314679761271171
 30
0.0
  0
LINE
  5
D0
330
1F
100
AcDbEntity
  8
0
  6
Continuous
 62
     7
370
    15
100
AcDbLine
 10
18.2304078501
 20
10.0585616091
 30
0.0
 11
18.2304078501
 21
6.3146797612
 31
0.0
  0
LINE
  5
D1
330
1F
100
AcDbEntity
  8
0
  6
Continuous
 62
     7
370
    15
100
AcDbLine
 10
18.2904078501
 20
10.0585616091
 30
0.0
 11
18.2304078501
 21
10.0585616091
 31
0.0
  0
LINE
  5
D2
330
1F
100
AcDbEntity
  8
0
  6
Continuous
 62
     7
370
    15
100
AcDbLine
 10
18.2904078501
 20
6.3253561184
 30
0.0
 11
18.2904078501
 21
10.0585616091
 31
0.0
  0
SPLINE
  5
D3
330
1F
100
AcDbEntity
  8
0
  6
Continuous
 62
     7
370
    15
100
AcDbSpline
210
0.0
220
0.0
230
1.0
 70
     8
 71
     3
 72
    12
 73
     8
 74
     0
 42
0.000000001
 43
0.00000001
 40
0.6093914982507719
 40
0.6093914982507719
 40
0.6093914982507719
 40
0.6093914982507719
 40
0.614889523354195
 40
0.7135763244439963
 40
0.8157462576457576
 40
0.8776949552296762
 40
1.0
 40
1.0
 40
1.0
 40
1.0
 10
18.29040785012131
 20
6.325356118395624
 30
0.0
 10
18.31645600465263
 20
6.329894378693917
 30
0.0
 10
18.81067889065322
 20
6.413455791861442
 30
0.0
 10
19.81422484071484
 20
6.46397039571354
 30
0.0
 10
20.96622020695693
 20
6.081667801803721
 30
0.0
 10
22.51433317393244
 20
6.135989688995683
 30
0.0
 10
22.54350691146975
 20
7.442527863165971
 30
0.0
 10
23.11880575492243
 20
7.659600536517496
 30
0.0
  0
LINE
  5
D4
330
1F
100
AcDbEntity
  8
0
  6
Continuous
 62
     7
370
    15
100
AcDbLine
 10
22.3739592822
 20
12.1708404937
 30
0.0
 11
23.1188057549
 21
7.6596005365
 31
0.0
  0
SPLINE
  5
D5
330
1F
100
AcDbEntity
  8
0
  6
Continuous
 62
     7
370
    15
100
AcDbSpline
210
0.0
220
0.0
230
1.0
 70
     8
 71
     3
 72
    11
 73
     7
 74
     0
 42
0.000000001
 43
0.00000001
 40
0.6274942959663363
 40
0.6274942959663363
 40
0.6274942959663363
 40
0.6274942959663363
 40
0.7001844125750879
 40
0.7235987032075657
 40
0.8255799931542463
 40
1.0
 40
1.0
 40
1.0
 40
1.0
 10
18.29040785012998
 20
13.3173563004422
 30
0.0
 10
18.5758459125252
 20
13.36189765471469
 30
0.0
 10
18.9515953677258
 20
13.42452995818857
 30
0.0
 10
19.66589966820401
 20
13.1236415739952
 30
0.0
 10
20.60546992242851
 20
12.38973097096146
 30
0.0
 10
21.78044094882614
 20
12.51913277756347
 30
0.0
 10
22.37395928224127
 20
12.17084049369965
 30
0.0
  0
LINE
  5
D6
330
1F
100
AcDbEntity
  8
0
  6
Continuous
 62
     7
370
    15
100
AcDbLine
 10
18.2904078501
 20
11.0585616091
 30
0.0
 11
18.2904078501
 21
13.3173563004
 31
0.0
  0
LINE
  5
D7
330
1F
100
AcDbEntity
  8
0
  6
Continuous
 62
     7
370
    15
100
AcDbLine
 10
18.2304078501
 20
11.0585616091
 30
0.0
 11
18.2904078501
 21
11.0585616091
 31
0.0
  0
LINE
  5
D8
330
1F
100
AcDbEntity
  8
0
  6
Continuous
 62
     7
370
    15
100
AcDbLine
 10
18.2304078501
 20
13.308079258
 30
0.0
 11
18.2304078501
 21
11.0585616091
 31
0.0
  0
SPLINE
  5
D9
330
1F
100
AcDbEntity
  8
0
  6
Continuous
 62
     7
370
    15
100
AcDbSpline
210
0.0
220
0.0
230
1.0
 70
     8
 71
     3
 72
     8
 73
     4
 74
     0
 42
0.000000001
 43
0.00000001
 40
0.6062665935737763
 40
0.6062665935737763
 40
0.6062665935737763
 40
0.6062665935737763
 40
0.6224021544334489
 40
0.6224021544334489
 40
0.6224021544334489
 40
0.6224021544334489
 10
18.04040785012882
 20
13.28210129257981
 30
0.0
 10
18.10363580833397
 20
13.28930847264326
 30
0.0
 10
18.16702553410143
 20
13.29841323958614
 30
0.0
 10
18.23040785012883
 20
13.30807925798677
 30
0.0
  0
LINE
  5
DA
330
1F
100
AcDbEntity
  8
0
  6
Continuous
 62
     7
370
    15
100
AcDbLine
 10
18.0404078501
 20
11.0585616091
 30
0.0
 11
18.0404078501
 21
13.2821012926
 31
0.0
  0
LINE
  5
DB
330
1F
100
AcDbEntity
  8
0
  6
Continuous
 62
     7
370
    15
100
AcDbLine
 10
17.9804078501
 20
11.0585616091
 30
0.0
 11
18.0404078501
 21
11.0585616091
 31
0.0
  0
LINE
  5
DC
330
1F
100
AcDbEntity
  8
0
  6
Continuous
 62
     7
370
    15
100
AcDbLine
 10
17.9804078501
 20
13.2758397717
 30
0.0
 11
17.9804078501
 21
11.0585616091
 31
0.0
  0
SPLINE
  5
DD
330
1F
100
AcDbEntity
  8
0
  6
Continuous
 62
     7
370
    15
100
AcDbSpline
210
0.0
220
0.0
230
1.0
 70
     8
 71
     3
 72
     8
 73
     4
 74
     0
 42
0.000000001
 43
0.00000001
 40
0.5849268785936875
 40
0.5849268785936875
 40
0.5849268785936875
 40
0.5849268785936875
 40
0.6011583690088992
 40
0.6011583690088992
 40
0.6011583690088992
 40
0.6011583690088992
 10
17.79040785051086
 20
13.26341219834654
 30
0.0
 10
17.85358199196683
 20
13.26574143996771
 30
0.0
 10
17.91691080380343
 20
13.26982278565125
 30
0.0
 10
17.9804078501322
 20
13.27583977163317
 30
0.0
  0
LINE
  5
DE
330
1F
100
AcDbEntity
  8
0
  6
Continuous
 62
     7
370
    15
100
AcDbLine
 10
17.7904078501
 20
11.0585616091
 30
0.0
 11
17.7904078505
 21
13.2634121983
 31
0.0
  0
LINE
  5
DF
330
1F
100
AcDbEntity
  8
0
  6
Continuous
 62
     7
370
    15
100
AcDbLine
 10
17.7304078501
 20
11.0585616091
 30
0.0
 11
17.7904078501
 21
11.0585616091
 31
0.0
  0
LINE
  5
E0
330
1F
100
AcDbEntity
  8
0
  6
Continuous
 62
     7
370
    15
100
AcDbLine
 10
17.7304078501
 20
13.2617200803
 30
0.0
 11
17.7304078501
 21
11.0585616091
 31
0.0
  0
SPLINE
  5
E1
330
1F
100
AcDbEntity
  8
0
  6
Continuous
 62
     7
370
    15
100
AcDbSpline
210
0.0
220
0.0
230
1.0
 70
     8
 71
     3
 72
     8
 73
     4
 74
     0
 42
0.000000001
 43
0.00000001
 40
0.5634489463394121
 40
0.5634489463394121
 40
0.5634489463394121
 40
0.5634489463394121
 40
0.5797842763033675
 40
0.5797842763033675
 40
0.5797842763033675
 40
0.5797842763033675
 10
17.54040784976915
 20
13.26294404907869
 30
0.0
 10
17.60359809759682
 20
13.26094508264304
 30
0.0
 10
17.66692682234804
 20
13.26047473261116
 30
0.0
 10
17.73040785012897
 20
13.26172008027313
 30
0.0
  0
LINE
  5
E2
330
1F
100
AcDbEntity
  8
0
  6
Continuous
 62
     7
370
    15
100
AcDbLine
 10
17.5404078501
 20
11.0585616091
 30
0.0
 11
17.5404078498
 21
13.2629440491
 31
0.0
  0
LINE
  5
E3
330
1F
100
AcDbEntity
  8
0
  6
Continuous
 62
     7
370
    15
100
AcDbLine
 10
17.4804078501
 20
11.0585616091
 30
0.0
 11
17.5404078501
 21
11.0585616091
 31
0.0
  0
LINE
  5
E4
330
1F
100
AcDbEntity
  8
0
  6
Continuous
 62
     7
370
    15
100
AcDbLine
 10
17.4804078501
 20
13.2652974751
 30
0.0
 11
17.4804078501
 21
11.0585616091
 31
0.0
  0
SPLINE
  5
E5
330
1F
100
AcDbEntity
  8
0
  6
Continuous
 62
     7
370
    15
100
AcDbSpline
210
0.0
220
0.0
230
1.0
 70
     8
 71
     3
 72
     8
 73
     4
 74
     0
 42
0.000000001
 43
0.00000001
 40
0.5418465725921989
 40
0.5418465725921989
 40
0.5418465725921989
 40
0.5418465725921989
 40
0.5582751872390492
 40
0.5582751872390492
 40
0.5582751872390492
 40
0.5582751872390492
 10
17.29040784974802
 20
13.2784617423209
 30
0.0
 10
17.35361492560134
 20
13.2727143295507
 30
0.0
 10
17.41694357095205
 20
13.26826280558363
 30
0.0
 10
17.48040785012802
 20
13.26529747509168
 30
0.0
  0
LINE
  5
E6
330
1F
100
AcDbEntity
  8
0
  6
Continuous
 62
     7
370
    15
100
AcDbLine
 10
17.2904078501
 20
11.0585616091
 30
0.0
 11
17.2904078497
 21
13.2784617423
 31
0.0
  0
LINE
  5
E7
330
1F
100
AcDbEntity
  8
0
  6
Continuous
 62
     7
370
    15
100
AcDbLine
 10
17.2304078501
 20
11.0585616091
 30
0.0
 11
17.2904078501
 21
11.0585616091
 31
0.0
  0
LINE
  5
E8
330
1F
100
AcDbEntity
  8
0
  6
Continuous
 62
     7
370
    15
100
AcDbLine
 10
17.2304078501
 20
13.2843044887
 30
0.0
 11
17.2304078501
 21
11.0585616091
 31
0.0
  0
SPLINE
  5
E9
330
1F
100
AcDbEntity
  8
0
  6
Continuous
 62
     7
370
    15
100
AcDbSpline
210
0.0
220
0.0
230
1.0
 70
     8
 71
     3
 72
     8
 73
     4
 74
     0
 42
0.000000001
 43
0.00000001
 40
0.5201344171174044
 40
0.5201344171174044
 40
0.5201344171174044
 40
0.5201344171174044
 40
0.5366450971580679
 40
0.5366450971580679
 40
0.5366450971580679
 40
0.5366450971580679
 10
17.04040784974478
 20
13.30760025645647
 30
0.0
 10
17.10363241107553
 20
13.29871576925401
 30
0.0
 10
17.16696098581957
 20
13.29088612305477
 30
0.0
 10
17.23040785012476
 20
13.28430448867097
 30
0.0
  0
LINE
  5
EA
330
1F
100
AcDbEntity
  8
0
  6
Continuous
 62
     7
370
    15
100
AcDbLine
 10
17.0404078501
 20
11.0585616091
 30
0.0
 11
17.0404078497
 21
13.3076002565
 31
0.0
  0
LINE
  5
EB
330
1F
100
AcDbEntity
  8
0
  6
Continuous
 62
     7
370
    15
100
AcDbLine
 10
16.9804078501
 20
11.0585616091
 30
0.0
 11
17.0404078501
 21
11.0585616091
 31
0.0
  0
LINE
  5
EC
330
1F
100
AcDbEntity
  8
0
  6
Continuous
 62
     7
370
    15
100
AcDbLine
 10
16.9804078501
 20
13.3163468118
 30
0.0
 11
16.9804078501
 21
11.0585616091
 31
0.0
  0
SPLINE
  5
ED
330
1F
100
AcDbEntity
  8
0
  6
Continuous
 62
     7
370
    15
100
AcDbSpline
210
0.0
220
0.0
230
1.0
 70
     8
 71
     3
 72
     8
 73
     4
 74
     0
 42
0.000000001
 43
0.00000001
 40
0.4983279445175478
 40
0.4983279445175478
 40
0.4983279445175478
 40
0.4983279445175478
 40
0.5149088667202123
 40
0.5149088667202123
 40
0.5149088667202123
 40
0.5149088667202123
 10
16.79040785012881
 20
13.3478778872718
 30
0.0
 10
16.85365047942742
 20
13.33649578346874
 30
0.0
 10
16.91697899305036
 20
13.32592020938139
 30
0.0
 10
16.98040785012882
 20
13.31634681177269
 30
0.0
  0
LINE
  5
EE
330
1F
100
AcDbEntity
  8
0
  6
Continuous
 62
     7
370
    15
100
AcDbLine
 10
16.7904078501
 20
11.0585616091
 30
0.0
 11
16.7904078501
 21
13.3478778873
 31
0.0
  0
LINE
  5
EF
330
1F
100
AcDbEntity
  8
0
  6
Continuous
 62
     7
370
    15
100
AcDbLine
 10
16.7304078501
 20
11.0585616091
 30
0.0
 11
16.7904078501
 21
11.0585616091
 31
0.0
  0
LINE
  5
F0
330
1F
100
AcDbEntity
  8
0
  6
Continuous
 62
     7
370
    15
100
AcDbLine
 10
16.7304078501
 20
13.3589169474
 30
0.0
 11
16.7304078501
 21
11.0585616091
 31
0.0
  0
SPLINE
  5
F1
330
1F
100
AcDbEntity
  8
0
  6
Continuous
 62
     7
370
    15
100
AcDbSpline
210
0.0
220
0.0
230
1.0
 70
     8
 71
     3
 72
     9
 73
     5
 74
     0
 42
0.000000001
 43
0.00000001
 40
0.4764444453336866
 40
0.4764444453336866
 40
0.4764444453336866
 40
0.4764444453336866
 40
0.4900948115820088
 40
0.4930821403089629
 40
0.4930821403089629
 40
0.4930821403089629
 40
0.4930821403089629
 10
16.54040784974464
 20
13.39654384391551
 30
0.0
 10
16.59231962583598
 20
13.3858665352965
 30
0.0
 10
16.65563177531302
 20
13.37310416286844
 30
0.0
 10
16.71902316943086
 20
13.36105603936261
 30
0.0
 10
16.73040785012882
 20
13.35891694738901
 30
0.0
  0
LINE
  5
F2
330
1F
100
AcDbEntity
  8
0
  6
Continuous
 62
     7
370
    15
100
AcDbLine
 10
16.5404078501
 20
11.0585616091
 30
0.0
 11
16.5404078497
 21
13.3965438439
 31
0.0
  0
LINE
  5
F3
330
1F
100
AcDbEntity
  8
0
  6
Continuous
 62
     7
370
    15
100
AcDbLine
 10
16.4804078501
 20
11.0585616091
 30
0.0
 11
16.5404078501
 21
11.0585616091
 31
0.0
  0
LINE
  5
F4
330
1F
100
AcDbEntity
  8
0
  6
Continuous
 62
     7
370
    15
100
AcDbLine
 10
16.4804078501
 20
13.4089637624
 30
0.0
 11
16.4804078501
 21
11.0585616091
 31
0.0
  0
SPLINE
  5
F5
330
1F
100
AcDbEntity
  8
0
  6
Continuous
 62
     7
370
    15
100
AcDbSpline
210
0.0
220
0.0
230
1.0
 70
     8
 71
     3
 72
     8
 73
     4
 74
     0
 42
0.000000001
 43
0.00000001
 40
0.4545171383779081
 40
0.4545171383779081
 40
0.4545171383779081
 40
0.4545171383779081
 40
0.471184214715875
 40
0.471184214715875
 40
0.471184214715875
 40
0.471184214715875
 10
16.29040785012884
 20
13.44845938199205
 30
0.0
 10
16.35372979977951
 20
13.43547693713287
 30
0.0
 10
16.4170505233216
 20
13.4221452678233
 30
0.0
 10
16.48040785012883
 20
13.4089637623803
 30
0.0
  0
LINE
  5
F6
330
1F
100
AcDbEntity
  8
0
  6
Continuous
 62
     7
370
    15
100
AcDbLine
 10
16.2904078501
 20
11.0585616091
 30
0.0
 11
16.2904078501
 21
13.448459382
 31
0.0
  0
LINE
  5
F7
330
1F
100
AcDbEntity
  8
0
  6
Continuous
 62
     7
370
    15
100
AcDbLine
 10
16.2304078501
 20
11.0585616091
 30
0.0
 11
16.2904078501
 21
11.0585616091
 31
0.0
  0
LINE
  5
F8
330
1F
100
AcDbEntity
  8
0
  6
Continuous
 62
     7
370
    15
100
AcDbLine
 10
16.2304078501
 20
13.4606401888
 30
0.0
 11
16.2304078501
 21
11.0585616091
 31
0.0
  0
SPLINE
  5
F9
330
1F
100
AcDbEntity
  8
0
  6
Continuous
 62
     7
370
    15
100
AcDbSpline
210
0.0
220
0.0
230
1.0
 70
     8
 71
     3
 72
     8
 73
     4
 74
     0
 42
0.000000001
 43
0.00000001
 40
0.432590947338906
 40
0.432590947338906
 40
0.432590947338906
 40
0.432590947338906
 40
0.4492530416704787
 40
0.4492530416704787
 40
0.4492530416704787
 40
0.4492530416704787
 10
16.04040785012895
 20
13.49674600395062
 30
0.0
 10
16.10377954662531
 20
13.48555000656909
 30
0.0
 10
16.16710028147166
 20
13.47334842130347
 30
0.0
 10
16.23040785012882
 20
13.4606401887835
 30
0.0
  0
LINE
  5
FA
330
1F
100
AcDbEntity
  8
0
  6
Continuous
 62
     7
370
    15
100
AcDbLine
 10
16.0404078501
 20
11.0585616091
 30
0.0
 11
16.0404078501
 21
13.496746004
 31
0.0
  0
LINE
  5
FB
330
1F
100
AcDbEntity
  8
0
  6
Continuous
 62
     7
370
    15
100
AcDbLine
 10
15.9804078501
 20
11.0585616091
 30
0.0
 11
16.0404078501
 21
11.0585616091
 31
0.0
  0
LINE
  5
FC
330
1F
100
AcDbEntity
  8
0
  6
Continuous
 62
     7
370
    15
100
AcDbLine
 10
15.9804078501
 20
13.5070274355
 30
0.0
 11
15.9804078501
 21
11.0585616091
 31
0.0
  0
SPLINE
  5
FD
330
1F
100
AcDbEntity
  8
0
  6
Continuous
 62
     7
370
    15
100
AcDbSpline
210
0.0
220
0.0
230
1.0
 70
     8
 71
     3
 72
     8
 73
     4
 74
     0
 42
0.000000001
 43
0.00000001
 40
0.4107110168699021
 40
0.4107110168699021
 40
0.4107110168699021
 40
0.4107110168699021
 40
0.4273338565076514
 40
0.4273338565076514
 40
0.4273338565076514
 40
0.4273338565076514
 10
15.79040784974466
 20
13.53452044598283
 30
0.0
 10
15.85382879312067
 20
13.52684392701121
 30
0.0
 10
15.91714961692889
 20
13.51751444934782
 30
0.0
 10
15.98040785012883
 20
13.50702743551931
 30
0.0
  0
LINE
  5
FE
330
1F
100
AcDbEntity
  8
0
  6
Continuous
 62
     7
370
    15
100
AcDbLine
 10
15.7904078501
 20
11.0585616091
 30
0.0
 11
15.7904078497
 21
13.534520446
 31
0.0
  0
LINE
  5
FF
330
1F
100
AcDbEntity
  8
0
  6
Continuous
 62
     7
370
    15
100
AcDbLine
 10
15.7304078501
 20
11.0585616091
 30
0.0
 11
15.7904078501
 21
11.0585616091
 31
0.0
  0
LINE
  5
100
330
1F
100
AcDbEntity
  8
0
  6
Continuous
 62
     7
370
    15
100
AcDbLine
 10
15.7304078501
 20
13.5412709855
 30
0.0
 11
15.7304078501
 21
11.0585616091
 31
0.0
  0
SPLINE
  5
101
330
1F
100
AcDbEntity
  8
0
  6
Continuous
 62
     7
370
    15
100
AcDbSpline
210
0.0
220
0.0
230
1.0
 70
     8
 71
     3
 72
     9
 73
     5
 74
     0
 42
0.000000001
 43
0.00000001
 40
0.3889207278156892
 40
0.3889207278156892
 40
0.3889207278156892
 40
0.3889207278156892
 40
0.3990073578345049
 40
0.4054716602037052
 40
0.4054716602037052
 40
0.4054716602037052
 40
0.4054716602037052
 10
15.54040784974946
 20
13.55529442084294
 30
0.0
 10
15.5790802319152
 20
13.55356006791753
 30
0.0
 10
15.64246217732705
 20
13.54968822163341
 30
0.0
 10
15.7057186725505
 20
13.54383188513969
 30
0.0
 10
15.73040785012883
 20
13.54127098545475
 30
0.0
  0
LINE
  5
102
330
1F
100
AcDbEntity
  8
0
  6
Continuous
 62
     7
370
    15
100
AcDbLine
 10
15.5404078501
 20
11.0585616091
 30
0.0
 11
15.5404078497
 21
13.5552944208
 31
0.0
  0
LINE
  5
103
330
1F
100
AcDbEntity
  8
0
  6
Continuous
 62
     7
370
    15
100
AcDbLine
 10
15.4804078501
 20
11.0585616091
 30
0.0
 11
15.5404078501
 21
11.0585616091
 31
0.0
  0
LINE
  5
104
330
1F
100
AcDbEntity
  8
0
  6
Continuous
 62
     7
370
    15
100
AcDbLine
 10
15.4804078501
 20
13.5574979722
 30
0.0
 11
15.4804078501
 21
11.0585616091
 31
0.0
  0
SPLINE
  5
105
330
1F
100
AcDbEntity
  8
0
  6
Continuous
 62
     7
370
    15
100
AcDbSpline
210
0.0
220
0.0
230
1.0
 70
     8
 71
     3
 72
     8
 73
     4
 74
     0
 42
0.000000001
 43
0.00000001
 40
0.3672394873095648
 40
0.3672394873095648
 40
0.3672394873095648
 40
0.3672394873095648
 40
0.3837074369522274
 40
0.3837074369522274
 40
0.3837074369522274
 40
0.3837074369522274
 10
15.29040784974817
 20
13.55892172984275
 30
0.0
 10
15.35385807588827
 20
13.55963550171118
 30
0.0
 10
15.41719293480697
 20
13.5593230732205
 30
0.0
 10
15.48040785012851
 20
13.55749797219933
 30
0.0
  0
LINE
  5
106
330
1F
100
AcDbEntity
  8
0
  6
Continuous
 62
     7
370
    15
100
AcDbLine
 10
15.2904078501
 20
11.0585616091
 30
0.0
 11
15.2904078497
 21
13.5589217298
 31
0.0
  0
LINE
  5
107
330
1F
100
AcDbEntity
  8
0
  6
Continuous
 62
     7
370
    15
100
AcDbLine
 10
15.2304078501
 20
11.0585616091
 30
0.0
 11
15.2904078501
 21
11.0585616091
 31
0.0
  0
LINE
  5
108
330
1F
100
AcDbEntity
  8
0
  6
Continuous
 62
     7
370
    15
100
AcDbLine
 10
15.2304078501
 20
13.5579568361
 30
0.0
 11
15.2304078501
 21
11.0585616091
 31
0.0
  0
SPLINE
  5
109
330
1F
100
AcDbEntity
  8
0
  6
Continuous
 62
     7
370
    15
100
AcDbSpline
210
0.0
220
0.0
230
1.0
 70
     8
 71
     3
 72
     8
 73
     4
 74
     0
 42
0.000000001
 43
0.00000001
 40
0.3456615687064668
 40
0.3456615687064668
 40
0.3456615687064668
 40
0.3456615687064668
 40
0.3620516219717348
 40
0.3620516219717348
 40
0.3620516219717348
 40
0.3620516219717348
 10
15.04040784974647
 20
13.55192475862565
 30
0.0
 10
15.10385102568691
 20
13.55448042593794
 30
0.0
 10
15.16718586306138
 20
13.55665098559087
 30
0.0
 10
15.23040785012866
 20
13.55795683611448
 30
0.0
  0
LINE
  5
10A
330
1F
100
AcDbEntity
  8
0
  6
Continuous
 62
     7
370
    15
100
AcDbLine
 10
15.0404078501
 20
11.0585616091
 30
0.0
 11
15.0404078497
 21
13.5519247586
 31
0.0
  0
LINE
  5
10B
330
1F
100
AcDbEntity
  8
0
  6
Continuous
 62
     7
370
    15
100
AcDbLine
 10
14.9804078501
 20
11.0585616091
 30
0.0
 11
15.0404078501
 21
11.0585616091
 31
0.0
  0
LINE
  5
10C
330
1F
100
AcDbEntity
  8
0
  6
Continuous
 62
     7
370
    15
100
AcDbLine
 10
14.9804078501
 20
13.5494093962
 30
0.0
 11
14.9804078501
 21
11.0585616091
 31
0.0
  0
SPLINE
  5
10D
330
1F
100
AcDbEntity
  8
0
  6
Continuous
 62
     7
370
    15
100
AcDbSpline
210
0.0
220
0.0
230
1.0
 70
     8
 71
     3
 72
     8
 73
     4
 74
     0
 42
0.000000001
 43
0.00000001
 40
0.3241802498431189
 40
0.3241802498431189
 40
0.3241802498431189
 40
0.3241802498431189
 40
0.340497489902615
 40
0.340497489902615
 40
0.340497489902615
 40
0.340497489902615
 10
14.790407849745
 20
13.54097133101229
 30
0.0
 10
14.85384418446877
 20
13.54370045074843
 30
0.0
 10
14.91717900188893
 20
13.54667088511813
 30
0.0
 10
14.98040785012811
 20
13.54940939622038
 30
0.0
  0
LINE
  5
10E
330
1F
100
AcDbEntity
  8
0
  6
Continuous
 62
     7
370
    15
100
AcDbLine
 10
14.7904078501
 20
11.0585616091
 30
0.0
 11
14.7904078497
 21
13.540971331
 31
0.0
  0
LINE
  5
10F
330
1F
100
AcDbEntity
  8
0
  6
Continuous
 62
     7
370
    15
100
AcDbLine
 10
14.7304078501
 20
11.0585616091
 30
0.0
 11
14.7904078501
 21
11.0585616091
 31
0.0
  0
LINE
  5
110
330
1F
100
AcDbEntity
  8
0
  6
Continuous
 62
     7
370
    15
100
AcDbLine
 10
14.7304078501
 20
13.5384780378
 30
0.0
 11
14.7304078501
 21
11.0585616091
 31
0.0
  0
SPLINE
  5
111
330
1F
100
AcDbEntity
  8
0
  6
Continuous
 62
     7
370
    15
100
AcDbSpline
210
0.0
220
0.0
230
1.0
 70
     8
 71
     3
 72
     9
 73
     5
 74
     0
 42
0.000000001
 43
0.00000001
 40
0.3027888996146881
 40
0.3027888996146881
 40
0.3027888996146881
 40
0.3027888996146881
 40
0.3080733248440316
 40
0.3190383848531434
 40
0.3190383848531434
 40
0.3190383848531434
 40
0.3190383848531434
 10
14.54040785018021
 20
13.53252012807636
 30
0.0
 10
14.56103371351407
 20
13.53296394546673
 30
0.0
 10
14.6244332274015
 20
13.5345196164679
 30
0.0
 10
14.68773642338222
 20
13.53677786911025
 30
0.0
 10
14.73040785012822
 20
13.53847803785147
 30
0.0
  0
LINE
  5
112
330
1F
100
AcDbEntity
  8
0
  6
Continuous
 62
     7
370
    15
100
AcDbLine
 10
14.5404078501
 20
11.0585616091
 30
0.0
 11
14.5404078502
 21
13.5325201281
 31
0.0
  0
LINE
  5
113
330
1F
100
AcDbEntity
  8
0
  6
Continuous
 62
     7
370
    15
100
AcDbLine
 10
14.4804078501
 20
11.0585616091
 30
0.0
 11
14.5404078501
 21
11.0585616091
 31
0.0
  0
LINE
  5
114
330
1F
100
AcDbEntity
  8
0
  6
Continuous
 62
     7
370
    15
100
AcDbLine
 10
14.4804078501
 20
13.5313934324
 30
0.0
 11
14.4804078501
 21
11.0585616091
 31
0.0
  0
SPLINE
  5
115
330
1F
100
AcDbEntity
  8
0
  6
Continuous
 62
     7
370
    15
100
AcDbSpline
210
0.0
220
0.0
230
1.0
 70
     8
 71
     3
 72
     8
 73
     4
 74
     0
 42
0.000000001
 43
0.00000001
 40
0.2814594975795474
 40
0.2814594975795474
 40
0.2814594975795474
 40
0.2814594975795474
 40
0.2976665723494726
 40
0.2976665723494726
 40
0.2976665723494726
 40
0.2976665723494726
 10
14.29040785012874
 20
13.52937812625549
 30
0.0
 10
14.35375369234538
 20
13.5298119196657
 30
0.0
 10
14.41710824315139
 20
13.53036629043086
 30
0.0
 10
14.48040785012883
 20
13.53139343240718
 30
0.0
  0
LINE
  5
116
330
1F
100
AcDbEntity
  8
0
  6
Continuous
 62
     7
370
    15
100
AcDbLine
 10
14.2904078501
 20
11.0585616091
 30
0.0
 11
14.2904078501
 21
13.5293781263
 31
0.0
  0
LINE
  5
117
330
1F
100
AcDbEntity
  8
0
  6
Continuous
 62
     7
370
    15
100
AcDbLine
 10
14.2304078501
 20
11.0585616091
 30
0.0
 11
14.2904078501
 21
11.0585616091
 31
0.0
  0
LINE
  5
118
330
1F
100
AcDbEntity
  8
0
  6
Continuous
 62
     7
370
    15
100
AcDbLine
 10
14.2304078501
 20
13.5289921909
 30
0.0
 11
14.2304078501
 21
11.0585616091
 31
0.0
  0
SPLINE
  5
119
330
1F
100
AcDbEntity
  8
0
  6
Continuous
 62
     7
370
    15
100
AcDbSpline
210
0.0
220
0.0
230
1.0
 70
     8
 71
     3
 72
     8
 73
     4
 74
     0
 42
0.000000001
 43
0.00000001
 40
0.2601223611806419
 40
0.2601223611806419
 40
0.2601223611806419
 40
0.2601223611806419
 40
0.2763420915937986
 40
0.2763420915937986
 40
0.2763420915937986
 40
0.2763420915937986
 10
14.04040785051057
 20
13.52748812466372
 30
0.0
 10
14.10366979735117
 20
13.52821544013369
 30
0.0
 10
14.16702439777309
 20
13.52859912235442
 30
0.0
 10
14.23040785012884
 20
13.528992190881
 30
0.0
  0
LINE
  5
11A
330
1F
100
AcDbEntity
  8
0
  6
Continuous
 62
     7
370
    15
100
AcDbLine
 10
14.0404078501
 20
11.0585616091
 30
0.0
 11
14.0404078505
 21
13.5274881247
 31
0.0
  0
LINE
  5
11B
330
1F
100
AcDbEntity
  8
0
  6
Continuous
 62
     7
370
    15
100
AcDbLine
 10
13.9804078501
 20
11.0585616091
 30
0.0
 11
14.0404078501
 21
11.0585616091
 31
0.0
  0
LINE
  5
11C
330
1F
100
AcDbEntity
  8
0
  6
Continuous
 62
     7
370
    15
100
AcDbLine
 10
13.9804078501
 20
13.526683658
 30
0.0
 11
13.9804078501
 21
11.0585616091
 31
0.0
  0
SPLINE
  5
11D
330
1F
100
AcDbEntity
  8
0
  6
Continuous
 62
     7
370
    15
100
AcDbSpline
210
0.0
220
0.0
230
1.0
 70
     8
 71
     3
 72
     8
 73
     4
 74
     0
 42
0.000000001
 43
0.00000001
 40
0.2387025404924447
 40
0.2387025404924447
 40
0.2387025404924447
 40
0.2387025404924447
 40
0.2549920119633307
 40
0.2549920119633307
 40
0.2549920119633307
 40
0.2549920119633307
 10
13.79040785050712
 20
13.52199571322324
 30
0.0
 10
13.8535842916148
 20
13.52425597486715
 30
0.0
 10
13.91693916755136
 20
13.52569942551609
 30
0.0
 10
13.98040785012891
 20
13.52668365803834
 30
0.0
  0
LINE
  5
11E
330
1F
100
AcDbEntity
  8
0
  6
Continuous
 62
     7
370
    15
100
AcDbLine
 10
13.7904078501
 20
11.0585616091
 30
0.0
 11
13.7904078505
 21
13.5219957132
 31
0.0
  0
LINE
  5
11F
330
1F
100
AcDbEntity
  8
0
  6
Continuous
 62
     7
370
    15
100
AcDbLine
 10
13.7304078501
 20
11.0585616091
 30
0.0
 11
13.7904078501
 21
11.0585616091
 31
0.0
  0
LINE
  5
120
330
1F
100
AcDbEntity
  8
0
  6
Continuous
 62
     7
370
    15
100
AcDbLine
 10
13.7304078501
 20
13.5195896849
 30
0.0
 11
13.7304078501
 21
11.0585616091
 31
0.0
  0
SPLINE
  5
121
330
1F
100
AcDbEntity
  8
0
  6
Continuous
 62
     7
370
    15
100
AcDbSpline
210
0.0
220
0.0
230
1.0
 70
     8
 71
     3
 72
     8
 73
     4
 74
     0
 42
0.000000001
 43
0.00000001
 40
0.2171221330526073
 40
0.2171221330526073
 40
0.2171221330526073
 40
0.2171221330526073
 40
0.2335409259783425
 40
0.2335409259783425
 40
0.2335409259783425
 40
0.2335409259783425
 10
13.54040785050231
 20
13.50788022195169
 30
0.0
 10
13.6034949796125
 20
13.51297244231153
 30
0.0
 10
13.66685037271555
 20
13.51675353747708
 30
0.0
 10
13.73040785012957
 20
13.51958968485559
 30
0.0
  0
LINE
  5
122
330
1F
100
AcDbEntity
  8
0
  6
Continuous
 62
     7
370
    15
100
AcDbLine
 10
13.5404078501
 20
11.0585616091
 30
0.0
 11
13.5404078505
 21
13.507880222
 31
0.0
  0
LINE
  5
123
330
1F
100
AcDbEntity
  8
0
  6
Continuous
 62
     7
370
    15
100
AcDbLine
 10
13.4804078501
 20
11.0585616091
 30
0.0
 11
13.5404078501
 21
11.0585616091
 31
0.0
  0
LINE
  5
124
330
1F
100
AcDbEntity
  8
0
  6
Continuous
 62
     7
370
    15
100
AcDbLine
 10
13.4804078501
 20
13.5026223398
 30
0.0
 11
13.4804078501
 21
11.0585616091
 31
0.0
  0
SPLINE
  5
125
330
1F
100
AcDbEntity
  8
0
  6
Continuous
 62
     7
370
    15
100
AcDbSpline
210
0.0
220
0.0
230
1.0
 70
     8
 71
     3
 72
     8
 73
     4
 74
     0
 42
0.000000001
 43
0.00000001
 40
0.1952973008061668
 40
0.1952973008061668
 40
0.1952973008061668
 40
0.1952973008061668
 40
0.211909796489251
 40
0.211909796489251
 40
0.211909796489251
 40
0.211909796489251
 10
13.29040785011436
 20
13.47976353529063
 30
0.0
 10
13.35339934440045
 20
13.48909724779264
 30
0.0
 10
13.41675552764409
 20
13.49659041897408
 30
0.0
 10
13.48040785013213
 20
13.50262233981243
 30
0.0
  0
LINE
  5
126
330
1F
100
AcDbEntity
  8
0
  6
Continuous
 62
     7
370
    15
100
AcDbLine
 10
13.2904078501
 20
11.0585616091
 30
0.0
 11
13.2904078501
 21
13.4797635353
 31
0.0
  0
LINE
  5
127
330
1F
100
AcDbEntity
  8
0
  6
Continuous
 62
     7
370
    15
100
AcDbLine
 10
13.2304078501
 20
11.0585616091
 30
0.0
 11
13.2904078501
 21
11.0585616091
 31
0.0
  0
LINE
  5
128
330
1F
100
AcDbEntity
  8
0
  6
Continuous
 62
     7
370
    15
100
AcDbLine
 10
13.2304078501
 20
13.4702854232
 30
0.0
 11
13.2304078501
 21
11.0585616091
 31
0.0
  0
SPLINE
  5
129
330
1F
100
AcDbEntity
  8
0
  6
Continuous
 62
     7
370
    15
100
AcDbSpline
210
0.0
220
0.0
230
1.0
 70
     8
 71
     3
 72
     8
 73
     4
 74
     0
 42
0.000000001
 43
0.00000001
 40
0.1731346458012454
 40
0.1731346458012454
 40
0.1731346458012454
 40
0.1731346458012454
 40
0.1900128545050702
 40
0.1900128545050702
 40
0.1900128545050702
 40
0.1900128545050702
 10
13.04040785012869
 20
13.43167929698509
 30
0.0
 10
13.10329429818635
 20
13.44683762830097
 30
0.0
 10
13.16665159549158
 20
13.45957374250067
 30
0.0
 10
13.23040785012861
 20
13.47028542323273
 30
0.0
  0
LINE
  5
12A
330
1F
100
AcDbEntity
  8
0
  6
Continuous
 62
     7
370
    15
100
AcDbLine
 10
13.0404078501
 20
11.0585616091
 30
0.0
 11
13.0404078501
 21
13.431679297
 31
0.0
  0
LINE
  5
12B
330
1F
100
AcDbEntity
  8
0
  6
Continuous
 62
     7
370
    15
100
AcDbLine
 10
12.9804078501
 20
11.0585616091
 30
0.0
 11
13.0404078501
 21
11.0585616091
 31
0.0
  0
LINE
  5
12C
330
1F
100
AcDbEntity
  8
0
  6
Continuous
 62
     7
370
    15
100
AcDbLine
 10
12.9804078501
 20
13.4164309685
 30
0.0
 11
12.9804078501
 21
11.0585616091
 31
0.0
  0
SPLINE
  5
12D
330
1F
100
AcDbEntity
  8
0
  6
Continuous
 62
     7
370
    15
100
AcDbSpline
210
0.0
220
0.0
230
1.0
 70
     8
 71
     3
 72
     9
 73
     5
 74
     0
 42
0.000000001
 43
0.00000001
 40
0.0
 40
0.0
 40
0.0
 40
0.0
 40
0.1204297179345543
 40
0.1677537615500071
 40
0.1677537615500071
 40
0.1677537615500071
 40
0.1677537615500071
 10
11.15910107092863
 20
12.77514989606361
 30
0.0
 10
11.64342454199065
 20
12.74914053078994
 30
0.0
 10
12.19658536287053
 20
13.13430066320412
 30
0.0
 10
12.80494420009265
 20
13.36950828364286
 30
0.0
 10
12.98040785011419
 20
13.41643096859324
 30
0.0
  0
LINE
  5
12E
330
1F
100
AcDbEntity
  8
0
  6
Continuous
 62
     7
370
    15
100
AcDbLine
 10
11.0074926281
 20
12.0406331297
 30
0.0
 11
11.1591010709
 21
12.7751498961
 31
0.0
  0
LINE
  5
12F
330
1F
100
AcDbEntity
  8
0
  6
Continuous
 62
     7
370
    15
100
AcDbLine
 10
11.1299120891
 20
12.0153650559
 30
0.0
 11
11.0074926281
 21
12.0406331297
 31
0.0
  0
LINE
  5
130
330
1F
100
AcDbEntity
  8
0
  6
Continuous
 62
     7
370
    15
100
AcDbLine
 10
11.0520588669
 20
11.6381796171
 30
0.0
 11
11.1299120891
 21
12.0153650559
 31
0.0
  0
LINE
  5
131
330
1F
100
AcDbEntity
  8
0
  6
Continuous
 62
     7
370
    15
100
AcDbLine
 10
11.1744783279
 20
11.6129115433
 30
0.0
 11
11.0520588669
 21
11.6381796171
 31
0.0
  0
LINE
  5
132
330
1F
100
AcDbEntity
  8
0
  6
Continuous
 62
     7
370
    15
100
AcDbLine
 10
10.8498157288
 20
10.0399772267
 30
0.0
 11
11.1744783279
 21
11.6129115433
 31
0.0
  0
LINE
  5
133
330
1F
100
AcDbEntity
  8
0
  6
Continuous
 62
     7
370
    15
100
AcDbLine
 10
10.7273962677
 20
10.0652453006
 30
0.0
 11
10.8498157288
 21
10.0399772267
 31
0.0
  0
LINE
  5
134
330
1F
100
AcDbEntity
  8
0
  6
Continuous
 62
     7
370
    15
100
AcDbLine
 10
10.6495430455
 20
9.6880598618
 30
0.0
 11
10.7273962677
 21
10.0652453006
 31
0.0
  0
LINE
  5
135
330
1F
100
AcDbEntity
  8
0
  6
Continuous
 62
     7
370
    15
100
AcDbLine
 10
10.5271235844
 20
9.7133279356
 30
0.0
 11
10.6495430455
 21
9.6880598618
 31
0.0
  0
LINE
  5
136
330
1F
100
AcDbEntity
  8
0
  6
Continuous
 62
     7
370
    15
100
AcDbLine
 10
10.3439860631
 20
8.8260582202
 30
0.0
 11
10.5271235844
 21
9.7133279356
 31
0.0
  0
SPLINE
  5
137
330
1F
100
AcDbEntity
  8
0
  6
Continuous
 62
     7
370
    15
100
AcDbSpline
210
0.0
220
0.0
230
1.0
 70
     8
 71
     3
 72
    10
 73
     6
 74
     0
 42
0.000000001
 43
0.00000001
 40
0.0
 40
0.0
 40
0.0
 40
0.0
 40
0.0823013016226962
 40
0.1795476942967462
 40
0.2237543459053167
 40
0.2237543459053167
 40
0.2237543459053167
 40
0.2237543459053167
 10
10.34398606308887
 20
8.826058220150262
 30
0.0
 10
10.49786034944998
 20
8.454975299874201
 30
0.0
 10
11.21382687655176
 20
7.939684304088833
 30
0.0
 10
12.13495355483331
 20
7.413060581277532
 30
0.0
 10
12.77751297656975
 20
7.211725577889585
 30
0.0
 10
12.98040785015553
 20
7.155231146093346
 30
0.0
  0
LINE
  5
138
330
1F
100
AcDbEntity
  8
0
  6
Continuous
 62
     7
370
    15
100
AcDbLine
 10
12.9804078501
 20
10.0585616091
 30
0.0
 11
12.9804078501
 21
7.155231146
 31
0.0
  0
LINE
  5
139
330
1F
100
AcDbEntity
  8
0
  6
Continuous
 62
     7
370
    15
100
AcDbLine
 10
13.0404078501
 20
10.0585616091
 30
0.0
 11
12.9804078501
 21
10.0585616091
 31
0.0
  0
LINE
  5
13A
330
1F
100
AcDbEntity
  8
0
  6
Continuous
 62
     7
370
    15
100
AcDbLine
 10
13.0404078501
 20
7.1387213378
 30
0.0
 11
13.0404078501
 21
10.0585616091
 31
0.0
  0
SPLINE
  5
13B
330
1F
100
AcDbEntity
  8
0
  6
Continuous
 62
     7
370
    15
100
AcDbSpline
210
0.0
220
0.0
230
1.0
 70
     8
 71
     3
 72
     8
 73
     4
 74
     0
 42
0.000000001
 43
0.00000001
 40
0.2281077990543944
 40
0.2281077990543944
 40
0.2281077990543944
 40
0.2281077990543944
 40
0.2418538295526055
 40
0.2418538295526055
 40
0.2418538295526055
 40
0.2418538295526055
 10
13.04040785015458
 20
7.138721337933847
 30
0.0
 10
13.10361401680268
 20
7.121528635450547
 30
0.0
 10
13.16698543601618
 20
7.104896119496233
 30
0.0
 10
13.23040785015247
 20
7.088630610732405
 30
0.0
  0
LINE
  5
13C
330
1F
100
AcDbEntity
  8
0
  6
Continuous
 62
     7
370
    15
100
AcDbLine
 10
13.2304078501
 20
10.0585616091
 30
0.0
 11
13.2304078501
 21
7.0886306106
 31
0.0
  0
LINE
  5
13D
330
1F
100
AcDbEntity
  8
0
  6
Continuous
 62
     7
370
    15
100
AcDbLine
 10
13.2904078501
 20
10.0585616091
 30
0.0
 11
13.2304078501
 21
10.0585616091
 31
0.0
  0
LINE
  5
13E
330
1F
100
AcDbEntity
  8
0
  6
Continuous
 62
     7
370
    15
100
AcDbLine
 10
13.2904078501
 20
7.0733491988
 30
0.0
 11
13.2904078501
 21
10.0585616091
 31
0.0
  0
SPLINE
  5
13F
330
1F
100
AcDbEntity
  8
0
  6
Continuous
 62
     7
370
    15
100
AcDbSpline
210
0.0
220
0.0
230
1.0
 70
     8
 71
     3
 72
     8
 73
     4
 74
     0
 42
0.000000001
 43
0.00000001
 40
0.2461877443214997
 40
0.2461877443214997
 40
0.2461877443214997
 40
0.2461877443214997
 40
0.2599149509170593
 40
0.2599149509170593
 40
0.2599149509170593
 40
0.2599149509170593
 10
13.29040785012882
 20
7.073349198798241
 30
0.0
 10
13.35376418284611
 20
7.057317894204219
 30
0.0
 10
13.41713544581046
 20
7.041591852509013
 30
0.0
 10
13.48040785013219
 20
7.02597868691091
 30
0.0
  0
LINE
  5
140
330
1F
100
AcDbEntity
  8
0
  6
Continuous
 62
     7
370
    15
100
AcDbLine
 10
13.4804078501
 20
10.0585616091
 30
0.0
 11
13.4804078501
 21
7.0259786869
 31
0.0
  0
LINE
  5
141
330
1F
100
AcDbEntity
  8
0
  6
Continuous
 62
     7
370
    15
100
AcDbLine
 10
13.5404078501
 20
10.0585616091
 30
0.0
 11
13.4804078501
 21
10.0585616091
 31
0.0
  0
LINE
  5
142
330
1F
100
AcDbEntity
  8
0
  6
Continuous
 62
     7
370
    15
100
AcDbLine
 10
13.5404078501
 20
7.0111926002
 30
0.0
 11
13.5404078501
 21
10.0585616091
 31
0.0
  0
SPLINE
  5
143
330
1F
100
AcDbEntity
  8
0
  6
Continuous
 62
     7
370
    15
100
AcDbSpline
210
0.0
220
0.0
230
1.0
 70
     8
 71
     3
 72
     9
 73
     5
 74
     0
 42
0.000000001
 43
0.00000001
 40
0.2642564382808112
 40
0.2642564382808112
 40
0.2642564382808112
 40
0.2642564382808112
 40
0.2719562184658391
 40
0.2780495200852834
 40
0.2780495200852834
 40
0.2780495200852834
 40
0.2780495200852834
 10
13.54040785013543
 20
7.01119260020954
 30
0.0
 10
13.57585675831448
 20
7.00246421381067
 30
0.0
 10
13.63928253066252
 20
6.986857851986372
 30
0.0
 10
13.70250771934351
 20
6.971195070261899
 30
0.0
 10
13.7304078501066
 20
6.964274731940082
 30
0.0
  0
LINE
  5
144
330
1F
100
AcDbEntity
  8
0
  6
Continuous
 62
     7
370
    15
100
AcDbLine
 10
13.7304078501
 20
10.0585616091
 30
0.0
 11
13.7304078501
 21
6.964274732
 31
0.0
  0
LINE
  5
145
330
1F
100
AcDbEntity
  8
0
  6
Continuous
 62
     7
370
    15
100
AcDbLine
 10
13.7904078501
 20
10.0585616091
 30
0.0
 11
13.7304078501
 21
10.0585616091
 31
0.0
  0
LINE
  5
146
330
1F
100
AcDbEntity
  8
0
  6
Continuous
 62
     7
370
    15
100
AcDbLine
 10
13.7904078501
 20
6.9493834634
 30
0.0
 11
13.7904078501
 21
10.0585616091
 31
0.0
  0
SPLINE
  5
147
330
1F
100
AcDbEntity
  8
0
  6
Continuous
 62
     7
370
    15
100
AcDbSpline
210
0.0
220
0.0
230
1.0
 70
     8
 71
     3
 72
     8
 73
     4
 74
     0
 42
0.000000001
 43
0.00000001
 40
0.2824206601012715
 40
0.2824206601012715
 40
0.2824206601012715
 40
0.2824206601012715
 40
0.2962922674517436
 40
0.2962922674517436
 40
0.2962922674517436
 40
0.2962922674517436
 10
13.79040785010657
 20
6.949383463283181
 30
0.0
 10
13.85383373488936
 20
6.933637236184889
 30
0.0
 10
13.91713325945275
 20
6.917922434029789
 30
0.0
 10
13.98040785012883
 20
6.902356357466737
 30
0.0
  0
LINE
  5
148
330
1F
100
AcDbEntity
  8
0
  6
Continuous
 62
     7
370
    15
100
AcDbLine
 10
13.9804078501
 20
10.0585616091
 30
0.0
 11
13.9804078501
 21
6.9023563575
 31
0.0
  0
LINE
  5
149
330
1F
100
AcDbEntity
  8
0
  6
Continuous
 62
     7
370
    15
100
AcDbLine
 10
14.0404078501
 20
10.0585616091
 30
0.0
 11
13.9804078501
 21
10.0585616091
 31
0.0
  0
LINE
  5
14A
330
1F
100
AcDbEntity
  8
0
  6
Continuous
 62
     7
370
    15
100
AcDbLine
 10
14.0404078501
 20
6.887643095
 30
0.0
 11
14.0404078501
 21
10.0585616091
 31
0.0
  0
SPLINE
  5
14B
330
1F
100
AcDbEntity
  8
0
  6
Continuous
 62
     7
370
    15
100
AcDbSpline
210
0.0
220
0.0
230
1.0
 70
     8
 71
     3
 72
     8
 73
     4
 74
     0
 42
0.000000001
 43
0.00000001
 40
0.30067715388508
 40
0.30067715388508
 40
0.30067715388508
 40
0.30067715388508
 40
0.3145538899545128
 40
0.3145538899545128
 40
0.3145538899545128
 40
0.3145538899545128
 10
14.04040785012882
 20
6.887643095006126
 30
0.0
 10
14.10370020440817
 20
6.872177049148132
 30
0.0
 10
14.16699969145689
 20
6.856896945640536
 30
0.0
 10
14.23040785014907
 20
6.841920215288241
 30
0.0
  0
LINE
  5
14C
330
1F
100
AcDbEntity
  8
0
  6
Continuous
 62
     7
370
    15
100
AcDbLine
 10
14.2304078501
 20
10.0585616091
 30
0.0
 11
14.2304078501
 21
6.8419202152
 31
0.0
  0
LINE
  5
14D
330
1F
100
AcDbEntity
  8
0
  6
Continuous
 62
     7
370
    15
100
AcDbLine
 10
14.2904078501
 20
10.0585616091
 30
0.0
 11
14.2304078501
 21
10.0585616091
 31
0.0
  0
LINE
  5
14E
330
1F
100
AcDbEntity
  8
0
  6
Continuous
 62
     7
370
    15
100
AcDbLine
 10
14.2904078501
 20
6.827850997
 30
0.0
 11
14.2904078501
 21
10.0585616091
 31
0.0
  0
SPLINE
  5
14F
330
1F
100
AcDbEntity
  8
0
  6
Continuous
 62
     7
370
    15
100
AcDbSpline
210
0.0
220
0.0
230
1.0
 70
     8
 71
     3
 72
     8
 73
     4
 74
     0
 42
0.000000001
 43
0.00000001
 40
0.3189282506732994
 40
0.3189282506732994
 40
0.3189282506732994
 40
0.3189282506732994
 40
0.3327337318674229
 40
0.3327337318674229
 40
0.3327337318674229
 40
0.3327337318674229
 10
14.29040785014842
 20
6.827850997056882
 30
0.0
 10
14.35356861720253
 20
6.813153061442656
 30
0.0
 10
14.41686862295132
 20
6.798792029939899
 30
0.0
 10
14.48040785012798
 20
6.784883533659777
 30
0.0
  0
LINE
  5
150
330
1F
100
AcDbEntity
  8
0
  6
Continuous
 62
     7
370
    15
100
AcDbLine
 10
14.4804078501
 20
10.0585616091
 30
0.0
 11
14.4804078501
 21
6.7848835337
 31
0.0
  0
LINE
  5
151
330
1F
100
AcDbEntity
  8
0
  6
Continuous
 62
     7
370
    15
100
AcDbLine
 10
14.5404078501
 20
10.0585616091
 30
0.0
 11
14.4804078501
 21
10.0585616091
 31
0.0
  0
LINE
  5
152
330
1F
100
AcDbEntity
  8
0
  6
Continuous
 62
     7
370
    15
100
AcDbLine
 10
14.5404078501
 20
6.7719037365
 30
0.0
 11
14.5404078501
 21
10.0585616091
 31
0.0
  0
SPLINE
  5
153
330
1F
100
AcDbEntity
  8
0
  6
Continuous
 62
     7
370
    15
100
AcDbSpline
210
0.0
220
0.0
230
1.0
 70
     8
 71
     3
 72
     8
 73
     4
 74
     0
 42
0.000000001
 43
0.00000001
 40
0.3370738684471114
 40
0.3370738684471114
 40
0.3370738684471114
 40
0.3370738684471114
 40
0.3507355442545159
 40
0.3507355442545159
 40
0.3507355442545159
 40
0.3507355442545159
 10
14.54040785012753
 20
6.771903736505879
 30
0.0
 10
14.60344384195395
 20
6.758432998025425
 30
0.0
 10
14.66674487837207
 20
6.745441014640078
 30
0.0
 10
14.73040785012447
 20
6.733039841540475
 30
0.0
  0
LINE
  5
154
330
1F
100
AcDbEntity
  8
0
  6
Continuous
 62
     7
370
    15
100
AcDbLine
 10
14.7304078501
 20
10.0585616091
 30
0.0
 11
14.7304078501
 21
6.7330398416
 31
0.0
  0
LINE
  5
155
330
1F
100
AcDbEntity
  8
0
  6
Continuous
 62
     7
370
    15
100
AcDbLine
 10
14.7904078501
 20
10.0585616091
 30
0.0
 11
14.7304078501
 21
10.0585616091
 31
0.0
  0
LINE
  5
156
330
1F
100
AcDbEntity
  8
0
  6
Continuous
 62
     7
370
    15
100
AcDbLine
 10
14.7904078501
 20
6.7215513162
 30
0.0
 11
14.7904078501
 21
10.0585616091
 31
0.0
  0
SPLINE
  5
157
330
1F
100
AcDbEntity
  8
0
  6
Continuous
 62
     7
370
    15
100
AcDbSpline
210
0.0
220
0.0
230
1.0
 70
     8
 71
     3
 72
     8
 73
     4
 74
     0
 42
0.000000001
 43
0.00000001
 40
0.3550195681634739
 40
0.3550195681634739
 40
0.3550195681634739
 40
0.3550195681634739
 40
0.3684722757914033
 40
0.3684722757914033
 40
0.3684722757914033
 40
0.3684722757914033
 10
14.79040785012255
 20
6.721551316187486
 30
0.0
 10
14.85332993768903
 20
6.709715545348304
 30
0.0
 10
14.91663243359202
 20
6.698486720533621
 30
0.0
 10
14.98040785012964
 20
6.687971833215735
 30
0.0
  0
LINE
  5
158
330
1F
100
AcDbEntity
  8
0
  6
Continuous
 62
     7
370
    15
100
AcDbLine
 10
14.9804078501
 20
10.0585616091
 30
0.0
 11
14.9804078501
 21
6.6879718332
 31
0.0
  0
LINE
  5
159
330
1F
100
AcDbEntity
  8
0
  6
Continuous
 62
     7
370
    15
100
AcDbLine
 10
15.0404078501
 20
10.0585616091
 30
0.0
 11
14.9804078501
 21
10.0585616091
 31
0.0
  0
LINE
  5
15A
330
1F
100
AcDbEntity
  8
0
  6
Continuous
 62
     7
370
    15
100
AcDbLine
 10
15.0404078501
 20
6.6783156956
 30
0.0
 11
15.0404078501
 21
10.0585616091
 31
0.0
  0
SPLINE
  5
15B
330
1F
100
AcDbEntity
  8
0
  6
Continuous
 62
     7
370
    15
100
AcDbSpline
210
0.0
220
0.0
230
1.0
 70
     8
 71
     3
 72
     8
 73
     4
 74
     0
 42
0.000000001
 43
0.00000001
 40
0.3726810875313623
 40
0.3726810875313623
 40
0.3726810875313623
 40
0.3726810875313623
 40
0.385869601393229
 40
0.385869601393229
 40
0.385869601393229
 40
0.385869601393229
 10
15.04040785012926
 20
6.678315695568533
 30
0.0
 10
15.10322978174952
 20
6.668455525447577
 30
0.0
 10
15.16653405902457
 20
6.659313698054421
 30
0.0
 10
15.23040785012654
 20
6.650991024321892
 30
0.0
  0
LINE
  5
15C
330
1F
100
AcDbEntity
  8
0
  6
Continuous
 62
     7
370
    15
100
AcDbLine
 10
15.2304078501
 20
10.0585616091
 30
0.0
 11
15.2304078501
 21
6.6509910243
 31
0.0
  0
LINE
  5
15D
330
1F
100
AcDbEntity
  8
0
  6
Continuous
 62
     7
370
    15
100
AcDbLine
 10
15.2904078501
 20
10.0585616091
 30
0.0
 11
15.2304078501
 21
10.0585616091
 31
0.0
  0
LINE
  5
15E
330
1F
100
AcDbEntity
  8
0
  6
Continuous
 62
     7
370
    15
100
AcDbLine
 10
15.2904078501
 20
6.6434377971
 30
0.0
 11
15.2904078501
 21
10.0585616091
 31
0.0
  0
SPLINE
  5
15F
330
1F
100
AcDbEntity
  8
0
  6
Continuous
 62
     7
370
    15
100
AcDbSpline
210
0.0
220
0.0
230
1.0
 70
     8
 71
     3
 72
     9
 73
     5
 74
     0
 42
0.000000001
 43
0.00000001
 40
0.3899875088207215
 40
0.3899875088207215
 40
0.3899875088207215
 40
0.3899875088207215
 40
0.3957671945909909
 40
0.402875879243094
 40
0.402875879243094
 40
0.402875879243094
 40
0.402875879243094
 10
15.29040785012364
 20
6.643437797036612
 30
0.0
 10
15.31855924532162
 20
6.640018979755741
 30
0.0
 10
15.38159081255905
 20
6.632759505190856
 30
0.0
 10
15.44522874018261
 20
6.626354575343202
 30
0.0
 10
15.48040785012832
 20
6.622882609399007
 30
0.0
  0
LINE
  5
160
330
1F
100
AcDbEntity
  8
0
  6
Continuous
 62
     7
370
    15
100
AcDbLine
 10
15.4804078501
 20
10.0585616091
 30
0.0
 11
15.4804078501
 21
6.6228826094
 31
0.0
  0
LINE
  5
161
330
1F
100
AcDbEntity
  8
0
  6
Continuous
 62
     7
370
    15
100
AcDbLine
 10
15.5404078501
 20
10.0585616091
 30
0.0
 11
15.4804078501
 21
10.0585616091
 31
0.0
  0
LINE
  5
162
330
1F
100
AcDbEntity
  8
0
  6
Continuous
 62
     7
370
    15
100
AcDbLine
 10
15.5404078501
 20
6.6169888833
 30
0.0
 11
15.5404078501
 21
10.0585616091
 31
0.0
  0
SPLINE
  5
163
330
1F
100
AcDbEntity
  8
0
  6
Continuous
 62
     7
370
    15
100
AcDbSpline
210
0.0
220
0.0
230
1.0
 70
     8
 71
     3
 72
     8
 73
     4
 74
     0
 42
0.000000001
 43
0.00000001
 40
0.4069134472769678
 40
0.4069134472769678
 40
0.4069134472769678
 40
0.4069134472769678
 40
0.4197198242134277
 40
0.4197198242134277
 40
0.4197198242134277
 40
0.4197198242134277
 10
15.54040785012883
 20
6.616988883328244
 30
0.0
 10
15.60388405298165
 20
6.610742574100477
 30
0.0
 10
15.66742273618047
 20
6.604326074220337
 30
0.0
 10
15.73040785012882
 20
6.5965744767011
 30
0.0
  0
LINE
  5
164
330
1F
100
AcDbEntity
  8
0
  6
Continuous
 62
     7
370
    15
100
AcDbLine
 10
15.7304078501
 20
10.0585616091
 30
0.0
 11
15.7304078501
 21
6.5965744767
 31
0.0
  0
LINE
  5
165
330
1F
100
AcDbEntity
  8
0
  6
Continuous
 62
     7
370
    15
100
AcDbLine
 10
15.7904078501
 20
10.0585616091
 30
0.0
 11
15.7304078501
 21
10.0585616091
 31
0.0
  0
LINE
  5
166
330
1F
100
AcDbEntity
  8
0
  6
Continuous
 62
     7
370
    15
100
AcDbLine
 10
15.7904078501
 20
6.5887230327
 30
0.0
 11
15.7904078501
 21
10.0585616091
 31
0.0
  0
SPLINE
  5
167
330
1F
100
AcDbEntity
  8
0
  6
Continuous
 62
     7
370
    15
100
AcDbSpline
210
0.0
220
0.0
230
1.0
 70
     8
 71
     3
 72
     8
 73
     4
 74
     0
 42
0.000000001
 43
0.00000001
 40
0.4237990710074023
 40
0.4237990710074023
 40
0.4237990710074023
 40
0.4237990710074023
 40
0.4369697303086047
 40
0.4369697303086047
 40
0.4369697303086047
 40
0.4369697303086047
 10
15.79040785012882
 20
6.588723032678459
 30
0.0
 10
15.85475762479848
 20
6.579754643051342
 30
0.0
 10
15.91831433496413
 20
6.56898164989927
 30
0.0
 10
15.98040785012883
 20
6.555136883010008
 30
0.0
  0
LINE
  5
168
330
1F
100
AcDbEntity
  8
0
  6
Continuous
 62
     7
370
    15
100
AcDbLine
 10
15.9804078501
 20
10.0585616091
 30
0.0
 11
15.9804078501
 21
6.555136883
 31
0.0
  0
LINE
  5
169
330
1F
100
AcDbEntity
  8
0
  6
Continuous
 62
     7
370
    15
100
AcDbLine
 10
16.0404078501
 20
10.0585616091
 30
0.0
 11
15.9804078501
 21
10.0585616091
 31
0.0
  0
LINE
  5
16A
330
1F
100
AcDbEntity
  8
0
  6
Continuous
 62
     7
370
    15
100
AcDbLine
 10
16.0404078501
 20
6.5406356286
 30
0.0
 11
16.0404078501
 21
10.0585616091
 31
0.0
  0
SPLINE
  5
16B
330
1F
100
AcDbEntity
  8
0
  6
Continuous
 62
     7
370
    15
100
AcDbSpline
210
0.0
220
0.0
230
1.0
 70
     8
 71
     3
 72
     8
 73
     4
 74
     0
 42
0.000000001
 43
0.00000001
 40
0.4412462751496232
 40
0.4412462751496232
 40
0.4412462751496232
 40
0.4412462751496232
 40
0.4553815212458506
 40
0.4553815212458506
 40
0.4553815212458506
 40
0.4553815212458506
 10
16.04040785012883
 20
6.54063562863451
 30
0.0
 10
16.10595331804171
 20
6.523492599832113
 30
0.0
 10
16.16956278907512
 20
6.502337454945189
 30
0.0
 10
16.23040785012889
 20
6.475603722355568
 30
0.0
  0
LINE
  5
16C
330
1F
100
AcDbEntity
  8
0
  6
Continuous
 62
     7
370
    15
100
AcDbLine
 10
16.2304078501
 20
10.0585616091
 30
0.0
 11
16.2304078501
 21
6.4756037224
 31
0.0
  0
LINE
  5
16D
330
1F
100
AcDbEntity
  8
0
  6
Continuous
 62
     7
370
    15
100
AcDbLine
 10
16.2904078501
 20
10.0585616091
 30
0.0
 11
16.2304078501
 21
10.0585616091
 31
0.0
  0
LINE
  5
16E
330
1F
100
AcDbEntity
  8
0
  6
Continuous
 62
     7
370
    15
100
AcDbLine
 10
16.2904078501
 20
6.446896759
 30
0.0
 11
16.2904078501
 21
10.0585616091
 31
0.0
  0
SPLINE
  5
16F
330
1F
100
AcDbEntity
  8
0
  6
Continuous
 62
     7
370
    15
100
AcDbSpline
210
0.0
220
0.0
230
1.0
 70
     8
 71
     3
 72
     8
 73
     4
 74
     0
 42
0.000000001
 43
0.00000001
 40
0.4601018355630134
 40
0.4601018355630134
 40
0.4601018355630134
 40
0.4601018355630134
 40
0.476366477240748
 40
0.476366477240748
 40
0.476366477240748
 40
0.476366477240748
 10
16.29040785012983
 20
6.446896758956587
 30
0.0
 10
16.3581881573969
 20
6.411647644918384
 30
0.0
 10
16.42194216804371
 20
6.368319994471378
 30
0.0
 10
16.48040785016128
 20
6.314527392955722
 30
0.0
  0
LINE
  5
170
330
1F
100
AcDbEntity
  8
0
  6
Continuous
 62
     7
370
    15
100
AcDbLine
 10
16.4804078501
 20
10.0585616091
 30
0.0
 11
16.4804078501
 21
6.3145273929
 31
0.0
  0
LINE
  5
171
330
1F
100
AcDbEntity
  8
0
  6
Continuous
 62
     7
370
    15
100
AcDbLine
 10
16.5404078501
 20
10.0585616091
 30
0.0
 11
16.4804078501
 21
10.0585616091
 31
0.0
  0
LINE
  5
172
330
1F
100
AcDbEntity
  8
0
  6
Continuous
 62
     7
370
    15
100
AcDbLine
 10
16.5404078501
 20
6.2543578458
 30
0.0
 11
16.5404078501
 21
10.0585616091
 31
0.0
  0
SPLINE
  5
173
330
1F
100
AcDbEntity
  8
0
  6
Continuous
 62
     7
370
    15
100
AcDbSpline
210
0.0
220
0.0
230
1.0
 70
     8
 71
     3
 72
     9
 73
     5
 74
     0
 42
0.000000001
 43
0.00000001
 40
0.4820926645466833
 40
0.4820926645466833
 40
0.4820926645466833
 40
0.4820926645466833
 40
0.4963445281106039
 40
0.4990019245599753
 40
0.4990019245599753
 40
0.4990019245599753
 40
0.4990019245599753
 10
16.54040785014854
 20
6.254357845801573
 30
0.0
 10
16.58921802181569
 20
6.202827346966088
 30
0.0
 10
16.64611461881105
 20
6.141359218093884
 30
0.0
 10
16.71868403078691
 20
6.120059665687614
 30
0.0
 10
16.73040785012746
 20
6.11754411477635
 30
0.0
  0
LINE
  5
174
330
1F
100
AcDbEntity
  8
0
  6
Continuous
 62
     7
370
    15
100
AcDbLine
 10
16.7304078501
 20
10.0585616091
 30
0.0
 11
16.7304078501
 21
6.1175441148
 31
0.0
  0
LINE
  5
175
330
1F
100
AcDbEntity
  8
0
  6
Continuous
 62
     7
370
    15
100
AcDbLine
 10
16.7904078501
 20
10.0585616091
 30
0.0
 11
16.7304078501
 21
10.0585616091
 31
0.0
  0
LINE
  5
176
330
1F
100
AcDbEntity
  8
0
  6
Continuous
 62
     7
370
    15
100
AcDbLine
 10
16.7904078501
 20
6.1111715437
 30
0.0
 11
16.7904078501
 21
10.0585616091
 31
0.0
  0
SPLINE
  5
177
330
1F
100
AcDbEntity
  8
0
  6
Continuous
 62
     7
370
    15
100
AcDbSpline
210
0.0
220
0.0
230
1.0
 70
     8
 71
     3
 72
     9
 73
     5
 74
     0
 42
0.000000001
 43
0.00000001
 40
0.5033631647347465
 40
0.5033631647347465
 40
0.5033631647347465
 40
0.5033631647347465
 40
0.5150865882873668
 40
0.5162485830111934
 40
0.5162485830111934
 40
0.5162485830111934
 40
0.5162485830111934
 10
16.79040785012878
 20
6.111171543700122
 30
0.0
 10
16.84594120484883
 20
6.110214313710294
 30
0.0
 10
16.91141689785013
 20
6.12132883088054
 30
0.0
 10
16.97471633932628
 20
6.129190909175475
 30
0.0
 10
16.98040785012885
 20
6.129875492607203
 30
0.0
  0
LINE
  5
178
330
1F
100
AcDbEntity
  8
0
  6
Continuous
 62
     7
370
    15
100
AcDbLine
 10
16.9804078501
 20
10.0585616091
 30
0.0
 11
16.9804078501
 21
6.1298754926
 31
0.0
  0
LINE
  5
179
330
1F
100
AcDbEntity
  8
0
  6
Continuous
 62
     7
370
    15
100
AcDbLine
 10
17.0404078501
 20
10.0585616091
 30
0.0
 11
16.9804078501
 21
10.0585616091
 31
0.0
  0
LINE
  5
17A
330
1F
100
AcDbEntity
  8
0
  6
Continuous
 62
     7
370
    15
100
AcDbLine
 10
17.0404078501
 20
6.1363324689
 30
0.0
 11
17.0404078501
 21
10.0585616091
 31
0.0
  0
SPLINE
  5
17B
330
1F
100
AcDbEntity
  8
0
  6
Continuous
 62
     7
370
    15
100
AcDbSpline
210
0.0
220
0.0
230
1.0
 70
     8
 71
     3
 72
     8
 73
     4
 74
     0
 42
0.000000001
 43
0.00000001
 40
0.5203721473863839
 40
0.5203721473863839
 40
0.5203721473863839
 40
0.5203721473863839
 40
0.5338278113581916
 40
0.5338278113581916
 40
0.5338278113581916
 40
0.5338278113581916
 10
17.04040785012705
 20
6.136332468933941
 30
0.0
 10
17.1050708817801
 20
6.142550785565444
 30
0.0
 10
17.1679252317558
 20
6.146465721442164
 30
0.0
 10
17.23040785012924
 20
6.151242401821862
 30
0.0
  0
LINE
  5
17C
330
1F
100
AcDbEntity
  8
0
  6
Continuous
 62
     7
370
    15
100
AcDbLine
 10
17.2304078501
 20
10.0585616091
 30
0.0
 11
17.2304078501
 21
6.1512424018
 31
0.0
  0
LINE
  5
17D
330
1F
100
AcDbEntity
  8
0
  6
Continuous
 62
     7
370
    15
100
AcDbLine
 10
17.2904078501
 20
10.0585616091
 30
0.0
 11
17.2304078501
 21
10.0585616091
 31
0.0
  0
LINE
  5
17E
330
1F
100
AcDbEntity
  8
0
  6
Continuous
 62
     7
370
    15
100
AcDbLine
 10
17.2904078501
 20
6.1562040186
 30
0.0
 11
17.2904078501
 21
10.0585616091
 31
0.0
  0
SPLINE
  5
17F
330
1F
100
AcDbEntity
  8
0
  6
Continuous
 62
     7
370
    15
100
AcDbSpline
210
0.0
220
0.0
230
1.0
 70
     8
 71
     3
 72
     8
 73
     4
 74
     0
 42
0.000000001
 43
0.00000001
 40
0.5381396486810598
 40
0.5381396486810598
 40
0.5381396486810598
 40
0.5381396486810598
 40
0.5517833511052017
 40
0.5517833511052017
 40
0.5517833511052017
 40
0.5517833511052017
 10
17.29040785012883
 20
6.156204018624209
 30
0.0
 10
17.35367107163017
 20
6.161935416967738
 30
0.0
 10
17.41699537283737
 20
6.169517601747295
 30
0.0
 10
17.48040785012883
 20
6.178444563610968
 30
0.0
  0
LINE
  5
180
330
1F
100
AcDbEntity
  8
0
  6
Continuous
 62
     7
370
    15
100
AcDbLine
 10
17.4804078501
 20
10.0585616091
 30
0.0
 11
17.4804078501
 21
6.1784445636
 31
0.0
  0
LINE
  5
181
330
1F
100
AcDbEntity
  8
0
  6
Continuous
 62
     7
370
    15
100
AcDbLine
 10
17.5404078501
 20
10.0585616091
 30
0.0
 11
17.4804078501
 21
10.0585616091
 31
0.0
  0
LINE
  5
182
330
1F
100
AcDbEntity
  8
0
  6
Continuous
 62
     7
370
    15
100
AcDbLine
 10
17.5404078501
 20
6.1872724048
 30
0.0
 11
17.5404078501
 21
10.0585616091
 31
0.0
  0
SPLINE
  5
183
330
1F
100
AcDbEntity
  8
0
  6
Continuous
 62
     7
370
    15
100
AcDbSpline
210
0.0
220
0.0
230
1.0
 70
     8
 71
     3
 72
     8
 73
     4
 74
     0
 42
0.000000001
 43
0.00000001
 40
0.5560845649212955
 40
0.5560845649212955
 40
0.5560845649212955
 40
0.5560845649212955
 40
0.5696761732808376
 40
0.5696761732808376
 40
0.5696761732808376
 40
0.5696761732808376
 10
17.54040785012883
 20
6.18727240483735
 30
0.0
 10
17.60363627327909
 20
6.196959836416925
 30
0.0
 10
17.66696067755463
 20
6.207823490517815
 30
0.0
 10
17.73040785014113
 20
6.219363131784869
 30
0.0
  0
LINE
  5
184
330
1F
100
AcDbEntity
  8
0
  6
Continuous
 62
     7
370
    15
100
AcDbLine
 10
17.7304078501
 20
10.0585616091
 30
0.0
 11
17.7304078501
 21
6.2193631319
 31
0.0
  0
LINE
  5
185
330
1F
100
AcDbEntity
  8
0
  6
Continuous
 62
     7
370
    15
100
AcDbLine
 10
17.7904078501
 20
10.0585616091
 30
0.0
 11
17.7304078501
 21
10.0585616091
 31
0.0
  0
LINE
  5
186
330
1F
100
AcDbEntity
  8
0
  6
Continuous
 62
     7
370
    15
100
AcDbLine
 10
17.7904078501
 20
6.2304546273
 30
0.0
 11
17.7904078501
 21
10.0585616091
 31
0.0
  0
SPLINE
  5
187
330
1F
100
AcDbEntity
  8
0
  6
Continuous
 62
     7
370
    15
100
AcDbSpline
210
0.0
220
0.0
230
1.0
 70
     8
 71
     3
 72
     8
 73
     4
 74
     0
 42
0.000000001
 43
0.00000001
 40
0.5739578893202106
 40
0.5739578893202106
 40
0.5739578893202106
 40
0.5739578893202106
 40
0.5874783648220746
 40
0.5874783648220746
 40
0.5874783648220746
 40
0.5874783648220746
 10
17.79040785014188
 20
6.230454627252371
 30
0.0
 10
17.85360255666385
 20
6.242308169079771
 30
0.0
 10
17.91692710039625
 20
6.25467469872743
 30
0.0
 10
17.9804078501429
 20
6.267061793881891
 30
0.0
  0
LINE
  5
188
330
1F
100
AcDbEntity
  8
0
  6
Continuous
 62
     7
370
    15
100
AcDbLine
 10
17.9804078501
 20
10.0585616091
 30
0.0
 11
17.9804078501
 21
6.267061794
 31
0.0
  0
LINE
  5
189
330
1F
100
AcDbEntity
  8
0
  6
Continuous
 62
     7
370
    15
100
AcDbLine
 10
18.0404078501
 20
10.0585616091
 30
0.0
 11
17.9804078501
 21
10.0585616091
 31
0.0
  0
LINE
  5
18A
330
1F
100
AcDbEntity
  8
0
  6
Continuous
 62
     7
370
    15
100
AcDbLine
 10
18.0404078501
 20
6.2787512137
 30
0.0
 11
18.0404078501
 21
10.0585616091
 31
0.0
  0
CIRCLE
  5
18B
330
1F
100
AcDbEntity
  8
0
  6
Continuous
 62
     7
370
    15
100
AcDbCircle
 10
22.4015266114
 20
9.7018999033
 30
0.0
 40
0.0937500000000071
  0
LINE
  5
18C
330
1F
100
AcDbEntity
  8
0
  6
Continuous
 62
     7
370
    15
100
AcDbLine
 10
11.9796389566
 20
10.7182786123
 30
0.0
 11
12.5969567074
 21
12.5025928729
 31
0.0
  0
LINE
  5
18D
330
1F
100
AcDbEntity
  8
0
  6
Continuous
 62
     7
370
    15
100
AcDbLine
 10
11.861508956
 20
10.7591479524
 30
0.0
 11
11.9796389566
 21
10.7182786123
 31
0.0
  0
LINE
  5
18E
330
1F
100
AcDbEntity
  8
0
  6
Continuous
 62
     7
370
    15
100
AcDbLine
 10
12.4788267068
 20
12.543462213
 30
0.0
 11
11.861508956
 21
10.7591479524
 31
0.0
  0
LINE
  5
18F
330
1F
100
AcDbEntity
  8
0
  6
Continuous
 62
     7
370
    15
100
AcDbLine
 10
12.5969567074
 20
12.5025928729
 30
0.0
 11
12.4788267068
 21
12.543462213
 31
0.0
  0
ENDSEC
  0
SECTION
  2
OBJECTS
  0
DICTIONARY
  5
C
330
0
100
AcDbDictionary
281
     1
  3
ACAD_GROUP
350
D
  3
ACAD_LAYOUT
350
1A
  3
ACAD_MLINESTYLE
350
17
  3
ACAD_PLOTSETTINGS
350
19
  3
ACAD_PLOTSTYLENAME
350
E
  3
ACAD_SCALELIST
350
47
  0
DICTIONARY
  5
D
102
{ACAD_REACTORS
330
C
102
}
330
C
100
AcDbDictionary
281
     1
  0
DICTIONARY
  5
1A
102
{ACAD_REACTORS
330
C
102
}
330
C
100
AcDbDictionary
281
     1
  3
Layout1
350
1E
  3
Layout2
350
26
  3
Model
350
22
  0
DICTIONARY
  5
17
102
{ACAD_REACTORS
330
C
102
}
330
C
100
AcDbDictionary
281
     1
  3
Standard
350
18
  0
DICTIONARY
  5
19
102
{ACAD_REACTORS
330
C
102
}
330
C
100
AcDbDictionary
281
     1
  0
ACDBDICTIONARYWDFLT
  5
E
102
{ACAD_REACTORS
330
C
102
}
330
C
100
AcDbDictionary
281
     1
  3
Normal
350
F
100
AcDbDictionaryWithDefault
340
F
  0
DICTIONARY
  5
47
102
{ACAD_REACTORS
330
C
102
}
330
C
100
AcDbDictionary
281
     1
  3
A0
350
48
  3
A1
350
49
  3
A2
350
4A
  3
A3
350
4B
  3
A4
350
4C
  3
A5
350
4D
  3
A6
350
4E
  3
A7
350
4F
  3
A8
350
50
  3
A9
350
51
  3
B0
350
52
  3
B1
350
53
  3
B2
350
54
  3
B3
350
55
  3
B4
350
56
  3
B5
350
57
  3
B6
350
58
  3
B7
350
59
  3
B8
350
5A
  3
B9
350
5B
  3
C0
350
5C
  3
C1
350
5D
  3
C2
350
5E
  3
C3
350
5F
  3
C4
350
60
  3
C5
350
61
  3
C6
350
62
  3
C7
350
63
  3
C8
350
64
  3
C9
350
65
  3
D0
350
66
  3
D1
350
67
  3
D2
350
68
  0
LAYOUT
  5
1E
102
{ACAD_REACTORS
330
1A
102
}
330
1A
100
AcDbPlotSettings
  1

  2
none_device
  4

  6

 40
0.0
 41
0.0
 42
0.0
 43
0.0
 44
0.0
 45
0.0
 46
0.0
 47
0.0
 48
0.0
 49
0.0
140
0.0
141
0.0
142
1.0
143
1.0
 70
   688
 72
     0
 73
     0
 74
     5
  7

 75
    16
147
1.0
148
0.0
149
0.0
100
AcDbLayout
  1
Layout1
 70
     1
 71
     1
 10
0.0
 20
0.0
 11
12.0
 21
9.0
 12
0.0
 22
0.0
 32
0.0
 14
1.0000000000E+20
 24
1.0000000000E+20
 34
1.0000000000E+20
 15
-1.0000000000E+20
 25
-1.0000000000E+20
 35
-1.0000000000E+20
146
0.0
 13
0.0
 23
0.0
 33
0.0
 16
1.0
 26
0.0
 36
0.0
 17
0.0
 27
1.0
 37
0.0
 76
     0
330
1B
  0
LAYOUT
  5
26
102
{ACAD_REACTORS
330
1A
102
}
330
1A
100
AcDbPlotSettings
  1

  2
none_device
  4

  6

 40
0.0
 41
0.0
 42
0.0
 43
0.0
 44
0.0
 45
0.0
 46
0.0
 47
0.0
 48
0.0
 49
0.0
140
0.0
141
0.0
142
1.0
143
1.0
 70
   688
 72
     0
 73
     0
 74
     5
  7

 75
    16
147
1.0
148
0.0
149
0.0
100
AcDbLayout
  1
Layout2
 70
     1
 71
     2
 10
0.0
 20
0.0
 11
0.0
 21
0.0
 12
0.0
 22
0.0
 32
0.0
 14
0.0
 24
0.0
 34
0.0
 15
0.0
 25
0.0
 35
0.0
146
0.0
 13
0.0
 23
0.0
 33
0.0
 16
1.0
 26
0.0
 36
0.0
 17
0.0
 27
1.0
 37
0.0
 76
     0
330
23
  0
LAYOUT
  5
22
102
{ACAD_REACTORS
330
1A
102
}
330
1A
100
AcDbPlotSettings
  1

  2
none_device
  4
ANSI_A_(11.00_x_8.50_Inches)
  6

 40
6.35
 41
19.05
 42
6.35000508
 43
19.05000254
 44
279.4
 45
215.9
 46
-228.9255264572
 47
-124.056375664
 48
0.0
 49
0.0
140
0.0
141
0.0
142
0.8524582157
143
1.0
 70
  1696
 72
     0
 73
     0
 74
     0
  7

 75
     0
147
0.5913241897
148
-39.4088153714
149
0.0
100
AcDbLayout
  1
Model
 70
     1
 71
     0
 10
0.0
 20
0.0
 11
12.0
 21
9.0
 12
0.0
 22
0.0
 32
0.0
 14
10.3439860631
 24
6.1111715437
 34
0.0
 15
23.1188057549
 25
13.559257045
 35
0.0
146
0.0
 13
0.0
 23
0.0
 33
0.0
 16
1.0
 26
0.0
 36
0.0
 17
0.0
 27
1.0
 37
0.0
 76
     0
330
1F
331
29
  0
MLINESTYLE
  5
18
102
{ACAD_REACTORS
330
17
102
}
330
17
100
AcDbMlineStyle
  2
Standard
 70
     0
  3

 62
   256
 51
90.0
 52
90.0
 71
     2
 49
0.5
 62
   256
  6
BYLAYER
 49
-0.5
 62
   256
  6
BYLAYER
  0
ACDBPLACEHOLDER
  5
F
102
{ACAD_REACTORS
330
E
102
}
330
E
  0
SCALE
  5
48
102
{ACAD_REACTORS
330
47
102
}
330
47
100
AcDbScale
 70
     0
300
1:1
140
1.0
141
1.0
290
     1
  0
SCALE
  5
49
102
{ACAD_REACTORS
330
47
102
}
330
47
100
AcDbScale
 70
     0
300
1:2
140
1.0
141
2.0
290
     0
  0
SCALE
  5
4A
102
{ACAD_REACTORS
330
47
102
}
330
47
100
AcDbScale
 70
     0
300
1:4
140
1.0
141
4.0
290
     0
  0
SCALE
  5
4B
102
{ACAD_REACTORS
330
47
102
}
330
47
100
AcDbScale
 70
     0
300
1:5
140
1.0
141
5.0
290
     0
  0
SCALE
  5
4C
102
{ACAD_REACTORS
330
47
102
}
330
47
100
AcDbScale
 70
     0
300
1:8
140
1.0
141
8.0
290
     0
  0
SCALE
  5
4D
102
{ACAD_REACTORS
330
47
102
}
330
47
100
AcDbScale
 70
     0
300
1:10
140
1.0
141
10.0
290
     0
  0
SCALE
  5
4E
102
{ACAD_REACTORS
330
47
102
}
330
47
100
AcDbScale
 70
     0
300
1:16
140
1.0
141
16.0
290
     0
  0
SCALE
  5
4F
102
{ACAD_REACTORS
330
47
102
}
330
47
100
AcDbScale
 70
     0
300
1:20
140
1.0
141
20.0
290
     0
  0
SCALE
  5
50
102
{ACAD_REACTORS
330
47
102
}
330
47
100
AcDbScale
 70
     0
300
1:30
140
1.0
141
30.0
290
     0
  0
SCALE
  5
51
102
{ACAD_REACTORS
330
47
102
}
330
47
100
AcDbScale
 70
     0
300
1:40
140
1.0
141
40.0
290
     0
  0
SCALE
  5
52
102
{ACAD_REACTORS
330
47
102
}
330
47
100
AcDbScale
 70
     0
300
1:50
140
1.0
141
50.0
290
     0
  0
SCALE
  5
53
102
{ACAD_REACTORS
330
47
102
}
330
47
100
AcDbScale
 70
     0
300
1:100
140
1.0
141
100.0
290
     0
  0
SCALE
  5
54
102
{ACAD_REACTORS
330
47
102
}
330
47
100
AcDbScale
 70
     0
300
2:1
140
2.0
141
1.0
290
     0
  0
SCALE
  5
55
102
{ACAD_REACTORS
330
47
102
}
330
47
100
AcDbScale
 70
     0
300
4:1
140
4.0
141
1.0
290
     0
  0
SCALE
  5
56
102
{ACAD_REACTORS
330
47
102
}
330
47
100
AcDbScale
 70
     0
300
8:1
140
8.0
141
1.0
290
     0
  0
SCALE
  5
57
102
{ACAD_REACTORS
330
47
102
}
330
47
100
AcDbScale
 70
     0
300
10:1
140
10.0
141
1.0
290
     0
  0
SCALE
  5
58
102
{ACAD_REACTORS
330
47
102
}
330
47
100
AcDbScale
 70
     0
300
100:1
140
100.0
141
1.0
290
     0
  0
SCALE
  5
59
102
{ACAD_REACTORS
330
47
102
}
330
47
100
AcDbScale
 70
     0
300
1/128" = 1'-0"
140
0.0078125
141
12.0
290
     0
  0
SCALE
  5
5A
102
{ACAD_REACTORS
330
47
102
}
330
47
100
AcDbScale
 70
     0
300
1/64" = 1'-0"
140
0.015625
141
12.0
290
     0
  0
SCALE
  5
5B
102
{ACAD_REACTORS
330
47
102
}
330
47
100
AcDbScale
 70
     0
300
1/32" = 1'-0"
140
0.03125
141
12.0
290
     0
  0
SCALE
  5
5C
102
{ACAD_REACTORS
330
47
102
}
330
47
100
AcDbScale
 70
     0
300
1/16" = 1'-0"
140
0.0625
141
12.0
290
     0
  0
SCALE
  5
5D
102
{ACAD_REACTORS
330
47
102
}
330
47
100
AcDbScale
 70
     0
300
3/32" = 1'-0"
140
0.09375
141
12.0
290
     0
  0
SCALE
  5
5E
102
{ACAD_REACTORS
330
47
102
}
330
47
100
AcDbScale
 70
     0
300
1/8" = 1'-0"
140
0.125
141
12.0
290
     0
  0
SCALE
  5
5F
102
{ACAD_REACTORS
330
47
102
}
330
47
100
AcDbScale
 70
     0
300
3/16" = 1'-0"
140
0.1875
141
12.0
290
     0
  0
SCALE
  5
60
102
{ACAD_REACTORS
330
47
102
}
330
47
100
AcDbScale
 70
     0
300
1/4" = 1'-0"
140
0.25
141
12.0
290
     0
  0
SCALE
  5
61
102
{ACAD_REACTORS
330
47
102
}
330
47
100
AcDbScale
 70
     0
300
3/8" = 1'-0"
140
0.375
141
12.0
290
     0
  0
SCALE
  5
62
102
{ACAD_REACTORS
330
47
102
}
330
47
100
AcDbScale
 70
     0
300
1/2" = 1'-0"
140
0.5
141
12.0
290
     0
  0
SCALE
  5
63
102
{ACAD_REACTORS
330
47
102
}
330
47
100
AcDbScale
 70
     0
300
3/4" = 1'-0"
140
0.75
141
12.0
290
     0
  0
SCALE
  5
64
102
{ACAD_REACTORS
330
47
102
}
330
47
100
AcDbScale
 70
     0
300
1" = 1'-0"
140
1.0
141
12.0
290
     0
  0
SCALE
  5
65
102
{ACAD_REACTORS
330
47
102
}
330
47
100
AcDbScale
 70
     0
300
1-1/2" = 1'-0"
140
1.5
141
12.0
290
     0
  0
SCALE
  5
66
102
{ACAD_REACTORS
330
47
102
}
330
47
100
AcDbScale
 70
     0
300
3" = 1'-0"
140
3.0
141
12.0
290
     0
  0
SCALE
  5
67
102
{ACAD_REACTORS
330
47
102
}
330
47
100
AcDbScale
 70
     0
300
6" = 1'-0"
140
6.0
141
12.0
290
     0
  0
SCALE
  5
68
102
{ACAD_REACTORS
330
47
102
}
330
47
100
AcDbScale
 70
     0
300
1'-0" = 1'-0"
140
12.0
141
12.0
290
     0
  0
ENDSEC
  0
EOF
