  0
SECTION
  2
HEADER
  9
$ACADVER
  1
AC1015
  9
$ACADMAINTVER
 70
     6
  9
$DWGCODEPAGE
  3
ANSI_1252
  9
$INSBASE
 10
0.0
 20
0.0
 30
0.0
  9
$EXTMIN
 10
10.7701341189
 20
7.9110903761
 30
0.0
  9
$EXTMAX
 10
23.1425365432
 20
13.0629261827
 30
0.0
  9
$LIMMIN
 10
0.0
 20
0.0
  9
$LIMMAX
 10
12.0
 20
9.0
  9
$ORTHOMODE
 70
     0
  9
$REGENMODE
 70
     1
  9
$FILLMODE
 70
     1
  9
$QTEXTMODE
 70
     0
  9
$MIRRTEXT
 70
     1
  9
$LTSCALE
 40
1.0
  9
$ATTMODE
 70
     1
  9
$TEXTSIZE
 40
0.125
  9
$TRACEWID
 40
0.05
  9
$TEXTSTYLE
  7
Standard
  9
$CLAYER
  8
0
  9
$CELTYPE
  6
ByLayer
  9
$CECOLOR
 62
   256
  9
$CELTSCALE
 40
1.0
  9
$DISPSILH
 70
     0
  9
$DIMSCALE
 40
1.0
  9
$DIMASZ
 40
0.13
  9
$DIMEXO
 40
0.05
  9
$DIMDLI
 40
0.38
  9
$DIMRND
 40
0.0
  9
$DIMDLE
 40
0.0
  9
$DIMEXE
 40
0.125
  9
$DIMTP
 40
0.0
  9
$DIMTM
 40
0.0
  9
$DIMTXT
 40
0.125
  9
$DIMCEN
 40
0.09
  9
$DIMTSZ
 40
0.0
  9
$DIMTOL
 70
     0
  9
$DIMLIM
 70
     0
  9
$DIMTIH
 70
     1
  9
$DIMTOH
 70
     1
  9
$DIMSE1
 70
     0
  9
$DIMSE2
 70
     0
  9
$DIMTAD
 70
     0
  9
$DIMZIN
 70
     0
  9
$DIMBLK
  1

  9
$DIMASO
 70
     1
  9
$DIMSHO
 70
     1
  9
$DIMPOST
  1

  9
$DIMAPOST
  1

  9
$DIMALT
 70
     0
  9
$DIMALTD
 70
     2
  9
$DIMALTF
 40
25.4
  9
$DIMLFAC
 40
1.0
  9
$DIMTOFL
 70
     0
  9
$DIMTVP
 40
0.0
  9
$DIMTIX
 70
     0
  9
$DIMSOXD
 70
     0
  9
$DIMSAH
 70
     0
  9
$DIMBLK1
  1

  9
$DIMBLK2
  1

  9
$DIMSTYLE
  2
Standard
  9
$DIMCLRD
 70
     0
  9
$DIMCLRE
 70
     0
  9
$DIMCLRT
 70
     0
  9
$DIMTFAC
 40
1.0
  9
$DIMGAP
 40
0.06
  9
$DIMJUST
 70
     0
  9
$DIMSD1
 70
     0
  9
$DIMSD2
 70
     0
  9
$DIMTOLJ
 70
     1
  9
$DIMTZIN
 70
     0
  9
$DIMALTZ
 70
     0
  9
$DIMALTTZ
 70
     0
  9
$DIMUPT
 70
     0
  9
$DIMDEC
 70
     2
  9
$DIMTDEC
 70
     2
  9
$DIMALTU
 70
     2
  9
$DIMALTTD
 70
     2
  9
$DIMTXSTY
  7
Standard
  9
$DIMAUNIT
 70
     0
  9
$DIMADEC
 70
     2
  9
$DIMALTRND
 40
0.0
  9
$DIMAZIN
 70
     0
  9
$DIMDSEP
 70
    46
  9
$DIMATFIT
 70
     3
  9
$DIMFRAC
 70
     0
  9
$DIMLDRBLK
  1

  9
$DIMLUNIT
 70
     2
  9
$DIMLWD
 70
    -2
  9
$DIMLWE
 70
    -2
  9
$DIMTMOVE
 70
     0
  9
$LUNITS
 70
     2
  9
$LUPREC
 70
     2
  9
$SKETCHINC
 40
0.1
  9
$FILLETRAD
 40
0.5
  9
$AUNITS
 70
     0
  9
$AUPREC
 70
     2
  9
$MENU
  1
.
  9
$ELEVATION
 40
0.0
  9
$PELEVATION
 40
0.0
  9
$THICKNESS
 40
0.0
  9
$LIMCHECK
 70
     0
  9
$CHAMFERA
 40
0.0
  9
$CHAMFERB
 40
0.0
  9
$CHAMFERC
 40
0.0
  9
$CHAMFERD
 40
0.0
  9
$SKPOLY
 70
     0
  9
$TDCREATE
 40
2457426.457247558
  9
$TDUCREATE
 40
2457426.790580891
  9
$TDUPDATE
 40
2457426.457283704
  9
$TDUUPDATE
 40
2457426.790617037
  9
$TDINDWG
 40
0.0000000116
  9
$TDUSRTIMER
 40
0.0000000116
  9
$USRTIMER
 70
     1
  9
$ANGBASE
 50
0.0
  9
$ANGDIR
 70
     0
  9
$PDMODE
 70
     0
  9
$PDSIZE
 40
-1.0
  9
$PLINEWID
 40
0.0
  9
$SPLFRAME
 70
     0
  9
$SPLINETYPE
 70
     6
  9
$SPLINESEGS
 70
     8
  9
$HANDSEED
  5
1AA
  9
$SURFTAB1
 70
     6
  9
$SURFTAB2
 70
     6
  9
$SURFTYPE
 70
     6
  9
$SURFU
 70
     6
  9
$SURFV
 70
     6
  9
$UCSBASE
  2

  9
$UCSNAME
  2

  9
$UCSORG
 10
0.0
 20
0.0
 30
0.0
  9
$UCSXDIR
 10
1.0
 20
0.0
 30
0.0
  9
$UCSYDIR
 10
0.0
 20
1.0
 30
0.0
  9
$UCSORTHOREF
  2

  9
$UCSORTHOVIEW
 70
     0
  9
$UCSORGTOP
 10
0.0
 20
0.0
 30
0.0
  9
$UCSORGBOTTOM
 10
0.0
 20
0.0
 30
0.0
  9
$UCSORGLEFT
 10
0.0
 20
0.0
 30
0.0
  9
$UCSORGRIGHT
 10
0.0
 20
0.0
 30
0.0
  9
$UCSORGFRONT
 10
0.0
 20
0.0
 30
0.0
  9
$UCSORGBACK
 10
0.0
 20
0.0
 30
0.0
  9
$PUCSBASE
  2

  9
$PUCSNAME
  2

  9
$PUCSORG
 10
0.0
 20
0.0
 30
0.0
  9
$PUCSXDIR
 10
1.0
 20
0.0
 30
0.0
  9
$PUCSYDIR
 10
0.0
 20
1.0
 30
0.0
  9
$PUCSORTHOREF
  2

  9
$PUCSORTHOVIEW
 70
     0
  9
$PUCSORGTOP
 10
0.0
 20
0.0
 30
0.0
  9
$PUCSORGBOTTOM
 10
0.0
 20
0.0
 30
0.0
  9
$PUCSORGLEFT
 10
0.0
 20
0.0
 30
0.0
  9
$PUCSORGRIGHT
 10
0.0
 20
0.0
 30
0.0
  9
$PUCSORGFRONT
 10
0.0
 20
0.0
 30
0.0
  9
$PUCSORGBACK
 10
0.0
 20
0.0
 30
0.0
  9
$USERI1
 70
     0
  9
$USERI2
 70
     0
  9
$USERI3
 70
     0
  9
$USERI4
 70
     0
  9
$USERI5
 70
     0
  9
$USERR1
 40
0.0
  9
$USERR2
 40
0.0
  9
$USERR3
 40
0.0
  9
$USERR4
 40
0.0
  9
$USERR5
 40
0.0
  9
$WORLDVIEW
 70
     1
  9
$SHADEDGE
 70
     3
  9
$SHADEDIF
 70
    70
  9
$TILEMODE
 70
     1
  9
$MAXACTVP
 70
    64
  9
$PINSBASE
 10
0.0
 20
0.0
 30
0.0
  9
$PLIMCHECK
 70
     0
  9
$PEXTMIN
 10
1.0000000000E+20
 20
1.0000000000E+20
 30
1.0000000000E+20
  9
$PEXTMAX
 10
-1.0000000000E+20
 20
-1.0000000000E+20
 30
-1.0000000000E+20
  9
$PLIMMIN
 10
0.0
 20
0.0
  9
$PLIMMAX
 10
12.0
 20
9.0
  9
$UNITMODE
 70
     0
  9
$VISRETAIN
 70
     1
  9
$PLINEGEN
 70
     0
  9
$PSLTSCALE
 70
     1
  9
$TREEDEPTH
 70
  3020
  9
$CMLSTYLE
  2
Standard
  9
$CMLJUST
 70
     0
  9
$CMLSCALE
 40
1.0
  9
$PROXYGRAPHICS
 70
     1
  9
$MEASUREMENT
 70
     0
  9
$CELWEIGHT
370
    -1
  9
$ENDCAPS
280
     0
  9
$JOINSTYLE
280
     0
  9
$LWDISPLAY
290
     1
  9
$INSUNITS
 70
     1
  9
$HYPERLINKBASE
  1

  9
$STYLESHEET
  1

  9
$XEDIT
290
     1
  9
$CEPSNTYPE
380
     0
  9
$PSTYLEMODE
290
     1
  9
$FINGERPRINTGUID
  2
{CB95E972-2A72-4701-B2B4-76B51A6E5127}
  9
$VERSIONGUID
  2
{FAEB1C32-E019-11D5-929B-00C0DF256EC4}
  9
$EXTNAMES
290
     1
  9
$PSVPSCALE
 40
0.0
  9
$OLESTARTUP
290
     0
  0
ENDSEC
  0
SECTION
  2
CLASSES
  0
CLASS
  1
ACDBDICTIONARYWDFLT
  2
AcDbDictionaryWithDefault
  3
ObjectDBX Classes
 90
        0
280
     0
281
     0
  0
CLASS
  1
VISUALSTYLE
  2
AcDbVisualStyle
  3
ObjectDBX Classes
 90
     4095
280
     0
281
     0
  0
CLASS
  1
MATERIAL
  2
AcDbMaterial
  3
ObjectDBX Classes
 90
     1153
280
     0
281
     0
  0
CLASS
  1
SCALE
  2
AcDbScale
  3
ObjectDBX Classes
 90
     1153
280
     0
281
     0
  0
CLASS
  1
TABLESTYLE
  2
AcDbTableStyle
  3
ObjectDBX Classes
 90
     4095
280
     0
281
     0
  0
CLASS
  1
MLEADERSTYLE
  2
AcDbMLeaderStyle
  3
ACDB_MLEADERSTYLE_CLASS
 90
     4095
280
     0
281
     0
  0
CLASS
  1
SUN
  2
AcDbSun
  3
SCENEOE
 90
     1153
280
     0
281
     0
  0
CLASS
  1
ACDBPLACEHOLDER
  2
AcDbPlaceHolder
  3
ObjectDBX Classes
 90
        0
280
     0
281
     0
  0
CLASS
  1
LAYOUT
  2
AcDbLayout
  3
ObjectDBX Classes
 90
        0
280
     0
281
     0
  0
ENDSEC
  0
SECTION
  2
TABLES
  0
TABLE
  2
VPORT
  5
8
330
0
100
AcDbSymbolTable
 70
     1
  0
VPORT
  5
29
330
8
100
AcDbSymbolTableRecord
100
AcDbViewportTableRecord
  2
*Active
 70
     0
 10
0.0
 20
0.0
 11
1.0
 21
1.0
 12
16.9563353311
 22
10.4870082794
 13
0.0
 23
0.0
 14
0.5
 24
0.5
 15
0.5
 25
0.5
 16
0.0
 26
0.0
 36
1.0
 17
0.0
 27
0.0
 37
0.0
 40
5.2548725227
 41
2.4015521629
 42
50.0
 43
0.0
 44
0.0
 50
0.0
 51
0.0
 71
     0
 72
   100
 73
     1
 74
     3
 75
     0
 76
     0
 77
     0
 78
     0
281
     0
 65
     1
110
0.0
120
0.0
130
0.0
111
1.0
121
0.0
131
0.0
112
0.0
122
1.0
132
0.0
 79
     0
146
0.0
  0
ENDTAB
  0
TABLE
  2
LTYPE
  5
5
330
0
100
AcDbSymbolTable
 70
     6
  0
LTYPE
  5
14
330
5
100
AcDbSymbolTableRecord
100
AcDbLinetypeTableRecord
  2
ByBlock
 70
     0
  3

 72
    65
 73
     0
 40
0.0
  0
LTYPE
  5
15
330
5
100
AcDbSymbolTableRecord
100
AcDbLinetypeTableRecord
  2
ByLayer
 70
     0
  3

 72
    65
 73
     0
 40
0.0
  0
LTYPE
  5
16
330
5
100
AcDbSymbolTableRecord
100
AcDbLinetypeTableRecord
  2
Continuous
 70
     0
  3
Solid line
 72
    65
 73
     0
 40
0.0
  0
LTYPE
  5
6E
330
5
100
AcDbSymbolTableRecord
100
AcDbLinetypeTableRecord
  2
HIDDEN
 70
     0
  3
Hidden __ __ __ __ __ __ __ __ __ __ __ __ __ __
 72
    65
 73
     2
 40
0.075
 49
0.05
 74
     0
 49
-0.025
 74
     0
  0
LTYPE
  5
6F
330
5
100
AcDbSymbolTableRecord
100
AcDbLinetypeTableRecord
  2
PHANTOM
 70
     0
  3
Phantom ______  __  __  ______  __  __  ______
 72
    65
 73
     6
 40
0.5
 49
0.25
 74
     0
 49
-0.05
 74
     0
 49
0.05
 74
     0
 49
-0.05
 74
     0
 49
0.05
 74
     0
 49
-0.05
 74
     0
  0
LTYPE
  5
70
330
5
100
AcDbSymbolTableRecord
100
AcDbLinetypeTableRecord
  2
CENTER
 70
     0
  3
Center ____ _ ____ _ ____ _ ____ _ ____ _ ____
 72
    65
 73
     4
 40
0.4
 49
0.25
 74
     0
 49
-0.05
 74
     0
 49
0.05
 74
     0
 49
-0.05
 74
     0
  0
LTYPE
  5
71
330
5
100
AcDbSymbolTableRecord
100
AcDbLinetypeTableRecord
  2
CENTERX2
 70
     0
  3
Center (2x) ________  __  ________  __  _____
 72
    65
 73
     4
 40
0.8
 49
0.5
 74
     0
 49
-0.1
 74
     0
 49
0.1
 74
     0
 49
-0.1
 74
     0
  0
LTYPE
  5
72
330
5
100
AcDbSymbolTableRecord
100
AcDbLinetypeTableRecord
  2
DOT2
 70
     0
  3
Dot (.5x) ........................................
 72
    65
 73
     2
 40
0.025
 49
0.0
 74
     0
 49
-0.025
 74
     0
  0
ENDTAB
  0
TABLE
  2
LAYER
  5
2
330
0
100
AcDbSymbolTable
 70
     1
  0
LAYER
  5
10
330
2
100
AcDbSymbolTableRecord
100
AcDbLayerTableRecord
  2
0
 70
     0
 62
     7
  6
Continuous
370
    -3
390
F
  0
ENDTAB
  0
TABLE
  2
STYLE
  5
3
330
0
100
AcDbSymbolTable
 70
     1
  0
STYLE
  5
11
330
3
100
AcDbSymbolTableRecord
100
AcDbTextStyleTableRecord
  2
Standard
 70
     0
 40
0.0
 41
1.0
 50
0.0
 71
     0
 42
0.125
  3
txt
  4

  0
ENDTAB
  0
TABLE
  2
VIEW
  5
6
330
0
100
AcDbSymbolTable
 70
     0
  0
ENDTAB
  0
TABLE
  2
UCS
  5
7
330
0
100
AcDbSymbolTable
 70
     0
  0
ENDTAB
  0
TABLE
  2
APPID
  5
9
330
0
100
AcDbSymbolTable
 70
     1
  0
APPID
  5
12
330
9
100
AcDbSymbolTableRecord
100
AcDbRegAppTableRecord
  2
ACAD
 70
     0
  0
ENDTAB
  0
TABLE
  2
DIMSTYLE
  5
A
330
0
100
AcDbSymbolTable
 70
     1
100
AcDbDimStyleTable
  0
DIMSTYLE
105
27
330
A
100
AcDbSymbolTableRecord
100
AcDbDimStyleTableRecord
  2
Standard
 70
     0
178
     0
340
11
  0
ENDTAB
  0
TABLE
  2
BLOCK_RECORD
  5
1
330
0
100
AcDbSymbolTable
 70
     1
  0
BLOCK_RECORD
  5
1F
330
1
100
AcDbSymbolTableRecord
100
AcDbBlockTableRecord
  2
*Model_Space
340
22
  0
BLOCK_RECORD
  5
1B
330
1
100
AcDbSymbolTableRecord
100
AcDbBlockTableRecord
  2
*Paper_Space
340
1E
  0
BLOCK_RECORD
  5
23
330
1
100
AcDbSymbolTableRecord
100
AcDbBlockTableRecord
  2
*Paper_Space0
340
26
  0
ENDTAB
  0
ENDSEC
  0
SECTION
  2
BLOCKS
  0
BLOCK
  5
20
330
1F
100
AcDbEntity
  8
0
100
AcDbBlockBegin
  2
*Model_Space
 70
     0
 10
0.0
 20
0.0
 30
0.0
  3
*Model_Space
  1

  0
ENDBLK
  5
21
330
1F
100
AcDbEntity
  8
0
100
AcDbBlockEnd
  0
BLOCK
  5
1C
330
1B
100
AcDbEntity
 67
     1
  8
0
100
AcDbBlockBegin
  2
*Paper_Space
 70
     0
 10
0.0
 20
0.0
 30
0.0
  3
*Paper_Space
  1

  0
ENDBLK
  5
1D
330
1B
100
AcDbEntity
 67
     1
  8
0
100
AcDbBlockEnd
  0
BLOCK
  5
24
330
23
100
AcDbEntity
  8
0
100
AcDbBlockBegin
  2
*Paper_Space0
 70
     0
 10
0.0
 20
0.0
 30
0.0
  3
*Paper_Space0
  1

  0
ENDBLK
  5
25
330
23
100
AcDbEntity
  8
0
100
AcDbBlockEnd
  0
ENDSEC
  0
SECTION
  2
ENTITIES
  0
LINE
  5
73
330
1F
100
AcDbEntity
  8
0
  6
Continuous
 62
     7
370
    15
100
AcDbLine
 10
12.9438394718
 20
9.3040208491
 30
0.0
 11
13.0063394718
 21
9.3040208491
 31
0.0
  0
LINE
  5
74
330
1F
100
AcDbEntity
  8
0
  6
Continuous
 62
     7
370
    15
100
AcDbLine
 10
12.9438394718
 20
12.3172968628
 30
0.0
 11
12.9438394718
 21
9.3040208491
 31
0.0
  0
LINE
  5
75
330
1F
100
AcDbEntity
  8
0
  6
Continuous
 62
     7
370
    15
100
AcDbLine
 10
12.9438394718
 20
12.3172968628
 30
0.0
 11
13.0063394718
 21
12.3172968628
 31
0.0
  0
LINE
  5
76
330
1F
100
AcDbEntity
  8
0
  6
Continuous
 62
     7
370
    15
100
AcDbLine
 10
13.0063394718
 20
12.3172968628
 30
0.0
 11
13.0063394718
 21
9.3040208491
 31
0.0
  0
LINE
  5
77
330
1F
100
AcDbEntity
  8
0
  6
Continuous
 62
     7
370
    15
100
AcDbLine
 10
19.3762148978
 20
9.4518500391
 30
0.0
 11
19.5418631429
 21
8.4656651382
 31
0.0
  0
LINE
  5
78
330
1F
100
AcDbEntity
  8
0
  6
Continuous
 62
     7
370
    15
100
AcDbLine
 10
19.5418631429
 20
8.4656651382
 30
0.0
 11
19.4185900302
 21
8.4449591075
 31
0.0
  0
LINE
  5
79
330
1F
100
AcDbEntity
  8
0
  6
Continuous
 62
     7
370
    15
100
AcDbLine
 10
19.4185900302
 20
8.4449591075
 30
0.0
 11
19.2529417852
 21
9.4311440085
 31
0.0
  0
LINE
  5
7A
330
1F
100
AcDbEntity
  8
0
  6
Continuous
 62
     7
370
    15
100
AcDbLine
 10
19.2529417852
 20
9.4311440085
 30
0.0
 11
19.3762148978
 21
9.4518500391
 31
0.0
  0
LINE
  5
7B
330
1F
100
AcDbEntity
  8
0
  6
Continuous
 62
     7
370
    15
100
AcDbLine
 10
12.2002073888
 20
10.5927741718
 30
0.0
 11
12.0821669225
 21
10.633901393
 31
0.0
  0
LINE
  5
7C
330
1F
100
AcDbEntity
  8
0
  6
Continuous
 62
     7
370
    15
100
AcDbLine
 10
12.2466758076
 20
11.106063258
 30
0.0
 11
12.0821669225
 21
10.633901393
 31
0.0
  0
LINE
  5
7D
330
1F
100
AcDbEntity
  8
0
  6
Continuous
 62
     7
370
    15
100
AcDbLine
 10
12.2466758076
 20
11.106063258
 30
0.0
 11
12.3647162738
 21
11.0649360367
 31
0.0
  0
LINE
  5
7E
330
1F
100
AcDbEntity
  8
0
  6
Continuous
 62
     7
370
    15
100
AcDbLine
 10
12.2002073888
 20
10.5927741718
 30
0.0
 11
12.3647162738
 21
11.0649360367
 31
0.0
  0
CIRCLE
  5
7F
330
1F
100
AcDbEntity
  8
0
  6
Continuous
 62
     7
370
    15
100
AcDbCircle
 10
22.6198505687
 20
9.5536380054
 30
0.0
 40
0.09375
  0
CIRCLE
  5
80
330
1F
100
AcDbEntity
  8
0
  6
Continuous
 62
     7
370
    15
100
AcDbCircle
 10
20.5874111517
 20
10.6756536218
 30
0.0
 40
0.0937499999999964
  0
ARC
  5
81
330
1F
100
AcDbEntity
  8
0
  6
Continuous
 62
     7
370
    15
100
AcDbCircle
 10
20.5874111517
 20
10.6756536218
 30
0.0
 40
0.9374999999999986
100
AcDbArc
 50
166.165546433
 51
301.165546433
  0
ARC
  5
82
330
1F
100
AcDbEntity
  8
0
  6
Continuous
 62
     7
370
    15
100
AcDbCircle
 10
19.768137776
 20
10.8774089153
 30
0.0
 40
0.0937500000000035
100
AcDbArc
 50
346.165546433
 51
166.165546433
  0
ARC
  5
83
330
1F
100
AcDbEntity
  8
0
  6
Continuous
 62
     7
370
    15
100
AcDbCircle
 10
20.5874111517
 20
10.6756536218
 30
0.0
 40
0.7499999999999986
100
AcDbArc
 50
166.165546433
 51
301.165546433
  0
ARC
  5
84
330
1F
100
AcDbEntity
  8
0
  6
Continuous
 62
     7
370
    15
100
AcDbCircle
 10
21.0240623751
 20
9.9536773261
 30
0.0
 40
0.093750000000003
100
AcDbArc
 50
301.165546433
 51
121.165546433
  0
CIRCLE
  5
85
330
1F
100
AcDbEntity
  8
0
  6
Continuous
 62
     7
370
    15
100
AcDbCircle
 10
11.9071093427
 20
10.0996910049
 30
0.0
 40
0.09375
  0
ARC
  5
86
330
1F
100
AcDbEntity
  8
0
  6
Continuous
 62
     7
370
    15
100
AcDbCircle
 10
20.5874111517
 20
10.6756536218
 30
0.0
 40
0.7499999999999999
100
AcDbArc
 50
346.165546433
 51
121.165546433
  0
ARC
  5
87
330
1F
100
AcDbEntity
  8
0
  6
Continuous
 62
     7
370
    15
100
AcDbCircle
 10
20.1507599282
 20
11.3976299175
 30
0.0
 40
0.0937500000000015
100
AcDbArc
 50
121.165546433
 51
301.165546433
  0
ARC
  5
88
330
1F
100
AcDbEntity
  8
0
  6
Continuous
 62
     7
370
    15
100
AcDbCircle
 10
20.5874111517
 20
10.6756536218
 30
0.0
 40
0.9374999999999987
100
AcDbArc
 50
346.165546433
 51
121.165546433
  0
ARC
  5
89
330
1F
100
AcDbEntity
  8
0
  6
Continuous
 62
     7
370
    15
100
AcDbCircle
 10
21.4066845273
 20
10.4738983284
 30
0.0
 40
0.0937500000000061
100
AcDbArc
 50
166.165546433
 51
346.165546433
  0
LINE
  5
8A
330
1F
100
AcDbEntity
  8
0
  6
Continuous
 62
     7
370
    15
100
AcDbLine
 10
12.8214203493
 20
12.3757360457
 30
0.0
 11
12.7033798831
 21
12.4168632669
 31
0.0
  0
LINE
  5
8B
330
1F
100
AcDbEntity
  8
0
  6
Continuous
 62
     7
370
    15
100
AcDbLine
 10
12.6569114643
 20
11.9035741807
 30
0.0
 11
12.8214203493
 21
12.3757360457
 31
0.0
  0
LINE
  5
8C
330
1F
100
AcDbEntity
  8
0
  6
Continuous
 62
     7
370
    15
100
AcDbLine
 10
12.538870998
 20
11.944701402
 30
0.0
 11
12.6569114643
 21
11.9035741807
 31
0.0
  0
LINE
  5
8D
330
1F
100
AcDbEntity
  8
0
  6
Continuous
 62
     7
370
    15
100
AcDbLine
 10
12.7033798831
 20
12.4168632669
 30
0.0
 11
12.538870998
 21
11.944701402
 31
0.0
  0
LINE
  5
8E
330
1F
100
AcDbEntity
  8
0
  6
Continuous
 62
     7
370
    15
100
AcDbLine
 10
19.0458814788
 20
10.6638751347
 30
0.0
 11
19.1691545914
 21
10.6845811653
 31
0.0
  0
LINE
  5
8F
330
1F
100
AcDbEntity
  8
0
  6
Continuous
 62
     7
370
    15
100
AcDbLine
 10
19.1691545914
 20
10.6845811653
 30
0.0
 11
19.2933907752
 21
9.9449424896
 31
0.0
  0
LINE
  5
90
330
1F
100
AcDbEntity
  8
0
  6
Continuous
 62
     7
370
    15
100
AcDbLine
 10
19.1701176626
 20
9.924236459
 30
0.0
 11
19.2933907752
 21
9.9449424896
 31
0.0
  0
LINE
  5
91
330
1F
100
AcDbEntity
  8
0
  6
Continuous
 62
     7
370
    15
100
AcDbLine
 10
19.1701176626
 20
9.924236459
 30
0.0
 11
19.0458814788
 21
10.6638751347
 31
0.0
  0
LINE
  5
92
330
1F
100
AcDbEntity
  8
0
  6
Continuous
 62
     7
370
    15
100
AcDbLine
 10
18.807930782
 20
12.0805118413
 30
0.0
 11
18.9312038946
 21
12.101217872
 31
0.0
  0
LINE
  5
93
330
1F
100
AcDbEntity
  8
0
  6
Continuous
 62
     7
370
    15
100
AcDbLine
 10
18.9312038946
 20
12.101217872
 30
0.0
 11
19.0968521397
 21
11.115032971
 31
0.0
  0
LINE
  5
94
330
1F
100
AcDbEntity
  8
0
  6
Continuous
 62
     7
370
    15
100
AcDbLine
 10
18.9735790271
 20
11.0943269404
 30
0.0
 11
19.0968521397
 21
11.115032971
 31
0.0
  0
LINE
  5
95
330
1F
100
AcDbEntity
  8
0
  6
Continuous
 62
     7
370
    15
100
AcDbLine
 10
18.9735790271
 20
11.0943269404
 30
0.0
 11
18.807930782
 21
12.0805118413
 31
0.0
  0
LINE
  5
96
330
1F
100
AcDbEntity
  8
0
  6
Continuous
 62
     7
370
    15
100
AcDbLine
 10
13.1997755602
 20
12.3172968628
 30
0.0
 11
13.2622755602
 21
12.3172968628
 31
0.0
  0
LINE
  5
97
330
1F
100
AcDbEntity
  8
0
  6
Continuous
 62
     7
370
    15
100
AcDbLine
 10
13.2622755602
 20
12.3172968628
 30
0.0
 11
13.2622755602
 21
9.3040208491
 31
0.0
  0
LINE
  5
98
330
1F
100
AcDbEntity
  8
0
  6
Continuous
 62
     7
370
    15
100
AcDbLine
 10
13.1997755602
 20
9.3040208491
 30
0.0
 11
13.2622755602
 21
9.3040208491
 31
0.0
  0
LINE
  5
99
330
1F
100
AcDbEntity
  8
0
  6
Continuous
 62
     7
370
    15
100
AcDbLine
 10
13.1997755602
 20
12.3172968628
 30
0.0
 11
13.1997755602
 21
9.3040208491
 31
0.0
  0
LINE
  5
9A
330
1F
100
AcDbEntity
  8
0
  6
Continuous
 62
     7
370
    15
100
AcDbLine
 10
13.4557116487
 20
12.3172968628
 30
0.0
 11
13.5182116487
 21
12.3172968628
 31
0.0
  0
LINE
  5
9B
330
1F
100
AcDbEntity
  8
0
  6
Continuous
 62
     7
370
    15
100
AcDbLine
 10
13.5182116487
 20
12.3172968628
 30
0.0
 11
13.5182116487
 21
9.3040208491
 31
0.0
  0
LINE
  5
9C
330
1F
100
AcDbEntity
  8
0
  6
Continuous
 62
     7
370
    15
100
AcDbLine
 10
13.4557116487
 20
9.3040208491
 30
0.0
 11
13.5182116487
 21
9.3040208491
 31
0.0
  0
LINE
  5
9D
330
1F
100
AcDbEntity
  8
0
  6
Continuous
 62
     7
370
    15
100
AcDbLine
 10
13.4557116487
 20
12.3172968628
 30
0.0
 11
13.4557116487
 21
9.3040208491
 31
0.0
  0
LINE
  5
9E
330
1F
100
AcDbEntity
  8
0
  6
Continuous
 62
     7
370
    15
100
AcDbLine
 10
13.7116477371
 20
12.3172968628
 30
0.0
 11
13.7741477371
 21
12.3172968628
 31
0.0
  0
LINE
  5
9F
330
1F
100
AcDbEntity
  8
0
  6
Continuous
 62
     7
370
    15
100
AcDbLine
 10
13.7741477371
 20
12.3172968628
 30
0.0
 11
13.7741477371
 21
9.3040208491
 31
0.0
  0
LINE
  5
A0
330
1F
100
AcDbEntity
  8
0
  6
Continuous
 62
     7
370
    15
100
AcDbLine
 10
13.7116477371
 20
9.3040208491
 30
0.0
 11
13.7741477371
 21
9.3040208491
 31
0.0
  0
LINE
  5
A1
330
1F
100
AcDbEntity
  8
0
  6
Continuous
 62
     7
370
    15
100
AcDbLine
 10
13.7116477371
 20
12.3172968628
 30
0.0
 11
13.7116477371
 21
9.3040208491
 31
0.0
  0
LINE
  5
A2
330
1F
100
AcDbEntity
  8
0
  6
Continuous
 62
     7
370
    15
100
AcDbLine
 10
13.9675838256
 20
12.3172968628
 30
0.0
 11
14.0300838256
 21
12.3172968628
 31
0.0
  0
LINE
  5
A3
330
1F
100
AcDbEntity
  8
0
  6
Continuous
 62
     7
370
    15
100
AcDbLine
 10
14.0300838256
 20
12.3172968628
 30
0.0
 11
14.0300838256
 21
9.3040208491
 31
0.0
  0
LINE
  5
A4
330
1F
100
AcDbEntity
  8
0
  6
Continuous
 62
     7
370
    15
100
AcDbLine
 10
13.9675838256
 20
9.3040208491
 30
0.0
 11
14.0300838256
 21
9.3040208491
 31
0.0
  0
LINE
  5
A5
330
1F
100
AcDbEntity
  8
0
  6
Continuous
 62
     7
370
    15
100
AcDbLine
 10
13.9675838256
 20
12.3172968628
 30
0.0
 11
13.9675838256
 21
9.3040208491
 31
0.0
  0
LINE
  5
A6
330
1F
100
AcDbEntity
  8
0
  6
Continuous
 62
     7
370
    15
100
AcDbLine
 10
14.2235199141
 20
12.3172968628
 30
0.0
 11
14.2860199141
 21
12.3172968628
 31
0.0
  0
LINE
  5
A7
330
1F
100
AcDbEntity
  8
0
  6
Continuous
 62
     7
370
    15
100
AcDbLine
 10
14.2860199141
 20
12.3172968628
 30
0.0
 11
14.2860199141
 21
9.3040208491
 31
0.0
  0
LINE
  5
A8
330
1F
100
AcDbEntity
  8
0
  6
Continuous
 62
     7
370
    15
100
AcDbLine
 10
14.2235199141
 20
9.3040208491
 30
0.0
 11
14.2860199141
 21
9.3040208491
 31
0.0
  0
LINE
  5
A9
330
1F
100
AcDbEntity
  8
0
  6
Continuous
 62
     7
370
    15
100
AcDbLine
 10
14.2235199141
 20
12.3172968628
 30
0.0
 11
14.2235199141
 21
9.3040208491
 31
0.0
  0
LINE
  5
AA
330
1F
100
AcDbEntity
  8
0
  6
Continuous
 62
     7
370
    15
100
AcDbLine
 10
14.4794560025
 20
12.3172968628
 30
0.0
 11
14.5419560025
 21
12.3172968628
 31
0.0
  0
LINE
  5
AB
330
1F
100
AcDbEntity
  8
0
  6
Continuous
 62
     7
370
    15
100
AcDbLine
 10
14.5419560025
 20
12.3172968628
 30
0.0
 11
14.5419560025
 21
9.3040208491
 31
0.0
  0
LINE
  5
AC
330
1F
100
AcDbEntity
  8
0
  6
Continuous
 62
     7
370
    15
100
AcDbLine
 10
14.4794560025
 20
9.3040208491
 30
0.0
 11
14.5419560025
 21
9.3040208491
 31
0.0
  0
LINE
  5
AD
330
1F
100
AcDbEntity
  8
0
  6
Continuous
 62
     7
370
    15
100
AcDbLine
 10
14.4794560025
 20
12.3172968628
 30
0.0
 11
14.4794560025
 21
9.3040208491
 31
0.0
  0
LINE
  5
AE
330
1F
100
AcDbEntity
  8
0
  6
Continuous
 62
     7
370
    15
100
AcDbLine
 10
14.735392091
 20
12.3172968628
 30
0.0
 11
14.797892091
 21
12.3172968628
 31
0.0
  0
LINE
  5
AF
330
1F
100
AcDbEntity
  8
0
  6
Continuous
 62
     7
370
    15
100
AcDbLine
 10
14.797892091
 20
12.3172968628
 30
0.0
 11
14.797892091
 21
9.3040208491
 31
0.0
  0
LINE
  5
B0
330
1F
100
AcDbEntity
  8
0
  6
Continuous
 62
     7
370
    15
100
AcDbLine
 10
14.735392091
 20
9.3040208491
 30
0.0
 11
14.797892091
 21
9.3040208491
 31
0.0
  0
LINE
  5
B1
330
1F
100
AcDbEntity
  8
0
  6
Continuous
 62
     7
370
    15
100
AcDbLine
 10
14.735392091
 20
12.3172968628
 30
0.0
 11
14.735392091
 21
9.3040208491
 31
0.0
  0
LINE
  5
B2
330
1F
100
AcDbEntity
  8
0
  6
Continuous
 62
     7
370
    15
100
AcDbLine
 10
14.9913281794
 20
12.3172968628
 30
0.0
 11
15.0538281794
 21
12.3172968628
 31
0.0
  0
LINE
  5
B3
330
1F
100
AcDbEntity
  8
0
  6
Continuous
 62
     7
370
    15
100
AcDbLine
 10
15.0538281794
 20
12.3172968628
 30
0.0
 11
15.0538281794
 21
9.3040208491
 31
0.0
  0
LINE
  5
B4
330
1F
100
AcDbEntity
  8
0
  6
Continuous
 62
     7
370
    15
100
AcDbLine
 10
14.9913281794
 20
9.3040208491
 30
0.0
 11
15.0538281794
 21
9.3040208491
 31
0.0
  0
LINE
  5
B5
330
1F
100
AcDbEntity
  8
0
  6
Continuous
 62
     7
370
    15
100
AcDbLine
 10
14.9913281794
 20
12.3172968628
 30
0.0
 11
14.9913281794
 21
9.3040208491
 31
0.0
  0
LINE
  5
B6
330
1F
100
AcDbEntity
  8
0
  6
Continuous
 62
     7
370
    15
100
AcDbLine
 10
15.2472642679
 20
12.3172968628
 30
0.0
 11
15.3097642679
 21
12.3172968628
 31
0.0
  0
LINE
  5
B7
330
1F
100
AcDbEntity
  8
0
  6
Continuous
 62
     7
370
    15
100
AcDbLine
 10
15.3097642679
 20
12.3172968628
 30
0.0
 11
15.3097642679
 21
9.3040208491
 31
0.0
  0
LINE
  5
B8
330
1F
100
AcDbEntity
  8
0
  6
Continuous
 62
     7
370
    15
100
AcDbLine
 10
15.2472642679
 20
9.3040208491
 30
0.0
 11
15.3097642679
 21
9.3040208491
 31
0.0
  0
LINE
  5
B9
330
1F
100
AcDbEntity
  8
0
  6
Continuous
 62
     7
370
    15
100
AcDbLine
 10
15.2472642679
 20
12.3172968628
 30
0.0
 11
15.2472642679
 21
9.3040208491
 31
0.0
  0
LINE
  5
BA
330
1F
100
AcDbEntity
  8
0
  6
Continuous
 62
     7
370
    15
100
AcDbLine
 10
15.5032003563
 20
12.3172968628
 30
0.0
 11
15.5657003563
 21
12.3172968628
 31
0.0
  0
LINE
  5
BB
330
1F
100
AcDbEntity
  8
0
  6
Continuous
 62
     7
370
    15
100
AcDbLine
 10
15.5657003563
 20
12.3172968628
 30
0.0
 11
15.5657003563
 21
9.3040208491
 31
0.0
  0
LINE
  5
BC
330
1F
100
AcDbEntity
  8
0
  6
Continuous
 62
     7
370
    15
100
AcDbLine
 10
15.5032003563
 20
9.3040208491
 30
0.0
 11
15.5657003563
 21
9.3040208491
 31
0.0
  0
LINE
  5
BD
330
1F
100
AcDbEntity
  8
0
  6
Continuous
 62
     7
370
    15
100
AcDbLine
 10
15.5032003563
 20
12.3172968628
 30
0.0
 11
15.5032003563
 21
9.3040208491
 31
0.0
  0
LINE
  5
BE
330
1F
100
AcDbEntity
  8
0
  6
Continuous
 62
     7
370
    15
100
AcDbLine
 10
15.7591364448
 20
12.3172968628
 30
0.0
 11
15.8216364448
 21
12.3172968628
 31
0.0
  0
LINE
  5
BF
330
1F
100
AcDbEntity
  8
0
  6
Continuous
 62
     7
370
    15
100
AcDbLine
 10
15.8216364448
 20
12.3172968628
 30
0.0
 11
15.8216364448
 21
9.3040208491
 31
0.0
  0
LINE
  5
C0
330
1F
100
AcDbEntity
  8
0
  6
Continuous
 62
     7
370
    15
100
AcDbLine
 10
15.7591364448
 20
9.3040208491
 30
0.0
 11
15.8216364448
 21
9.3040208491
 31
0.0
  0
LINE
  5
C1
330
1F
100
AcDbEntity
  8
0
  6
Continuous
 62
     7
370
    15
100
AcDbLine
 10
15.7591364448
 20
12.3172968628
 30
0.0
 11
15.7591364448
 21
9.3040208491
 31
0.0
  0
LINE
  5
C2
330
1F
100
AcDbEntity
  8
0
  6
Continuous
 62
     7
370
    15
100
AcDbLine
 10
16.0150725332
 20
12.3172968628
 30
0.0
 11
16.0775725332
 21
12.3172968628
 31
0.0
  0
LINE
  5
C3
330
1F
100
AcDbEntity
  8
0
  6
Continuous
 62
     7
370
    15
100
AcDbLine
 10
16.0775725332
 20
12.3172968628
 30
0.0
 11
16.0775725332
 21
9.3040208491
 31
0.0
  0
LINE
  5
C4
330
1F
100
AcDbEntity
  8
0
  6
Continuous
 62
     7
370
    15
100
AcDbLine
 10
16.0150725332
 20
9.3040208491
 30
0.0
 11
16.0775725332
 21
9.3040208491
 31
0.0
  0
LINE
  5
C5
330
1F
100
AcDbEntity
  8
0
  6
Continuous
 62
     7
370
    15
100
AcDbLine
 10
16.0150725332
 20
12.3172968628
 30
0.0
 11
16.0150725332
 21
9.3040208491
 31
0.0
  0
LINE
  5
C6
330
1F
100
AcDbEntity
  8
0
  6
Continuous
 62
     7
370
    15
100
AcDbLine
 10
16.2710086217
 20
12.3172968628
 30
0.0
 11
16.3335086217
 21
12.3172968628
 31
0.0
  0
LINE
  5
C7
330
1F
100
AcDbEntity
  8
0
  6
Continuous
 62
     7
370
    15
100
AcDbLine
 10
16.3335086217
 20
12.3172968628
 30
0.0
 11
16.3335086217
 21
9.3040208491
 31
0.0
  0
LINE
  5
C8
330
1F
100
AcDbEntity
  8
0
  6
Continuous
 62
     7
370
    15
100
AcDbLine
 10
16.2710086217
 20
9.3040208491
 30
0.0
 11
16.3335086217
 21
9.3040208491
 31
0.0
  0
LINE
  5
C9
330
1F
100
AcDbEntity
  8
0
  6
Continuous
 62
     7
370
    15
100
AcDbLine
 10
16.2710086217
 20
12.3172968628
 30
0.0
 11
16.2710086217
 21
9.3040208491
 31
0.0
  0
LINE
  5
CA
330
1F
100
AcDbEntity
  8
0
  6
Continuous
 62
     7
370
    15
100
AcDbLine
 10
16.5269447101
 20
12.3172968628
 30
0.0
 11
16.5894447101
 21
12.3172968628
 31
0.0
  0
LINE
  5
CB
330
1F
100
AcDbEntity
  8
0
  6
Continuous
 62
     7
370
    15
100
AcDbLine
 10
16.5894447101
 20
12.3172968628
 30
0.0
 11
16.5894447101
 21
9.3040208491
 31
0.0
  0
LINE
  5
CC
330
1F
100
AcDbEntity
  8
0
  6
Continuous
 62
     7
370
    15
100
AcDbLine
 10
16.5269447101
 20
9.3040208491
 30
0.0
 11
16.5894447101
 21
9.3040208491
 31
0.0
  0
LINE
  5
CD
330
1F
100
AcDbEntity
  8
0
  6
Continuous
 62
     7
370
    15
100
AcDbLine
 10
16.5269447101
 20
12.3172968628
 30
0.0
 11
16.5269447101
 21
9.3040208491
 31
0.0
  0
LINE
  5
CE
330
1F
100
AcDbEntity
  8
0
  6
Continuous
 62
     7
370
    15
100
AcDbLine
 10
16.7828807986
 20
12.3172968628
 30
0.0
 11
16.8453807986
 21
12.3172968628
 31
0.0
  0
LINE
  5
CF
330
1F
100
AcDbEntity
  8
0
  6
Continuous
 62
     7
370
    15
100
AcDbLine
 10
16.8453807986
 20
12.3172968628
 30
0.0
 11
16.8453807986
 21
9.3040208491
 31
0.0
  0
LINE
  5
D0
330
1F
100
AcDbEntity
  8
0
  6
Continuous
 62
     7
370
    15
100
AcDbLine
 10
16.7828807986
 20
9.3040208491
 30
0.0
 11
16.8453807986
 21
9.3040208491
 31
0.0
  0
LINE
  5
D1
330
1F
100
AcDbEntity
  8
0
  6
Continuous
 62
     7
370
    15
100
AcDbLine
 10
16.7828807986
 20
12.3172968628
 30
0.0
 11
16.7828807986
 21
9.3040208491
 31
0.0
  0
LINE
  5
D2
330
1F
100
AcDbEntity
  8
0
  6
Continuous
 62
     7
370
    15
100
AcDbLine
 10
17.038816887
 20
12.3172968628
 30
0.0
 11
17.101316887
 21
12.3172968628
 31
0.0
  0
LINE
  5
D3
330
1F
100
AcDbEntity
  8
0
  6
Continuous
 62
     7
370
    15
100
AcDbLine
 10
17.101316887
 20
12.3172968628
 30
0.0
 11
17.101316887
 21
9.3040208491
 31
0.0
  0
LINE
  5
D4
330
1F
100
AcDbEntity
  8
0
  6
Continuous
 62
     7
370
    15
100
AcDbLine
 10
17.038816887
 20
9.3040208491
 30
0.0
 11
17.101316887
 21
9.3040208491
 31
0.0
  0
LINE
  5
D5
330
1F
100
AcDbEntity
  8
0
  6
Continuous
 62
     7
370
    15
100
AcDbLine
 10
17.038816887
 20
12.3172968628
 30
0.0
 11
17.038816887
 21
9.3040208491
 31
0.0
  0
LINE
  5
D6
330
1F
100
AcDbEntity
  8
0
  6
Continuous
 62
     7
370
    15
100
AcDbLine
 10
17.2947529755
 20
12.3172968628
 30
0.0
 11
17.3572529755
 21
12.3172968628
 31
0.0
  0
LINE
  5
D7
330
1F
100
AcDbEntity
  8
0
  6
Continuous
 62
     7
370
    15
100
AcDbLine
 10
17.3572529755
 20
12.3172968628
 30
0.0
 11
17.3572529755
 21
9.3040208491
 31
0.0
  0
LINE
  5
D8
330
1F
100
AcDbEntity
  8
0
  6
Continuous
 62
     7
370
    15
100
AcDbLine
 10
17.2947529755
 20
9.3040208491
 30
0.0
 11
17.3572529755
 21
9.3040208491
 31
0.0
  0
LINE
  5
D9
330
1F
100
AcDbEntity
  8
0
  6
Continuous
 62
     7
370
    15
100
AcDbLine
 10
17.2947529755
 20
12.3172968628
 30
0.0
 11
17.2947529755
 21
9.3040208491
 31
0.0
  0
LINE
  5
DA
330
1F
100
AcDbEntity
  8
0
  6
Continuous
 62
     7
370
    15
100
AcDbLine
 10
17.550689064
 20
12.3172968628
 30
0.0
 11
17.613189064
 21
12.3172968628
 31
0.0
  0
LINE
  5
DB
330
1F
100
AcDbEntity
  8
0
  6
Continuous
 62
     7
370
    15
100
AcDbLine
 10
17.613189064
 20
12.3172968628
 30
0.0
 11
17.613189064
 21
9.3040208491
 31
0.0
  0
LINE
  5
DC
330
1F
100
AcDbEntity
  8
0
  6
Continuous
 62
     7
370
    15
100
AcDbLine
 10
17.550689064
 20
9.3040208491
 30
0.0
 11
17.613189064
 21
9.3040208491
 31
0.0
  0
LINE
  5
DD
330
1F
100
AcDbEntity
  8
0
  6
Continuous
 62
     7
370
    15
100
AcDbLine
 10
17.550689064
 20
12.3172968628
 30
0.0
 11
17.550689064
 21
9.3040208491
 31
0.0
  0
LINE
  5
DE
330
1F
100
AcDbEntity
  8
0
  6
Continuous
 62
     7
370
    15
100
AcDbLine
 10
17.8066251524
 20
12.3172968628
 30
0.0
 11
17.8691251524
 21
12.3172968628
 31
0.0
  0
LINE
  5
DF
330
1F
100
AcDbEntity
  8
0
  6
Continuous
 62
     7
370
    15
100
AcDbLine
 10
17.8691251524
 20
12.3172968628
 30
0.0
 11
17.8691251524
 21
9.3040208491
 31
0.0
  0
LINE
  5
E0
330
1F
100
AcDbEntity
  8
0
  6
Continuous
 62
     7
370
    15
100
AcDbLine
 10
17.8066251524
 20
9.3040208491
 30
0.0
 11
17.8691251524
 21
9.3040208491
 31
0.0
  0
LINE
  5
E1
330
1F
100
AcDbEntity
  8
0
  6
Continuous
 62
     7
370
    15
100
AcDbLine
 10
17.8066251524
 20
12.3172968628
 30
0.0
 11
17.8066251524
 21
9.3040208491
 31
0.0
  0
LINE
  5
E2
330
1F
100
AcDbEntity
  8
0
  6
Continuous
 62
     7
370
    15
100
AcDbLine
 10
18.0625612409
 20
12.3172968628
 30
0.0
 11
18.1250612409
 21
12.3172968628
 31
0.0
  0
LINE
  5
E3
330
1F
100
AcDbEntity
  8
0
  6
Continuous
 62
     7
370
    15
100
AcDbLine
 10
18.1250612409
 20
12.3172968628
 30
0.0
 11
18.1250612409
 21
9.3040208491
 31
0.0
  0
LINE
  5
E4
330
1F
100
AcDbEntity
  8
0
  6
Continuous
 62
     7
370
    15
100
AcDbLine
 10
18.0625612409
 20
9.3040208491
 30
0.0
 11
18.1250612409
 21
9.3040208491
 31
0.0
  0
LINE
  5
E5
330
1F
100
AcDbEntity
  8
0
  6
Continuous
 62
     7
370
    15
100
AcDbLine
 10
18.0625612409
 20
12.3172968628
 30
0.0
 11
18.0625612409
 21
9.3040208491
 31
0.0
  0
LINE
  5
E6
330
1F
100
AcDbEntity
  8
0
  6
Continuous
 62
     7
370
    15
100
AcDbLine
 10
18.3184973293
 20
12.3172968628
 30
0.0
 11
18.3809973293
 21
12.3172968628
 31
0.0
  0
LINE
  5
E7
330
1F
100
AcDbEntity
  8
0
  6
Continuous
 62
     7
370
    15
100
AcDbLine
 10
18.3809973293
 20
12.3172968628
 30
0.0
 11
18.3809973293
 21
9.3040208491
 31
0.0
  0
LINE
  5
E8
330
1F
100
AcDbEntity
  8
0
  6
Continuous
 62
     7
370
    15
100
AcDbLine
 10
18.3184973293
 20
9.3040208491
 30
0.0
 11
18.3809973293
 21
9.3040208491
 31
0.0
  0
LINE
  5
E9
330
1F
100
AcDbEntity
  8
0
  6
Continuous
 62
     7
370
    15
100
AcDbLine
 10
18.3184973293
 20
12.3172968628
 30
0.0
 11
18.3184973293
 21
9.3040208491
 31
0.0
  0
LINE
  5
EA
330
1F
100
AcDbEntity
  8
0
  6
Continuous
 62
     7
370
    15
100
AcDbLine
 10
18.6309973293
 20
12.3172968628
 30
0.0
 11
18.6309973293
 21
9.3040208491
 31
0.0
  0
LINE
  5
EB
330
1F
100
AcDbEntity
  8
0
  6
Continuous
 62
     7
370
    15
100
AcDbLine
 10
18.5684973293
 20
9.3040208491
 30
0.0
 11
18.6309973293
 21
9.3040208491
 31
0.0
  0
LINE
  5
EC
330
1F
100
AcDbEntity
  8
0
  6
Continuous
 62
     7
370
    15
100
AcDbLine
 10
18.5684973293
 20
12.3172968628
 30
0.0
 11
18.5684973293
 21
9.3040208491
 31
0.0
  0
LINE
  5
ED
330
1F
100
AcDbEntity
  8
0
  6
Continuous
 62
     7
370
    15
100
AcDbLine
 10
18.5684973293
 20
12.3172968628
 30
0.0
 11
18.6309973293
 21
12.3172968628
 31
0.0
  0
LINE
  5
EE
330
1F
100
AcDbEntity
  8
0
  6
Continuous
 62
     7
370
    15
100
AcDbLine
 10
15.6907003563
 20
10.7091889094
 30
0.0
 11
15.6907003563
 21
8.0371469929
 31
0.0
  0
SPLINE
  5
EF
330
1F
100
AcDbEntity
  8
0
  6
Continuous
 62
     7
370
    15
100
AcDbSpline
210
0.0
220
0.0
230
1.0
 70
     8
 71
     3
 72
     8
 73
     4
 74
     0
 42
0.000000001
 43
0.00000001
 40
0.4244191399369876
 40
0.4244191399369876
 40
0.4244191399369876
 40
0.4244191399369876
 40
0.4394947361272345
 40
0.4394947361272345
 40
0.4394947361272345
 40
0.4394947361272345
 10
15.69070035594113
 20
8.0371469927522
 30
0.0
 10
15.75507630120522
 20
8.058420474185736
 30
0.0
 10
15.81955620163452
 20
8.081433268556808
 30
0.0
 10
15.88413644439466
 20
8.105406355616758
 30
0.0
  0
LINE
  5
F0
330
1F
100
AcDbEntity
  8
0
  6
Continuous
 62
     7
370
    15
100
AcDbLine
 10
15.8841364448
 20
8.1054063556
 30
0.0
 11
15.8841364448
 21
10.7091889094
 31
0.0
  0
LINE
  5
F1
330
1F
100
AcDbEntity
  8
0
  6
Continuous
 62
     7
370
    15
100
AcDbLine
 10
15.8841364448
 20
10.7091889094
 30
0.0
 11
15.9466364448
 21
10.7091889094
 31
0.0
  0
LINE
  5
F2
330
1F
100
AcDbEntity
  8
0
  6
Continuous
 62
     7
370
    15
100
AcDbLine
 10
15.9466364448
 20
10.7091889094
 30
0.0
 11
15.9466364448
 21
8.1288690498
 31
0.0
  0
SPLINE
  5
F3
330
1F
100
AcDbEntity
  8
0
  6
Continuous
 62
     7
370
    15
100
AcDbSpline
210
0.0
220
0.0
230
1.0
 70
     8
 71
     3
 72
     8
 73
     4
 74
     0
 42
0.000000001
 43
0.00000001
 40
0.4443556385746774
 40
0.4443556385746774
 40
0.4443556385746774
 40
0.4443556385746774
 40
0.459369886968537
 40
0.459369886968537
 40
0.459369886968537
 40
0.459369886968537
 10
15.94663644439456
 20
8.128869049670438
 30
0.0
 10
16.01101795828791
 20
8.153280665427731
 30
0.0
 10
16.07549784407532
 20
8.178395630869623
 30
0.0
 10
16.14007253284879
 20
8.20344439740483
 30
0.0
  0
LINE
  5
F4
330
1F
100
AcDbEntity
  8
0
  6
Continuous
 62
     7
370
    15
100
AcDbLine
 10
16.1400725332
 20
8.2034443974
 30
0.0
 11
16.1400725332
 21
10.7091889094
 31
0.0
  0
LINE
  5
F5
330
1F
100
AcDbEntity
  8
0
  6
Continuous
 62
     7
370
    15
100
AcDbLine
 10
16.1400725332
 20
10.7091889094
 30
0.0
 11
16.2025725332
 21
10.7091889094
 31
0.0
  0
LINE
  5
F6
330
1F
100
AcDbEntity
  8
0
  6
Continuous
 62
     7
370
    15
100
AcDbLine
 10
16.2025725332
 20
10.7091889094
 30
0.0
 11
16.2025725332
 21
8.2276305014
 31
0.0
  0
SPLINE
  5
F7
330
1F
100
AcDbEntity
  8
0
  6
Continuous
 62
     7
370
    15
100
AcDbSpline
210
0.0
220
0.0
230
1.0
 70
     8
 71
     3
 72
     8
 73
     4
 74
     0
 42
0.000000001
 43
0.00000001
 40
0.4642115583772888
 40
0.4642115583772888
 40
0.4642115583772888
 40
0.4642115583772888
 40
0.4791680774569296
 40
0.4791680774569296
 40
0.4791680774569296
 40
0.4791680774569296
 10
16.20257253284904
 20
8.227630501297204
 30
0.0
 10
16.26695947175654
 20
8.252460709543842
 30
0.0
 10
16.33143934398365
 20
8.27697897391481
 30
0.0
 10
16.39600862163129
 20
8.300424588402652
 30
0.0
  0
LINE
  5
F8
330
1F
100
AcDbEntity
  8
0
  6
Continuous
 62
     7
370
    15
100
AcDbLine
 10
16.3960086217
 20
8.3004245884
 30
0.0
 11
16.3960086217
 21
10.7091889094
 31
0.0
  0
LINE
  5
F9
330
1F
100
AcDbEntity
  8
0
  6
Continuous
 62
     7
370
    15
100
AcDbLine
 10
16.3960086217
 20
10.7091889094
 30
0.0
 11
16.4585086217
 21
10.7091889094
 31
0.0
  0
LINE
  5
FA
330
1F
100
AcDbEntity
  8
0
  6
Continuous
 62
     7
370
    15
100
AcDbLine
 10
16.4585086217
 20
10.7091889094
 30
0.0
 11
16.4585086217
 21
8.3227485253
 31
0.0
  0
SPLINE
  5
FB
330
1F
100
AcDbEntity
  8
0
  6
Continuous
 62
     7
370
    15
100
AcDbSpline
210
0.0
220
0.0
230
1.0
 70
     8
 71
     3
 72
     8
 73
     4
 74
     0
 42
0.000000001
 43
0.00000001
 40
0.483991666406396
 40
0.483991666406396
 40
0.483991666406396
 40
0.483991666406396
 40
0.4988939504025628
 40
0.4988939504025628
 40
0.4988939504025628
 40
0.4988939504025628
 10
16.45850862155244
 20
8.322748525255806
 30
0.0
 10
16.5229008522533
 20
8.345340920405826
 30
0.0
 10
16.58738071161221
 20
8.366624873479825
 30
0.0
 10
16.65194470996952
 20
8.385847923877408
 30
0.0
  0
LINE
  5
FC
330
1F
100
AcDbEntity
  8
0
  6
Continuous
 62
     7
370
    15
100
AcDbLine
 10
16.6519447101
 20
8.3858479239
 30
0.0
 11
16.6519447101
 21
10.7091889094
 31
0.0
  0
LINE
  5
FD
330
1F
100
AcDbEntity
  8
0
  6
Continuous
 62
     7
370
    15
100
AcDbLine
 10
16.6519447101
 20
10.7091889094
 30
0.0
 11
16.7144447101
 21
10.7091889094
 31
0.0
  0
LINE
  5
FE
330
1F
100
AcDbEntity
  8
0
  6
Continuous
 62
     7
370
    15
100
AcDbLine
 10
16.7144447101
 20
10.7091889094
 30
0.0
 11
16.7144447101
 21
8.4037802054
 31
0.0
  0
SPLINE
  5
FF
330
1F
100
AcDbEntity
  8
0
  6
Continuous
 62
     7
370
    15
100
AcDbSpline
210
0.0
220
0.0
230
1.0
 70
     8
 71
     3
 72
     8
 73
     4
 74
     0
 42
0.000000001
 43
0.00000001
 40
0.5037005670392389
 40
0.5037005670392389
 40
0.5037005670392389
 40
0.5037005670392389
 40
0.5185519960948355
 40
0.5185519960948355
 40
0.5185519960948355
 40
0.5185519960948355
 10
16.71444471014195
 20
8.403780205447434
 30
0.0
 10
16.77884210971419
 20
8.42153472240194
 30
0.0
 10
16.84332195711213
 20
8.43700133186449
 30
0.0
 10
16.90788079828037
 20
8.449435250427292
 30
0.0
  0
LINE
  5
100
330
1F
100
AcDbEntity
  8
0
  6
Continuous
 62
     7
370
    15
100
AcDbLine
 10
16.9078807986
 20
8.4494352504
 30
0.0
 11
16.9078807986
 21
10.7091889094
 31
0.0
  0
LINE
  5
101
330
1F
100
AcDbEntity
  8
0
  6
Continuous
 62
     7
370
    15
100
AcDbLine
 10
16.9078807986
 20
10.7091889094
 30
0.0
 11
16.9703807986
 21
10.7091889094
 31
0.0
  0
LINE
  5
102
330
1F
100
AcDbEntity
  8
0
  6
Continuous
 62
     7
370
    15
100
AcDbLine
 10
16.9703807986
 20
10.7091889094
 30
0.0
 11
16.9703807986
 21
8.4604962094
 31
0.0
  0
SPLINE
  5
103
330
1F
100
AcDbEntity
  8
0
  6
Continuous
 62
     7
370
    15
100
AcDbSpline
210
0.0
220
0.0
230
1.0
 70
     8
 71
     3
 72
     9
 73
     5
 74
     0
 42
0.000000001
 43
0.00000001
 40
0.5233427151570383
 40
0.5233427151570383
 40
0.5233427151570383
 40
0.5233427151570383
 40
0.5352996397512484
 40
0.538146567821375
 40
0.538146567821375
 40
0.538146567821375
 40
0.538146567821375
 10
16.97038079825467
 20
8.46049620932241
 30
0.0
 10
17.02239803218909
 20
8.468869173095184
 30
0.0
 10
17.08686300151535
 20
8.476609117022473
 30
0.0
 10
17.15140258916134
 20
8.480501265205872
 30
0.0
 10
17.1638168870465
 20
8.481112742149762
 30
0.0
  0
LINE
  5
104
330
1F
100
AcDbEntity
  8
0
  6
Continuous
 62
     7
370
    15
100
AcDbLine
 10
17.163816887
 20
8.4811127421
 30
0.0
 11
17.163816887
 21
10.7091889094
 31
0.0
  0
LINE
  5
105
330
1F
100
AcDbEntity
  8
0
  6
Continuous
 62
     7
370
    15
100
AcDbLine
 10
17.163816887
 20
10.7091889094
 30
0.0
 11
17.226316887
 21
10.7091889094
 31
0.0
  0
LINE
  5
106
330
1F
100
AcDbEntity
  8
0
  6
Continuous
 62
     7
370
    15
100
AcDbLine
 10
17.226316887
 20
10.7091889094
 30
0.0
 11
17.226316887
 21
8.4830582258
 31
0.0
  0
SPLINE
  5
107
330
1F
100
AcDbEntity
  8
0
  6
Continuous
 62
     7
370
    15
100
AcDbSpline
210
0.0
220
0.0
230
1.0
 70
     8
 71
     3
 72
     8
 73
     4
 74
     0
 42
0.000000001
 43
0.00000001
 40
0.5429224898227317
 40
0.5429224898227317
 40
0.5429224898227317
 40
0.5429224898227317
 40
0.5576834279564321
 40
0.5576834279564321
 40
0.5576834279564321
 40
0.5576834279564321
 10
17.22631688704653
 20
8.48305822580549
 30
0.0
 10
17.29072923645951
 20
8.483922092290477
 30
0.0
 10
17.35521100785077
 20
8.481340613501084
 30
0.0
 10
17.41975297550088
 20
8.476049961392379
 30
0.0
  0
LINE
  5
108
330
1F
100
AcDbEntity
  8
0
  6
Continuous
 62
     7
370
    15
100
AcDbLine
 10
17.4197529755
 20
8.4760499614
 30
0.0
 11
17.4197529755
 21
10.7091889094
 31
0.0
  0
LINE
  5
109
330
1F
100
AcDbEntity
  8
0
  6
Continuous
 62
     7
370
    15
100
AcDbLine
 10
17.4197529755
 20
10.7091889094
 30
0.0
 11
17.4822529755
 21
10.7091889094
 31
0.0
  0
LINE
  5
10A
330
1F
100
AcDbEntity
  8
0
  6
Continuous
 62
     7
370
    15
100
AcDbLine
 10
17.4822529755
 20
10.7091889094
 30
0.0
 11
17.4822529755
 21
8.4701066279
 31
0.0
  0
SPLINE
  5
10B
330
1F
100
AcDbEntity
  8
0
  6
Continuous
 62
     7
370
    15
100
AcDbSpline
210
0.0
220
0.0
230
1.0
 70
     8
 71
     3
 72
     8
 73
     4
 74
     0
 42
0.000000001
 43
0.00000001
 40
0.5624466627300213
 40
0.5624466627300213
 40
0.5624466627300213
 40
0.5624466627300213
 40
0.5771721607890422
 40
0.5771721607890422
 40
0.5771721607890422
 40
0.5771721607890422
 10
17.48225297550063
 20
8.470106627849766
 30
0.0
 10
17.54667778003019
 20
8.463160893336735
 30
0.0
 10
17.61115952932447
 20
8.453755396352722
 30
0.0
 10
17.67568906395574
 20
8.442621019067305
 30
0.0
  0
LINE
  5
10C
330
1F
100
AcDbEntity
  8
0
  6
Continuous
 62
     7
370
    15
100
AcDbLine
 10
17.675689064
 20
8.4426210191
 30
0.0
 11
17.675689064
 21
10.7091889094
 31
0.0
  0
LINE
  5
10D
330
1F
100
AcDbEntity
  8
0
  6
Continuous
 62
     7
370
    15
100
AcDbLine
 10
17.675689064
 20
10.7091889094
 30
0.0
 11
17.738189064
 21
10.7091889094
 31
0.0
  0
LINE
  5
10E
330
1F
100
AcDbEntity
  8
0
  6
Continuous
 62
     7
370
    15
100
AcDbLine
 10
17.738189064
 20
10.7091889094
 30
0.0
 11
17.738189064
 21
8.4313235734
 31
0.0
  0
SPLINE
  5
10F
330
1F
100
AcDbEntity
  8
0
  6
Continuous
 62
     7
370
    15
100
AcDbSpline
210
0.0
220
0.0
230
1.0
 70
     8
 71
     3
 72
     8
 73
     4
 74
     0
 42
0.000000001
 43
0.00000001
 40
0.5819251690574916
 40
0.5819251690574916
 40
0.5819251690574916
 40
0.5819251690574916
 40
0.5966227588372528
 40
0.5966227588372528
 40
0.5966227588372528
 40
0.5966227588372528
 10
17.73818906395468
 20
8.43132357340242
 30
0.0
 10
17.8026261367722
 20
8.419172339533699
 30
0.0
 10
17.86710786873974
 20
8.405533788840081
 30
0.0
 10
17.93162515240873
 20
8.39113465578158
 30
0.0
  0
LINE
  5
110
330
1F
100
AcDbEntity
  8
0
  6
Continuous
 62
     7
370
    15
100
AcDbLine
 10
17.9316251524
 20
8.3911346558
 30
0.0
 11
17.9316251524
 21
10.7091889094
 31
0.0
  0
LINE
  5
111
330
1F
100
AcDbEntity
  8
0
  6
Continuous
 62
     7
370
    15
100
AcDbLine
 10
17.9316251524
 20
10.7091889094
 30
0.0
 11
17.9941251524
 21
10.7091889094
 31
0.0
  0
LINE
  5
112
330
1F
100
AcDbEntity
  8
0
  6
Continuous
 62
     7
370
    15
100
AcDbLine
 10
17.9941251524
 20
10.7091889094
 30
0.0
 11
17.9941251524
 21
8.3769747759
 31
0.0
  0
SPLINE
  5
113
330
1F
100
AcDbEntity
  8
0
  6
Continuous
 62
     7
370
    15
100
AcDbSpline
210
0.0
220
0.0
230
1.0
 70
     8
 71
     3
 72
     8
 73
     4
 74
     0
 42
0.000000001
 43
0.00000001
 40
0.6013679496716497
 40
0.6013679496716497
 40
0.6013679496716497
 40
0.6013679496716497
 40
0.61604502283337
 40
0.61604502283337
 40
0.61604502283337
 40
0.61604502283337
 10
17.99412515240871
 20
8.376974776016853
 30
0.0
 10
18.05857435134676
 20
8.362180958517543
 30
0.0
 10
18.12305607061879
 20
8.346862655878823
 30
0.0
 10
18.18756124086278
 20
8.331743563423682
 30
0.0
  0
LINE
  5
114
330
1F
100
AcDbEntity
  8
0
  6
Continuous
 62
     7
370
    15
100
AcDbLine
 10
18.1875612409
 20
8.3317435634
 30
0.0
 11
18.1875612409
 21
10.7091889094
 31
0.0
  0
LINE
  5
115
330
1F
100
AcDbEntity
  8
0
  6
Continuous
 62
     7
370
    15
100
AcDbLine
 10
18.1875612409
 20
10.7091889094
 30
0.0
 11
18.2500612409
 21
10.7091889094
 31
0.0
  0
LINE
  5
116
330
1F
100
AcDbEntity
  8
0
  6
Continuous
 62
     7
370
    15
100
AcDbLine
 10
18.2500612409
 20
10.7091889094
 30
0.0
 11
18.2500612409
 21
8.3171828001
 31
0.0
  0
SPLINE
  5
117
330
1F
100
AcDbEntity
  8
0
  6
Continuous
 62
     7
370
    15
100
AcDbSpline
210
0.0
220
0.0
230
1.0
 70
     8
 71
     3
 72
     8
 73
     4
 74
     0
 42
0.000000001
 43
0.00000001
 40
0.6207847662668121
 40
0.6207847662668121
 40
0.6207847662668121
 40
0.6207847662668121
 40
0.6354486124650376
 40
0.6354486124650376
 40
0.6354486124650376
 40
0.6354486124650376
 10
18.25006124086278
 20
8.317182800149025
 30
0.0
 10
18.31452246678553
 20
8.302281285109094
 30
0.0
 10
18.37900417789164
 20
8.287811907003633
 30
0.0
 10
18.44349732931685
 20
8.274496406337889
 30
0.0
  0
LINE
  5
118
330
1F
100
AcDbEntity
  8
0
  6
Continuous
 62
     7
370
    15
100
AcDbLine
 10
18.4434973293
 20
8.2744964063
 30
0.0
 11
18.4434973293
 21
10.7091889094
 31
0.0
  0
LINE
  5
119
330
1F
100
AcDbEntity
  8
0
  6
Continuous
 62
     7
370
    15
100
AcDbLine
 10
18.4434973293
 20
10.7091889094
 30
0.0
 11
18.5059973293
 21
10.7091889094
 31
0.0
  0
LINE
  5
11A
330
1F
100
AcDbEntity
  8
0
  6
Continuous
 62
     7
370
    15
100
AcDbLine
 10
18.5059973293
 20
10.7091889094
 30
0.0
 11
18.5059973293
 21
8.2619786021
 31
0.0
  0
SPLINE
  5
11B
330
1F
100
AcDbEntity
  8
0
  6
Continuous
 62
     7
370
    15
100
AcDbSpline
210
0.0
220
0.0
230
1.0
 70
     8
 71
     3
 72
    10
 73
     6
 74
     0
 42
0.000000001
 43
0.00000001
 40
0.640185251555228
 40
0.640185251555228
 40
0.640185251555228
 40
0.640185251555228
 40
0.647794575134953
 40
0.7425618557828204
 40
1.0
 40
1.0
 40
1.0
 40
1.0
 10
18.50599732931684
 20
8.261978602123502
 30
0.0
 10
18.53946728726472
 20
8.255494856797297
 30
0.0
 10
18.98980632743742
 20
8.173286832999256
 30
0.0
 10
20.57323172032129
 20
8.186126150714678
 30
0.0
 10
22.22799778818365
 20
7.737571280774386
 30
0.0
 10
23.14253654324299
 20
8.677183717645038
 30
0.0
  0
LINE
  5
11C
330
1F
100
AcDbEntity
  8
0
  6
Continuous
 62
     7
370
    15
100
AcDbLine
 10
23.1425365432
 20
8.6771837176
 30
0.0
 11
22.8374111517
 21
10.5506536218
 31
0.0
  0
SPLINE
  5
11D
330
1F
100
AcDbEntity
  8
0
  6
Continuous
 62
     7
370
    15
100
AcDbSpline
210
0.0
220
0.0
230
1.0
 70
     8
 71
     3
 72
    10
 73
     6
 74
     0
 42
0.000000001
 43
0.00000001
 40
0.0
 40
0.0
 40
0.0
 40
0.0
 40
0.2271707104829299
 40
0.333962411515107
 40
0.3892808401181517
 40
0.3892808401181517
 40
0.3892808401181517
 40
0.3892808401181517
 10
22.83741115168242
 20
10.55065362182688
 30
0.0
 10
21.90215728775449
 20
10.88229318240138
 30
0.0
 10
20.95935927131337
 20
12.00714635514013
 30
0.0
 10
19.42283345695375
 20
12.67615400917841
 30
0.0
 10
18.74021869073336
 20
12.79910898364755
 30
0.0
 10
18.50599732893336
 20
12.80490558329541
 30
0.0
  0
LINE
  5
11E
330
1F
100
AcDbEntity
  8
0
  6
Continuous
 62
     7
370
    15
100
AcDbLine
 10
18.5059973293
 20
12.8049055833
 30
0.0
 11
18.5059973293
 21
11.2091889094
 31
0.0
  0
LINE
  5
11F
330
1F
100
AcDbEntity
  8
0
  6
Continuous
 62
     7
370
    15
100
AcDbLine
 10
18.4434973293
 20
11.2091889094
 30
0.0
 11
18.5059973293
 21
11.2091889094
 31
0.0
  0
LINE
  5
120
330
1F
100
AcDbEntity
  8
0
  6
Continuous
 62
     7
370
    15
100
AcDbLine
 10
18.4434973293
 20
11.2091889094
 30
0.0
 11
18.4434973293
 21
12.8055814937
 31
0.0
  0
SPLINE
  5
121
330
1F
100
AcDbEntity
  8
0
  6
Continuous
 62
     7
370
    15
100
AcDbSpline
210
0.0
220
0.0
230
1.0
 70
     8
 71
     3
 72
     9
 73
     5
 74
     0
 42
0.000000001
 43
0.00000001
 40
0.3941990626060548
 40
0.3941990626060548
 40
0.3941990626060548
 40
0.3941990626060548
 40
0.3955264780224093
 40
0.4094016551685515
 40
0.4094016551685515
 40
0.4094016551685515
 40
0.4094016551685515
 10
18.4434973289331
 20
12.80558149365764
 30
0.0
 10
18.43787218986299
 20
12.80556287628625
 30
0.0
 10
18.37344241122659
 20
12.80510061841743
 30
0.0
 10
18.30894698747013
 20
12.80175350413115
 30
0.0
 10
18.25006124086278
 20
12.79695322400032
 30
0.0
  0
LINE
  5
122
330
1F
100
AcDbEntity
  8
0
  6
Continuous
 62
     7
370
    15
100
AcDbLine
 10
18.2500612409
 20
12.796953224
 30
0.0
 11
18.2500612409
 21
11.2091889094
 31
0.0
  0
LINE
  5
123
330
1F
100
AcDbEntity
  8
0
  6
Continuous
 62
     7
370
    15
100
AcDbLine
 10
18.1875612409
 20
11.2091889094
 30
0.0
 11
18.2500612409
 21
11.2091889094
 31
0.0
  0
LINE
  5
124
330
1F
100
AcDbEntity
  8
0
  6
Continuous
 62
     7
370
    15
100
AcDbLine
 10
18.1875612409
 20
11.2091889094
 30
0.0
 11
18.1875612409
 21
12.7912326986
 31
0.0
  0
SPLINE
  5
125
330
1F
100
AcDbEntity
  8
0
  6
Continuous
 62
     7
370
    15
100
AcDbSpline
210
0.0
220
0.0
230
1.0
 70
     8
 71
     3
 72
     8
 73
     4
 74
     0
 42
0.000000001
 43
0.00000001
 40
0.4143100615865133
 40
0.4143100615865133
 40
0.4143100615865133
 40
0.4143100615865133
 40
0.4295007371099207
 40
0.4295007371099207
 40
0.4295007371099207
 40
0.4295007371099207
 10
18.18756124086278
 20
12.79123269856728
 30
0.0
 10
18.12308023602943
 20
12.78471542855425
 30
0.0
 10
18.05858713282077
 20
12.77638493656093
 30
0.0
 10
17.99412515240761
 20
12.76710421946395
 30
0.0
  0
LINE
  5
126
330
1F
100
AcDbEntity
  8
0
  6
Continuous
 62
     7
370
    15
100
AcDbLine
 10
17.9941251524
 20
12.7671042195
 30
0.0
 11
17.9941251524
 21
11.2091889094
 31
0.0
  0
LINE
  5
127
330
1F
100
AcDbEntity
  8
0
  6
Continuous
 62
     7
370
    15
100
AcDbLine
 10
17.9316251524
 20
11.2091889094
 30
0.0
 11
17.9941251524
 21
11.2091889094
 31
0.0
  0
LINE
  5
128
330
1F
100
AcDbEntity
  8
0
  6
Continuous
 62
     7
370
    15
100
AcDbLine
 10
17.9316251524
 20
11.2091889094
 30
0.0
 11
17.9316251524
 21
12.7578356447
 31
0.0
  0
SPLINE
  5
129
330
1F
100
AcDbEntity
  8
0
  6
Continuous
 62
     7
370
    15
100
AcDbSpline
210
0.0
220
0.0
230
1.0
 70
     8
 71
     3
 72
     8
 73
     4
 74
     0
 42
0.000000001
 43
0.00000001
 40
0.43441106093084
 40
0.43441106093084
 40
0.43441106093084
 40
0.43441106093084
 40
0.449625561315817
 40
0.449625561315817
 40
0.449625561315817
 40
0.449625561315817
 10
17.93162515240861
 20
12.75783564460609
 30
0.0
 10
17.86708674601158
 20
12.74801540967911
 30
0.0
 10
17.80259357503717
 20
12.7375218026064
 30
0.0
 10
17.73818906433789
 20
12.72722188717627
 30
0.0
  0
LINE
  5
12A
330
1F
100
AcDbEntity
  8
0
  6
Continuous
 62
     7
370
    15
100
AcDbLine
 10
17.738189064
 20
12.7272218872
 30
0.0
 11
17.738189064
 21
11.2091889094
 31
0.0
  0
LINE
  5
12B
330
1F
100
AcDbEntity
  8
0
  6
Continuous
 62
     7
370
    15
100
AcDbLine
 10
17.675689064
 20
11.2091889094
 30
0.0
 11
17.738189064
 21
11.2091889094
 31
0.0
  0
LINE
  5
12C
330
1F
100
AcDbEntity
  8
0
  6
Continuous
 62
     7
370
    15
100
AcDbLine
 10
17.675689064
 20
11.2091889094
 30
0.0
 11
17.675689064
 21
12.7173121091
 31
0.0
  0
SPLINE
  5
12D
330
1F
100
AcDbEntity
  8
0
  6
Continuous
 62
     7
370
    15
100
AcDbSpline
210
0.0
220
0.0
230
1.0
 70
     8
 71
     3
 72
     8
 73
     4
 74
     0
 42
0.000000001
 43
0.00000001
 40
0.4545494012585351
 40
0.4545494012585351
 40
0.4545494012585351
 40
0.4545494012585351
 40
0.4698240322496512
 40
0.4698240322496512
 40
0.4698240322496512
 40
0.4698240322496512
 10
17.67568906433685
 20
12.71731210911387
 30
0.0
 10
17.61109219353006
 20
12.70718852101518
 30
0.0
 10
17.5465988499944
 20
12.69754298721016
 30
0.0
 10
17.4822529754898
 20
12.68925289257493
 30
0.0
  0
LINE
  5
12E
330
1F
100
AcDbEntity
  8
0
  6
Continuous
 62
     7
370
    15
100
AcDbLine
 10
17.4822529755
 20
12.6892528926
 30
0.0
 11
17.4822529755
 21
11.2091889094
 31
0.0
  0
LINE
  5
12F
330
1F
100
AcDbEntity
  8
0
  6
Continuous
 62
     7
370
    15
100
AcDbLine
 10
17.4197529755
 20
11.2091889094
 30
0.0
 11
17.4822529755
 21
11.2091889094
 31
0.0
  0
LINE
  5
130
330
1F
100
AcDbEntity
  8
0
  6
Continuous
 62
     7
370
    15
100
AcDbLine
 10
17.4197529755
 20
11.2091889094
 30
0.0
 11
17.4197529755
 21
12.6816512013
 31
0.0
  0
SPLINE
  5
131
330
1F
100
AcDbEntity
  8
0
  6
Continuous
 62
     7
370
    15
100
AcDbSpline
210
0.0
220
0.0
230
1.0
 70
     8
 71
     3
 72
     8
 73
     4
 74
     0
 42
0.000000001
 43
0.00000001
 40
0.4747733096186667
 40
0.4747733096186667
 40
0.4747733096186667
 40
0.4747733096186667
 40
0.4901458278637248
 40
0.4901458278637248
 40
0.4901458278637248
 40
0.4901458278637248
 10
17.41975297548414
 20
12.68165120128197
 30
0.0
 10
17.3550955624096
 20
12.67428469176926
 30
0.0
 10
17.29060193558583
 20
12.66857899488212
 30
0.0
 10
17.22631688699864
 20
12.66542847195199
 30
0.0
  0
LINE
  5
132
330
1F
100
AcDbEntity
  8
0
  6
Continuous
 62
     7
370
    15
100
AcDbLine
 10
17.226316887
 20
12.665428472
 30
0.0
 11
17.226316887
 21
11.2091889094
 31
0.0
  0
LINE
  5
133
330
1F
100
AcDbEntity
  8
0
  6
Continuous
 62
     7
370
    15
100
AcDbLine
 10
17.163816887
 20
11.2091889094
 30
0.0
 11
17.226316887
 21
11.2091889094
 31
0.0
  0
LINE
  5
134
330
1F
100
AcDbEntity
  8
0
  6
Continuous
 62
     7
370
    15
100
AcDbLine
 10
17.163816887
 20
11.2091889094
 30
0.0
 11
17.163816887
 21
12.6631994863
 31
0.0
  0
SPLINE
  5
135
330
1F
100
AcDbEntity
  8
0
  6
Continuous
 62
     7
370
    15
100
AcDbSpline
210
0.0
220
0.0
230
1.0
 70
     8
 71
     3
 72
     8
 73
     4
 74
     0
 42
0.000000001
 43
0.00000001
 40
0.4951330857256467
 40
0.4951330857256467
 40
0.4951330857256467
 40
0.4951330857256467
 40
0.510643684986802
 40
0.510643684986802
 40
0.510643684986802
 40
0.510643684986802
 10
17.1638168869832
 20
12.66319948630709
 30
0.0
 10
17.09909571817477
 20
12.66178847016044
 30
0.0
 10
17.03460168542147
 20
12.66327412773754
 30
0.0
 10
16.97038079859239
 20
12.66857513783829
 30
0.0
  0
LINE
  5
136
330
1F
100
AcDbEntity
  8
0
  6
Continuous
 62
     7
370
    15
100
AcDbLine
 10
16.9703807986
 20
12.6685751378
 30
0.0
 11
16.9703807986
 21
11.2091889094
 31
0.0
  0
LINE
  5
137
330
1F
100
AcDbEntity
  8
0
  6
Continuous
 62
     7
370
    15
100
AcDbLine
 10
16.9078807986
 20
11.2091889094
 30
0.0
 11
16.9703807986
 21
11.2091889094
 31
0.0
  0
LINE
  5
138
330
1F
100
AcDbEntity
  8
0
  6
Continuous
 62
     7
370
    15
100
AcDbLine
 10
16.9078807986
 20
11.2091889094
 30
0.0
 11
16.9078807986
 21
12.6749402828
 31
0.0
  0
SPLINE
  5
139
330
1F
100
AcDbEntity
  8
0
  6
Continuous
 62
     7
370
    15
100
AcDbSpline
210
0.0
220
0.0
230
1.0
 70
     8
 71
     3
 72
     8
 73
     4
 74
     0
 42
0.000000001
 43
0.00000001
 40
0.5156822096609183
 40
0.5156822096609183
 40
0.5156822096609183
 40
0.5156822096609183
 40
0.5313519061930947
 40
0.5313519061930947
 40
0.5313519061930947
 40
0.5313519061930947
 10
16.90788079858959
 20
12.67494028275826
 30
0.0
 10
16.8431752535968
 20
12.68274976672504
 30
0.0
 10
16.77872649361385
 20
12.69421231796886
 30
0.0
 10
16.7144447101317
 20
12.70826498152891
 30
0.0
  0
LINE
  5
13A
330
1F
100
AcDbEntity
  8
0
  6
Continuous
 62
     7
370
    15
100
AcDbLine
 10
16.7144447101
 20
12.7082649815
 30
0.0
 11
16.7144447101
 21
11.2091889094
 31
0.0
  0
LINE
  5
13B
330
1F
100
AcDbEntity
  8
0
  6
Continuous
 62
     7
370
    15
100
AcDbLine
 10
16.6519447101
 20
11.2091889094
 30
0.0
 11
16.7144447101
 21
11.2091889094
 31
0.0
  0
LINE
  5
13C
330
1F
100
AcDbEntity
  8
0
  6
Continuous
 62
     7
370
    15
100
AcDbLine
 10
16.6519447101
 20
11.2091889094
 30
0.0
 11
16.6519447101
 21
12.7227201769
 31
0.0
  0
SPLINE
  5
13D
330
1F
100
AcDbEntity
  8
0
  6
Continuous
 62
     7
370
    15
100
AcDbSpline
210
0.0
220
0.0
230
1.0
 70
     8
 71
     3
 72
     8
 73
     4
 74
     0
 42
0.000000001
 43
0.00000001
 40
0.5364343921971961
 40
0.5364343921971961
 40
0.5364343921971961
 40
0.5364343921971961
 40
0.5522029336732746
 40
0.5522029336732746
 40
0.5522029336732746
 40
0.5522029336732746
 10
16.65194471051806
 20
12.722720176825
 30
0.0
 10
16.58735692906562
 20
12.73843976406371
 30
0.0
 10
16.52290873918141
 20
12.75643310954129
 30
0.0
 10
16.4585086220683
 20
12.77561701568011
 30
0.0
  0
LINE
  5
13E
330
1F
100
AcDbEntity
  8
0
  6
Continuous
 62
     7
370
    15
100
AcDbLine
 10
16.4585086217
 20
12.7756170157
 30
0.0
 11
16.4585086217
 21
11.2091889094
 31
0.0
  0
LINE
  5
13F
330
1F
100
AcDbEntity
  8
0
  6
Continuous
 62
     7
370
    15
100
AcDbLine
 10
16.3960086217
 20
11.2091889094
 30
0.0
 11
16.4585086217
 21
11.2091889094
 31
0.0
  0
LINE
  5
140
330
1F
100
AcDbEntity
  8
0
  6
Continuous
 62
     7
370
    15
100
AcDbLine
 10
16.3960086217
 20
11.2091889094
 30
0.0
 11
16.3960086217
 21
12.7945757095
 31
0.0
  0
SPLINE
  5
141
330
1F
100
AcDbEntity
  8
0
  6
Continuous
 62
     7
370
    15
100
AcDbSpline
210
0.0
220
0.0
230
1.0
 70
     8
 71
     3
 72
     8
 73
     4
 74
     0
 42
0.000000001
 43
0.00000001
 40
0.5573050105447188
 40
0.5573050105447188
 40
0.5573050105447188
 40
0.5573050105447188
 40
0.5730951029775052
 40
0.5730951029775052
 40
0.5730951029775052
 40
0.5730951029775052
 10
16.39600862168427
 20
12.79457570950291
 30
0.0
 10
16.33154204564941
 20
12.81444376767764
 30
0.0
 10
16.26709398101531
 20
12.83515420443945
 30
0.0
 10
16.20257253323395
 20
12.8556193749009
 30
0.0
  0
LINE
  5
142
330
1F
100
AcDbEntity
  8
0
  6
Continuous
 62
     7
370
    15
100
AcDbLine
 10
16.2025725332
 20
12.8556193749
 30
0.0
 11
16.2025725332
 21
11.2091889094
 31
0.0
  0
LINE
  5
143
330
1F
100
AcDbEntity
  8
0
  6
Continuous
 62
     7
370
    15
100
AcDbLine
 10
16.1400725332
 20
11.2091889094
 30
0.0
 11
16.2025725332
 21
11.2091889094
 31
0.0
  0
LINE
  5
144
330
1F
100
AcDbEntity
  8
0
  6
Continuous
 62
     7
370
    15
100
AcDbLine
 10
16.1400725332
 20
11.2091889094
 30
0.0
 11
16.1400725332
 21
12.8753219028
 31
0.0
  0
SPLINE
  5
145
330
1F
100
AcDbEntity
  8
0
  6
Continuous
 62
     7
370
    15
100
AcDbSpline
210
0.0
220
0.0
230
1.0
 70
     8
 71
     3
 72
     8
 73
     4
 74
     0
 42
0.000000001
 43
0.00000001
 40
0.5781914438436029
 40
0.5781914438436029
 40
0.5781914438436029
 40
0.5781914438436029
 40
0.5939247368139048
 40
0.5939247368139048
 40
0.5939247368139048
 40
0.5939247368139048
 10
16.14007253323371
 20
12.87532190278264
 30
0.0
 10
16.07572644173825
 20
12.8954428104576
 30
0.0
 10
16.01127804760287
 20
12.91497169067193
 30
0.0
 10
15.94663644439432
 20
12.93283259366051
 30
0.0
  0
LINE
  5
146
330
1F
100
AcDbEntity
  8
0
  6
Continuous
 62
     7
370
    15
100
AcDbLine
 10
15.9466364448
 20
12.9328325937
 30
0.0
 11
15.9466364448
 21
11.2091889094
 31
0.0
  0
LINE
  5
147
330
1F
100
AcDbEntity
  8
0
  6
Continuous
 62
     7
370
    15
100
AcDbLine
 10
15.8841364448
 20
11.2091889094
 30
0.0
 11
15.9466364448
 21
11.2091889094
 31
0.0
  0
LINE
  5
148
330
1F
100
AcDbEntity
  8
0
  6
Continuous
 62
     7
370
    15
100
AcDbLine
 10
15.8841364448
 20
11.2091889094
 30
0.0
 11
15.8841364448
 21
12.9495296944
 31
0.0
  0
SPLINE
  5
149
330
1F
100
AcDbEntity
  8
0
  6
Continuous
 62
     7
370
    15
100
AcDbSpline
210
0.0
220
0.0
230
1.0
 70
     8
 71
     3
 72
     9
 73
     5
 74
     0
 42
0.000000001
 43
0.00000001
 40
0.5989902967394078
 40
0.5989902967394078
 40
0.5989902967394078
 40
0.5989902967394078
 40
0.6125661099761199
 40
0.6145912275975531
 40
0.6145912275975531
 40
0.6145912275975531
 40
0.6145912275975531
 10
15.88413644439514
 20
12.94952969448225
 30
0.0
 10
15.82824355081905
 20
12.96391834788551
 30
0.0
 10
15.76382270377576
 20
12.97872982983599
 30
0.0
 10
15.69910598031102
 20
12.99064781697491
 30
0.0
 10
15.69070035632221
 20
12.99214760936598
 30
0.0
  0
LINE
  5
14A
330
1F
100
AcDbEntity
  8
0
  6
Continuous
 62
     7
370
    15
100
AcDbLine
 10
15.6907003563
 20
12.9921476094
 30
0.0
 11
15.6907003563
 21
11.2091889094
 31
0.0
  0
LINE
  5
14B
330
1F
100
AcDbEntity
  8
0
  6
Continuous
 62
     7
370
    15
100
AcDbLine
 10
15.6282003563
 20
11.2091889094
 30
0.0
 11
15.6907003563
 21
11.2091889094
 31
0.0
  0
LINE
  5
14C
330
1F
100
AcDbEntity
  8
0
  6
Continuous
 62
     7
370
    15
100
AcDbLine
 10
15.6282003563
 20
11.2091889094
 30
0.0
 11
15.6282003563
 21
13.002437909
 31
0.0
  0
SPLINE
  5
14D
330
1F
100
AcDbEntity
  8
0
  6
Continuous
 62
     7
370
    15
100
AcDbSpline
210
0.0
220
0.0
230
1.0
 70
     8
 71
     3
 72
     8
 73
     4
 74
     0
 42
0.000000001
 43
0.00000001
 40
0.6196033294440735
 40
0.6196033294440735
 40
0.6196033294440735
 40
0.6196033294440735
 40
0.6350308142551861
 40
0.6350308142551861
 40
0.6350308142551861
 40
0.6350308142551861
 10
15.62820035593862
 20
13.00243790904126
 30
0.0
 10
15.56398421188338
 20
13.01215179572759
 30
0.0
 10
15.49949420789718
 20
13.01933943395876
 30
0.0
 10
15.43476426748765
 20
13.0246656649865
 30
0.0
  0
LINE
  5
14E
330
1F
100
AcDbEntity
  8
0
  6
Continuous
 62
     7
370
    15
100
AcDbLine
 10
15.4347642679
 20
13.024665665
 30
0.0
 11
15.4347642679
 21
11.2091889094
 31
0.0
  0
LINE
  5
14F
330
1F
100
AcDbEntity
  8
0
  6
Continuous
 62
     7
370
    15
100
AcDbLine
 10
15.3722642679
 20
11.2091889094
 30
0.0
 11
15.4347642679
 21
11.2091889094
 31
0.0
  0
LINE
  5
150
330
1F
100
AcDbEntity
  8
0
  6
Continuous
 62
     7
370
    15
100
AcDbLine
 10
15.3722642679
 20
11.2091889094
 30
0.0
 11
15.3722642679
 21
13.0292473674
 31
0.0
  0
SPLINE
  5
151
330
1F
100
AcDbEntity
  8
0
  6
Continuous
 62
     7
370
    15
100
AcDbSpline
210
0.0
220
0.0
230
1.0
 70
     8
 71
     3
 72
     8
 73
     4
 74
     0
 42
0.000000001
 43
0.00000001
 40
0.6399903304351398
 40
0.6399903304351398
 40
0.6399903304351398
 40
0.6399903304351398
 40
0.6552714078519035
 40
0.6552714078519035
 40
0.6552714078519035
 40
0.6552714078519035
 10
15.37226426748905
 20
13.02924736739554
 30
0.0
 10
15.30799928706413
 20
13.03340568218342
 30
0.0
 10
15.24350960209687
 20
13.03594744279616
 30
0.0
 10
15.17882817942546
 20
13.0375187414424
 30
0.0
  0
LINE
  5
152
330
1F
100
AcDbEntity
  8
0
  6
Continuous
 62
     7
370
    15
100
AcDbLine
 10
15.1788281794
 20
13.0375187414
 30
0.0
 11
15.1788281794
 21
11.2091889094
 31
0.0
  0
LINE
  5
153
330
1F
100
AcDbEntity
  8
0
  6
Continuous
 62
     7
370
    15
100
AcDbLine
 10
15.1163281794
 20
11.2091889094
 30
0.0
 11
15.1788281794
 21
11.2091889094
 31
0.0
  0
LINE
  5
154
330
1F
100
AcDbEntity
  8
0
  6
Continuous
 62
     7
370
    15
100
AcDbLine
 10
15.1163281794
 20
11.2091889094
 30
0.0
 11
15.1163281794
 21
13.0387556844
 31
0.0
  0
SPLINE
  5
155
330
1F
100
AcDbEntity
  8
0
  6
Continuous
 62
     7
370
    15
100
AcDbSpline
210
0.0
220
0.0
230
1.0
 70
     8
 71
     3
 72
     8
 73
     4
 74
     0
 42
0.000000001
 43
0.00000001
 40
0.6601887081788286
 40
0.6601887081788286
 40
0.6601887081788286
 40
0.6601887081788286
 40
0.6753541498593617
 40
0.6753541498593617
 40
0.6753541498593617
 40
0.6753541498593617
 10
15.11632817942788
 20
13.0387556843898
 30
0.0
 10
15.05201714028905
 20
13.03976164456103
 30
0.0
 10
14.98752770277956
 20
13.04001654611551
 30
0.0
 10
14.92289209098174
 20
13.04015192454975
 30
0.0
  0
LINE
  5
156
330
1F
100
AcDbEntity
  8
0
  6
Continuous
 62
     7
370
    15
100
AcDbLine
 10
14.922892091
 20
13.0401519245
 30
0.0
 11
14.922892091
 21
11.2091889094
 31
0.0
  0
LINE
  5
157
330
1F
100
AcDbEntity
  8
0
  6
Continuous
 62
     7
370
    15
100
AcDbLine
 10
14.860392091
 20
11.2091889094
 30
0.0
 11
14.922892091
 21
11.2091889094
 31
0.0
  0
LINE
  5
158
330
1F
100
AcDbEntity
  8
0
  6
Continuous
 62
     7
370
    15
100
AcDbLine
 10
14.860392091
 20
11.2091889094
 30
0.0
 11
14.860392091
 21
13.0402666405
 31
0.0
  0
SPLINE
  5
159
330
1F
100
AcDbEntity
  8
0
  6
Continuous
 62
     7
370
    15
100
AcDbSpline
210
0.0
220
0.0
230
1.0
 70
     8
 71
     3
 72
     8
 73
     4
 74
     0
 42
0.000000001
 43
0.00000001
 40
0.6802387971939011
 40
0.6802387971939011
 40
0.6802387971939011
 40
0.6802387971939011
 40
0.6953172151559133
 40
0.6953172151559133
 40
0.6953172151559133
 40
0.6953172151559133
 10
14.86039209098398
 20
13.04026664051409
 30
0.0
 10
14.79603707854364
 20
13.04038983041388
 30
0.0
 10
14.7315478248848
 20
13.04059594889543
 30
0.0
 10
14.66695600253343
 20
13.04150572191802
 30
0.0
  0
LINE
  5
15A
330
1F
100
AcDbEntity
  8
0
  6
Continuous
 62
     7
370
    15
100
AcDbLine
 10
14.6669560025
 20
13.0415057219
 30
0.0
 11
14.6669560025
 21
11.2091889094
 31
0.0
  0
LINE
  5
15B
330
1F
100
AcDbEntity
  8
0
  6
Continuous
 62
     7
370
    15
100
AcDbLine
 10
14.6044560025
 20
11.2091889094
 30
0.0
 11
14.6669560025
 21
11.2091889094
 31
0.0
  0
LINE
  5
15C
330
1F
100
AcDbEntity
  8
0
  6
Continuous
 62
     7
370
    15
100
AcDbLine
 10
14.6044560025
 20
11.2091889094
 30
0.0
 11
14.6044560025
 21
13.0426257814
 31
0.0
  0
SPLINE
  5
15D
330
1F
100
AcDbEntity
  8
0
  6
Continuous
 62
     7
370
    15
100
AcDbSpline
210
0.0
220
0.0
230
1.0
 70
     8
 71
     3
 72
     9
 73
     5
 74
     0
 42
0.000000001
 43
0.00000001
 40
0.7001781758388854
 40
0.7001781758388854
 40
0.7001781758388854
 40
0.7001781758388854
 40
0.7008621685883563
 40
0.7152027519930158
 40
0.7152027519930158
 40
0.7152027519930158
 40
0.7152027519930158
 10
14.6044560025059
 20
13.04262578142148
 30
0.0
 10
14.60152311388612
 20
13.04269055753651
 30
0.0
 10
14.5370951446332
 20
13.04415427932243
 30
0.0
 10
14.47257690213858
 20
13.04654327857406
 30
0.0
 10
14.41101991405174
 20
13.0490609371569
 30
0.0
  0
LINE
  5
15E
330
1F
100
AcDbEntity
  8
0
  6
Continuous
 62
     7
370
    15
100
AcDbLine
 10
14.4110199141
 20
13.0490609372
 30
0.0
 11
14.4110199141
 21
11.2091889094
 31
0.0
  0
LINE
  5
15F
330
1F
100
AcDbEntity
  8
0
  6
Continuous
 62
     7
370
    15
100
AcDbLine
 10
14.3485199141
 20
11.2091889094
 30
0.0
 11
14.4110199141
 21
11.2091889094
 31
0.0
  0
LINE
  5
160
330
1F
100
AcDbEntity
  8
0
  6
Continuous
 62
     7
370
    15
100
AcDbLine
 10
14.3485199141
 20
11.2091889094
 30
0.0
 11
14.3485199141
 21
13.0516757991
 31
0.0
  0
SPLINE
  5
161
330
1F
100
AcDbEntity
  8
0
  6
Continuous
 62
     7
370
    15
100
AcDbSpline
210
0.0
220
0.0
230
1.0
 70
     8
 71
     3
 72
     8
 73
     4
 74
     0
 42
0.000000001
 43
0.00000001
 40
0.7200571384893184
 40
0.7200571384893184
 40
0.7200571384893184
 40
0.7200571384893184
 40
0.7351103016286924
 40
0.7351103016286924
 40
0.7351103016286924
 40
0.7351103016286924
 10
14.34851991405053
 20
13.05167579911822
 30
0.0
 10
14.28393406510645
 20
13.05441444825492
 30
0.0
 10
14.21941438405918
 20
13.05718884370764
 30
0.0
 10
14.15508382551667
 20
13.05929862957858
 30
0.0
  0
LINE
  5
162
330
1F
100
AcDbEntity
  8
0
  6
Continuous
 62
     7
370
    15
100
AcDbLine
 10
14.1550838256
 20
13.0592986296
 30
0.0
 11
14.1550838256
 21
11.2091889094
 31
0.0
  0
LINE
  5
163
330
1F
100
AcDbEntity
  8
0
  6
Continuous
 62
     7
370
    15
100
AcDbLine
 10
14.0925838256
 20
11.2091889094
 30
0.0
 11
14.1550838256
 21
11.2091889094
 31
0.0
  0
LINE
  5
164
330
1F
100
AcDbEntity
  8
0
  6
Continuous
 62
     7
370
    15
100
AcDbLine
 10
14.0925838256
 20
11.2091889094
 30
0.0
 11
14.0925838256
 21
13.0611170779
 31
0.0
  0
SPLINE
  5
165
330
1F
100
AcDbEntity
  8
0
  6
Continuous
 62
     7
370
    15
100
AcDbSpline
210
0.0
220
0.0
230
1.0
 70
     8
 71
     3
 72
     8
 73
     4
 74
     0
 42
0.000000001
 43
0.00000001
 40
0.7399902183754712
 40
0.7399902183754712
 40
0.7399902183754712
 40
0.7399902183754712
 40
0.7551743981627076
 40
0.7551743981627076
 40
0.7551743981627076
 40
0.7551743981627076
 10
14.09258382540216
 20
13.06111707789735
 30
0.0
 10
14.02783007992676
 20
13.06273632902465
 30
0.0
 10
13.96330931951231
 20
13.06344834134819
 30
0.0
 10
13.89914773723187
 20
13.06253431250306
 30
0.0
  0
LINE
  5
166
330
1F
100
AcDbEntity
  8
0
  6
Continuous
 62
     7
370
    15
100
AcDbLine
 10
13.8991477371
 20
13.0625343125
 30
0.0
 11
13.8991477371
 21
11.2091889094
 31
0.0
  0
LINE
  5
167
330
1F
100
AcDbEntity
  8
0
  6
Continuous
 62
     7
370
    15
100
AcDbLine
 10
13.8366477371
 20
11.2091889094
 30
0.0
 11
13.8991477371
 21
11.2091889094
 31
0.0
  0
LINE
  5
168
330
1F
100
AcDbEntity
  8
0
  6
Continuous
 62
     7
370
    15
100
AcDbLine
 10
13.8366477371
 20
11.2091889094
 30
0.0
 11
13.8366477371
 21
13.061101266
 31
0.0
  0
SPLINE
  5
169
330
1F
100
AcDbEntity
  8
0
  6
Continuous
 62
     7
370
    15
100
AcDbSpline
210
0.0
220
0.0
230
1.0
 70
     8
 71
     3
 72
     8
 73
     4
 74
     0
 42
0.000000001
 43
0.00000001
 40
0.760114055814877
 40
0.760114055814877
 40
0.760114055814877
 40
0.760114055814877
 40
0.7755408897109066
 40
0.7755408897109066
 40
0.7755408897109066
 40
0.7755408897109066
 10
13.83664773706594
 20
13.06110126603486
 30
0.0
 10
13.77171180249618
 20
13.05902048192165
 30
0.0
 10
13.70718899285776
 20
13.05501989928811
 30
0.0
 10
13.64321164838966
 20
13.04834570118963
 30
0.0
  0
LINE
  5
16A
330
1F
100
AcDbEntity
  8
0
  6
Continuous
 62
     7
370
    15
100
AcDbLine
 10
13.6432116487
 20
13.0483457012
 30
0.0
 11
13.6432116487
 21
11.2091889094
 31
0.0
  0
LINE
  5
16B
330
1F
100
AcDbEntity
  8
0
  6
Continuous
 62
     7
370
    15
100
AcDbLine
 10
13.5807116487
 20
11.2091889094
 30
0.0
 11
13.6432116487
 21
11.2091889094
 31
0.0
  0
LINE
  5
16C
330
1F
100
AcDbEntity
  8
0
  6
Continuous
 62
     7
370
    15
100
AcDbLine
 10
13.5807116487
 20
11.2091889094
 30
0.0
 11
13.5807116487
 21
13.0409252773
 31
0.0
  0
SPLINE
  5
16D
330
1F
100
AcDbEntity
  8
0
  6
Continuous
 62
     7
370
    15
100
AcDbSpline
210
0.0
220
0.0
230
1.0
 70
     8
 71
     3
 72
     9
 73
     5
 74
     0
 42
0.000000001
 43
0.00000001
 40
0.7805788214208988
 40
0.7805788214208988
 40
0.7805788214208988
 40
0.7805788214208988
 40
0.7868801564057946
 40
0.7963739538155552
 40
0.7963739538155552
 40
0.7963739538155552
 40
0.7963739538155552
 10
13.5807116483519
 20
13.04092527726769
 30
0.0
 10
13.55473037413752
 20
13.03745297729189
 30
0.0
 10
13.4898510600583
 20
13.02752808964952
 30
0.0
 10
13.42564554162837
 20
13.01421954947577
 30
0.0
 10
13.38727556039539
 20
13.0051135000196
 30
0.0
  0
LINE
  5
16E
330
1F
100
AcDbEntity
  8
0
  6
Continuous
 62
     7
370
    15
100
AcDbLine
 10
13.3872755602
 20
13.0051135
 30
0.0
 11
13.3872755602
 21
11.2091889094
 31
0.0
  0
LINE
  5
16F
330
1F
100
AcDbEntity
  8
0
  6
Continuous
 62
     7
370
    15
100
AcDbLine
 10
13.3247755602
 20
11.2091889094
 30
0.0
 11
13.3872755602
 21
11.2091889094
 31
0.0
  0
LINE
  5
170
330
1F
100
AcDbEntity
  8
0
  6
Continuous
 62
     7
370
    15
100
AcDbLine
 10
13.3247755602
 20
11.2091889094
 30
0.0
 11
13.3247755602
 21
12.9892686777
 31
0.0
  0
SPLINE
  5
171
330
1F
100
AcDbEntity
  8
0
  6
Continuous
 62
     7
370
    15
100
AcDbSpline
210
0.0
220
0.0
230
1.0
 70
     8
 71
     3
 72
     8
 73
     4
 74
     0
 42
0.000000001
 43
0.00000001
 40
0.8015446445893913
 40
0.8015446445893913
 40
0.8015446445893913
 40
0.8015446445893913
 40
0.8177389959827996
 40
0.8177389959827996
 40
0.8177389959827996
 40
0.8177389959827996
 10
13.32477556001227
 20
12.98926867772941
 30
0.0
 10
13.25972469126806
 20
12.97173763519142
 30
0.0
 10
13.19528261836369
 20
12.95116918868329
 30
0.0
 10
13.13133947167476
 20
12.92813698220007
 30
0.0
  0
LINE
  5
172
330
1F
100
AcDbEntity
  8
0
  6
Continuous
 62
     7
370
    15
100
AcDbLine
 10
13.1313394718
 20
12.9281369822
 30
0.0
 11
13.1313394718
 21
11.2091889094
 31
0.0
  0
LINE
  5
173
330
1F
100
AcDbEntity
  8
0
  6
Continuous
 62
     7
370
    15
100
AcDbLine
 10
13.0688394718
 20
11.2091889094
 30
0.0
 11
13.1313394718
 21
11.2091889094
 31
0.0
  0
LINE
  5
174
330
1F
100
AcDbEntity
  8
0
  6
Continuous
 62
     7
370
    15
100
AcDbLine
 10
13.0688394718
 20
11.2091889094
 30
0.0
 11
13.0688394718
 21
12.9047999262
 31
0.0
  0
SPLINE
  5
175
330
1F
100
AcDbEntity
  8
0
  6
Continuous
 62
     7
370
    15
100
AcDbSpline
210
0.0
220
0.0
230
1.0
 70
     8
 71
     3
 72
     9
 73
     5
 74
     0
 42
0.000000001
 43
0.00000001
 40
0.8230284389109694
 40
0.8230284389109694
 40
0.8230284389109694
 40
0.8230284389109694
 40
0.8932436545532126
 40
0.9762618357380657
 40
0.9762618357380657
 40
0.9762618357380657
 40
0.9762618357380657
 10
13.06883947176277
 20
12.90479992627332
 30
0.0
 10
12.79295807975145
 20
12.7982244010755
 30
0.0
 10
12.20988800486436
 20
12.47224946274636
 30
0.0
 10
11.62562440183234
 20
12.16514809869046
 30
0.0
 10
11.27757823758998
 20
12.14068262870456
 30
0.0
  0
LINE
  5
176
330
1F
100
AcDbEntity
  8
0
  6
Continuous
 62
     7
370
    15
100
AcDbLine
 10
11.2775782375
 20
12.1406826287
 30
0.0
 11
11.1986939584
 21
11.7626736635
 31
0.0
  0
LINE
  5
177
330
1F
100
AcDbEntity
  8
0
  6
Continuous
 62
     7
370
    15
100
AcDbLine
 10
11.3210579458
 20
11.7371383037
 30
0.0
 11
11.1986939584
 21
11.7626736635
 31
0.0
  0
LINE
  5
178
330
1F
100
AcDbEntity
  8
0
  6
Continuous
 62
     7
370
    15
100
AcDbLine
 10
11.2189165065
 20
11.2476823543
 30
0.0
 11
11.3210579458
 21
11.7371383037
 31
0.0
  0
LINE
  5
179
330
1F
100
AcDbEntity
  8
0
  6
Continuous
 62
     7
370
    15
100
AcDbLine
 10
11.0965525192
 20
11.2732177141
 30
0.0
 11
11.2189165065
 21
11.2476823543
 31
0.0
  0
LINE
  5
17A
330
1F
100
AcDbEntity
  8
0
  6
Continuous
 62
     7
370
    15
100
AcDbLine
 10
11.0965525192
 20
11.2732177141
 30
0.0
 11
10.9410259459
 21
10.527943247
 31
0.0
  0
LINE
  5
17B
330
1F
100
AcDbEntity
  8
0
  6
Continuous
 62
     7
370
    15
100
AcDbLine
 10
11.063389933
 20
10.5024078873
 30
0.0
 11
10.9410259459
 21
10.527943247
 31
0.0
  0
LINE
  5
17C
330
1F
100
AcDbEntity
  8
0
  6
Continuous
 62
     7
370
    15
100
AcDbLine
 10
10.9612484938
 20
10.0129519379
 30
0.0
 11
11.063389933
 21
10.5024078873
 31
0.0
  0
LINE
  5
17D
330
1F
100
AcDbEntity
  8
0
  6
Continuous
 62
     7
370
    15
100
AcDbLine
 10
10.8388845067
 20
10.0384872976
 30
0.0
 11
10.9612484938
 21
10.0129519379
 31
0.0
  0
LINE
  5
17E
330
1F
100
AcDbEntity
  8
0
  6
Continuous
 62
     7
370
    15
100
AcDbLine
 10
10.8388845067
 20
10.0384872976
 30
0.0
 11
10.7701341192
 21
9.709039363
 31
0.0
  0
SPLINE
  5
17F
330
1F
100
AcDbEntity
  8
0
  6
Continuous
 62
     7
370
    15
100
AcDbSpline
210
0.0
220
0.0
230
1.0
 70
     8
 71
     3
 72
     9
 73
     5
 74
     0
 42
0.000000001
 43
0.00000001
 40
0.0209620949269481
 40
0.0209620949269481
 40
0.0209620949269481
 40
0.0209620949269481
 40
0.1556764321025351
 40
0.2125963689265077
 40
0.2125963689265077
 40
0.2125963689265077
 40
0.2125963689265077
 10
10.77013411889333
 20
9.709039363087914
 30
0.0
 10
11.12808429358967
 20
9.197637975076246
 30
0.0
 10
12.07062450972496
 20
9.177259183455151
 30
0.0
 10
12.84266791952916
 20
8.851833213219377
 30
0.0
 10
13.06883947174363
 20
8.739369961342684
 30
0.0
  0
LINE
  5
180
330
1F
100
AcDbEntity
  8
0
  6
Continuous
 62
     7
370
    15
100
AcDbLine
 10
13.0688394718
 20
8.7393699613
 30
0.0
 11
13.0688394718
 21
10.7091889094
 31
0.0
  0
LINE
  5
181
330
1F
100
AcDbEntity
  8
0
  6
Continuous
 62
     7
370
    15
100
AcDbLine
 10
13.0688394718
 20
10.7091889094
 30
0.0
 11
13.1313394718
 21
10.7091889094
 31
0.0
  0
LINE
  5
182
330
1F
100
AcDbEntity
  8
0
  6
Continuous
 62
     7
370
    15
100
AcDbLine
 10
13.1313394718
 20
10.7091889094
 30
0.0
 11
13.1313394718
 21
8.7078622654
 31
0.0
  0
SPLINE
  5
183
330
1F
100
AcDbEntity
  8
0
  6
Continuous
 62
     7
370
    15
100
AcDbSpline
210
0.0
220
0.0
230
1.0
 70
     8
 71
     3
 72
     8
 73
     4
 74
     0
 42
0.000000001
 43
0.00000001
 40
0.21784537871786
 40
0.21784537871786
 40
0.21784537871786
 40
0.21784537871786
 40
0.234125776725588
 40
0.234125776725588
 40
0.234125776725588
 40
0.234125776725588
 10
13.13133947177116
 20
8.707862265293596
 30
0.0
 10
13.19589278764389
 20
8.674888532050915
 30
0.0
 10
13.26027868193542
 20
8.640705691822296
 30
0.0
 10
13.3247755602586
 20
8.605573668477216
 30
0.0
  0
LINE
  5
184
330
1F
100
AcDbEntity
  8
0
  6
Continuous
 62
     7
370
    15
100
AcDbLine
 10
13.3247755602
 20
8.6055736685
 30
0.0
 11
13.3247755602
 21
10.7091889094
 31
0.0
  0
LINE
  5
185
330
1F
100
AcDbEntity
  8
0
  6
Continuous
 62
     7
370
    15
100
AcDbLine
 10
13.3247755602
 20
10.7091889094
 30
0.0
 11
13.3872755602
 21
10.7091889094
 31
0.0
  0
LINE
  5
186
330
1F
100
AcDbEntity
  8
0
  6
Continuous
 62
     7
370
    15
100
AcDbLine
 10
13.3872755602
 20
10.7091889094
 30
0.0
 11
13.3872755602
 21
8.5712654131
 31
0.0
  0
SPLINE
  5
187
330
1F
100
AcDbEntity
  8
0
  6
Continuous
 62
     7
370
    15
100
AcDbSpline
210
0.0
220
0.0
230
1.0
 70
     8
 71
     3
 72
     9
 73
     5
 74
     0
 42
0.000000001
 43
0.00000001
 40
0.2393808510210027
 40
0.2393808510210027
 40
0.2393808510210027
 40
0.2393808510210027
 40
0.2490858548420584
 40
0.2555599877997847
 40
0.2555599877997847
 40
0.2555599877997847
 40
0.2555599877997847
 10
13.38727555997477
 20
8.571265413252522
 30
0.0
 10
13.42578317567975
 20
8.549973521059504
 30
0.0
 10
13.49009790862918
 20
8.513965371337797
 30
0.0
 10
13.55477490406282
 20
8.477255691754065
 30
0.0
 10
13.58071164864327
 20
8.462505931023
 30
0.0
  0
LINE
  5
188
330
1F
100
AcDbEntity
  8
0
  6
Continuous
 62
     7
370
    15
100
AcDbLine
 10
13.5807116487
 20
8.462505931
 30
0.0
 11
13.5807116487
 21
10.7091889094
 31
0.0
  0
LINE
  5
189
330
1F
100
AcDbEntity
  8
0
  6
Continuous
 62
     7
370
    15
100
AcDbLine
 10
13.5807116487
 20
10.7091889094
 30
0.0
 11
13.6432116487
 21
10.7091889094
 31
0.0
  0
LINE
  5
18A
330
1F
100
AcDbEntity
  8
0
  6
Continuous
 62
     7
370
    15
100
AcDbLine
 10
13.6432116487
 20
10.7091889094
 30
0.0
 11
13.6432116487
 21
8.4269347941
 31
0.0
  0
SPLINE
  5
18B
330
1F
100
AcDbEntity
  8
0
  6
Continuous
 62
     7
370
    15
100
AcDbSpline
210
0.0
220
0.0
230
1.0
 70
     8
 71
     3
 72
     8
 73
     4
 74
     0
 42
0.000000001
 43
0.00000001
 40
0.2607513363267593
 40
0.2607513363267593
 40
0.2607513363267593
 40
0.2607513363267593
 40
0.2767113302701137
 40
0.2767113302701137
 40
0.2767113302701137
 40
0.2767113302701137
 10
13.6432116485717
 20
8.426934794150931
 30
0.0
 10
13.70736918990687
 20
8.39041803843092
 30
0.0
 10
13.77185770845867
 20
8.353788750766729
 30
0.0
 10
13.83664773699006
 20
8.317826937663241
 30
0.0
  0
LINE
  5
18C
330
1F
100
AcDbEntity
  8
0
  6
Continuous
 62
     7
370
    15
100
AcDbLine
 10
13.8366477371
 20
8.3178269377
 30
0.0
 11
13.8366477371
 21
10.7091889094
 31
0.0
  0
LINE
  5
18D
330
1F
100
AcDbEntity
  8
0
  6
Continuous
 62
     7
370
    15
100
AcDbLine
 10
13.8366477371
 20
10.7091889094
 30
0.0
 11
13.8991477371
 21
10.7091889094
 31
0.0
  0
LINE
  5
18E
330
1F
100
AcDbEntity
  8
0
  6
Continuous
 62
     7
370
    15
100
AcDbLine
 10
13.8991477371
 20
10.7091889094
 30
0.0
 11
13.8991477371
 21
8.2834196735
 31
0.0
  0
SPLINE
  5
18F
330
1F
100
AcDbEntity
  8
0
  6
Continuous
 62
     7
370
    15
100
AcDbSpline
210
0.0
220
0.0
230
1.0
 70
     8
 71
     3
 72
     8
 73
     4
 74
     0
 42
0.000000001
 43
0.00000001
 40
0.2818357142176921
 40
0.2818357142176921
 40
0.2818357142176921
 40
0.2818357142176921
 40
0.2976047358437832
 40
0.2976047358437832
 40
0.2976047358437832
 40
0.2976047358437832
 10
13.89914773700461
 20
8.283419673572594
 30
0.0
 10
13.96335080577344
 20
8.24839110972771
 30
0.0
 10
14.02783897596186
 20
8.214258626861877
 30
0.0
 10
14.0925838255135
 20
8.181774565237488
 30
0.0
  0
LINE
  5
190
330
1F
100
AcDbEntity
  8
0
  6
Continuous
 62
     7
370
    15
100
AcDbLine
 10
14.0925838256
 20
8.1817745652
 30
0.0
 11
14.0925838256
 21
10.7091889094
 31
0.0
  0
LINE
  5
191
330
1F
100
AcDbEntity
  8
0
  6
Continuous
 62
     7
370
    15
100
AcDbLine
 10
14.0925838256
 20
10.7091889094
 30
0.0
 11
14.1550838256
 21
10.7091889094
 31
0.0
  0
LINE
  5
192
330
1F
100
AcDbEntity
  8
0
  6
Continuous
 62
     7
370
    15
100
AcDbLine
 10
14.1550838256
 20
10.7091889094
 30
0.0
 11
14.1550838256
 21
8.1509919429
 31
0.0
  0
SPLINE
  5
193
330
1F
100
AcDbEntity
  8
0
  6
Continuous
 62
     7
370
    15
100
AcDbSpline
210
0.0
220
0.0
230
1.0
 70
     8
 71
     3
 72
     8
 73
     4
 74
     0
 42
0.000000001
 43
0.00000001
 40
0.3026724472129501
 40
0.3026724472129501
 40
0.3026724472129501
 40
0.3026724472129501
 40
0.3182807501288063
 40
0.3182807501288063
 40
0.3182807501288063
 40
0.3182807501288063
 10
14.15508382552882
 20
8.150991942980008
 30
0.0
 10
14.21932918392029
 20
8.119964582104089
 30
0.0
 10
14.28381706736515
 20
8.090789089330775
 30
0.0
 10
14.3485199140172
 20
8.064195034904278
 30
0.0
  0
LINE
  5
194
330
1F
100
AcDbEntity
  8
0
  6
Continuous
 62
     7
370
    15
100
AcDbLine
 10
14.3485199141
 20
8.0641950349
 30
0.0
 11
14.3485199141
 21
10.7091889094
 31
0.0
  0
LINE
  5
195
330
1F
100
AcDbEntity
  8
0
  6
Continuous
 62
     7
370
    15
100
AcDbLine
 10
14.3485199141
 20
10.7091889094
 30
0.0
 11
14.4110199141
 21
10.7091889094
 31
0.0
  0
LINE
  5
196
330
1F
100
AcDbEntity
  8
0
  6
Continuous
 62
     7
370
    15
100
AcDbLine
 10
14.4110199141
 20
10.7091889094
 30
0.0
 11
14.4110199141
 21
8.0393589094
 31
0.0
  0
SPLINE
  5
197
330
1F
100
AcDbEntity
  8
0
  6
Continuous
 62
     7
370
    15
100
AcDbSpline
210
0.0
220
0.0
230
1.0
 70
     8
 71
     3
 72
     8
 73
     4
 74
     0
 42
0.000000001
 43
0.00000001
 40
0.3233010954335541
 40
0.3233010954335541
 40
0.3233010954335541
 40
0.3233010954335541
 40
0.3387762223649594
 40
0.3387762223649594
 40
0.3387762223649594
 40
0.3387762223649594
 10
14.41101991402451
 20
8.03935890942539
 30
0.0
 10
14.4753049683788
 20
8.0147130486861
 30
0.0
 10
14.53979261877788
 20
7.992835438423639
 30
0.0
 10
14.60445600287752
 20
7.974437132857031
 30
0.0
  0
LINE
  5
198
330
1F
100
AcDbEntity
  8
0
  6
Continuous
 62
     7
370
    15
100
AcDbLine
 10
14.6044560025
 20
7.9744371329
 30
0.0
 11
14.6044560025
 21
10.7091889094
 31
0.0
  0
LINE
  5
199
330
1F
100
AcDbEntity
  8
0
  6
Continuous
 62
     7
370
    15
100
AcDbLine
 10
14.6044560025
 20
10.7091889094
 30
0.0
 11
14.6669560025
 21
10.7091889094
 31
0.0
  0
LINE
  5
19A
330
1F
100
AcDbEntity
  8
0
  6
Continuous
 62
     7
370
    15
100
AcDbLine
 10
14.6669560025
 20
10.7091889094
 30
0.0
 11
14.6669560025
 21
7.9577749712
 31
0.0
  0
SPLINE
  5
19B
330
1F
100
AcDbEntity
  8
0
  6
Continuous
 62
     7
370
    15
100
AcDbSpline
210
0.0
220
0.0
230
1.0
 70
     8
 71
     3
 72
     8
 73
     4
 74
     0
 42
0.000000001
 43
0.00000001
 40
0.3437577324282152
 40
0.3437577324282152
 40
0.3437577324282152
 40
0.3437577324282152
 40
0.3591251004833197
 40
0.3591251004833197
 40
0.3591251004833197
 40
0.3591251004833197
 10
14.6669560028803
 20
7.957774971086431
 30
0.0
 10
14.73127869945989
 20
7.941802355993914
 30
0.0
 10
14.79576616376926
 20
7.929486473812432
 30
0.0
 10
14.86039209072223
 20
7.921523627975491
 30
0.0
  0
LINE
  5
19C
330
1F
100
AcDbEntity
  8
0
  6
Continuous
 62
     7
370
    15
100
AcDbLine
 10
14.860392091
 20
7.921523628
 30
0.0
 11
14.860392091
 21
10.7091889094
 31
0.0
  0
LINE
  5
19D
330
1F
100
AcDbEntity
  8
0
  6
Continuous
 62
     7
370
    15
100
AcDbLine
 10
14.860392091
 20
10.7091889094
 30
0.0
 11
14.922892091
 21
10.7091889094
 31
0.0
  0
LINE
  5
19E
330
1F
100
AcDbEntity
  8
0
  6
Continuous
 62
     7
370
    15
100
AcDbLine
 10
14.922892091
 20
10.7091889094
 30
0.0
 11
14.922892091
 21
7.9152064941
 31
0.0
  0
SPLINE
  5
19F
330
1F
100
AcDbEntity
  8
0
  6
Continuous
 62
     7
370
    15
100
AcDbSpline
210
0.0
220
0.0
230
1.0
 70
     8
 71
     3
 72
     9
 73
     5
 74
     0
 42
0.000000001
 43
0.00000001
 40
0.3640757015108393
 40
0.3640757015108393
 40
0.3640757015108393
 40
0.3640757015108393
 40
0.3688230504736278
 40
0.3793585143878959
 40
0.3793585143878959
 40
0.3793585143878959
 40
0.3793585143878959
 10
14.92289209064863
 20
7.915206494159168
 30
0.0
 10
14.94288330738986
 20
7.91363533145527
 30
0.0
 10
15.00727958735167
 20
7.909983668831542
 30
0.0
 10
15.07179639215078
 20
7.911071868172778
 30
0.0
 10
15.1163281794139
 20
7.913808664783245
 30
0.0
  0
LINE
  5
1A0
330
1F
100
AcDbEntity
  8
0
  6
Continuous
 62
     7
370
    15
100
AcDbLine
 10
15.1163281794
 20
7.9138086648
 30
0.0
 11
15.1163281794
 21
10.7091889094
 31
0.0
  0
LINE
  5
1A1
330
1F
100
AcDbEntity
  8
0
  6
Continuous
 62
     7
370
    15
100
AcDbLine
 10
15.1163281794
 20
10.7091889094
 30
0.0
 11
15.1788281794
 21
10.7091889094
 31
0.0
  0
LINE
  5
1A2
330
1F
100
AcDbEntity
  8
0
  6
Continuous
 62
     7
370
    15
100
AcDbLine
 10
15.1788281794
 20
10.7091889094
 30
0.0
 11
15.1788281794
 21
7.9189231937
 31
0.0
  0
SPLINE
  5
1A3
330
1F
100
AcDbEntity
  8
0
  6
Continuous
 62
     7
370
    15
100
AcDbSpline
210
0.0
220
0.0
230
1.0
 70
     8
 71
     3
 72
     8
 73
     4
 74
     0
 42
0.000000001
 43
0.00000001
 40
0.384284438342266
 40
0.384284438342266
 40
0.384284438342266
 40
0.384284438342266
 40
0.3994941373426601
 40
0.3994941373426601
 40
0.3994941373426601
 40
0.3994941373426601
 10
15.17882817941386
 20
7.918923193681805
 30
0.0
 10
15.243192509369
 20
7.925472235287728
 30
0.0
 10
15.30767244222265
 20
7.93590266282352
 30
0.0
 10
15.37226426786792
 20
7.949414481577037
 30
0.0
  0
LINE
  5
1A4
330
1F
100
AcDbEntity
  8
0
  6
Continuous
 62
     7
370
    15
100
AcDbLine
 10
15.3722642679
 20
7.9494144816
 30
0.0
 11
15.3722642679
 21
10.7091889094
 31
0.0
  0
LINE
  5
1A5
330
1F
100
AcDbEntity
  8
0
  6
Continuous
 62
     7
370
    15
100
AcDbLine
 10
15.3722642679
 20
10.7091889094
 30
0.0
 11
15.4347642679
 21
10.7091889094
 31
0.0
  0
LINE
  5
1A6
330
1F
100
AcDbEntity
  8
0
  6
Continuous
 62
     7
370
    15
100
AcDbLine
 10
15.4347642679
 20
10.7091889094
 30
0.0
 11
15.4347642679
 21
7.9634152574
 31
0.0
  0
SPLINE
  5
1A7
330
1F
100
AcDbEntity
  8
0
  6
Continuous
 62
     7
370
    15
100
AcDbSpline
210
0.0
220
0.0
230
1.0
 70
     8
 71
     3
 72
     8
 73
     4
 74
     0
 42
0.000000001
 43
0.00000001
 40
0.4043971186002713
 40
0.4043971186002713
 40
0.4043971186002713
 40
0.4043971186002713
 40
0.419537816033412
 40
0.419537816033412
 40
0.419537816033412
 40
0.419537816033412
 10
15.43476426786794
 20
7.963415257382479
 30
0.0
 10
15.49913448914768
 20
7.97876063764805
 30
0.0
 10
15.56361440511909
 20
7.996903963162434
 30
0.0
 10
15.6282003559413
 20
8.017056077857715
 30
0.0
  0
LINE
  5
1A8
330
1F
100
AcDbEntity
  8
0
  6
Continuous
 62
     7
370
    15
100
AcDbLine
 10
15.6282003563
 20
8.0170560779
 30
0.0
 11
15.6282003563
 21
10.7091889094
 31
0.0
  0
LINE
  5
1A9
330
1F
100
AcDbEntity
  8
0
  6
Continuous
 62
     7
370
    15
100
AcDbLine
 10
15.6282003563
 20
10.7091889094
 30
0.0
 11
15.6907003563
 21
10.7091889094
 31
0.0
  0
ENDSEC
  0
SECTION
  2
OBJECTS
  0
DICTIONARY
  5
C
330
0
100
AcDbDictionary
281
     1
  3
ACAD_GROUP
350
D
  3
ACAD_LAYOUT
350
1A
  3
ACAD_MLINESTYLE
350
17
  3
ACAD_PLOTSETTINGS
350
19
  3
ACAD_PLOTSTYLENAME
350
E
  3
ACAD_SCALELIST
350
47
  0
DICTIONARY
  5
D
102
{ACAD_REACTORS
330
C
102
}
330
C
100
AcDbDictionary
281
     1
  0
DICTIONARY
  5
1A
102
{ACAD_REACTORS
330
C
102
}
330
C
100
AcDbDictionary
281
     1
  3
Layout1
350
1E
  3
Layout2
350
26
  3
Model
350
22
  0
DICTIONARY
  5
17
102
{ACAD_REACTORS
330
C
102
}
330
C
100
AcDbDictionary
281
     1
  3
Standard
350
18
  0
DICTIONARY
  5
19
102
{ACAD_REACTORS
330
C
102
}
330
C
100
AcDbDictionary
281
     1
  0
ACDBDICTIONARYWDFLT
  5
E
102
{ACAD_REACTORS
330
C
102
}
330
C
100
AcDbDictionary
281
     1
  3
Normal
350
F
100
AcDbDictionaryWithDefault
340
F
  0
DICTIONARY
  5
47
102
{ACAD_REACTORS
330
C
102
}
330
C
100
AcDbDictionary
281
     1
  3
A0
350
48
  3
A1
350
49
  3
A2
350
4A
  3
A3
350
4B
  3
A4
350
4C
  3
A5
350
4D
  3
A6
350
4E
  3
A7
350
4F
  3
A8
350
50
  3
A9
350
51
  3
B0
350
52
  3
B1
350
53
  3
B2
350
54
  3
B3
350
55
  3
B4
350
56
  3
B5
350
57
  3
B6
350
58
  3
B7
350
59
  3
B8
350
5A
  3
B9
350
5B
  3
C0
350
5C
  3
C1
350
5D
  3
C2
350
5E
  3
C3
350
5F
  3
C4
350
60
  3
C5
350
61
  3
C6
350
62
  3
C7
350
63
  3
C8
350
64
  3
C9
350
65
  3
D0
350
66
  3
D1
350
67
  3
D2
350
68
  0
LAYOUT
  5
1E
102
{ACAD_REACTORS
330
1A
102
}
330
1A
100
AcDbPlotSettings
  1

  2
none_device
  4

  6

 40
0.0
 41
0.0
 42
0.0
 43
0.0
 44
0.0
 45
0.0
 46
0.0
 47
0.0
 48
0.0
 49
0.0
140
0.0
141
0.0
142
1.0
143
1.0
 70
   688
 72
     0
 73
     0
 74
     5
  7

 75
    16
147
1.0
148
0.0
149
0.0
100
AcDbLayout
  1
Layout1
 70
     1
 71
     1
 10
0.0
 20
0.0
 11
12.0
 21
9.0
 12
0.0
 22
0.0
 32
0.0
 14
1.0000000000E+20
 24
1.0000000000E+20
 34
1.0000000000E+20
 15
-1.0000000000E+20
 25
-1.0000000000E+20
 35
-1.0000000000E+20
146
0.0
 13
0.0
 23
0.0
 33
0.0
 16
1.0
 26
0.0
 36
0.0
 17
0.0
 27
1.0
 37
0.0
 76
     0
330
1B
  0
LAYOUT
  5
26
102
{ACAD_REACTORS
330
1A
102
}
330
1A
100
AcDbPlotSettings
  1

  2
none_device
  4

  6

 40
0.0
 41
0.0
 42
0.0
 43
0.0
 44
0.0
 45
0.0
 46
0.0
 47
0.0
 48
0.0
 49
0.0
140
0.0
141
0.0
142
1.0
143
1.0
 70
   688
 72
     0
 73
     0
 74
     5
  7

 75
    16
147
1.0
148
0.0
149
0.0
100
AcDbLayout
  1
Layout2
 70
     1
 71
     2
 10
0.0
 20
0.0
 11
0.0
 21
0.0
 12
0.0
 22
0.0
 32
0.0
 14
0.0
 24
0.0
 34
0.0
 15
0.0
 25
0.0
 35
0.0
146
0.0
 13
0.0
 23
0.0
 33
0.0
 16
1.0
 26
0.0
 36
0.0
 17
0.0
 27
1.0
 37
0.0
 76
     0
330
23
  0
LAYOUT
  5
22
102
{ACAD_REACTORS
330
1A
102
}
330
1A
100
AcDbPlotSettings
  1

  2
none_device
  4
ANSI_A_(11.00_x_8.50_Inches)
  6

 40
6.35
 41
19.05
 42
6.35000508
 43
19.05000254
 44
279.4
 45
215.9
 46
-245.7375822775
 47
-145.5548235952
 48
0.0
 49
0.0
140
0.0
141
0.0
142
0.8801847553
143
1.0
 70
  1696
 72
     0
 73
     0
 74
     0
  7

 75
     0
147
0.5913241897
148
-39.4088153714
149
0.0
100
AcDbLayout
  1
Model
 70
     1
 71
     0
 10
0.0
 20
0.0
 11
12.0
 21
9.0
 12
0.0
 22
0.0
 32
0.0
 14
10.7701341189
 24
7.9110903761
 34
0.0
 15
23.1425365432
 25
13.0629261827
 35
0.0
146
0.0
 13
0.0
 23
0.0
 33
0.0
 16
1.0
 26
0.0
 36
0.0
 17
0.0
 27
1.0
 37
0.0
 76
     0
330
1F
331
29
  0
MLINESTYLE
  5
18
102
{ACAD_REACTORS
330
17
102
}
330
17
100
AcDbMlineStyle
  2
Standard
 70
     0
  3

 62
   256
 51
90.0
 52
90.0
 71
     2
 49
0.5
 62
   256
  6
BYLAYER
 49
-0.5
 62
   256
  6
BYLAYER
  0
ACDBPLACEHOLDER
  5
F
102
{ACAD_REACTORS
330
E
102
}
330
E
  0
SCALE
  5
48
102
{ACAD_REACTORS
330
47
102
}
330
47
100
AcDbScale
 70
     0
300
1:1
140
1.0
141
1.0
290
     1
  0
SCALE
  5
49
102
{ACAD_REACTORS
330
47
102
}
330
47
100
AcDbScale
 70
     0
300
1:2
140
1.0
141
2.0
290
     0
  0
SCALE
  5
4A
102
{ACAD_REACTORS
330
47
102
}
330
47
100
AcDbScale
 70
     0
300
1:4
140
1.0
141
4.0
290
     0
  0
SCALE
  5
4B
102
{ACAD_REACTORS
330
47
102
}
330
47
100
AcDbScale
 70
     0
300
1:5
140
1.0
141
5.0
290
     0
  0
SCALE
  5
4C
102
{ACAD_REACTORS
330
47
102
}
330
47
100
AcDbScale
 70
     0
300
1:8
140
1.0
141
8.0
290
     0
  0
SCALE
  5
4D
102
{ACAD_REACTORS
330
47
102
}
330
47
100
AcDbScale
 70
     0
300
1:10
140
1.0
141
10.0
290
     0
  0
SCALE
  5
4E
102
{ACAD_REACTORS
330
47
102
}
330
47
100
AcDbScale
 70
     0
300
1:16
140
1.0
141
16.0
290
     0
  0
SCALE
  5
4F
102
{ACAD_REACTORS
330
47
102
}
330
47
100
AcDbScale
 70
     0
300
1:20
140
1.0
141
20.0
290
     0
  0
SCALE
  5
50
102
{ACAD_REACTORS
330
47
102
}
330
47
100
AcDbScale
 70
     0
300
1:30
140
1.0
141
30.0
290
     0
  0
SCALE
  5
51
102
{ACAD_REACTORS
330
47
102
}
330
47
100
AcDbScale
 70
     0
300
1:40
140
1.0
141
40.0
290
     0
  0
SCALE
  5
52
102
{ACAD_REACTORS
330
47
102
}
330
47
100
AcDbScale
 70
     0
300
1:50
140
1.0
141
50.0
290
     0
  0
SCALE
  5
53
102
{ACAD_REACTORS
330
47
102
}
330
47
100
AcDbScale
 70
     0
300
1:100
140
1.0
141
100.0
290
     0
  0
SCALE
  5
54
102
{ACAD_REACTORS
330
47
102
}
330
47
100
AcDbScale
 70
     0
300
2:1
140
2.0
141
1.0
290
     0
  0
SCALE
  5
55
102
{ACAD_REACTORS
330
47
102
}
330
47
100
AcDbScale
 70
     0
300
4:1
140
4.0
141
1.0
290
     0
  0
SCALE
  5
56
102
{ACAD_REACTORS
330
47
102
}
330
47
100
AcDbScale
 70
     0
300
8:1
140
8.0
141
1.0
290
     0
  0
SCALE
  5
57
102
{ACAD_REACTORS
330
47
102
}
330
47
100
AcDbScale
 70
     0
300
10:1
140
10.0
141
1.0
290
     0
  0
SCALE
  5
58
102
{ACAD_REACTORS
330
47
102
}
330
47
100
AcDbScale
 70
     0
300
100:1
140
100.0
141
1.0
290
     0
  0
SCALE
  5
59
102
{ACAD_REACTORS
330
47
102
}
330
47
100
AcDbScale
 70
     0
300
1/128" = 1'-0"
140
0.0078125
141
12.0
290
     0
  0
SCALE
  5
5A
102
{ACAD_REACTORS
330
47
102
}
330
47
100
AcDbScale
 70
     0
300
1/64" = 1'-0"
140
0.015625
141
12.0
290
     0
  0
SCALE
  5
5B
102
{ACAD_REACTORS
330
47
102
}
330
47
100
AcDbScale
 70
     0
300
1/32" = 1'-0"
140
0.03125
141
12.0
290
     0
  0
SCALE
  5
5C
102
{ACAD_REACTORS
330
47
102
}
330
47
100
AcDbScale
 70
     0
300
1/16" = 1'-0"
140
0.0625
141
12.0
290
     0
  0
SCALE
  5
5D
102
{ACAD_REACTORS
330
47
102
}
330
47
100
AcDbScale
 70
     0
300
3/32" = 1'-0"
140
0.09375
141
12.0
290
     0
  0
SCALE
  5
5E
102
{ACAD_REACTORS
330
47
102
}
330
47
100
AcDbScale
 70
     0
300
1/8" = 1'-0"
140
0.125
141
12.0
290
     0
  0
SCALE
  5
5F
102
{ACAD_REACTORS
330
47
102
}
330
47
100
AcDbScale
 70
     0
300
3/16" = 1'-0"
140
0.1875
141
12.0
290
     0
  0
SCALE
  5
60
102
{ACAD_REACTORS
330
47
102
}
330
47
100
AcDbScale
 70
     0
300
1/4" = 1'-0"
140
0.25
141
12.0
290
     0
  0
SCALE
  5
61
102
{ACAD_REACTORS
330
47
102
}
330
47
100
AcDbScale
 70
     0
300
3/8" = 1'-0"
140
0.375
141
12.0
290
     0
  0
SCALE
  5
62
102
{ACAD_REACTORS
330
47
102
}
330
47
100
AcDbScale
 70
     0
300
1/2" = 1'-0"
140
0.5
141
12.0
290
     0
  0
SCALE
  5
63
102
{ACAD_REACTORS
330
47
102
}
330
47
100
AcDbScale
 70
     0
300
3/4" = 1'-0"
140
0.75
141
12.0
290
     0
  0
SCALE
  5
64
102
{ACAD_REACTORS
330
47
102
}
330
47
100
AcDbScale
 70
     0
300
1" = 1'-0"
140
1.0
141
12.0
290
     0
  0
SCALE
  5
65
102
{ACAD_REACTORS
330
47
102
}
330
47
100
AcDbScale
 70
     0
300
1-1/2" = 1'-0"
140
1.5
141
12.0
290
     0
  0
SCALE
  5
66
102
{ACAD_REACTORS
330
47
102
}
330
47
100
AcDbScale
 70
     0
300
3" = 1'-0"
140
3.0
141
12.0
290
     0
  0
SCALE
  5
67
102
{ACAD_REACTORS
330
47
102
}
330
47
100
AcDbScale
 70
     0
300
6" = 1'-0"
140
6.0
141
12.0
290
     0
  0
SCALE
  5
68
102
{ACAD_REACTORS
330
47
102
}
330
47
100
AcDbScale
 70
     0
300
1'-0" = 1'-0"
140
12.0
141
12.0
290
     0
  0
ENDSEC
  0
EOF
