  0
SECTION
  2
HEADER
  9
$ACADVER
  1
AC1015
  9
$ACADMAINTVER
 70
     6
  9
$DWGCODEPAGE
  3
ANSI_1252
  9
$INSBASE
 10
0.0
 20
0.0
 30
0.0
  9
$EXTMIN
 10
3.8371278344
 20
7.4764080571
 30
0.0
  9
$EXTMAX
 10
11.0758819456
 20
13.0545126485
 30
0.0
  9
$LIMMIN
 10
0.0
 20
0.0
  9
$LIMMAX
 10
12.0
 20
9.0
  9
$ORTHOMODE
 70
     0
  9
$REGENMODE
 70
     1
  9
$FILLMODE
 70
     1
  9
$QTEXTMODE
 70
     0
  9
$MIRRTEXT
 70
     1
  9
$LTSCALE
 40
1.0
  9
$ATTMODE
 70
     1
  9
$TEXTSIZE
 40
0.125
  9
$TRACEWID
 40
0.05
  9
$TEXTSTYLE
  7
Standard
  9
$CLAYER
  8
0
  9
$CELTYPE
  6
ByLayer
  9
$CECOLOR
 62
   256
  9
$CELTSCALE
 40
1.0
  9
$DISPSILH
 70
     0
  9
$DIMSCALE
 40
1.0
  9
$DIMASZ
 40
0.13
  9
$DIMEXO
 40
0.05
  9
$DIMDLI
 40
0.38
  9
$DIMRND
 40
0.0
  9
$DIMDLE
 40
0.0
  9
$DIMEXE
 40
0.125
  9
$DIMTP
 40
0.0
  9
$DIMTM
 40
0.0
  9
$DIMTXT
 40
0.125
  9
$DIMCEN
 40
0.09
  9
$DIMTSZ
 40
0.0
  9
$DIMTOL
 70
     0
  9
$DIMLIM
 70
     0
  9
$DIMTIH
 70
     1
  9
$DIMTOH
 70
     1
  9
$DIMSE1
 70
     0
  9
$DIMSE2
 70
     0
  9
$DIMTAD
 70
     0
  9
$DIMZIN
 70
     0
  9
$DIMBLK
  1

  9
$DIMASO
 70
     1
  9
$DIMSHO
 70
     1
  9
$DIMPOST
  1

  9
$DIMAPOST
  1

  9
$DIMALT
 70
     0
  9
$DIMALTD
 70
     2
  9
$DIMALTF
 40
25.4
  9
$DIMLFAC
 40
1.0
  9
$DIMTOFL
 70
     0
  9
$DIMTVP
 40
0.0
  9
$DIMTIX
 70
     0
  9
$DIMSOXD
 70
     0
  9
$DIMSAH
 70
     0
  9
$DIMBLK1
  1

  9
$DIMBLK2
  1

  9
$DIMSTYLE
  2
Standard
  9
$DIMCLRD
 70
     0
  9
$DIMCLRE
 70
     0
  9
$DIMCLRT
 70
     0
  9
$DIMTFAC
 40
1.0
  9
$DIMGAP
 40
0.06
  9
$DIMJUST
 70
     0
  9
$DIMSD1
 70
     0
  9
$DIMSD2
 70
     0
  9
$DIMTOLJ
 70
     1
  9
$DIMTZIN
 70
     0
  9
$DIMALTZ
 70
     0
  9
$DIMALTTZ
 70
     0
  9
$DIMUPT
 70
     0
  9
$DIMDEC
 70
     2
  9
$DIMTDEC
 70
     2
  9
$DIMALTU
 70
     2
  9
$DIMALTTD
 70
     2
  9
$DIMTXSTY
  7
Standard
  9
$DIMAUNIT
 70
     0
  9
$DIMADEC
 70
     2
  9
$DIMALTRND
 40
0.0
  9
$DIMAZIN
 70
     0
  9
$DIMDSEP
 70
    46
  9
$DIMATFIT
 70
     3
  9
$DIMFRAC
 70
     0
  9
$DIMLDRBLK
  1

  9
$DIMLUNIT
 70
     2
  9
$DIMLWD
 70
    -2
  9
$DIMLWE
 70
    -2
  9
$DIMTMOVE
 70
     0
  9
$LUNITS
 70
     2
  9
$LUPREC
 70
     2
  9
$SKETCHINC
 40
0.1
  9
$FILLETRAD
 40
0.5
  9
$AUNITS
 70
     0
  9
$AUPREC
 70
     2
  9
$MENU
  1
.
  9
$ELEVATION
 40
0.0
  9
$PELEVATION
 40
0.0
  9
$THICKNESS
 40
0.0
  9
$LIMCHECK
 70
     0
  9
$CHAMFERA
 40
0.0
  9
$CHAMFERB
 40
0.0
  9
$CHAMFERC
 40
0.0
  9
$CHAMFERD
 40
0.0
  9
$SKPOLY
 70
     0
  9
$TDCREATE
 40
2457426.452562477
  9
$TDUCREATE
 40
2457426.78589581
  9
$TDUPDATE
 40
2457426.452588715
  9
$TDUUPDATE
 40
2457426.785922049
  9
$TDINDWG
 40
0.0000000116
  9
$TDUSRTIMER
 40
0.0000000116
  9
$USRTIMER
 70
     1
  9
$ANGBASE
 50
0.0
  9
$ANGDIR
 70
     0
  9
$PDMODE
 70
     0
  9
$PDSIZE
 40
-1.0
  9
$PLINEWID
 40
0.0
  9
$SPLFRAME
 70
     0
  9
$SPLINETYPE
 70
     6
  9
$SPLINESEGS
 70
     8
  9
$HANDSEED
  5
13C
  9
$SURFTAB1
 70
     6
  9
$SURFTAB2
 70
     6
  9
$SURFTYPE
 70
     6
  9
$SURFU
 70
     6
  9
$SURFV
 70
     6
  9
$UCSBASE
  2

  9
$UCSNAME
  2

  9
$UCSORG
 10
0.0
 20
0.0
 30
0.0
  9
$UCSXDIR
 10
1.0
 20
0.0
 30
0.0
  9
$UCSYDIR
 10
0.0
 20
1.0
 30
0.0
  9
$UCSORTHOREF
  2

  9
$UCSORTHOVIEW
 70
     0
  9
$UCSORGTOP
 10
0.0
 20
0.0
 30
0.0
  9
$UCSORGBOTTOM
 10
0.0
 20
0.0
 30
0.0
  9
$UCSORGLEFT
 10
0.0
 20
0.0
 30
0.0
  9
$UCSORGRIGHT
 10
0.0
 20
0.0
 30
0.0
  9
$UCSORGFRONT
 10
0.0
 20
0.0
 30
0.0
  9
$UCSORGBACK
 10
0.0
 20
0.0
 30
0.0
  9
$PUCSBASE
  2

  9
$PUCSNAME
  2

  9
$PUCSORG
 10
0.0
 20
0.0
 30
0.0
  9
$PUCSXDIR
 10
1.0
 20
0.0
 30
0.0
  9
$PUCSYDIR
 10
0.0
 20
1.0
 30
0.0
  9
$PUCSORTHOREF
  2

  9
$PUCSORTHOVIEW
 70
     0
  9
$PUCSORGTOP
 10
0.0
 20
0.0
 30
0.0
  9
$PUCSORGBOTTOM
 10
0.0
 20
0.0
 30
0.0
  9
$PUCSORGLEFT
 10
0.0
 20
0.0
 30
0.0
  9
$PUCSORGRIGHT
 10
0.0
 20
0.0
 30
0.0
  9
$PUCSORGFRONT
 10
0.0
 20
0.0
 30
0.0
  9
$PUCSORGBACK
 10
0.0
 20
0.0
 30
0.0
  9
$USERI1
 70
     0
  9
$USERI2
 70
     0
  9
$USERI3
 70
     0
  9
$USERI4
 70
     0
  9
$USERI5
 70
     0
  9
$USERR1
 40
0.0
  9
$USERR2
 40
0.0
  9
$USERR3
 40
0.0
  9
$USERR4
 40
0.0
  9
$USERR5
 40
0.0
  9
$WORLDVIEW
 70
     1
  9
$SHADEDGE
 70
     3
  9
$SHADEDIF
 70
    70
  9
$TILEMODE
 70
     1
  9
$MAXACTVP
 70
    64
  9
$PINSBASE
 10
0.0
 20
0.0
 30
0.0
  9
$PLIMCHECK
 70
     0
  9
$PEXTMIN
 10
1.0000000000E+20
 20
1.0000000000E+20
 30
1.0000000000E+20
  9
$PEXTMAX
 10
-1.0000000000E+20
 20
-1.0000000000E+20
 30
-1.0000000000E+20
  9
$PLIMMIN
 10
0.0
 20
0.0
  9
$PLIMMAX
 10
12.0
 20
9.0
  9
$UNITMODE
 70
     0
  9
$VISRETAIN
 70
     1
  9
$PLINEGEN
 70
     0
  9
$PSLTSCALE
 70
     1
  9
$TREEDEPTH
 70
  3020
  9
$CMLSTYLE
  2
Standard
  9
$CMLJUST
 70
     0
  9
$CMLSCALE
 40
1.0
  9
$PROXYGRAPHICS
 70
     1
  9
$MEASUREMENT
 70
     0
  9
$CELWEIGHT
370
    -1
  9
$ENDCAPS
280
     0
  9
$JOINSTYLE
280
     0
  9
$LWDISPLAY
290
     1
  9
$INSUNITS
 70
     1
  9
$HYPERLINKBASE
  1

  9
$STYLESHEET
  1

  9
$XEDIT
290
     1
  9
$CEPSNTYPE
380
     0
  9
$PSTYLEMODE
290
     1
  9
$FINGERPRINTGUID
  2
{B2A854EF-A541-423E-9C53-2C0DF0F2E8EF}
  9
$VERSIONGUID
  2
{FAEB1C32-E019-11D5-929B-00C0DF256EC4}
  9
$EXTNAMES
290
     1
  9
$PSVPSCALE
 40
0.0
  9
$OLESTARTUP
290
     0
  0
ENDSEC
  0
SECTION
  2
CLASSES
  0
CLASS
  1
ACDBDICTIONARYWDFLT
  2
AcDbDictionaryWithDefault
  3
ObjectDBX Classes
 90
        0
280
     0
281
     0
  0
CLASS
  1
VISUALSTYLE
  2
AcDbVisualStyle
  3
ObjectDBX Classes
 90
     4095
280
     0
281
     0
  0
CLASS
  1
MATERIAL
  2
AcDbMaterial
  3
ObjectDBX Classes
 90
     1153
280
     0
281
     0
  0
CLASS
  1
SCALE
  2
AcDbScale
  3
ObjectDBX Classes
 90
     1153
280
     0
281
     0
  0
CLASS
  1
TABLESTYLE
  2
AcDbTableStyle
  3
ObjectDBX Classes
 90
     4095
280
     0
281
     0
  0
CLASS
  1
MLEADERSTYLE
  2
AcDbMLeaderStyle
  3
ACDB_MLEADERSTYLE_CLASS
 90
     4095
280
     0
281
     0
  0
CLASS
  1
SUN
  2
AcDbSun
  3
SCENEOE
 90
     1153
280
     0
281
     0
  0
CLASS
  1
ACDBPLACEHOLDER
  2
AcDbPlaceHolder
  3
ObjectDBX Classes
 90
        0
280
     0
281
     0
  0
CLASS
  1
LAYOUT
  2
AcDbLayout
  3
ObjectDBX Classes
 90
        0
280
     0
281
     0
  0
ENDSEC
  0
SECTION
  2
TABLES
  0
TABLE
  2
VPORT
  5
8
330
0
100
AcDbSymbolTable
 70
     1
  0
VPORT
  5
29
330
8
100
AcDbSymbolTableRecord
100
AcDbViewportTableRecord
  2
*Active
 70
     0
 10
0.0
 20
0.0
 11
1.0
 21
1.0
 12
7.45650489
 22
10.2654603528
 13
0.0
 23
0.0
 14
0.5
 24
0.5
 15
0.5
 25
0.5
 16
0.0
 26
0.0
 36
1.0
 17
0.0
 27
0.0
 37
0.0
 40
5.6896666833
 41
1.2977085661
 42
50.0
 43
0.0
 44
0.0
 50
0.0
 51
0.0
 71
     0
 72
   100
 73
     1
 74
     3
 75
     0
 76
     0
 77
     0
 78
     0
281
     0
 65
     1
110
0.0
120
0.0
130
0.0
111
1.0
121
0.0
131
0.0
112
0.0
122
1.0
132
0.0
 79
     0
146
0.0
  0
ENDTAB
  0
TABLE
  2
LTYPE
  5
5
330
0
100
AcDbSymbolTable
 70
     6
  0
LTYPE
  5
14
330
5
100
AcDbSymbolTableRecord
100
AcDbLinetypeTableRecord
  2
ByBlock
 70
     0
  3

 72
    65
 73
     0
 40
0.0
  0
LTYPE
  5
15
330
5
100
AcDbSymbolTableRecord
100
AcDbLinetypeTableRecord
  2
ByLayer
 70
     0
  3

 72
    65
 73
     0
 40
0.0
  0
LTYPE
  5
16
330
5
100
AcDbSymbolTableRecord
100
AcDbLinetypeTableRecord
  2
Continuous
 70
     0
  3
Solid line
 72
    65
 73
     0
 40
0.0
  0
LTYPE
  5
6E
330
5
100
AcDbSymbolTableRecord
100
AcDbLinetypeTableRecord
  2
HIDDEN
 70
     0
  3
Hidden __ __ __ __ __ __ __ __ __ __ __ __ __ __
 72
    65
 73
     2
 40
0.075
 49
0.05
 74
     0
 49
-0.025
 74
     0
  0
LTYPE
  5
6F
330
5
100
AcDbSymbolTableRecord
100
AcDbLinetypeTableRecord
  2
PHANTOM
 70
     0
  3
Phantom ______  __  __  ______  __  __  ______
 72
    65
 73
     6
 40
0.5
 49
0.25
 74
     0
 49
-0.05
 74
     0
 49
0.05
 74
     0
 49
-0.05
 74
     0
 49
0.05
 74
     0
 49
-0.05
 74
     0
  0
LTYPE
  5
70
330
5
100
AcDbSymbolTableRecord
100
AcDbLinetypeTableRecord
  2
CENTER
 70
     0
  3
Center ____ _ ____ _ ____ _ ____ _ ____ _ ____
 72
    65
 73
     4
 40
0.4
 49
0.25
 74
     0
 49
-0.05
 74
     0
 49
0.05
 74
     0
 49
-0.05
 74
     0
  0
LTYPE
  5
71
330
5
100
AcDbSymbolTableRecord
100
AcDbLinetypeTableRecord
  2
CENTERX2
 70
     0
  3
Center (2x) ________  __  ________  __  _____
 72
    65
 73
     4
 40
0.8
 49
0.5
 74
     0
 49
-0.1
 74
     0
 49
0.1
 74
     0
 49
-0.1
 74
     0
  0
LTYPE
  5
72
330
5
100
AcDbSymbolTableRecord
100
AcDbLinetypeTableRecord
  2
DOT2
 70
     0
  3
Dot (.5x) ........................................
 72
    65
 73
     2
 40
0.025
 49
0.0
 74
     0
 49
-0.025
 74
     0
  0
ENDTAB
  0
TABLE
  2
LAYER
  5
2
330
0
100
AcDbSymbolTable
 70
     1
  0
LAYER
  5
10
330
2
100
AcDbSymbolTableRecord
100
AcDbLayerTableRecord
  2
0
 70
     0
 62
     7
  6
Continuous
370
    -3
390
F
  0
ENDTAB
  0
TABLE
  2
STYLE
  5
3
330
0
100
AcDbSymbolTable
 70
     1
  0
STYLE
  5
11
330
3
100
AcDbSymbolTableRecord
100
AcDbTextStyleTableRecord
  2
Standard
 70
     0
 40
0.0
 41
1.0
 50
0.0
 71
     0
 42
0.125
  3
txt
  4

  0
ENDTAB
  0
TABLE
  2
VIEW
  5
6
330
0
100
AcDbSymbolTable
 70
     0
  0
ENDTAB
  0
TABLE
  2
UCS
  5
7
330
0
100
AcDbSymbolTable
 70
     0
  0
ENDTAB
  0
TABLE
  2
APPID
  5
9
330
0
100
AcDbSymbolTable
 70
     1
  0
APPID
  5
12
330
9
100
AcDbSymbolTableRecord
100
AcDbRegAppTableRecord
  2
ACAD
 70
     0
  0
ENDTAB
  0
TABLE
  2
DIMSTYLE
  5
A
330
0
100
AcDbSymbolTable
 70
     1
100
AcDbDimStyleTable
  0
DIMSTYLE
105
27
330
A
100
AcDbSymbolTableRecord
100
AcDbDimStyleTableRecord
  2
Standard
 70
     0
178
     0
340
11
  0
ENDTAB
  0
TABLE
  2
BLOCK_RECORD
  5
1
330
0
100
AcDbSymbolTable
 70
     1
  0
BLOCK_RECORD
  5
1F
330
1
100
AcDbSymbolTableRecord
100
AcDbBlockTableRecord
  2
*Model_Space
340
22
  0
BLOCK_RECORD
  5
1B
330
1
100
AcDbSymbolTableRecord
100
AcDbBlockTableRecord
  2
*Paper_Space
340
1E
  0
BLOCK_RECORD
  5
23
330
1
100
AcDbSymbolTableRecord
100
AcDbBlockTableRecord
  2
*Paper_Space0
340
26
  0
ENDTAB
  0
ENDSEC
  0
SECTION
  2
BLOCKS
  0
BLOCK
  5
20
330
1F
100
AcDbEntity
  8
0
100
AcDbBlockBegin
  2
*Model_Space
 70
     0
 10
0.0
 20
0.0
 30
0.0
  3
*Model_Space
  1

  0
ENDBLK
  5
21
330
1F
100
AcDbEntity
  8
0
100
AcDbBlockEnd
  0
BLOCK
  5
1C
330
1B
100
AcDbEntity
 67
     1
  8
0
100
AcDbBlockBegin
  2
*Paper_Space
 70
     0
 10
0.0
 20
0.0
 30
0.0
  3
*Paper_Space
  1

  0
ENDBLK
  5
1D
330
1B
100
AcDbEntity
 67
     1
  8
0
100
AcDbBlockEnd
  0
BLOCK
  5
24
330
23
100
AcDbEntity
  8
0
100
AcDbBlockBegin
  2
*Paper_Space0
 70
     0
 10
0.0
 20
0.0
 30
0.0
  3
*Paper_Space0
  1

  0
ENDBLK
  5
25
330
23
100
AcDbEntity
  8
0
100
AcDbBlockEnd
  0
ENDSEC
  0
SECTION
  2
ENTITIES
  0
LINE
  5
73
330
1F
100
AcDbEntity
  8
0
  6
Continuous
 62
     7
370
    15
100
AcDbLine
 10
5.8740292956
 20
9.4957563306
 30
0.0
 11
5.7512221278
 21
9.5190672625
 31
0.0
  0
LINE
  5
74
330
1F
100
AcDbEntity
  8
0
  6
Continuous
 62
     7
370
    15
100
AcDbLine
 10
5.7341637046
 20
8.758913324
 30
0.0
 11
5.8740292956
 21
9.4957563306
 31
0.0
  0
LINE
  5
75
330
1F
100
AcDbEntity
  8
0
  6
Continuous
 62
     7
370
    15
100
AcDbLine
 10
5.6113565368
 20
8.7822242558
 30
0.0
 11
5.7341637046
 21
8.758913324
 31
0.0
  0
LINE
  5
76
330
1F
100
AcDbEntity
  8
0
  6
Continuous
 62
     7
370
    15
100
AcDbLine
 10
5.7512221278
 20
9.5190672625
 30
0.0
 11
5.6113565368
 21
8.7822242558
 31
0.0
  0
LINE
  5
77
330
1F
100
AcDbEntity
  8
0
  6
Continuous
 62
     7
370
    15
100
AcDbLine
 10
6.2491404331
 20
11.4719251386
 30
0.0
 11
6.1263332653
 21
11.4952360705
 31
0.0
  0
LINE
  5
78
330
1F
100
AcDbEntity
  8
0
  6
Continuous
 62
     7
370
    15
100
AcDbLine
 10
6.109274842
 20
10.735082132
 30
0.0
 11
6.2491404331
 21
11.4719251386
 31
0.0
  0
LINE
  5
79
330
1F
100
AcDbEntity
  8
0
  6
Continuous
 62
     7
370
    15
100
AcDbLine
 10
5.9864676743
 20
10.7583930638
 30
0.0
 11
6.109274842
 21
10.735082132
 31
0.0
  0
LINE
  5
7A
330
1F
100
AcDbEntity
  8
0
  6
Continuous
 62
     7
370
    15
100
AcDbLine
 10
6.1263332653
 20
11.4952360705
 30
0.0
 11
5.9864676743
 21
10.7583930638
 31
0.0
  0
CIRCLE
  5
7B
330
1F
100
AcDbEntity
  8
0
  6
Continuous
 62
     7
370
    15
100
AcDbCircle
 10
5.6810763277
 20
11.1707419594
 30
0.0
 40
0.09375
  0
LINE
  5
7C
330
1F
100
AcDbEntity
  8
0
  6
Continuous
 62
     7
370
    15
100
AcDbLine
 10
6.1707634252
 20
8.377872149
 30
0.0
 11
6.9910104254
 21
12.6991155747
 31
0.0
  0
SPLINE
  5
7D
330
1F
100
AcDbEntity
  8
0
  6
Continuous
 62
     7
370
    15
100
AcDbSpline
210
0.0
220
0.0
230
1.0
 70
     8
 71
     3
 72
     8
 73
     4
 74
     0
 42
0.000000001
 43
0.00000001
 40
0.0
 40
0.0
 40
0.0
 40
0.0
 40
1.0
 40
1.0
 40
1.0
 40
1.0
 10
6.991010425443077
 20
12.6991155746831
 30
0.0
 10
7.009748608099688
 20
12.70100480791719
 30
0.0
 10
7.030467850779332
 20
12.70291256166198
 30
0.0
 10
7.053168153482009
 20
12.70483883591746
 30
0.0
  0
LINE
  5
7E
330
1F
100
AcDbEntity
  8
0
  6
Continuous
 62
     7
370
    15
100
AcDbLine
 10
6.2381348478
 20
8.4110623114
 30
0.0
 11
7.0531681535
 21
12.7048388359
 31
0.0
  0
SPLINE
  5
7F
330
1F
100
AcDbEntity
  8
0
  6
Continuous
 62
     7
370
    15
100
AcDbSpline
210
0.0
220
0.0
230
1.0
 70
     8
 71
     3
 72
     8
 73
     4
 74
     0
 42
0.000000001
 43
0.00000001
 40
0.0
 40
0.0
 40
0.0
 40
0.0
 40
1.0
 40
1.0
 40
1.0
 40
1.0
 10
6.238134847762196
 20
8.411062311398844
 30
0.0
 10
6.218924268702522
 20
8.401915511845646
 30
0.0
 10
6.196467127842148
 20
8.390852124388644
 30
0.0
 10
6.170763425181075
 20
8.377872149027837
 30
0.0
  0
LINE
  5
80
330
1F
100
AcDbEntity
  8
0
  6
Continuous
 62
     7
370
    15
100
AcDbLine
 10
6.4359875472
 20
8.4881819099
 30
0.0
 11
7.2392131261
 21
12.7197527065
 31
0.0
  0
SPLINE
  5
81
330
1F
100
AcDbEntity
  8
0
  6
Continuous
 62
     7
370
    15
100
AcDbSpline
210
0.0
220
0.0
230
1.0
 70
     8
 71
     3
 72
     8
 73
     4
 74
     0
 42
0.000000001
 43
0.00000001
 40
0.0
 40
0.0
 40
0.0
 40
0.0
 40
1.0
 40
1.0
 40
1.0
 40
1.0
 10
7.239213126135204
 20
12.71975270649776
 30
0.0
 10
7.261632685189234
 20
12.72172107488223
 30
0.0
 10
7.282365148352913
 20
12.72369847707403
 30
0.0
 10
7.301410515626244
 20
12.72568491307314
 30
0.0
  0
LINE
  5
82
330
1F
100
AcDbEntity
  8
0
  6
Continuous
 62
     7
370
    15
100
AcDbLine
 10
6.4999421422
 20
8.5033714654
 30
0.0
 11
7.3014105156
 21
12.7256849131
 31
0.0
  0
SPLINE
  5
83
330
1F
100
AcDbEntity
  8
0
  6
Continuous
 62
     7
370
    15
100
AcDbSpline
210
0.0
220
0.0
230
1.0
 70
     8
 71
     3
 72
     8
 73
     4
 74
     0
 42
0.000000001
 43
0.00000001
 40
0.0
 40
0.0
 40
0.0
 40
0.0
 40
1.0
 40
1.0
 40
1.0
 40
1.0
 10
6.49994214219017
 20
8.503371465447017
 30
0.0
 10
6.478964936848723
 20
8.499319564215392
 30
0.0
 10
6.457646738517718
 20
8.494256379033628
 30
0.0
 10
6.435987547197151
 20
8.488181909901721
 30
0.0
  0
LINE
  5
84
330
1F
100
AcDbEntity
  8
0
  6
Continuous
 62
     7
370
    15
100
AcDbLine
 10
6.6849559801
 20
8.5128530889
 30
0.0
 11
7.4892908361
 21
12.7502678037
 31
0.0
  0
SPLINE
  5
85
330
1F
100
AcDbEntity
  8
0
  6
Continuous
 62
     7
370
    15
100
AcDbSpline
210
0.0
220
0.0
230
1.0
 70
     8
 71
     3
 72
     8
 73
     4
 74
     0
 42
0.000000001
 43
0.00000001
 40
0.0
 40
0.0
 40
0.0
 40
0.0
 40
1.0
 40
1.0
 40
1.0
 40
1.0
 10
7.489290836088207
 20
12.75026780365581
 30
0.0
 10
7.507733439088581
 20
12.75306481342293
 30
0.0
 10
7.528709913566677
 20
12.75632772142927
 30
0.0
 10
7.55222025952249
 20
12.76005652767483
 30
0.0
  0
LINE
  5
86
330
1F
100
AcDbEntity
  8
0
  6
Continuous
 62
     7
370
    15
100
AcDbLine
 10
6.7445489959
 20
8.5050648768
 30
0.0
 11
7.5522202595
 21
12.7600565277
 31
0.0
  0
SPLINE
  5
87
330
1F
100
AcDbEntity
  8
0
  6
Continuous
 62
     7
370
    15
100
AcDbSpline
210
0.0
220
0.0
230
1.0
 70
     8
 71
     3
 72
     8
 73
     4
 74
     0
 42
0.000000001
 43
0.00000001
 40
0.0
 40
0.0
 40
0.0
 40
0.0
 40
1.0
 40
1.0
 40
1.0
 40
1.0
 10
6.74454899594989
 20
8.505064876758764
 30
0.0
 10
6.72404826753129
 20
8.508507165721527
 30
0.0
 10
6.704183928901469
 20
8.511103236438972
 30
0.0
 10
6.684955980060423
 20
8.512853088911095
 30
0.0
  0
LINE
  5
88
330
1F
100
AcDbEntity
  8
0
  6
Continuous
 62
     7
370
    15
100
AcDbLine
 10
6.9195691687
 20
8.4618976523
 30
0.0
 11
7.7410369159
 21
12.789572244
 31
0.0
  0
SPLINE
  5
89
330
1F
100
AcDbEntity
  8
0
  6
Continuous
 62
     7
370
    15
100
AcDbSpline
210
0.0
220
0.0
230
1.0
 70
     8
 71
     3
 72
     8
 73
     4
 74
     0
 42
0.000000001
 43
0.00000001
 40
0.0
 40
0.0
 40
0.0
 40
0.0
 40
1.0
 40
1.0
 40
1.0
 40
1.0
 10
7.741036915929609
 20
12.78957224403549
 30
0.0
 10
7.763300290344682
 20
12.79278594743495
 30
0.0
 10
7.784196533837337
 20
12.79562618078566
 30
0.0
 10
7.803725646407574
 20
12.79809294408763
 30
0.0
  0
LINE
  5
8A
330
1F
100
AcDbEntity
  8
0
  6
Continuous
 62
     7
370
    15
100
AcDbLine
 10
6.9773652267
 20
8.4446426664
 30
0.0
 11
7.8037256464
 21
12.7980929441
 31
0.0
  0
SPLINE
  5
8B
330
1F
100
AcDbEntity
  8
0
  6
Continuous
 62
     7
370
    15
100
AcDbSpline
210
0.0
220
0.0
230
1.0
 70
    24
 71
     3
 72
     8
 73
     4
 74
     0
 42
0.000000001
 43
0.00000001
 40
0.0
 40
0.0
 40
0.0
 40
0.0
 40
1.0
 40
1.0
 40
1.0
 40
1.0
 10
6.977365226656613
 20
8.444642666390862
 30
0.0
 10
6.958099874015292
 20
8.450394328368068
 30
0.0
 10
6.938834521373971
 20
8.456145990345274
 30
0.0
 10
6.91956916873265
 20
8.46189765232248
 30
0.0
  0
LINE
  5
8C
330
1F
100
AcDbEntity
  8
0
  6
Continuous
 62
     7
370
    15
100
AcDbLine
 10
7.1520853864
 20
8.3998949068
 30
0.0
 11
7.9899080117
 21
12.8137306298
 31
0.0
  0
SPLINE
  5
8D
330
1F
100
AcDbEntity
  8
0
  6
Continuous
 62
     7
370
    15
100
AcDbSpline
210
0.0
220
0.0
230
1.0
 70
     8
 71
     3
 72
     8
 73
     4
 74
     0
 42
0.000000001
 43
0.00000001
 40
0.0
 40
0.0
 40
0.0
 40
0.0
 40
1.0
 40
1.0
 40
1.0
 40
1.0
 10
7.989908011733107
 20
12.81373062978932
 30
0.0
 10
8.009498311097659
 20
12.81444996615678
 30
0.0
 10
8.029947805202196
 20
12.81493662447985
 30
0.0
 10
8.051256494046722
 20
12.81519060475852
 30
0.0
  0
LINE
  5
8E
330
1F
100
AcDbEntity
  8
0
  6
Continuous
 62
     7
370
    15
100
AcDbLine
 10
7.2110328268
 20
8.3887056595
 30
0.0
 11
8.051256494
 21
12.8151906048
 31
0.0
  0
SPLINE
  5
8F
330
1F
100
AcDbEntity
  8
0
  6
Continuous
 62
     7
370
    15
100
AcDbSpline
210
0.0
220
0.0
230
1.0
 70
     8
 71
     3
 72
     8
 73
     4
 74
     0
 42
0.000000001
 43
0.00000001
 40
0.0
 40
0.0
 40
0.0
 40
0.0
 40
1.0
 40
1.0
 40
1.0
 40
1.0
 10
7.21103282682926
 20
8.38870565951193
 30
0.0
 10
7.191845428444741
 20
8.391951353398735
 30
0.0
 10
7.17219628164514
 20
8.395681102485398
 30
0.0
 10
7.152085386430455
 20
8.399894906771914
 30
0.0
  0
LINE
  5
90
330
1F
100
AcDbEntity
  8
0
  6
Continuous
 62
     7
370
    15
100
AcDbLine
 10
7.3911037631
 20
8.372146979
 30
0.0
 11
8.2340631458
 21
12.8130442812
 31
0.0
  0
SPLINE
  5
91
330
1F
100
AcDbEntity
  8
0
  6
Continuous
 62
     7
370
    15
100
AcDbSpline
210
0.0
220
0.0
230
1.0
 70
    24
 71
     3
 72
     8
 73
     4
 74
     0
 42
0.000000001
 43
0.00000001
 40
0.0
 40
0.0
 40
0.0
 40
0.0
 40
1.0
 40
1.0
 40
1.0
 40
1.0
 10
8.234063145753204
 20
12.81304428115747
 30
0.0
 10
8.254308174439698
 20
12.81245377023369
 30
0.0
 10
8.274553203126189
 20
12.81186325930991
 30
0.0
 10
8.294798231812681
 20
12.81127274838612
 30
0.0
  0
LINE
  5
92
330
1F
100
AcDbEntity
  8
0
  6
Continuous
 62
     7
370
    15
100
AcDbLine
 10
7.4524400049
 20
8.3735424684
 30
0.0
 11
8.2947982318
 21
12.8112727484
 31
0.0
  0
SPLINE
  5
93
330
1F
100
AcDbEntity
  8
0
  6
Continuous
 62
     7
370
    15
100
AcDbSpline
210
0.0
220
0.0
230
1.0
 70
     8
 71
     3
 72
     8
 73
     4
 74
     0
 42
0.000000001
 43
0.00000001
 40
0.0
 40
0.0
 40
0.0
 40
0.0
 40
1.0
 40
1.0
 40
1.0
 40
1.0
 10
7.452440004887697
 20
8.373542468380828
 30
0.0
 10
7.430660829782143
 20
8.372499242414873
 30
0.0
 10
7.410215415841772
 20
8.372034079303095
 30
0.0
 10
7.391103763066583
 20
8.372146979045493
 30
0.0
  0
LINE
  5
94
330
1F
100
AcDbEntity
  8
0
  6
Continuous
 62
     7
370
    15
100
AcDbLine
 10
7.6387916299
 20
8.3900718518
 30
0.0
 11
8.4771652952
 21
12.8068105761
 31
0.0
  0
SPLINE
  5
95
330
1F
100
AcDbEntity
  8
0
  6
Continuous
 62
     7
370
    15
100
AcDbSpline
210
0.0
220
0.0
230
1.0
 70
     8
 71
     3
 72
     8
 73
     4
 74
     0
 42
0.000000001
 43
0.00000001
 40
0.0
 40
0.0
 40
0.0
 40
0.0
 40
1.0
 40
1.0
 40
1.0
 40
1.0
 10
8.477165295239871
 20
12.80681057606962
 30
0.0
 10
8.498438673873144
 20
12.80654468581745
 30
0.0
 10
8.518773479776828
 20
12.80642714121898
 30
0.0
 10
8.538169712950925
 20
12.80645794227422
 30
0.0
  0
LINE
  5
96
330
1F
100
AcDbEntity
  8
0
  6
Continuous
 62
     7
370
    15
100
AcDbLine
 10
7.7010789359
 20
8.3964777587
 30
0.0
 11
8.538169713
 21
12.8064579423
 31
0.0
  0
SPLINE
  5
97
330
1F
100
AcDbEntity
  8
0
  6
Continuous
 62
     7
370
    15
100
AcDbSpline
210
0.0
220
0.0
230
1.0
 70
     8
 71
     3
 72
     8
 73
     4
 74
     0
 42
0.000000001
 43
0.00000001
 40
0.0
 40
0.0
 40
0.0
 40
0.0
 40
1.0
 40
1.0
 40
1.0
 40
1.0
 10
7.70107893594916
 20
8.396477758695271
 30
0.0
 10
7.685879171146491
 20
8.394991304937257
 30
0.0
 10
7.665116735801657
 20
8.392856002636448
 30
0.0
 10
7.638791629914661
 20
8.390071851792841
 30
0.0
  0
LINE
  5
98
330
1F
100
AcDbEntity
  8
0
  6
Continuous
 62
     7
370
    15
100
AcDbLine
 10
7.8865440479
 20
8.408336794
 30
0.0
 11
8.7224790022
 21
12.8122278468
 31
0.0
  0
SPLINE
  5
99
330
1F
100
AcDbEntity
  8
0
  6
Continuous
 62
     7
370
    15
100
AcDbSpline
210
0.0
220
0.0
230
1.0
 70
     8
 71
     3
 72
     8
 73
     4
 74
     0
 42
0.000000001
 43
0.00000001
 40
0.0
 40
0.0
 40
0.0
 40
0.0
 40
1.0
 40
1.0
 40
1.0
 40
1.0
 10
8.722479002153927
 20
12.81222784683481
 30
0.0
 10
8.742049744926243
 20
12.81349882365193
 30
0.0
 10
8.762704327101334
 20
12.81506593149358
 30
0.0
 10
8.784442748679199
 20
12.81692917035978
 30
0.0
  0
LINE
  5
9A
330
1F
100
AcDbEntity
  8
0
  6
Continuous
 62
     7
370
    15
100
AcDbLine
 10
7.9478313197
 20
8.4094742988
 30
0.0
 11
8.7844427487
 21
12.8169291704
 31
0.0
  0
SPLINE
  5
9B
330
1F
100
AcDbEntity
  8
0
  6
Continuous
 62
     7
370
    15
100
AcDbSpline
210
0.0
220
0.0
230
1.0
 70
     8
 71
     3
 72
     8
 73
     4
 74
     0
 42
0.000000001
 43
0.00000001
 40
0.0
 40
0.0
 40
0.0
 40
0.0
 40
1.0
 40
1.0
 40
1.0
 40
1.0
 10
7.947831319720738
 20
8.409474298766192
 30
0.0
 10
7.925624957623893
 20
8.409214849710184
 30
0.0
 10
7.905195867001113
 20
8.4088356814619
 30
0.0
 10
7.886544047852393
 20
8.40833679402134
 30
0.0
  0
LINE
  5
9C
330
1F
100
AcDbEntity
  8
0
  6
Continuous
 62
     7
370
    15
100
AcDbLine
 10
8.1313857741
 20
8.4112675655
 30
0.0
 11
8.9713810723
 21
12.8365494122
 31
0.0
  0
SPLINE
  5
9D
330
1F
100
AcDbEntity
  8
0
  6
Continuous
 62
     7
370
    15
100
AcDbSpline
210
0.0
220
0.0
230
1.0
 70
    24
 71
     3
 72
     8
 73
     4
 74
     0
 42
0.000000001
 43
0.00000001
 40
0.0
 40
0.0
 40
0.0
 40
0.0
 40
1.0
 40
1.0
 40
1.0
 40
1.0
 10
8.971381072289152
 20
12.83654941224952
 30
0.0
 10
8.992196792035339
 20
12.83896542861446
 30
0.0
 10
9.013012511781527
 20
12.84138144497941
 30
0.0
 10
9.033828231527714
 20
12.84379746134436
 30
0.0
  0
LINE
  5
9E
330
1F
100
AcDbEntity
  8
0
  6
Continuous
 62
     7
370
    15
100
AcDbLine
 10
8.1928830211
 20
8.413511266
 30
0.0
 11
9.0338282315
 21
12.8437974613
 31
0.0
  0
SPLINE
  5
9F
330
1F
100
AcDbEntity
  8
0
  6
Continuous
 62
     7
370
    15
100
AcDbSpline
210
0.0
220
0.0
230
1.0
 70
     8
 71
     3
 72
     8
 73
     4
 74
     0
 42
0.000000001
 43
0.00000001
 40
0.0
 40
0.0
 40
0.0
 40
0.0
 40
1.0
 40
1.0
 40
1.0
 40
1.0
 10
8.192883021065724
 20
8.413511265985646
 30
0.0
 10
8.17410248843377
 20
8.412549480508064
 30
0.0
 10
8.153603406095614
 20
8.411801580353652
 30
0.0
 10
8.131385774051262
 20
8.411267565522408
 30
0.0
  0
LINE
  5
A0
330
1F
100
AcDbEntity
  8
0
  6
Continuous
 62
     7
370
    15
100
AcDbLine
 10
8.3808795776
 20
8.4387065139
 30
0.0
 11
9.2205273095
 21
12.8621573043
 31
0.0
  0
SPLINE
  5
A1
330
1F
100
AcDbEntity
  8
0
  6
Continuous
 62
     7
370
    15
100
AcDbSpline
210
0.0
220
0.0
230
1.0
 70
     8
 71
     3
 72
     8
 73
     4
 74
     0
 42
0.000000001
 43
0.00000001
 40
0.0
 40
0.0
 40
0.0
 40
0.0
 40
1.0
 40
1.0
 40
1.0
 40
1.0
 10
9.22052730954408
 20
12.86215730429564
 30
0.0
 10
9.242022775922127
 20
12.86368601518442
 30
0.0
 10
9.262601916260554
 20
12.86485567867017
 30
0.0
 10
9.282264730559357
 20
12.86566629475287
 30
0.0
  0
LINE
  5
A2
330
1F
100
AcDbEntity
  8
0
  6
Continuous
 62
     7
370
    15
100
AcDbLine
 10
8.4455864108
 20
8.4578590274
 30
0.0
 11
9.2822647306
 21
12.8656662948
 31
0.0
  0
SPLINE
  5
A3
330
1F
100
AcDbEntity
  8
0
  6
Continuous
 62
     7
370
    15
100
AcDbSpline
210
0.0
220
0.0
230
1.0
 70
     8
 71
     3
 72
     8
 73
     4
 74
     0
 42
0.000000001
 43
0.00000001
 40
0.0
 40
0.0
 40
0.0
 40
0.0
 40
1.0
 40
1.0
 40
1.0
 40
1.0
 10
8.445586410770781
 20
8.457859027405593
 30
0.0
 10
8.423378855438637
 20
8.450335006392455
 30
0.0
 10
8.401809911039186
 20
8.443950835215707
 30
0.0
 10
8.380879577572433
 20
8.438706513875355
 30
0.0
  0
LINE
  5
A4
330
1F
100
AcDbEntity
  8
0
  6
Continuous
 62
     7
370
    15
100
AcDbLine
 10
8.6452951951
 20
8.5447568934
 30
0.0
 11
9.4646596676
 21
12.8613509668
 31
0.0
  0
SPLINE
  5
A5
330
1F
100
AcDbEntity
  8
0
  6
Continuous
 62
     7
370
    15
100
AcDbSpline
210
0.0
220
0.0
230
1.0
 70
     8
 71
     3
 72
     8
 73
     4
 74
     0
 42
0.000000001
 43
0.00000001
 40
0.0
 40
0.0
 40
0.0
 40
0.0
 40
1.0
 40
1.0
 40
1.0
 40
1.0
 10
9.464659667602955
 20
12.86135096684011
 30
0.0
 10
9.484183121829831
 20
12.85930846876653
 30
0.0
 10
9.504031142031009
 20
12.85662642894164
 30
0.0
 10
9.524203728206484
 20
12.85330484736542
 30
0.0
  0
LINE
  5
A6
330
1F
100
AcDbEntity
  8
0
  6
Continuous
 62
     7
370
    15
100
AcDbLine
 10
8.7130096996
 20
8.5797544876
 30
0.0
 11
9.5242037282
 21
12.8533048474
 31
0.0
  0
SPLINE
  5
A7
330
1F
100
AcDbEntity
  8
0
  6
Continuous
 62
     7
370
    15
100
AcDbSpline
210
0.0
220
0.0
230
1.0
 70
     8
 71
     3
 72
     8
 73
     4
 74
     0
 42
0.000000001
 43
0.00000001
 40
0.0
 40
0.0
 40
0.0
 40
0.0
 40
1.0
 40
1.0
 40
1.0
 40
1.0
 10
8.71300969959691
 20
8.579754487607628
 30
0.0
 10
8.687504050902339
 20
8.566341129651613
 30
0.0
 10
8.664932549400172
 20
8.554675264926978
 30
0.0
 10
8.645295195090409
 20
8.544756893433721
 30
0.0
  0
LINE
  5
A8
330
1F
100
AcDbEntity
  8
0
  6
Continuous
 62
     7
370
    15
100
AcDbLine
 10
8.916374711
 20
8.6859141699
 30
0.0
 11
9.6994212172
 21
12.8111771283
 31
0.0
  0
SPLINE
  5
A9
330
1F
100
AcDbEntity
  8
0
  6
Continuous
 62
     7
370
    15
100
AcDbSpline
210
0.0
220
0.0
230
1.0
 70
     8
 71
     3
 72
     8
 73
     4
 74
     0
 42
0.000000001
 43
0.00000001
 40
0.0
 40
0.0
 40
0.0
 40
0.0
 40
1.0
 40
1.0
 40
1.0
 40
1.0
 10
9.699421217152597
 20
12.81117712831395
 30
0.0
 10
9.718097753795462
 20
12.80543165063881
 30
0.0
 10
9.737268486012123
 20
12.79918150724338
 30
0.0
 10
9.756933413802582
 20
12.79242669812764
 30
0.0
  0
LINE
  5
AA
330
1F
100
AcDbEntity
  8
0
  6
Continuous
 62
     7
370
    15
100
AcDbLine
 10
8.9835700805
 20
8.7181768457
 30
0.0
 11
9.7569334138
 21
12.7924266981
 31
0.0
  0
SPLINE
  5
AB
330
1F
100
AcDbEntity
  8
0
  6
Continuous
 62
     7
370
    15
100
AcDbSpline
210
0.0
220
0.0
230
1.0
 70
     8
 71
     3
 72
     8
 73
     4
 74
     0
 42
0.000000001
 43
0.00000001
 40
0.0
 40
0.0
 40
0.0
 40
0.0
 40
1.0
 40
1.0
 40
1.0
 40
1.0
 10
8.98357008047495
 20
8.718176845683931
 30
0.0
 10
8.962315779405913
 20
8.70836041887253
 30
0.0
 10
8.93991732289812
 20
8.697606193622402
 30
0.0
 10
8.916374710951574
 20
8.685914169933547
 30
0.0
  0
SPLINE
  5
AC
330
1F
100
AcDbEntity
  8
0
  6
Continuous
 62
     7
370
    15
100
AcDbSpline
210
0.0
220
0.0
230
1.0
 70
     8
 71
     3
 72
     8
 73
     4
 74
     0
 42
0.000000001
 43
0.00000001
 40
0.7174430899450465
 40
0.7174430899450465
 40
0.7174430899450465
 40
0.7174430899450465
 40
0.7296933230624867
 40
0.7296933230624867
 40
0.7296933230624867
 40
0.7296933230624867
 10
10.23827067881246
 20
11.14563137574716
 30
0.0
 10
10.2598947747485
 20
11.15215277029002
 30
0.0
 10
10.28151184919898
 20
11.15879050174669
 30
0.0
 10
10.30312190242837
 20
11.16554457007531
 30
0.0
  0
LINE
  5
AD
330
1F
100
AcDbEntity
  8
0
  6
Continuous
 62
     7
370
    15
100
AcDbLine
 10
10.2382706788
 20
11.1456313757
 30
0.0
 11
10.5280434384
 21
12.6722186499
 31
0.0
  0
SPLINE
  5
AE
330
1F
100
AcDbEntity
  8
0
  6
Continuous
 62
     7
370
    15
100
AcDbSpline
210
0.0
220
0.0
230
1.0
 70
     8
 71
     3
 72
     8
 73
     4
 74
     0
 42
0.000000001
 43
0.00000001
 40
0.8818970380343556
 40
0.8818970380343556
 40
0.8818970380343556
 40
0.8818970380343556
 40
0.9106263182262601
 40
0.9106263182262601
 40
0.9106263182262601
 40
0.9106263182262601
 10
10.35806673301067
 20
12.74195598108789
 30
0.0
 10
10.41444431311461
 20
12.71750653077501
 30
0.0
 10
10.4710508027107
 20
12.6939182563347
 30
0.0
 10
10.5280434383962
 20
12.67221864992838
 30
0.0
  0
LINE
  5
AF
330
1F
100
AcDbEntity
  8
0
  6
Continuous
 62
     7
370
    15
100
AcDbLine
 10
10.0445683361
 20
11.0903767786
 30
0.0
 11
10.358066733
 21
12.7419559811
 31
0.0
  0
SPLINE
  5
B0
330
1F
100
AcDbEntity
  8
0
  6
Continuous
 62
     7
370
    15
100
AcDbSpline
210
0.0
220
0.0
230
1.0
 70
     8
 71
     3
 72
     8
 73
     4
 74
     0
 42
0.000000001
 43
0.00000001
 40
0.6687879991596806
 40
0.6687879991596806
 40
0.6687879991596806
 40
0.6687879991596806
 40
0.6809004797697262
 40
0.6809004797697262
 40
0.6809004797697262
 40
0.6809004797697262
 10
9.9802806814514
 20
11.07343259070848
 30
0.0
 10
10.00171676404013
 20
11.07896691816684
 30
0.0
 10
10.02314598219671
 20
11.08461498073826
 30
0.0
 10
10.04456833612069
 20
11.09037677862177
 30
0.0
  0
LINE
  5
B1
330
1F
100
AcDbEntity
  8
0
  6
Continuous
 62
     7
370
    15
100
AcDbLine
 10
9.9802806815
 20
11.0734325907
 30
0.0
 11
10.3016894728
 21
12.7666855083
 31
0.0
  0
SPLINE
  5
B2
330
1F
100
AcDbEntity
  8
0
  6
Continuous
 62
     7
370
    15
100
AcDbSpline
210
0.0
220
0.0
230
1.0
 70
     8
 71
     3
 72
     8
 73
     4
 74
     0
 42
0.000000001
 43
0.00000001
 40
0.8434889111416289
 40
0.8434889111416289
 40
0.8434889111416289
 40
0.8434889111416289
 40
0.8723086651578061
 40
0.8723086651578061
 40
0.8723086651578061
 40
0.8723086651578061
 10
10.13280513515823
 20
12.84217767568529
 30
0.0
 10
10.18902818731779
 20
12.81718358609369
 30
0.0
 10
10.24527005759012
 20
12.79167378696301
 30
0.0
 10
10.30168947275701
 20
12.76668550834616
 30
0.0
  0
LINE
  5
B3
330
1F
100
AcDbEntity
  8
0
  6
Continuous
 62
     7
370
    15
100
AcDbLine
 10
9.7882408295
 20
11.0269363641
 30
0.0
 11
10.1328051352
 21
12.8421776757
 31
0.0
  0
SPLINE
  5
B4
330
1F
100
AcDbEntity
  8
0
  6
Continuous
 62
     7
370
    15
100
AcDbSpline
210
0.0
220
0.0
230
1.0
 70
     8
 71
     3
 72
     8
 73
     4
 74
     0
 42
0.000000001
 43
0.00000001
 40
0.6206724766338482
 40
0.6206724766338482
 40
0.6206724766338482
 40
0.6206724766338482
 40
0.6326517496484072
 40
0.6326517496484072
 40
0.6326517496484072
 40
0.6326517496484072
 10
9.724498149665232
 20
11.01286322473476
 30
0.0
 10
9.745752423772606
 20
11.01744302383702
 30
0.0
 10
9.766999983743021
 20
11.02213407028235
 30
0.0
 10
9.788240829488698
 20
11.02693636408723
 30
0.0
  0
LINE
  5
B5
330
1F
100
AcDbEntity
  8
0
  6
Continuous
 62
     7
370
    15
100
AcDbLine
 10
9.7244981497
 20
11.0128632247
 30
0.0
 11
10.076449209
 21
12.8670195957
 31
0.0
  0
SPLINE
  5
B6
330
1F
100
AcDbEntity
  8
0
  6
Continuous
 62
     7
370
    15
100
AcDbSpline
210
0.0
220
0.0
230
1.0
 70
     8
 71
     3
 72
     8
 73
     4
 74
     0
 42
0.000000001
 43
0.00000001
 40
0.8048835841000828
 40
0.8048835841000828
 40
0.8048835841000828
 40
0.8048835841000828
 40
0.8338595576393832
 40
0.8338595576393832
 40
0.8338595576393832
 40
0.8338595576393832
 10
9.906585164663532
 20
12.93735045029336
 30
0.0
 10
9.963348648918885
 20
12.91548127032332
 30
0.0
 10
10.01991622304279
 20
12.89168625586953
 30
0.0
 10
10.07644920900309
 20
12.86701959571711
 30
0.0
  0
LINE
  5
B7
330
1F
100
AcDbEntity
  8
0
  6
Continuous
 62
     7
370
    15
100
AcDbLine
 10
9.5340665312
 20
10.9748395297
 30
0.0
 11
9.9065851647
 21
12.9373504503
 31
0.0
  0
SPLINE
  5
B8
330
1F
100
AcDbEntity
  8
0
  6
Continuous
 62
     7
370
    15
100
AcDbSpline
210
0.0
220
0.0
230
1.0
 70
     8
 71
     3
 72
     8
 73
     4
 74
     0
 42
0.000000001
 43
0.00000001
 40
0.5730789598761598
 40
0.5730789598761598
 40
0.5730789598761598
 40
0.5730789598761598
 40
0.5849293257426075
 40
0.5849293257426075
 40
0.5849293257426075
 40
0.5849293257426075
 10
9.470851232657997
 20
10.96354475187041
 30
0.0
 10
9.49192956936132
 20
10.96720081175546
 30
0.0
 10
9.513001335452573
 20
10.97096573779375
 30
0.0
 10
9.534066531240525
 20
10.97483952968115
 30
0.0
  0
LINE
  5
B9
330
1F
100
AcDbEntity
  8
0
  6
Continuous
 62
     7
370
    15
100
AcDbLine
 10
9.4708512327
 20
10.9635447519
 30
0.0
 11
9.8495494162
 21
12.9586109153
 31
0.0
  0
SPLINE
  5
BA
330
1F
100
AcDbEntity
  8
0
  6
Continuous
 62
     7
370
    15
100
AcDbSpline
210
0.0
220
0.0
230
1.0
 70
     8
 71
     3
 72
     8
 73
     4
 74
     0
 42
0.000000001
 43
0.00000001
 40
0.7659892850992015
 40
0.7659892850992015
 40
0.7659892850992015
 40
0.7659892850992015
 40
0.7951908166800179
 40
0.7951908166800179
 40
0.7951908166800179
 40
0.7951908166800179
 10
9.67655607165414
 20
13.01245592124895
 30
0.0
 10
9.734584378332091
 20
12.99754100125262
 30
0.0
 10
9.792193786937876
 20
12.97923299949058
 30
0.0
 10
9.849549416183581
 20
12.95861091528832
 30
0.0
  0
LINE
  5
BB
330
1F
100
AcDbEntity
  8
0
  6
Continuous
 62
     7
370
    15
100
AcDbLine
 10
9.281976479
 20
10.9337229663
 30
0.0
 11
9.6765560717
 21
13.0124559212
 31
0.0
  0
SPLINE
  5
BC
330
1F
100
AcDbEntity
  8
0
  6
Continuous
 62
     7
370
    15
100
AcDbSpline
210
0.0
220
0.0
230
1.0
 70
     8
 71
     3
 72
     8
 73
     4
 74
     0
 42
0.000000001
 43
0.00000001
 40
0.5259908191467938
 40
0.5259908191467938
 40
0.5259908191467938
 40
0.5259908191467938
 40
0.5377163516551351
 40
0.5377163516551351
 40
0.5377163516551351
 40
0.5377163516551351
 10
9.2192718948697
 20
10.92511874567033
 30
0.0
 10
9.240179855685323
 20
10.92788023476336
 30
0.0
 10
9.261081383712897
 20
10.93074830832395
 30
0.0
 10
9.28197647901118
 20
10.93372296634396
 30
0.0
  0
LINE
  5
BD
330
1F
100
AcDbEntity
  8
0
  6
Continuous
 62
     7
370
    15
100
AcDbLine
 10
9.2192718949
 20
10.9251187457
 30
0.0
 11
9.6181048537
 21
13.0262593784
 31
0.0
  0
SPLINE
  5
BE
330
1F
100
AcDbEntity
  8
0
  6
Continuous
 62
     7
370
    15
100
AcDbSpline
210
0.0
220
0.0
230
1.0
 70
     8
 71
     3
 72
     9
 73
     5
 74
     0
 42
0.000000001
 43
0.00000001
 40
0.7267076929394004
 40
0.7267076929394004
 40
0.7267076929394004
 40
0.7267076929394004
 40
0.73296985164217
 40
0.7562091868835049
 40
0.7562091868835049
 40
0.7562091868835049
 40
0.7562091868835049
 10
9.439705951270394
 20
13.05162670458829
 30
0.0
 10
9.452452621857876
 20
13.05077780375342
 30
0.0
 10
9.512378557030914
 20
13.04585509996968
 30
0.0
 10
9.571686381644959
 20
13.03622398254676
 30
0.0
 10
9.618104853661274
 20
13.02625937838547
 30
0.0
  0
LINE
  5
BF
330
1F
100
AcDbEntity
  8
0
  6
Continuous
 62
     7
370
    15
100
AcDbLine
 10
9.0319053149
 20
10.9032423543
 30
0.0
 11
9.4397059513
 21
13.0516267046
 31
0.0
  0
SPLINE
  5
C0
330
1F
100
AcDbEntity
  8
0
  6
Continuous
 62
     7
370
    15
100
AcDbSpline
210
0.0
220
0.0
230
1.0
 70
     8
 71
     3
 72
     8
 73
     4
 74
     0
 42
0.000000001
 43
0.00000001
 40
0.4793922891532533
 40
0.4793922891532533
 40
0.4793922891532533
 40
0.4793922891532533
 40
0.4909968520488516
 40
0.4909968520488516
 40
0.4909968520488516
 40
0.4909968520488516
 10
8.969695638104724
 20
10.897245415311
 30
0.0
 10
8.990438497781263
 20
10.89913999838237
 30
0.0
 10
9.011175056680656
 20
10.90113897804297
 30
0.0
 10
9.03190531493153
 20
10.90324235430098
 30
0.0
  0
LINE
  5
C1
330
1F
100
AcDbEntity
  8
0
  6
Continuous
 62
     7
370
    15
100
AcDbLine
 10
8.9696956381
 20
10.8972454153
 30
0.0
 11
9.3791316467
 21
13.05424527
 31
0.0
  0
SPLINE
  5
C2
330
1F
100
AcDbEntity
  8
0
  6
Continuous
 62
     7
370
    15
100
AcDbSpline
210
0.0
220
0.0
230
1.0
 70
     8
 71
     3
 72
     8
 73
     4
 74
     0
 42
0.000000001
 43
0.00000001
 40
0.6870616019129498
 40
0.6870616019129498
 40
0.6870616019129498
 40
0.6870616019129498
 40
0.7168195687841207
 40
0.7168195687841207
 40
0.7168195687841207
 40
0.7168195687841207
 10
9.194783577884428
 20
13.0482710658155
 30
0.0
 10
9.256679233988498
 20
13.05296041682656
 30
0.0
 10
9.31817892001506
 20
13.05552860737114
 30
0.0
 10
9.379131646699816
 20
13.05424526999447
 30
0.0
  0
LINE
  5
C3
330
1F
100
AcDbEntity
  8
0
  6
Continuous
 62
     7
370
    15
100
AcDbLine
 10
8.7837910272
 20
10.8830710014
 30
0.0
 11
9.1947835779
 21
13.0482710658
 31
0.0
  0
SPLINE
  5
C4
330
1F
100
AcDbEntity
  8
0
  6
Continuous
 62
     7
370
    15
100
AcDbSpline
210
0.0
220
0.0
230
1.0
 70
     8
 71
     3
 72
     8
 73
     4
 74
     0
 42
0.000000001
 43
0.00000001
 40
0.4332684077577371
 40
0.4332684077577371
 40
0.4332684077577371
 40
0.4332684077577371
 40
0.4447556694425424
 40
0.4447556694425424
 40
0.4447556694425424
 40
0.4447556694425424
 10
8.722061249493747
 20
10.87960227779757
 30
0.0
 10
8.742644016019018
 20
10.88065622226355
 30
0.0
 10
8.76322060859363
 20
10.88181246345823
 30
0.0
 10
8.783791027160959
 20
10.88307100139912
 30
0.0
  0
LINE
  5
C5
330
1F
100
AcDbEntity
  8
0
  6
Continuous
 62
     7
370
    15
100
AcDbLine
 10
8.7220612495
 20
10.8796022778
 30
0.0
 11
9.1326989275
 21
13.0429327942
 31
0.0
  0
SPLINE
  5
C6
330
1F
100
AcDbEntity
  8
0
  6
Continuous
 62
     7
370
    15
100
AcDbSpline
210
0.0
220
0.0
230
1.0
 70
     8
 71
     3
 72
     8
 73
     4
 74
     0
 42
0.000000001
 43
0.00000001
 40
0.647404028926156
 40
0.647404028926156
 40
0.647404028926156
 40
0.647404028926156
 40
0.6771322879238117
 40
0.6771322879238117
 40
0.6771322879238117
 40
0.6771322879238117
 10
8.945571605655388
 20
13.02231686732488
 30
0.0
 10
9.00819192123346
 20
13.02957942556431
 30
0.0
 10
9.070617874367391
 20
13.03702646459389
 30
0.0
 10
9.132698927546887
 20
13.04293279415081
 30
0.0
  0
LINE
  5
C7
330
1F
100
AcDbEntity
  8
0
  6
Continuous
 62
     7
370
    15
100
AcDbLine
 10
8.5375747149
 20
10.8728986051
 30
0.0
 11
8.9455716057
 21
13.0223168673
 31
0.0
  0
SPLINE
  5
C8
330
1F
100
AcDbEntity
  8
0
  6
Continuous
 62
     7
370
    15
100
AcDbSpline
210
0.0
220
0.0
230
1.0
 70
     8
 71
     3
 72
     8
 73
     4
 74
     0
 42
0.000000001
 43
0.00000001
 40
0.387604959617484
 40
0.387604959617484
 40
0.387604959617484
 40
0.387604959617484
 40
0.3989784067819876
 40
0.3989784067819876
 40
0.3989784067819876
 40
0.3989784067819876
 10
8.476310571749663
 20
10.87188294762117
 30
0.0
 10
8.496738005002289
 20
10.87212122042659
 30
0.0
 10
8.517159386122117
 20
10.87245977290116
 30
0.0
 10
8.537574714889617
 20
10.87289860508652
 30
0.0
  0
LINE
  5
C9
330
1F
100
AcDbEntity
  8
0
  6
Continuous
 62
     7
370
    15
100
AcDbLine
 10
8.4763105717
 20
10.8718829476
 30
0.0
 11
8.8831509362
 21
13.0152083723
 31
0.0
  0
SPLINE
  5
CA
330
1F
100
AcDbEntity
  8
0
  6
Continuous
 62
     7
370
    15
100
AcDbSpline
210
0.0
220
0.0
230
1.0
 70
     8
 71
     3
 72
     8
 73
     4
 74
     0
 42
0.000000001
 43
0.00000001
 40
0.6081368830901331
 40
0.6081368830901331
 40
0.6081368830901331
 40
0.6081368830901331
 40
0.6375354989897648
 40
0.6375354989897648
 40
0.6375354989897648
 40
0.6375354989897648
 10
8.696761446920187
 20
12.99847951158477
 30
0.0
 10
8.758935425870483
 20
13.00220303613028
 30
0.0
 10
8.821113784001463
 20
13.00833546795322
 30
0.0
 10
8.883150936204961
 20
13.01520837231915
 30
0.0
  0
LINE
  5
CB
330
1F
100
AcDbEntity
  8
0
  6
Continuous
 62
     7
370
    15
100
AcDbLine
 10
8.2932003741
 20
10.8724301239
 30
0.0
 11
8.6967614469
 21
12.9984795116
 31
0.0
  0
SPLINE
  5
CC
330
1F
100
AcDbEntity
  8
0
  6
Continuous
 62
     7
370
    15
100
AcDbSpline
210
0.0
220
0.0
230
1.0
 70
     8
 71
     3
 72
     8
 73
     4
 74
     0
 42
0.000000001
 43
0.00000001
 40
0.3423884250504959
 40
0.3423884250504959
 40
0.3423884250504959
 40
0.3423884250504959
 40
0.3536513750704018
 40
0.3536513750704018
 40
0.3536513750704018
 40
0.3536513750704018
 10
8.232388293820351
 20
10.87379603387122
 30
0.0
 10
8.252664922523707
 20
10.87324238987576
 30
0.0
 10
8.272935615846341
 20
10.87278708655914
 30
0.0
 10
8.293200374119746
 20
10.87243012386101
 30
0.0
  0
LINE
  5
CD
330
1F
100
AcDbEntity
  8
0
  6
Continuous
 62
     7
370
    15
100
AcDbLine
 10
8.2323882938
 20
10.8737960339
 30
0.0
 11
8.6351434721
 21
12.99559979
 31
0.0
  0
SPLINE
  5
CE
330
1F
100
AcDbEntity
  8
0
  6
Continuous
 62
     7
370
    15
100
AcDbSpline
210
0.0
220
0.0
230
1.0
 70
     8
 71
     3
 72
     8
 73
     4
 74
     0
 42
0.000000001
 43
0.00000001
 40
0.5694756029728109
 40
0.5694756029728109
 40
0.5694756029728109
 40
0.5694756029728109
 40
0.5984239964990514
 40
0.5984239964990514
 40
0.5984239964990514
 40
0.5984239964990514
 10
8.451762118434818
 20
12.99471845622507
 30
0.0
 10
8.512775953000668
 20
12.99363721862855
 30
0.0
 10
8.57393825245109
 20
12.99351982556483
 30
0.0
 10
8.635143472055994
 20
12.99559979007892
 30
0.0
  0
LINE
  5
CF
330
1F
100
AcDbEntity
  8
0
  6
Continuous
 62
     7
370
    15
100
AcDbLine
 10
8.0506147021
 20
10.8813847467
 30
0.0
 11
8.4517621184
 21
12.9947184562
 31
0.0
  0
SPLINE
  5
D0
330
1F
100
AcDbEntity
  8
0
  6
Continuous
 62
     7
370
    15
100
AcDbSpline
210
0.0
220
0.0
230
1.0
 70
     8
 71
     3
 72
     8
 73
     4
 74
     0
 42
0.000000001
 43
0.00000001
 40
0.2976059335455152
 40
0.2976059335455152
 40
0.2976059335455152
 40
0.2976059335455152
 40
0.3087615455734073
 40
0.3087615455734073
 40
0.3087615455734073
 40
0.3087615455734073
 10
7.990241759656953
 20
10.88506413278409
 30
0.0
 10
8.010371896428369
 20
10.88374119559555
 30
0.0
 10
8.030496210534901
 20
10.88251473358496
 30
0.0
 10
8.050614702053018
 20
10.88138474673909
 30
0.0
  0
LINE
  5
D1
330
1F
100
AcDbEntity
  8
0
  6
Continuous
 62
     7
370
    15
100
AcDbLine
 10
7.9902417597
 20
10.8850641328
 30
0.0
 11
8.3909475938
 21
12.9960714892
 31
0.0
  0
SPLINE
  5
D2
330
1F
100
AcDbEntity
  8
0
  6
Continuous
 62
     7
370
    15
100
AcDbSpline
210
0.0
220
0.0
230
1.0
 70
     8
 71
     3
 72
     8
 73
     4
 74
     0
 42
0.000000001
 43
0.00000001
 40
0.5308729182893246
 40
0.5308729182893246
 40
0.5308729182893246
 40
0.5308729182893246
 40
0.5598492567379927
 40
0.5598492567379927
 40
0.5598492567379927
 40
0.5598492567379927
 10
8.208718545867072
 20
13.0012607575343
 30
0.0
 10
8.269207077996095
 20
12.99980099920326
 30
0.0
 10
8.329985377550988
 20
12.99765888016846
 30
0.0
 10
8.390947593848168
 20
12.99607148918762
 30
0.0
  0
LINE
  5
D3
330
1F
100
AcDbEntity
  8
0
  6
Continuous
 62
     7
370
    15
100
AcDbLine
 10
7.8097669181
 20
10.8994949505
 30
0.0
 11
8.2087185459
 21
13.0012607575
 31
0.0
  0
SPLINE
  5
D4
330
1F
100
AcDbEntity
  8
0
  6
Continuous
 62
     7
370
    15
100
AcDbSpline
210
0.0
220
0.0
230
1.0
 70
     8
 71
     3
 72
     8
 73
     4
 74
     0
 42
0.000000001
 43
0.00000001
 40
0.2532452205267303
 40
0.2532452205267303
 40
0.2532452205267303
 40
0.2532452205267303
 40
0.2642965060603129
 40
0.2642965060603129
 40
0.2642965060603129
 40
0.2642965060603129
 10
7.749820793071471
 20
10.90542290505417
 30
0.0
 10
7.769808548951093
 20
10.90335224104283
 30
0.0
 10
7.789790590710939
 20
10.90137625616129
 30
0.0
 10
7.809766918129952
 20
10.89949495045188
 30
0.0
  0
LINE
  5
D5
330
1F
100
AcDbEntity
  8
0
  6
Continuous
 62
     7
370
    15
100
AcDbLine
 10
7.7498207931
 20
10.9054229051
 30
0.0
 11
8.1478736517
 21
13.002453797
 31
0.0
  0
SPLINE
  5
D6
330
1F
100
AcDbEntity
  8
0
  6
Continuous
 62
     7
370
    15
100
AcDbSpline
210
0.0
220
0.0
230
1.0
 70
     8
 71
     3
 72
     8
 73
     4
 74
     0
 42
0.000000001
 43
0.00000001
 40
0.4915395566565231
 40
0.4915395566565231
 40
0.4915395566565231
 40
0.4915395566565231
 40
0.5211409367745539
 40
0.5211409367745539
 40
0.5211409367745539
 40
0.5211409367745539
 10
7.964258183050826
 20
13.00033909294938
 30
0.0
 10
8.025048601893673
 20
13.00306897209181
 30
0.0
 10
8.086291374573054
 20
13.00333424584013
 30
0.0
 10
8.147873651747364
 20
13.00245379704981
 30
0.0
  0
LINE
  5
D7
330
1F
100
AcDbEntity
  8
0
  6
Continuous
 62
     7
370
    15
100
AcDbLine
 10
7.5706086
 20
10.9265056355
 30
0.0
 11
7.964258183
 21
13.000339093
 31
0.0
  0
SPLINE
  5
D8
330
1F
100
AcDbEntity
  8
0
  6
Continuous
 62
     7
370
    15
100
AcDbSpline
210
0.0
220
0.0
230
1.0
 70
     8
 71
     3
 72
     8
 73
     4
 74
     0
 42
0.000000001
 43
0.00000001
 40
0.2092945883487096
 40
0.2092945883487096
 40
0.2092945883487096
 40
0.2092945883487096
 40
0.2202444207210189
 40
0.2202444207210189
 40
0.2202444207210189
 40
0.2202444207210189
 10
7.511077537294137
 20
10.93462023058629
 30
0.0
 10
7.530926834705836
 20
10.93182241677161
 30
0.0
 10
7.550770522219404
 20
10.9291175517568
 30
0.0
 10
7.570608600038747
 20
10.92650563550318
 30
0.0
  0
LINE
  5
D9
330
1F
100
AcDbEntity
  8
0
  6
Continuous
 62
     7
370
    15
100
AcDbLine
 10
7.5110775373
 20
10.9346202306
 30
0.0
 11
7.9024873971
 21
12.9966543288
 31
0.0
  0
SPLINE
  5
DA
330
1F
100
AcDbEntity
  8
0
  6
Continuous
 62
     7
370
    15
100
AcDbSpline
210
0.0
220
0.0
230
1.0
 70
     8
 71
     3
 72
     8
 73
     4
 74
     0
 42
0.000000001
 43
0.00000001
 40
0.4508119923320692
 40
0.4508119923320692
 40
0.4508119923320692
 40
0.4508119923320692
 40
0.4814872131133145
 40
0.4814872131133145
 40
0.4814872131133145
 40
0.4814872131133145
 10
7.715218276141317
 20
12.97529137342261
 30
0.0
 10
7.777630772918445
 20
12.98429172358487
 30
0.0
 10
7.839820551776346
 20
12.99194434344431
 30
0.0
 10
7.902487397120854
 20
12.99665432888238
 30
0.0
  0
LINE
  5
DB
330
1F
100
AcDbEntity
  8
0
  6
Continuous
 62
     7
370
    15
100
AcDbLine
 10
7.3330935332
 20
10.9621733331
 30
0.0
 11
7.7152182761
 21
12.9752913734
 31
0.0
  0
SPLINE
  5
DC
330
1F
100
AcDbEntity
  8
0
  6
Continuous
 62
     7
370
    15
100
AcDbSpline
210
0.0
220
0.0
230
1.0
 70
     8
 71
     3
 72
     8
 73
     4
 74
     0
 42
0.000000001
 43
0.00000001
 40
0.1657428704856863
 40
0.1657428704856863
 40
0.1657428704856863
 40
0.1657428704856863
 40
0.1765939933760341
 40
0.1765939933760341
 40
0.1765939933760341
 40
0.1765939933760341
 10
7.273966307593553
 20
10.97241543206603
 30
0.0
 10
7.293680891872632
 20
10.96891011856938
 30
0.0
 10
7.313389967124825
 20
10.96549608557963
 30
0.0
 10
7.333093533182347
 20
10.96217333312853
 30
0.0
  0
LINE
  5
DD
330
1F
100
AcDbEntity
  8
0
  6
Continuous
 62
     7
370
    15
100
AcDbLine
 10
7.2739663076
 20
10.9724154321
 30
0.0
 11
7.6523540804
 21
12.9658462828
 31
0.0
  0
SPLINE
  5
DE
330
1F
100
AcDbEntity
  8
0
  6
Continuous
 62
     7
370
    15
100
AcDbSpline
210
0.0
220
0.0
230
1.0
 70
     8
 71
     3
 72
     8
 73
     4
 74
     0
 42
0.000000001
 43
0.00000001
 40
0.4100314429198602
 40
0.4100314429198602
 40
0.4100314429198602
 40
0.4100314429198602
 40
0.4405295342586226
 40
0.4405295342586226
 40
0.4405295342586226
 40
0.4405295342586226
 10
7.46347409090459
 20
12.93599691259032
 30
0.0
 10
7.527344597961441
 20
12.9457054948562
 30
0.0
 10
7.590075350504341
 20
12.95617776315202
 30
0.0
 10
7.652354080404384
 20
12.96584628273001
 30
0.0
  0
LINE
  5
DF
330
1F
100
AcDbEntity
  8
0
  6
Continuous
 62
     7
370
    15
100
AcDbLine
 10
7.0971775723
 20
11.0062654762
 30
0.0
 11
7.4634740909
 21
12.9359969126
 31
0.0
  0
SPLINE
  5
E0
330
1F
100
AcDbEntity
  8
0
  6
Continuous
 62
     7
370
    15
100
AcDbSpline
210
0.0
220
0.0
230
1.0
 70
     8
 71
     3
 72
     8
 73
     4
 74
     0
 42
0.000000001
 43
0.00000001
 40
0.122579397901074
 40
0.122579397901074
 40
0.122579397901074
 40
0.122579397901074
 40
0.1333344336465099
 40
0.1333344336465099
 40
0.1333344336465099
 40
0.1333344336465099
 10
7.038443455693991
 20
11.01857856067983
 30
0.0
 10
7.058026906564245
 20
11.01438452807603
 30
0.0
 10
7.077604945359659
 20
11.01028016658555
 30
0.0
 10
7.097177572277993
 20
11.00626547617093
 30
0.0
  0
LINE
  5
E1
330
1F
100
AcDbEntity
  8
0
  6
Continuous
 62
     7
370
    15
100
AcDbLine
 10
7.0384434557
 20
11.0185785607
 30
0.0
 11
7.4006579139
 21
12.9268047971
 31
0.0
  0
SPLINE
  5
E2
330
1F
100
AcDbEntity
  8
0
  6
Continuous
 62
     7
370
    15
100
AcDbSpline
210
0.0
220
0.0
230
1.0
 70
     8
 71
     3
 72
     9
 73
     5
 74
     0
 42
0.000000001
 43
0.00000001
 40
0.3713170139039451
 40
0.3713170139039451
 40
0.3713170139039451
 40
0.3713170139039451
 40
0.3821382604999895
 40
0.4000947844116427
 40
0.4000947844116427
 40
0.4000947844116427
 40
0.4000947844116427
 10
7.213443310153331
 20
12.9057290500156
 30
0.0
 10
7.237407217585136
 20
12.9077831810253
 30
0.0
 10
7.300777161062159
 20
12.91365320723876
 30
0.0
 10
7.362572272054642
 20
12.92147958548375
 30
0.0
 10
7.400657913917597
 20
12.9268047971384
 30
0.0
  0
LINE
  5
E3
330
1F
100
AcDbEntity
  8
0
  6
Continuous
 62
     7
370
    15
100
AcDbLine
 10
6.8628185139
 20
11.0585597277
 30
0.0
 11
7.2134433102
 21
12.90572905
 31
0.0
  0
SPLINE
  5
E4
330
1F
100
AcDbEntity
  8
0
  6
Continuous
 62
     7
370
    15
100
AcDbSpline
210
0.0
220
0.0
230
1.0
 70
     8
 71
     3
 72
     8
 73
     4
 74
     0
 42
0.000000001
 43
0.00000001
 40
0.0797939690884435
 40
0.0797939690884435
 40
0.0797939690884435
 40
0.0797939690884435
 40
0.0904554258023342
 40
0.0904554258023342
 40
0.0904554258023342
 40
0.0904554258023342
 10
6.804467244924001
 20
11.07288973837016
 30
0.0
 10
6.823922986091623
 20
11.06802495071583
 30
0.0
 10
6.843373409162706
 20
11.0632482804764
 30
0.0
 10
6.862818513916292
 20
11.05855972769368
 30
0.0
  0
LINE
  5
E5
330
1F
100
AcDbEntity
  8
0
  6
Continuous
 62
     7
370
    15
100
AcDbLine
 10
6.8044672449
 20
11.0728897384
 30
0.0
 11
7.1514162374
 21
12.9006941099
 31
0.0
  0
SPLINE
  5
E6
330
1F
100
AcDbEntity
  8
0
  6
Continuous
 62
     7
370
    15
100
AcDbSpline
210
0.0
220
0.0
230
1.0
 70
     8
 71
     3
 72
    11
 73
     7
 74
     0
 42
0.000000001
 43
0.00000001
 40
0.0085054791349621
 40
0.0085054791349621
 40
0.0085054791349621
 40
0.0085054791349621
 40
0.0843350435250587
 40
0.1828887367526277
 40
0.2512998869654065
 40
0.3620172714138796
 40
0.3620172714138796
 40
0.3620172714138796
 40
0.3620172714138796
 10
5.524331282408488
 20
11.5849667768308
 30
0.0
 10
5.693316276364185
 20
11.6355066493969
 30
0.0
 10
5.988081889875096
 20
11.84647172581316
 30
0.0
 10
6.215564791035495
 20
12.30574304146529
 30
0.0
 10
6.494948266803784
 20
12.85825417305811
 30
0.0
 10
6.90451750241686
 20
12.88143786943617
 30
0.0
 10
7.151416237416777
 20
12.90069410994363
 30
0.0
  0
ARC
  5
E7
330
1F
100
AcDbEntity
  8
0
  6
Continuous
 62
     7
370
    15
100
AcDbCircle
 10
5.5959658595
 20
11.3454495805
 30
0.0
 40
0.2499999999999969
100
AcDbArc
 50
106.65082264
 51
138.3440402903
  0
SPLINE
  5
E8
330
1F
100
AcDbEntity
  8
0
  6
Continuous
 62
     7
370
    15
100
AcDbSpline
210
0.0
220
0.0
230
1.0
 70
     8
 71
     3
 72
    18
 73
    14
 74
     0
 42
0.000000001
 43
0.00000001
 40
0.3716293398773123
 40
0.3716293398773123
 40
0.3716293398773123
 40
0.3716293398773123
 40
0.3729656469063367
 40
0.41498136388779
 40
0.4967060898928918
 40
0.5484464862840813
 40
0.5786866530735634
 40
0.5942620996731254
 40
0.6418126716312341
 40
0.7409342068262675
 40
0.901270828645345
 40
0.951710022814831
 40
0.9947910352212984
 40
0.9947910352212984
 40
0.9947910352212984
 40
0.9947910352212984
 10
6.261755503401071
 20
8.213763713735759
 30
0.0
 10
6.257106340696289
 20
8.21142437657796
 30
0.0
 10
6.106530747821334
 20
8.135360691329524
 30
0.0
 10
5.696225977549248
 20
7.909774851305395
 30
0.0
 10
5.046297728783239
 20
7.787706468157431
 30
0.0
 10
4.377509487357925
 20
7.778006723312026
 30
0.0
 10
4.137338982166582
 20
7.475427967299587
 30
0.0
 10
3.69568250678892
 20
7.466340328578154
 30
0.0
 10
4.303336323172831
 20
8.314159504592046
 30
0.0
 10
5.031956086857768
 20
8.753267684290421
 30
0.0
 10
5.73787390847709
 20
10.13337615659444
 30
0.0
 10
5.22886884701931
 20
11.00951984194755
 30
0.0
 10
5.268103549046834
 20
11.35302929937592
 30
0.0
 10
5.409178537107575
 20
11.5116136445032
 30
0.0
  0
LINE
  5
E9
330
1F
100
AcDbEntity
  8
0
  6
Continuous
 62
     7
370
    15
100
AcDbLine
 10
6.2617555034
 20
8.2137637137
 30
0.0
 11
6.6738676215
 21
10.3848619077
 31
0.0
  0
SPLINE
  5
EA
330
1F
100
AcDbEntity
  8
0
  6
Continuous
 62
     7
370
    15
100
AcDbSpline
210
0.0
220
0.0
230
1.0
 70
     8
 71
     3
 72
     8
 73
     4
 74
     0
 42
0.000000001
 43
0.00000001
 40
0.0890651121873785
 40
0.0890651121873785
 40
0.0890651121873785
 40
0.0890651121873785
 40
0.1011935087456426
 40
0.1011935087456426
 40
0.1011935087456426
 40
0.1011935087456426
 10
6.673867621471399
 20
10.38486190765899
 30
0.0
 10
6.693321111850035
 20
10.38000626539632
 30
0.0
 10
6.712772632903339
 20
10.37523538045284
 30
0.0
 10
6.732222184895
 20
10.37054925277856
 30
0.0
  0
LINE
  5
EB
330
1F
100
AcDbEntity
  8
0
  6
Continuous
 62
     7
370
    15
100
AcDbLine
 10
6.3290700738
 20
8.2466543662
 30
0.0
 11
6.7322221849
 21
10.3705492528
 31
0.0
  0
SPLINE
  5
EC
330
1F
100
AcDbEntity
  8
0
  6
Continuous
 62
     7
370
    15
100
AcDbSpline
210
0.0
220
0.0
230
1.0
 70
     8
 71
     3
 72
     8
 73
     4
 74
     0
 42
0.000000001
 43
0.00000001
 40
0.3469727379508095
 40
0.3469727379508095
 40
0.3469727379508095
 40
0.3469727379508095
 40
0.3652287513290646
 40
0.3652287513290646
 40
0.3652287513290646
 40
0.3652287513290646
 10
6.525691670339405
 20
8.317288241119169
 30
0.0
 10
6.459250094391338
 20
8.3032213941795
 30
0.0
 10
6.393531678497356
 20
8.27689480406113
 30
0.0
 10
6.329070073805725
 20
8.246654366205398
 30
0.0
  0
LINE
  5
ED
330
1F
100
AcDbEntity
  8
0
  6
Continuous
 62
     7
370
    15
100
AcDbLine
 10
6.5256916703
 20
8.3172882411
 30
0.0
 11
6.9078395823
 21
10.3305283403
 31
0.0
  0
SPLINE
  5
EE
330
1F
100
AcDbEntity
  8
0
  6
Continuous
 62
     7
370
    15
100
AcDbSpline
210
0.0
220
0.0
230
1.0
 70
     8
 71
     3
 72
     8
 73
     4
 74
     0
 42
0.000000001
 43
0.00000001
 40
0.1377086069169824
 40
0.1377086069169824
 40
0.1377086069169824
 40
0.1377086069169824
 40
0.1499239977409906
 40
0.1499239977409906
 40
0.1499239977409906
 40
0.1499239977409906
 10
6.907839582296007
 20
10.33052834031222
 30
0.0
 10
6.927416699162218
 20
10.3263226202432
 30
0.0
 10
6.94699181835237
 20
10.32220287774419
 30
0.0
 10
6.966564940130509
 20
10.31816911276508
 30
0.0
  0
LINE
  5
EF
330
1F
100
AcDbEntity
  8
0
  6
Continuous
 62
     7
370
    15
100
AcDbLine
 10
6.5885419322
 20
8.3266599246
 30
0.0
 11
6.9665649401
 21
10.3181691128
 31
0.0
  0
SPLINE
  5
F0
330
1F
100
AcDbEntity
  8
0
  6
Continuous
 62
     7
370
    15
100
AcDbSpline
210
0.0
220
0.0
230
1.0
 70
     8
 71
     3
 72
     9
 73
     5
 74
     0
 42
0.000000001
 43
0.00000001
 40
0.324957604285901
 40
0.324957604285901
 40
0.324957604285901
 40
0.324957604285901
 40
0.3388762999061148
 40
0.3412344398093716
 40
0.3412344398093716
 40
0.3412344398093716
 40
0.3412344398093716
 10
6.768388712664984
 20
8.308920341507317
 30
0.0
 10
6.716884407973517
 20
8.321129177667174
 30
0.0
 10
6.656836912843837
 20
8.330596011648922
 30
0.0
 10
6.59717614152401
 20
8.327374912345809
 30
0.0
 10
6.588541932232462
 20
8.32665992460106
 30
0.0
  0
LINE
  5
F1
330
1F
100
AcDbEntity
  8
0
  6
Continuous
 62
     7
370
    15
100
AcDbLine
 10
6.7683887127
 20
8.3089203415
 30
0.0
 11
7.1433067723
 21
10.2840719726
 31
0.0
  0
SPLINE
  5
F2
330
1F
100
AcDbEntity
  8
0
  6
Continuous
 62
     7
370
    15
100
AcDbSpline
210
0.0
220
0.0
230
1.0
 70
     8
 71
     3
 72
     8
 73
     4
 74
     0
 42
0.000000001
 43
0.00000001
 40
0.1867029062000506
 40
0.1867029062000506
 40
0.1867029062000506
 40
0.1867029062000506
 40
0.1990071905252129
 40
0.1990071905252129
 40
0.1990071905252129
 40
0.1990071905252129
 10
7.143306772331882
 20
10.28407197263452
 30
0.0
 10
7.163010214874837
 20
10.28053035467499
 30
0.0
 10
7.182711630562809
 20
10.2770759701855
 30
0.0
 10
7.202411019660156
 20
10.27370881911569
 30
0.0
  0
LINE
  5
F3
330
1F
100
AcDbEntity
  8
0
  6
Continuous
 62
     7
370
    15
100
AcDbLine
 10
6.8265658175
 20
8.2936727955
 30
0.0
 11
7.2024110197
 21
10.2737088191
 31
0.0
  0
SPLINE
  5
F4
330
1F
100
AcDbEntity
  8
0
  6
Continuous
 62
     7
370
    15
100
AcDbSpline
210
0.0
220
0.0
230
1.0
 70
     8
 71
     3
 72
     9
 73
     5
 74
     0
 42
0.000000001
 43
0.00000001
 40
0.3041291279186281
 40
0.3041291279186281
 40
0.3041291279186281
 40
0.3041291279186281
 40
0.3100479143210877
 40
0.3197223158856327
 40
0.3197223158856327
 40
0.3197223158856327
 40
0.3197223158856327
 10
7.000245379686835
 20
8.243442936465987
 30
0.0
 10
6.97825393788349
 20
8.249291349094435
 30
0.0
 10
6.92033087599855
 20
8.26552742318177
 30
0.0
 10
6.862433965254557
 20
8.283543834170327
 30
0.0
 10
6.826565817522964
 20
8.293672795483547
 30
0.0
  0
LINE
  5
F5
330
1F
100
AcDbEntity
  8
0
  6
Continuous
 62
     7
370
    15
100
AcDbLine
 10
7.0002453797
 20
8.2434429365
 30
0.0
 11
7.3803020155
 21
10.2456657285
 31
0.0
  0
SPLINE
  5
F6
330
1F
100
AcDbEntity
  8
0
  6
Continuous
 62
     7
370
    15
100
AcDbSpline
210
0.0
220
0.0
230
1.0
 70
     8
 71
     3
 72
     8
 73
     4
 74
     0
 42
0.000000001
 43
0.00000001
 40
0.2360557110572436
 40
0.2360557110572436
 40
0.2360557110572436
 40
0.2360557110572436
 40
0.2484508582457927
 40
0.2484508582457927
 40
0.2484508582457927
 40
0.2484508582457927
 10
7.380302015525928
 20
10.24566572847046
 30
0.0
 10
7.400134582605618
 20
10.24280291584634
 30
0.0
 10
7.419965092785948
 20
10.24002862982313
 30
0.0
 10
7.439793546332504
 20
10.23734287035526
 30
0.0
  0
LINE
  5
F7
330
1F
100
AcDbEntity
  8
0
  6
Continuous
 62
     7
370
    15
100
AcDbLine
 10
7.0585227637
 20
8.2287236833
 30
0.0
 11
7.4397935463
 21
10.2373428704
 31
0.0
  0
SPLINE
  5
F8
330
1F
100
AcDbEntity
  8
0
  6
Continuous
 62
     7
370
    15
100
AcDbSpline
210
0.0
220
0.0
230
1.0
 70
     8
 71
     3
 72
     8
 73
     4
 74
     0
 42
0.000000001
 43
0.00000001
 40
0.2830533764348884
 40
0.2830533764348884
 40
0.2830533764348884
 40
0.2830533764348884
 40
0.2989020648172778
 40
0.2989020648172778
 40
0.2989020648172778
 40
0.2989020648172778
 10
7.23543805533255
 20
8.195540365995836
 30
0.0
 10
7.176399295919672
 20
8.20323968415781
 30
0.0
 10
7.117437260103558
 20
8.214671277548891
 30
0.0
 10
7.058522763698707
 20
8.228723683299528
 30
0.0
  0
LINE
  5
F9
330
1F
100
AcDbEntity
  8
0
  6
Continuous
 62
     7
370
    15
100
AcDbLine
 10
7.2354380553
 20
8.195540366
 30
0.0
 11
7.6188593546
 21
10.2154889526
 31
0.0
  0
SPLINE
  5
FA
330
1F
100
AcDbEntity
  8
0
  6
Continuous
 62
     7
370
    15
100
AcDbSpline
210
0.0
220
0.0
230
1.0
 70
     8
 71
     3
 72
     8
 73
     4
 74
     0
 42
0.000000001
 43
0.00000001
 40
0.2857750084818166
 40
0.2857750084818166
 40
0.2857750084818166
 40
0.2857750084818166
 40
0.2982630616772534
 40
0.2982630616772534
 40
0.2982630616772534
 40
0.2982630616772534
 10
7.618859354628882
 20
10.21548895259396
 30
0.0
 10
7.638823949966573
 20
10.21332019929119
 30
0.0
 10
7.6587864575769
 20
10.21124130461958
 30
0.0
 10
7.67874687748573
 20
10.20925226857425
 30
0.0
  0
LINE
  5
FB
330
1F
100
AcDbEntity
  8
0
  6
Continuous
 62
     7
370
    15
100
AcDbLine
 10
7.2952792753
 20
8.1890597479
 30
0.0
 11
7.6787468775
 21
10.2092522686
 31
0.0
  0
SPLINE
  5
FC
330
1F
100
AcDbEntity
  8
0
  6
Continuous
 62
     7
370
    15
100
AcDbSpline
210
0.0
220
0.0
230
1.0
 70
     8
 71
     3
 72
     9
 73
     5
 74
     0
 42
0.000000001
 43
0.00000001
 40
0.2613832254605379
 40
0.2613832254605379
 40
0.2613832254605379
 40
0.2613832254605379
 40
0.2695583058634196
 40
0.2777011241899538
 40
0.2777011241899538
 40
0.2777011241899538
 40
0.2777011241899538
 10
7.478129658896081
 20
8.187143813775153
 30
0.0
 10
7.447526957336941
 20
8.185367366427345
 30
0.0
 10
7.386530059546985
 20
8.183435905542597
 30
0.0
 10
7.325640838865309
 20
8.18646425569614
 30
0.0
 10
7.295279275278653
 20
8.189059747977021
 30
0.0
  0
LINE
  5
FD
330
1F
100
AcDbEntity
  8
0
  6
Continuous
 62
     7
370
    15
100
AcDbLine
 10
7.4781296589
 20
8.1871438138
 30
0.0
 11
7.8590141155
 21
10.1937277497
 31
0.0
  0
SPLINE
  5
FE
330
1F
100
AcDbEntity
  8
0
  6
Continuous
 62
     7
370
    15
100
AcDbSpline
210
0.0
220
0.0
230
1.0
 70
     8
 71
     3
 72
     8
 73
     4
 74
     0
 42
0.000000001
 43
0.00000001
 40
0.3358690864165708
 40
0.3358690864165708
 40
0.3358690864165708
 40
0.3358690864165708
 40
0.3484521665480915
 40
0.3484521665480915
 40
0.3484521665480915
 40
0.3484521665480915
 10
7.859014115532421
 20
10.19372774965045
 30
0.0
 10
7.879113753411486
 20
10.19226888972416
 30
0.0
 10
7.899211271690595
 20
10.19090126117365
 30
0.0
 10
7.919306670353628
 20
10.18962486400197
 30
0.0
  0
LINE
  5
FF
330
1F
100
AcDbEntity
  8
0
  6
Continuous
 62
     7
370
    15
100
AcDbLine
 10
7.5400666061
 20
8.1917039526
 30
0.0
 11
7.9193066704
 21
10.189624864
 31
0.0
  0
SPLINE
  5
100
330
1F
100
AcDbEntity
  8
0
  6
Continuous
 62
     7
370
    15
100
AcDbSpline
210
0.0
220
0.0
230
1.0
 70
     8
 71
     3
 72
     8
 73
     4
 74
     0
 42
0.000000001
 43
0.00000001
 40
0.2393491598675267
 40
0.2393491598675267
 40
0.2393491598675267
 40
0.2393491598675267
 40
0.2558738255101362
 40
0.2558738255101362
 40
0.2558738255101362
 40
0.2558738255101362
 10
7.726866846960725
 20
8.210596743824054
 30
0.0
 10
7.664280689863797
 20
8.204596062072877
 30
0.0
 10
7.6020605462927
 20
8.197098026178844
 30
0.0
 10
7.540066606108899
 20
8.191703952568854
 30
0.0
  0
LINE
  5
101
330
1F
100
AcDbEntity
  8
0
  6
Continuous
 62
     7
370
    15
100
AcDbLine
 10
7.726866847
 20
8.2105967438
 30
0.0
 11
8.100802976
 21
10.1805753462
 31
0.0
  0
SPLINE
  5
102
330
1F
100
AcDbEntity
  8
0
  6
Continuous
 62
     7
370
    15
100
AcDbSpline
210
0.0
220
0.0
230
1.0
 70
     8
 71
     3
 72
     8
 73
     4
 74
     0
 42
0.000000001
 43
0.00000001
 40
0.3863465500843682
 40
0.3863465500843682
 40
0.3863465500843682
 40
0.3863465500843682
 40
0.3990268600148822
 40
0.3990268600148822
 40
0.3990268600148822
 40
0.3990268600148822
 10
8.10080297599938
 20
10.18057534624298
 30
0.0
 10
8.121040787154616
 20
10.17984282519548
 30
0.0
 10
8.141276445794045
 20
10.17920295087175
 30
0.0
 10
8.161509951966941
 20
10.17865572326241
 30
0.0
  0
LINE
  5
103
330
1F
100
AcDbEntity
  8
0
  6
Continuous
 62
     7
370
    15
100
AcDbLine
 10
7.7889483747
 20
8.215918565
 30
0.0
 11
8.161509952
 21
10.1786557233
 31
0.0
  0
SPLINE
  5
104
330
1F
100
AcDbEntity
  8
0
  6
Continuous
 62
     7
370
    15
100
AcDbSpline
210
0.0
220
0.0
230
1.0
 70
     8
 71
     3
 72
     9
 73
     5
 74
     0
 42
0.000000001
 43
0.00000001
 40
0.2178093607749893
 40
0.2178093607749893
 40
0.2178093607749893
 40
0.2178093607749893
 40
0.2314809975131807
 40
0.233896315478942
 40
0.233896315478942
 40
0.233896315478942
 40
0.233896315478942
 10
7.973354403538801
 20
8.222198115405073
 30
0.0
 10
7.921017700351319
 20
8.221781291737527
 30
0.0
 10
7.859370752677822
 20
8.220709690722519
 30
0.0
 10
7.798133775314477
 20
8.216593894328513
 30
0.0
 10
7.7889483747067
 20
8.215918564975633
 30
0.0
  0
LINE
  5
105
330
1F
100
AcDbEntity
  8
0
  6
Continuous
 62
     7
370
    15
100
AcDbLine
 10
7.9733544035
 20
8.2221981154
 30
0.0
 11
8.3442640392
 21
10.1762324784
 31
0.0
  0
SPLINE
  5
106
330
1F
100
AcDbEntity
  8
0
  6
Continuous
 62
     7
370
    15
100
AcDbSpline
210
0.0
220
0.0
230
1.0
 70
     8
 71
     3
 72
     8
 73
     4
 74
     0
 42
0.000000001
 43
0.00000001
 40
0.4372163390993052
 40
0.4372163390993052
 40
0.4372163390993052
 40
0.4372163390993052
 40
0.4499961681112537
 40
0.4499961681112537
 40
0.4499961681112537
 40
0.4499961681112537
 10
8.344264039218636
 20
10.17623247843566
 30
0.0
 10
8.36464327723484
 20
10.17624338675091
 30
0.0
 10
8.38502032871239
 20
10.17634840173753
 30
0.0
 10
8.40539519393557
 20
10.17654752334347
 30
0.0
  0
LINE
  5
107
330
1F
100
AcDbEntity
  8
0
  6
Continuous
 62
     7
370
    15
100
AcDbLine
 10
8.034494696
 20
8.2225612997
 30
0.0
 11
8.4053951939
 21
10.1765475233
 31
0.0
  0
SPLINE
  5
108
330
1F
100
AcDbEntity
  8
0
  6
Continuous
 62
     7
370
    15
100
AcDbSpline
210
0.0
220
0.0
230
1.0
 70
     8
 71
     3
 72
     8
 73
     4
 74
     0
 42
0.000000001
 43
0.00000001
 40
0.1963025753837213
 40
0.1963025753837213
 40
0.1963025753837213
 40
0.1963025753837213
 40
0.2124816090097668
 40
0.2124816090097668
 40
0.2124816090097668
 40
0.2124816090097668
 10
8.218576966208005
 20
8.227135217950106
 30
0.0
 10
8.15787119560704
 20
8.22348827569596
 30
0.0
 10
8.096316763333608
 20
8.222905421554087
 30
0.0
 10
8.03449469595554
 20
8.222561299726818
 30
0.0
  0
LINE
  5
109
330
1F
100
AcDbEntity
  8
0
  6
Continuous
 62
     7
370
    15
100
AcDbLine
 10
8.2185769662
 20
8.227135218
 30
0.0
 11
8.5894369124
 21
10.180907806
 31
0.0
  0
SPLINE
  5
10A
330
1F
100
AcDbEntity
  8
0
  6
Continuous
 62
     7
370
    15
100
AcDbSpline
210
0.0
220
0.0
230
1.0
 70
     8
 71
     3
 72
     8
 73
     4
 74
     0
 42
0.000000001
 43
0.00000001
 40
0.4884877458725159
 40
0.4884877458725159
 40
0.4884877458725159
 40
0.4884877458725159
 40
0.501369474519384
 40
0.501369474519384
 40
0.501369474519384
 40
0.501369474519384
 10
8.589436912427987
 20
10.18090780595646
 30
0.0
 10
8.60996096060193
 20
10.18167991514003
 30
0.0
 10
8.630482787210864
 20
10.18254763771276
 30
0.0
 10
8.65100239255578
 20
10.18351097361959
 30
0.0
  0
LINE
  5
10B
330
1F
100
AcDbEntity
  8
0
  6
Continuous
 62
     7
370
    15
100
AcDbLine
 10
8.2805849715
 20
8.2320697065
 30
0.0
 11
8.6510023926
 21
10.1835109736
 31
0.0
  0
SPLINE
  5
10C
330
1F
100
AcDbEntity
  8
0
  6
Continuous
 62
     7
370
    15
100
AcDbSpline
210
0.0
220
0.0
230
1.0
 70
     8
 71
     3
 72
     9
 73
     5
 74
     0
 42
0.000000001
 43
0.00000001
 40
0.1732940174165037
 40
0.1732940174165037
 40
0.1732940174165037
 40
0.1732940174165037
 40
0.1798047440271505
 40
0.1907653125766876
 40
0.1907653125766876
 40
0.1907653125766876
 40
0.1907653125766876
 10
8.470825288352849
 20
8.269085582442262
 30
0.0
 10
8.447764954301546
 20
8.26213713583452
 30
0.0
 10
8.385358129455472
 20
8.24569490311521
 30
0.0
 10
8.321270758950881
 20
8.236185417576463
 30
0.0
 10
8.28058497148408
 20
8.23206970649802
 30
0.0
  0
LINE
  5
10D
330
1F
100
AcDbEntity
  8
0
  6
Continuous
 62
     7
370
    15
100
AcDbLine
 10
8.4708252884
 20
8.2690855824
 30
0.0
 11
8.8363627919
 21
10.1948183597
 31
0.0
  0
SPLINE
  5
10E
330
1F
100
AcDbEntity
  8
0
  6
Continuous
 62
     7
370
    15
100
AcDbSpline
210
0.0
220
0.0
230
1.0
 70
     8
 71
     3
 72
     8
 73
     4
 74
     0
 42
0.000000001
 43
0.00000001
 40
0.5401704357592766
 40
0.5401704357592766
 40
0.5401704357592766
 40
0.5401704357592766
 40
0.5531565410602054
 40
0.5531565410602054
 40
0.5531565410602054
 40
0.5531565410602054
 10
8.836362791858031
 20
10.19481835970045
 30
0.0
 10
8.857035170560692
 20
10.19637016093208
 30
0.0
 10
8.877705291569002
 20
10.19801913131779
 30
0.0
 10
8.89837315515379
 20
10.19976527072885
 30
0.0
  0
LINE
  5
10F
330
1F
100
AcDbEntity
  8
0
  6
Continuous
 62
     7
370
    15
100
AcDbLine
 10
8.5360549964
 20
8.2909927166
 30
0.0
 11
8.8983731552
 21
10.1997652707
 31
0.0
  0
SPLINE
  5
110
330
1F
100
AcDbEntity
  8
0
  6
Continuous
 62
     7
370
    15
100
AcDbSpline
210
0.0
220
0.0
230
1.0
 70
     8
 71
     3
 72
     8
 73
     4
 74
     0
 42
0.000000001
 43
0.00000001
 40
0.1476708619220986
 40
0.1476708619220986
 40
0.1476708619220986
 40
0.1476708619220986
 40
0.1671083055552285
 40
0.1671083055552285
 40
0.1671083055552285
 40
0.1671083055552285
 10
8.736288000805287
 20
8.38065229047849
 30
0.0
 10
8.670301982128112
 20
8.347156061964082
 30
0.0
 10
8.603891459110296
 20
8.316014050032399
 30
0.0
 10
8.536054996359038
 20
8.290992716623443
 30
0.0
  0
LINE
  5
111
330
1F
100
AcDbEntity
  8
0
  6
Continuous
 62
     7
370
    15
100
AcDbLine
 10
8.7362880008
 20
8.3806522905
 30
0.0
 11
9.085084553
 21
10.2181900173
 31
0.0
  0
SPLINE
  5
112
330
1F
100
AcDbEntity
  8
0
  6
Continuous
 62
     7
370
    15
100
AcDbSpline
210
0.0
220
0.0
230
1.0
 70
     8
 71
     3
 72
     8
 73
     4
 74
     0
 42
0.000000001
 43
0.00000001
 40
0.5922744680112432
 40
0.5922744680112432
 40
0.5922744680112432
 40
0.5922744680112432
 40
0.6053675289927641
 40
0.6053675289927641
 40
0.6053675289927641
 40
0.6053675289927641
 10
9.085084552998659
 20
10.21819001727368
 30
0.0
 10
9.10590892761025
 20
10.22054076278255
 30
0.0
 10
9.126731007153106
 20
10.22299028457232
 30
0.0
 10
9.147550791968232
 20
10.2255385826303
 30
0.0
  0
LINE
  5
113
330
1F
100
AcDbEntity
  8
0
  6
Continuous
 62
     7
370
    15
100
AcDbLine
 10
8.80402551
 20
8.4157710787
 30
0.0
 11
9.147550792
 21
10.2255385826
 31
0.0
  0
SPLINE
  5
114
330
1F
100
AcDbEntity
  8
0
  6
Continuous
 62
     7
370
    15
100
AcDbSpline
210
0.0
220
0.0
230
1.0
 70
     8
 71
     3
 72
     8
 73
     4
 74
     0
 42
0.000000001
 43
0.00000001
 40
0.1210728579384421
 40
0.1210728579384421
 40
0.1210728579384421
 40
0.1210728579384421
 40
0.1410090058058653
 40
0.1410090058058653
 40
0.1410090058058653
 40
0.1410090058058653
 10
9.007353164358065
 20
8.521733956091625
 30
0.0
 10
8.938942442327047
 20
8.488003655672223
 30
0.0
 10
8.871526727907927
 20
8.451328072995318
 30
0.0
 10
8.804025509997869
 20
8.415771078754776
 30
0.0
  0
LINE
  5
115
330
1F
100
AcDbEntity
  8
0
  6
Continuous
 62
     7
370
    15
100
AcDbLine
 10
9.0073531644
 20
8.5217339561
 30
0.0
 11
9.3356468481
 21
10.2512580164
 31
0.0
  0
SPLINE
  5
116
330
1F
100
AcDbEntity
  8
0
  6
Continuous
 62
     7
370
    15
100
AcDbSpline
210
0.0
220
0.0
230
1.0
 70
     8
 71
     3
 72
     8
 73
     4
 74
     0
 42
0.000000001
 43
0.00000001
 40
0.644810318759821
 40
0.644810318759821
 40
0.644810318759821
 40
0.644810318759821
 40
0.6580130224107453
 40
0.6580130224107453
 40
0.6580130224107453
 40
0.6580130224107453
 10
9.335646848058616
 20
10.25125801643191
 30
0.0
 10
9.356627037403483
 20
10.25442776412109
 30
0.0
 10
9.377604893168506
 20
10.25769794935732
 30
0.0
 10
9.398580415521957
 20
10.26106857211665
 30
0.0
  0
LINE
  5
117
330
1F
100
AcDbEntity
  8
0
  6
Continuous
 62
     7
370
    15
100
AcDbLine
 10
9.0744688258
 20
8.553576712
 30
0.0
 11
9.3985804155
 21
10.2610685721
 31
0.0
  0
SPLINE
  5
118
330
1F
100
AcDbEntity
  8
0
  6
Continuous
 62
     7
370
    15
100
AcDbSpline
210
0.0
220
0.0
230
1.0
 70
     8
 71
     3
 72
     9
 73
     5
 74
     0
 42
0.000000001
 43
0.00000001
 40
0.0960113810780167
 40
0.0960113810780167
 40
0.0960113810780167
 40
0.0960113810780167
 40
0.10834283441012
 40
0.1145875744979975
 40
0.1145875744979975
 40
0.1145875744979975
 40
0.1145875744979975
 10
9.271838675929466
 20
8.628152553051253
 30
0.0
 10
9.227292691455611
 20
8.614592554640332
 30
0.0
 10
9.160982982471365
 20
8.591405028618096
 30
0.0
 10
9.09613619074186
 20
8.563407355162159
 30
0.0
 10
9.0744688258078
 20
8.553576712001968
 30
0.0
  0
LINE
  5
119
330
1F
100
AcDbEntity
  8
0
  6
Continuous
 62
     7
370
    15
100
AcDbLine
 10
9.2718386759
 20
8.6281525531
 30
0.0
 11
9.588096211
 21
10.2942675083
 31
0.0
  0
SPLINE
  5
11A
330
1F
100
AcDbEntity
  8
0
  6
Continuous
 62
     7
370
    15
100
AcDbSpline
210
0.0
220
0.0
230
1.0
 70
     8
 71
     3
 72
     8
 73
     4
 74
     0
 42
0.000000001
 43
0.00000001
 40
0.6977889055760839
 40
0.6977889055760839
 40
0.6977889055760839
 40
0.6977889055760839
 40
0.7111040533512796
 40
0.7111040533512796
 40
0.7111040533512796
 40
0.7111040533512796
 10
9.588096210980941
 20
10.29426750832513
 30
0.0
 10
9.60923619658364
 20
10.29827716979638
 30
0.0
 10
9.630373808659403
 20
10.30238898682168
 30
0.0
 10
9.651509047436964
 20
10.30660295953901
 30
0.0
  0
LINE
  5
11B
330
1F
100
AcDbEntity
  8
0
  6
Continuous
 62
     7
370
    15
100
AcDbLine
 10
9.3363844605
 20
8.6464566267
 30
0.0
 11
9.6515090474
 21
10.3066029595
 31
0.0
  0
SPLINE
  5
11C
330
1F
100
AcDbEntity
  8
0
  6
Continuous
 62
     7
370
    15
100
AcDbSpline
210
0.0
220
0.0
230
1.0
 70
     8
 71
     3
 72
     8
 73
     4
 74
     0
 42
0.000000001
 43
0.00000001
 40
0.0728815211742902
 40
0.0728815211742902
 40
0.0728815211742902
 40
0.0728815211742902
 40
0.090087912222565
 40
0.090087912222565
 40
0.090087912222565
 40
0.090087912222565
 10
9.527295782429594
 20
8.687007506196169
 30
0.0
 10
9.46295323772281
 20
8.676270051711303
 30
0.0
 10
9.399210071374936
 20
8.663013066438149
 30
0.0
 10
9.336384460519316
 20
8.646456626732883
 30
0.0
  0
LINE
  5
11D
330
1F
100
AcDbEntity
  8
0
  6
Continuous
 62
     7
370
    15
100
AcDbLine
 10
9.5272957824
 20
8.6870075063
 30
0.0
 11
9.8424811701
 21
10.3474741511
 31
0.0
  0
SPLINE
  5
11E
330
1F
100
AcDbEntity
  8
0
  6
Continuous
 62
     7
370
    15
100
AcDbSpline
210
0.0
220
0.0
230
1.0
 70
     8
 71
     3
 72
     8
 73
     4
 74
     0
 42
0.000000001
 43
0.00000001
 40
0.7512216140011264
 40
0.7512216140011264
 40
0.7512216140011264
 40
0.7512216140011264
 40
0.7646521286893736
 40
0.7646521286893736
 40
0.7646521286893736
 40
0.7646521286893736
 10
9.84248117011734
 20
10.34747415109136
 30
0.0
 10
9.863785105951095
 20
10.35234554338377
 30
0.0
 10
9.88508662698283
 20
10.35732086924254
 30
0.0
 10
9.906385733415899
 20
10.36240012855507
 30
0.0
  0
LINE
  5
11F
330
1F
100
AcDbEntity
  8
0
  6
Continuous
 62
     7
370
    15
100
AcDbLine
 10
9.590207849
 20
8.6967047907
 30
0.0
 11
9.9063857334
 21
10.3624001286
 31
0.0
  0
SPLINE
  5
120
330
1F
100
AcDbEntity
  8
0
  6
Continuous
 62
     7
370
    15
100
AcDbSpline
210
0.0
220
0.0
230
1.0
 70
     8
 71
     3
 72
     8
 73
     4
 74
     0
 42
0.000000001
 43
0.00000001
 40
0.0507933389354955
 40
0.0507933389354955
 40
0.0507933389354955
 40
0.0507933389354955
 40
0.0672895256493675
 40
0.0672895256493675
 40
0.0672895256493675
 40
0.0672895256493675
 10
9.777379260579151
 20
8.717552991671054
 30
0.0
 10
9.714719837305623
 20
8.712228258963913
 30
0.0
 10
9.652235906083023
 20
8.705507951829244
 30
0.0
 10
9.590207849014375
 20
8.696704790734579
 30
0.0
  0
LINE
  5
121
330
1F
100
AcDbEntity
  8
0
  6
Continuous
 62
     7
370
    15
100
AcDbLine
 10
9.7773792606
 20
8.7175529917
 30
0.0
 11
10.0988523702
 21
10.4111447525
 31
0.0
  0
SPLINE
  5
122
330
1F
100
AcDbEntity
  8
0
  6
Continuous
 62
     7
370
    15
100
AcDbSpline
210
0.0
220
0.0
230
1.0
 70
     8
 71
     3
 72
     8
 73
     4
 74
     0
 42
0.000000001
 43
0.00000001
 40
0.805120326094374
 40
0.805120326094374
 40
0.805120326094374
 40
0.805120326094374
 40
0.8186692593831414
 40
0.8186692593831414
 40
0.8186692593831414
 40
0.8186692593831414
 10
10.09885237022016
 20
10.41114475253734
 30
0.0
 10
10.12032459347364
 20
10.41690065400953
 30
0.0
 10
10.14179435910622
 20
10.42276232988691
 30
0.0
 10
10.16326166738231
 20
10.42872978012745
 30
0.0
  0
LINE
  5
123
330
1F
100
AcDbEntity
  8
0
  6
Continuous
 62
     7
370
    15
100
AcDbLine
 10
9.8393681419
 20
8.7223867309
 30
0.0
 11
10.1632616674
 21
10.4287297801
 31
0.0
  0
SPLINE
  5
124
330
1F
100
AcDbEntity
  8
0
  6
Continuous
 62
     7
370
    15
100
AcDbSpline
210
0.0
220
0.0
230
1.0
 70
     8
 71
     3
 72
     8
 73
     4
 74
     0
 42
0.000000001
 43
0.00000001
 40
0.0
 40
0.0
 40
0.0
 40
0.0
 40
0.045357590202391
 40
0.045357590202391
 40
0.045357590202391
 40
0.045357590202391
 10
10.35298876705395
 20
8.747108792098906
 30
0.0
 10
10.1850392278753
 20
8.738182282299665
 30
0.0
 10
10.01188955208191
 20
8.734703836401899
 30
0.0
 10
9.839368141920124
 20
8.722386730938695
 30
0.0
  0
LINE
  5
125
330
1F
100
AcDbEntity
  8
0
  6
Continuous
 62
     7
370
    15
100
AcDbLine
 10
10.3529887671
 20
8.7471087921
 30
0.0
 11
10.4401517649
 21
9.2063028291
 31
0.0
  0
LINE
  5
126
330
1F
100
AcDbEntity
  8
0
  6
Continuous
 62
     7
370
    15
100
AcDbLine
 10
10.4401517649
 20
9.2063028291
 30
0.0
 11
10.3173445971
 21
9.229613761
 31
0.0
  0
LINE
  5
127
330
1F
100
AcDbEntity
  8
0
  6
Continuous
 62
     7
370
    15
100
AcDbLine
 10
10.3173445971
 20
9.229613761
 30
0.0
 11
10.4572101882
 21
9.9664567676
 31
0.0
  0
LINE
  5
128
330
1F
100
AcDbEntity
  8
0
  6
Continuous
 62
     7
370
    15
100
AcDbLine
 10
10.4572101882
 20
9.9664567676
 30
0.0
 11
10.580017356
 21
9.9431458358
 31
0.0
  0
LINE
  5
129
330
1F
100
AcDbEntity
  8
0
  6
Continuous
 62
     7
370
    15
100
AcDbLine
 10
10.580017356
 20
9.9431458358
 30
0.0
 11
10.7645280083
 21
10.9151889436
 31
0.0
  0
LINE
  5
12A
330
1F
100
AcDbEntity
  8
0
  6
Continuous
 62
     7
370
    15
100
AcDbLine
 10
10.6417208405
 20
10.9384998755
 30
0.0
 11
10.7645280083
 21
10.9151889436
 31
0.0
  0
LINE
  5
12B
330
1F
100
AcDbEntity
  8
0
  6
Continuous
 62
     7
370
    15
100
AcDbLine
 10
10.6417208405
 20
10.9384998755
 30
0.0
 11
10.7815864316
 21
11.6753428821
 31
0.0
  0
LINE
  5
12C
330
1F
100
AcDbEntity
  8
0
  6
Continuous
 62
     7
370
    15
100
AcDbLine
 10
10.7815864316
 20
11.6753428821
 30
0.0
 11
10.9043935994
 21
11.6520319503
 31
0.0
  0
LINE
  5
12D
330
1F
100
AcDbEntity
  8
0
  6
Continuous
 62
     7
370
    15
100
AcDbLine
 10
10.9043935994
 20
11.6520319503
 30
0.0
 11
11.0758819456
 21
12.5554706564
 31
0.0
  0
SPLINE
  5
12E
330
1F
100
AcDbEntity
  8
0
  6
Continuous
 62
     7
370
    15
100
AcDbSpline
210
0.0
220
0.0
230
1.0
 70
     8
 71
     3
 72
     8
 73
     4
 74
     0
 42
0.000000001
 43
0.00000001
 40
0.9201952157385661
 40
0.9201952157385661
 40
0.9201952157385661
 40
0.9201952157385661
 40
1.0
 40
1.0
 40
1.0
 40
1.0
 10
10.58512558798998
 20
12.65120263630954
 30
0.0
 10
10.74420388973041
 20
12.59473649514091
 30
0.0
 10
10.90666591506934
 20
12.55548458860735
 30
0.0
 10
11.07588194557738
 20
12.55547065644914
 30
0.0
  0
LINE
  5
12F
330
1F
100
AcDbEntity
  8
0
  6
Continuous
 62
     7
370
    15
100
AcDbLine
 10
10.3031219024
 20
11.1655445701
 30
0.0
 11
10.585125588
 21
12.6512026363
 31
0.0
  0
LINE
  5
130
330
1F
100
AcDbEntity
  8
0
  6
Continuous
 62
     7
370
    15
100
AcDbLine
 10
9.7516122785
 20
8.9035442648
 30
0.0
 11
10.4355944719
 21
12.5069144147
 31
0.0
  0
SPLINE
  5
131
330
1F
100
AcDbEntity
  8
0
  6
Continuous
 62
     7
370
    15
100
AcDbSpline
210
0.0
220
0.0
230
1.0
 70
     8
 71
     3
 72
     8
 73
     4
 74
     0
 42
0.000000001
 43
0.00000001
 40
0.0
 40
0.0
 40
0.0
 40
0.0
 40
1.0
 40
1.0
 40
1.0
 40
1.0
 10
9.751612278503528
 20
8.903544264785774
 30
0.0
 10
9.73039018158256
 20
8.901692116325227
 30
0.0
 10
9.709659232136175
 20
8.899722688732442
 30
0.0
 10
9.689419430164376
 20
8.897635982007412
 30
0.0
  0
LINE
  5
132
330
1F
100
AcDbEntity
  8
0
  6
Continuous
 62
     7
370
    15
100
AcDbLine
 10
9.6894194302
 20
8.897635982
 30
0.0
 11
10.3788361633
 21
12.5296364949
 31
0.0
  0
SPLINE
  5
133
330
1F
100
AcDbEntity
  8
0
  6
Continuous
 62
     7
370
    15
100
AcDbSpline
210
0.0
220
0.0
230
1.0
 70
     8
 71
     3
 72
     8
 73
     4
 74
     0
 42
0.000000001
 43
0.00000001
 40
0.0
 40
0.0
 40
0.0
 40
0.0
 40
1.0
 40
1.0
 40
1.0
 40
1.0
 10
10.37883616331378
 20
12.52963649491023
 30
0.0
 10
10.39829509889428
 20
12.52166626593513
 30
0.0
 10
10.41721453507512
 20
12.5140922391944
 30
0.0
 10
10.43559447185631
 20
12.50691441468805
 30
0.0
  0
LINE
  5
134
330
1F
100
AcDbEntity
  8
0
  6
Continuous
 62
     7
370
    15
100
AcDbLine
 10
9.4382878004
 20
8.8615686011
 30
0.0
 11
10.1531508466
 21
12.6276259443
 31
0.0
  0
SPLINE
  5
135
330
1F
100
AcDbEntity
  8
0
  6
Continuous
 62
     7
370
    15
100
AcDbSpline
210
0.0
220
0.0
230
1.0
 70
    24
 71
     3
 72
     8
 73
     4
 74
     0
 42
0.000000001
 43
0.00000001
 40
0.0
 40
0.0
 40
0.0
 40
0.0
 40
1.0
 40
1.0
 40
1.0
 40
1.0
 10
10.15315084657964
 20
12.62762594430871
 30
0.0
 10
10.1719170267525
 20
12.61924453087012
 30
0.0
 10
10.19068320692535
 20
12.61086311743154
 30
0.0
 10
10.20944938709821
 20
12.60248170399295
 30
0.0
  0
LINE
  5
136
330
1F
100
AcDbEntity
  8
0
  6
Continuous
 62
     7
370
    15
100
AcDbLine
 10
9.5014891774
 20
8.872790037
 30
0.0
 11
10.2094493871
 21
12.602481704
 31
0.0
  0
SPLINE
  5
137
330
1F
100
AcDbEntity
  8
0
  6
Continuous
 62
     7
370
    15
100
AcDbSpline
210
0.0
220
0.0
230
1.0
 70
     8
 71
     3
 72
     8
 73
     4
 74
     0
 42
0.000000001
 43
0.00000001
 40
0.0
 40
0.0
 40
0.0
 40
0.0
 40
1.0
 40
1.0
 40
1.0
 40
1.0
 10
9.50148917740749
 20
8.872790037001996
 30
0.0
 10
9.480045622888843
 20
8.869254840339908
 30
0.0
 10
9.458978497218252
 20
8.865514361712188
 30
0.0
 10
9.438287800395718
 20
8.86156860111884
 30
0.0
  0
LINE
  5
138
330
1F
100
AcDbEntity
  8
0
  6
Continuous
 62
     7
370
    15
100
AcDbLine
 10
9.2464575401
 20
8.81617655
 30
0.0
 11
9.9841785384
 21
12.7026546628
 31
0.0
  0
SPLINE
  5
139
330
1F
100
AcDbEntity
  8
0
  6
Continuous
 62
     7
370
    15
100
AcDbSpline
210
0.0
220
0.0
230
1.0
 70
     8
 71
     3
 72
     8
 73
     4
 74
     0
 42
0.000000001
 43
0.00000001
 40
0.0
 40
0.0
 40
0.0
 40
0.0
 40
1.0
 40
1.0
 40
1.0
 40
1.0
 10
9.246457540112356
 20
8.816176550027784
 30
0.0
 10
9.22450841256605
 20
8.809871650997087
 30
0.0
 10
9.202893395153087
 20
8.803244756949443
 30
0.0
 10
9.181612487873462
 20
8.796295867884853
 30
0.0
  0
LINE
  5
13A
330
1F
100
AcDbEntity
  8
0
  6
Continuous
 62
     7
370
    15
100
AcDbLine
 10
9.1816124879
 20
8.7962958679
 30
0.0
 11
9.9276783579
 21
12.7267366193
 31
0.0
  0
SPLINE
  5
13B
330
1F
100
AcDbEntity
  8
0
  6
Continuous
 62
     7
370
    15
100
AcDbSpline
210
0.0
220
0.0
230
1.0
 70
     8
 71
     3
 72
     8
 73
     4
 74
     0
 42
0.000000001
 43
0.00000001
 40
0.0
 40
0.0
 40
0.0
 40
0.0
 40
1.0
 40
1.0
 40
1.0
 40
1.0
 10
9.927678357927256
 20
12.7267366193243
 30
0.0
 10
9.945395592306678
 20
12.71932265528376
 30
0.0
 10
9.96422898578184
 20
12.71129533645402
 30
0.0
 10
9.984178538352745
 20
12.70265466283509
 30
0.0
  0
ENDSEC
  0
SECTION
  2
OBJECTS
  0
DICTIONARY
  5
C
330
0
100
AcDbDictionary
281
     1
  3
ACAD_GROUP
350
D
  3
ACAD_LAYOUT
350
1A
  3
ACAD_MLINESTYLE
350
17
  3
ACAD_PLOTSETTINGS
350
19
  3
ACAD_PLOTSTYLENAME
350
E
  3
ACAD_SCALELIST
350
47
  0
DICTIONARY
  5
D
102
{ACAD_REACTORS
330
C
102
}
330
C
100
AcDbDictionary
281
     1
  0
DICTIONARY
  5
1A
102
{ACAD_REACTORS
330
C
102
}
330
C
100
AcDbDictionary
281
     1
  3
Layout1
350
1E
  3
Layout2
350
26
  3
Model
350
22
  0
DICTIONARY
  5
17
102
{ACAD_REACTORS
330
C
102
}
330
C
100
AcDbDictionary
281
     1
  3
Standard
350
18
  0
DICTIONARY
  5
19
102
{ACAD_REACTORS
330
C
102
}
330
C
100
AcDbDictionary
281
     1
  0
ACDBDICTIONARYWDFLT
  5
E
102
{ACAD_REACTORS
330
C
102
}
330
C
100
AcDbDictionary
281
     1
  3
Normal
350
F
100
AcDbDictionaryWithDefault
340
F
  0
DICTIONARY
  5
47
102
{ACAD_REACTORS
330
C
102
}
330
C
100
AcDbDictionary
281
     1
  3
A0
350
48
  3
A1
350
49
  3
A2
350
4A
  3
A3
350
4B
  3
A4
350
4C
  3
A5
350
4D
  3
A6
350
4E
  3
A7
350
4F
  3
A8
350
50
  3
A9
350
51
  3
B0
350
52
  3
B1
350
53
  3
B2
350
54
  3
B3
350
55
  3
B4
350
56
  3
B5
350
57
  3
B6
350
58
  3
B7
350
59
  3
B8
350
5A
  3
B9
350
5B
  3
C0
350
5C
  3
C1
350
5D
  3
C2
350
5E
  3
C3
350
5F
  3
C4
350
60
  3
C5
350
61
  3
C6
350
62
  3
C7
350
63
  3
C8
350
64
  3
C9
350
65
  3
D0
350
66
  3
D1
350
67
  3
D2
350
68
  0
LAYOUT
  5
1E
102
{ACAD_REACTORS
330
1A
102
}
330
1A
100
AcDbPlotSettings
  1

  2
none_device
  4

  6

 40
0.0
 41
0.0
 42
0.0
 43
0.0
 44
0.0
 45
0.0
 46
0.0
 47
0.0
 48
0.0
 49
0.0
140
0.0
141
0.0
142
1.0
143
1.0
 70
   688
 72
     0
 73
     0
 74
     5
  7

 75
    16
147
1.0
148
0.0
149
0.0
100
AcDbLayout
  1
Layout1
 70
     1
 71
     1
 10
0.0
 20
0.0
 11
12.0
 21
9.0
 12
0.0
 22
0.0
 32
0.0
 14
1.0000000000E+20
 24
1.0000000000E+20
 34
1.0000000000E+20
 15
-1.0000000000E+20
 25
-1.0000000000E+20
 35
-1.0000000000E+20
146
0.0
 13
0.0
 23
0.0
 33
0.0
 16
1.0
 26
0.0
 36
0.0
 17
0.0
 27
1.0
 37
0.0
 76
     0
330
1B
  0
LAYOUT
  5
26
102
{ACAD_REACTORS
330
1A
102
}
330
1A
100
AcDbPlotSettings
  1

  2
none_device
  4

  6

 40
0.0
 41
0.0
 42
0.0
 43
0.0
 44
0.0
 45
0.0
 46
0.0
 47
0.0
 48
0.0
 49
0.0
140
0.0
141
0.0
142
1.0
143
1.0
 70
   688
 72
     0
 73
     0
 74
     5
  7

 75
    16
147
1.0
148
0.0
149
0.0
100
AcDbLayout
  1
Layout2
 70
     1
 71
     2
 10
0.0
 20
0.0
 11
0.0
 21
0.0
 12
0.0
 22
0.0
 32
0.0
 14
0.0
 24
0.0
 34
0.0
 15
0.0
 25
0.0
 35
0.0
146
0.0
 13
0.0
 23
0.0
 33
0.0
 16
1.0
 26
0.0
 36
0.0
 17
0.0
 27
1.0
 37
0.0
 76
     0
330
23
  0
LAYOUT
  5
22
102
{ACAD_REACTORS
330
1A
102
}
330
1A
100
AcDbPlotSettings
  1

  2
none_device
  4
ANSI_A_(11.00_x_8.50_Inches)
  6

 40
6.35
 41
19.05
 42
6.35000508
 43
19.05000254
 44
279.4
 45
215.9
 46
-151.5766570335
 47
-303.3619682788
 48
0.0
 49
0.0
140
0.0
141
0.0
142
1.5044025302
143
1.0
 70
  1696
 72
     0
 73
     0
 74
     0
  7

 75
     0
147
0.5913241897
148
-39.4088153714
149
0.0
100
AcDbLayout
  1
Model
 70
     1
 71
     0
 10
0.0
 20
0.0
 11
12.0
 21
9.0
 12
0.0
 22
0.0
 32
0.0
 14
3.8371278344
 24
7.4764080571
 34
0.0
 15
11.0758819456
 25
13.0545126485
 35
0.0
146
0.0
 13
0.0
 23
0.0
 33
0.0
 16
1.0
 26
0.0
 36
0.0
 17
0.0
 27
1.0
 37
0.0
 76
     0
330
1F
331
29
  0
MLINESTYLE
  5
18
102
{ACAD_REACTORS
330
17
102
}
330
17
100
AcDbMlineStyle
  2
Standard
 70
     0
  3

 62
   256
 51
90.0
 52
90.0
 71
     2
 49
0.5
 62
   256
  6
BYLAYER
 49
-0.5
 62
   256
  6
BYLAYER
  0
ACDBPLACEHOLDER
  5
F
102
{ACAD_REACTORS
330
E
102
}
330
E
  0
SCALE
  5
48
102
{ACAD_REACTORS
330
47
102
}
330
47
100
AcDbScale
 70
     0
300
1:1
140
1.0
141
1.0
290
     1
  0
SCALE
  5
49
102
{ACAD_REACTORS
330
47
102
}
330
47
100
AcDbScale
 70
     0
300
1:2
140
1.0
141
2.0
290
     0
  0
SCALE
  5
4A
102
{ACAD_REACTORS
330
47
102
}
330
47
100
AcDbScale
 70
     0
300
1:4
140
1.0
141
4.0
290
     0
  0
SCALE
  5
4B
102
{ACAD_REACTORS
330
47
102
}
330
47
100
AcDbScale
 70
     0
300
1:5
140
1.0
141
5.0
290
     0
  0
SCALE
  5
4C
102
{ACAD_REACTORS
330
47
102
}
330
47
100
AcDbScale
 70
     0
300
1:8
140
1.0
141
8.0
290
     0
  0
SCALE
  5
4D
102
{ACAD_REACTORS
330
47
102
}
330
47
100
AcDbScale
 70
     0
300
1:10
140
1.0
141
10.0
290
     0
  0
SCALE
  5
4E
102
{ACAD_REACTORS
330
47
102
}
330
47
100
AcDbScale
 70
     0
300
1:16
140
1.0
141
16.0
290
     0
  0
SCALE
  5
4F
102
{ACAD_REACTORS
330
47
102
}
330
47
100
AcDbScale
 70
     0
300
1:20
140
1.0
141
20.0
290
     0
  0
SCALE
  5
50
102
{ACAD_REACTORS
330
47
102
}
330
47
100
AcDbScale
 70
     0
300
1:30
140
1.0
141
30.0
290
     0
  0
SCALE
  5
51
102
{ACAD_REACTORS
330
47
102
}
330
47
100
AcDbScale
 70
     0
300
1:40
140
1.0
141
40.0
290
     0
  0
SCALE
  5
52
102
{ACAD_REACTORS
330
47
102
}
330
47
100
AcDbScale
 70
     0
300
1:50
140
1.0
141
50.0
290
     0
  0
SCALE
  5
53
102
{ACAD_REACTORS
330
47
102
}
330
47
100
AcDbScale
 70
     0
300
1:100
140
1.0
141
100.0
290
     0
  0
SCALE
  5
54
102
{ACAD_REACTORS
330
47
102
}
330
47
100
AcDbScale
 70
     0
300
2:1
140
2.0
141
1.0
290
     0
  0
SCALE
  5
55
102
{ACAD_REACTORS
330
47
102
}
330
47
100
AcDbScale
 70
     0
300
4:1
140
4.0
141
1.0
290
     0
  0
SCALE
  5
56
102
{ACAD_REACTORS
330
47
102
}
330
47
100
AcDbScale
 70
     0
300
8:1
140
8.0
141
1.0
290
     0
  0
SCALE
  5
57
102
{ACAD_REACTORS
330
47
102
}
330
47
100
AcDbScale
 70
     0
300
10:1
140
10.0
141
1.0
290
     0
  0
SCALE
  5
58
102
{ACAD_REACTORS
330
47
102
}
330
47
100
AcDbScale
 70
     0
300
100:1
140
100.0
141
1.0
290
     0
  0
SCALE
  5
59
102
{ACAD_REACTORS
330
47
102
}
330
47
100
AcDbScale
 70
     0
300
1/128" = 1'-0"
140
0.0078125
141
12.0
290
     0
  0
SCALE
  5
5A
102
{ACAD_REACTORS
330
47
102
}
330
47
100
AcDbScale
 70
     0
300
1/64" = 1'-0"
140
0.015625
141
12.0
290
     0
  0
SCALE
  5
5B
102
{ACAD_REACTORS
330
47
102
}
330
47
100
AcDbScale
 70
     0
300
1/32" = 1'-0"
140
0.03125
141
12.0
290
     0
  0
SCALE
  5
5C
102
{ACAD_REACTORS
330
47
102
}
330
47
100
AcDbScale
 70
     0
300
1/16" = 1'-0"
140
0.0625
141
12.0
290
     0
  0
SCALE
  5
5D
102
{ACAD_REACTORS
330
47
102
}
330
47
100
AcDbScale
 70
     0
300
3/32" = 1'-0"
140
0.09375
141
12.0
290
     0
  0
SCALE
  5
5E
102
{ACAD_REACTORS
330
47
102
}
330
47
100
AcDbScale
 70
     0
300
1/8" = 1'-0"
140
0.125
141
12.0
290
     0
  0
SCALE
  5
5F
102
{ACAD_REACTORS
330
47
102
}
330
47
100
AcDbScale
 70
     0
300
3/16" = 1'-0"
140
0.1875
141
12.0
290
     0
  0
SCALE
  5
60
102
{ACAD_REACTORS
330
47
102
}
330
47
100
AcDbScale
 70
     0
300
1/4" = 1'-0"
140
0.25
141
12.0
290
     0
  0
SCALE
  5
61
102
{ACAD_REACTORS
330
47
102
}
330
47
100
AcDbScale
 70
     0
300
3/8" = 1'-0"
140
0.375
141
12.0
290
     0
  0
SCALE
  5
62
102
{ACAD_REACTORS
330
47
102
}
330
47
100
AcDbScale
 70
     0
300
1/2" = 1'-0"
140
0.5
141
12.0
290
     0
  0
SCALE
  5
63
102
{ACAD_REACTORS
330
47
102
}
330
47
100
AcDbScale
 70
     0
300
3/4" = 1'-0"
140
0.75
141
12.0
290
     0
  0
SCALE
  5
64
102
{ACAD_REACTORS
330
47
102
}
330
47
100
AcDbScale
 70
     0
300
1" = 1'-0"
140
1.0
141
12.0
290
     0
  0
SCALE
  5
65
102
{ACAD_REACTORS
330
47
102
}
330
47
100
AcDbScale
 70
     0
300
1-1/2" = 1'-0"
140
1.5
141
12.0
290
     0
  0
SCALE
  5
66
102
{ACAD_REACTORS
330
47
102
}
330
47
100
AcDbScale
 70
     0
300
3" = 1'-0"
140
3.0
141
12.0
290
     0
  0
SCALE
  5
67
102
{ACAD_REACTORS
330
47
102
}
330
47
100
AcDbScale
 70
     0
300
6" = 1'-0"
140
6.0
141
12.0
290
     0
  0
SCALE
  5
68
102
{ACAD_REACTORS
330
47
102
}
330
47
100
AcDbScale
 70
     0
300
1'-0" = 1'-0"
140
12.0
141
12.0
290
     0
  0
ENDSEC
  0
EOF
